<?xml version="1.0" encoding="UTF-8"?>
<svg id="Layer_2" data-name="Layer 2" xmlns="http://www.w3.org/2000/svg" xmlns:xlink="http://www.w3.org/1999/xlink" viewBox="0 0 140.77 163.72">
  <defs>
    <style>
      .cls-1 {
        mask: url(#mask);
      }

      .cls-2 {
        fill: #fff;
      }

      .cls-3 {
        fill: #ff641d;
      }
    </style>
    <mask id="mask" x="-51.11" y="-41.06" width="243.23" height="241.03" maskUnits="userSpaceOnUse">
      <path class="cls-2" d="M95.08-29.38c-1.47,1.49-2.95,2.98-4.42,4.48-.54.58-1.08,1.17-1.61,1.75-.57.68-1.14,1.36-1.7,2.05-1.15,1.41-2.29,2.82-3.44,4.23-1.48,2.11-3.35,4.06-4.97,6.23-.99,1.09-1.99,2.18-2.98,3.26-1.11,1.48-2.48,2.84-3.98,4.27-.51.49-1.02.97-1.53,1.46-1.1.96-2.2,1.92-3.29,2.88-3.57,2.46-6.74,6.3-10.37,8.67-1.7,1.16-3.4,2.32-5.1,3.48-.68.54-1.36,1.09-2.04,1.63-.99.67-2.48,1.69-2.99,2.42.03.13.07.25.1.38.06.03.13.06.19.09,1.67-.88,3.23-2.24,5.02-3.41,2.46-1.61,4.67-3.37,7.22-5.09,1.42-1.23,2.84-2.46,4.26-3.69,1.55-1.25,3.1-2.49,4.64-3.74.43-.39.85-.77,1.27-1.16,2.74-1.88,6.31-5.5,8.05-7.89,1.05-1.14,2.1-2.28,3.15-3.42,2.52-3.17,5.05-6.33,7.57-9.5,1.18-1.32,2.36-2.64,3.54-3.96.56-.57,1.13-1.15,1.69-1.72.74-.74,1.48-1.48,2.22-2.22,1.18-1.35,2.36-2.71,3.54-4.06,1.03-1.35,2.06-2.7,3.08-4.05l-1-1.05c-.97,1.3-1.95,2.59-2.92,3.89-1.07,1.27-2.14,2.53-3.21,3.8ZM99.07-25.24c-.43.44-.85.88-1.28,1.33-2.05,2.69-5.18,4.89-7.07,7.53-.84,1.05-1.68,2.09-2.51,3.14-3.16,4.49-7.44,9.25-12.06,13.62-1.14,1.08-2.38,2.07-3.57,2.87-.8.66-1.6,1.32-2.41,1.98-1.57,1.04-3.05,2.15-4.55,3.12-1.39.89-2.54,2.07-3.98,3.05-1.21.82-2.29,1.89-3.48,2.57-.46.27-1.51.65-1.79,1.18-.12.3.16.43.4.47,1.03-.51,2.15-.94,3.27-1.63,2.18-1.35,4.07-3.33,6.16-4.65,1.5-.95,2.97-1.94,4.52-2.98.79-.65,1.59-1.3,2.38-1.95,2.07-1.39,5.39-4.09,7.09-6.34.93-.91,1.87-1.82,2.8-2.73.71-.79,1.43-1.57,2.14-2.36,2.11-2.7,4.21-5.39,6.32-8.09l1.9-2.18c2.02-2.69,5.25-4.88,7.28-7.58.97-1.17,1.94-2.34,2.9-3.51.88-1.15,1.76-2.31,2.64-3.46l-1.03-1.08-2.22,2.95c-1.28,1.58-2.57,3.16-3.85,4.73ZM57.75-.09c-1.95,1.33-3.6,3.43-5.33,5.08-.58.56-1.83,1.42-1.62,2.02.07.04.14.08.21.11,1.15-.4,2.39-1.75,3.51-2.82,1.68-1.6,3.33-3.25,5.21-4.54,4.79-3.28,8.66-8.11,11.82-12.38,1.14-1.34,2.29-2.67,3.43-4.01,2.23-2.87,4.46-5.73,6.68-8.6,1.28-1.74,3.19-3.19,4.42-4.8.32-.42.66-.83,1.02-1.24l-9.45,9.01c-1.44,1.87-2.89,3.74-4.33,5.61-1.46,1.71-2.92,3.42-4.38,5.13-2.77,3.82-6.89,8.48-11.2,11.42ZM-6.99,59.16c1.15-.99,2.31-1.99,3.46-2.98,1.12-1.01,2.24-2.03,3.35-3.04,1.6-1.54,3.2-3.09,4.8-4.63.69-.7,1.39-1.4,2.08-2.09,1.5-1.96,3.42-3.7,4.74-5.52l-25.34,24.16c1.91-1.08,3.57-3.23,5.52-4.57.46-.44.92-.88,1.39-1.32ZM108.45,1.04c-.63.67-1.26,1.34-1.89,2.02-.49.43-.98.86-1.47,1.29-1.09,1.04-2.18,2.08-3.27,3.12-2.77,3.64-6.03,7.93-10.26,10.74-3.53,2.35-6.69,4.16-10.18,6.26-2.5,1.51-4.87,3.47-7.38,4.7-2.71,1.33-5.37,1.55-8.12,2.76-2.36,1.05-4.61,2.4-7,3.76-.51.29-2.17,1.1-2.45,1.7-.07.17-.04.26.1.44,1,.13,2.4-1.04,3.4-1.55,2.58-1.31,5.15-2.89,7.74-3.83,2.3-.83,4.59-1.11,6.94-2.27,1.39-.69,2.61-1.7,4.02-2.56,2.15-1.36,4.29-2.72,6.44-4.08,2.36-1.33,4.68-2.64,7.15-4.28,1.37-.91,2.37-2.16,3.82-3.16.84-.78,1.68-1.57,2.52-2.35,1.72-2.26,3.47-4.41,5.11-6.36.76-.65,1.51-1.3,2.27-1.95,1.59-1.09,3.73-3.53,4.67-4.88,4.16-5.94,5.13-11.58,9.8-17.5l-1.03-1.08c-4.22,4.7-5.18,9.93-7.84,14.67-.84,1.5-1.97,2.88-3.09,4.37ZM113.98-15.78c-.8,1.22-1.59,2.44-2.39,3.66-.99,1.09-1.99,2.18-2.98,3.26-1.38,1.88-2.76,3.77-4.15,5.65-.86,1.15-2.93,3.17-4.16,4.02-.54.49-1.07.99-1.61,1.48-4.36,5.67-11.62,9.9-16.84,12.88-1.68,1.23-3.37,2.47-5.05,3.7-2.18,1.32-4.37,2.29-6.5,3.34-.73.36-3.51,1.55-3.69,2.3.05.07.1.15.16.22,1.32,0,2.72-.98,4.05-1.53,2.48-1.02,4.94-2.31,7.44-3.86l3.67-2.76c1.15-.65,2.29-1.3,3.44-1.95,2.49-1.42,4.54-3.07,7-4.66,2.46-1.59,5.55-4.27,7.48-6.82l1.33-1.22c.67-.62,1.33-1.23,2-1.85.7-.69,1.41-1.38,2.11-2.06,1.48-1.96,2.74-3.72,4.12-5.62,1.14-1.25,2.28-2.49,3.42-3.74,1.79-2.46,3.37-5.28,5.5-7.79l-1.03-1.08c-.52.72-1.03,1.44-1.55,2.16-.59.75-1.17,1.51-1.76,2.26ZM-29.95,83.07c.36-.34.72-.69,1.08-1.03,2.62-1.81,4.32-4.52,6.85-6.53,1.89-1.74,3.77-3.49,5.66-5.23.58-.5,1.16-1,1.74-1.5,2.01-1.5,4.03-3,6.04-4.49.68-.58,1.37-1.16,2.05-1.74l2.03-1.93c1.64-1.42,3.29-2.85,4.93-4.27.68-.65,1.37-1.31,2.05-1.96,1.71-1.63,3.55-3.26,4.86-5.01.49-.52.98-1.04,1.47-1.56,1.32-1.75,2.91-3.25,4.1-4.97,2.67-3.86,5.81-7.6,8.56-11.5l-5.29,5.05c-1.61,2.21-3.23,4.42-4.85,6.63-1.21,1.42-2.42,2.83-3.63,4.25-1.81,1.9-3.62,3.8-5.42,5.7-.91.86-1.81,1.73-2.72,2.59-1.35,1.18-2.7,2.36-4.04,3.54-1.06,1-2.13,1.99-3.19,2.99-.57.47-1.14.95-1.71,1.42-1.74,1.25-3.48,2.5-5.21,3.75-.84.71-1.68,1.42-2.52,2.14-1.4,1.31-2.79,2.63-4.19,3.94-.52.48-1.03.95-1.55,1.43-1.08.74-2.66,2.36-3.41,3.36-.93.85-1.87,1.71-2.8,2.56-1.37,1.23-2.73,2.47-4.1,3.7-.67.55-1.35,1.11-2.02,1.66-.89.62-1.78,1.24-2.67,1.86l-5.76,5.5c2.56-1.57,5.27-3.79,7.9-5.52,2-1.32,3.67-3.38,5.75-4.8ZM89.97,13.15c-2.41,1.55-4.76,3.12-7.08,4.52-.8.6-1.6,1.21-2.4,1.81-2.15,1.43-4.1,2.79-6.24,3.67-3.1,1.28-6.29,2.26-9.36,3.52-3.33,1.37-6.56,4.1-9.82,6.03-2.21,1.31-4.26,3.5-6.52,5-.65.43-2.09,1.73-2.22,2.28.16.16.2.16.35.2,2.59-1.32,4.92-3.77,7.59-5.54,3.3-2.18,6.64-4.63,10.02-6.32,3.54-1.77,7.24-2.73,10.86-4.27,1.93-.82,3.72-2.05,5.61-3.28.86-.65,1.73-1.3,2.59-1.94,1.28-.76,2.57-1.53,3.85-2.29,1.12-.8,2.24-1.61,3.36-2.41,1.07-.7,2.11-1.44,3.15-2.42.01-.19.02-.41-.18-.52-.61-.33-2.8,1.48-3.57,1.98ZM102.83-6.58c-1.3,1.75-3.11,3.34-4.86,5.01-.61.58-1.22,1.16-1.83,1.75-.8.87-1.6,1.73-2.39,2.6-.64.85-1.74,2.05-2.72,2.7-1.68,1.3-3.35,2.6-5.03,3.89-1.59,1.06-3.06,2.02-4.6,3.01-1.79,1.29-3.59,2.57-5.38,3.86-2.58,1.6-5.07,2.81-7.64,4.26-1.27.72-2.42,1.71-3.69,2.57-1.23.97-2.45,1.95-3.68,2.92-2.62,1.62-5.25,3.24-7.87,4.86-1.01.81-2.03,1.61-3.04,2.42-1.61,1.11-5.24,5.09-5.24,6.22.17.13.23.15.4.09.58-.21,1.43-1.38,1.83-1.91.76-1,1.94-2.12,2.94-2.8.65-.56,1.29-1.13,1.94-1.69,3.38-2.31,6.42-4.12,9.69-6.22,1.65-1.06,3.08-2.69,4.78-3.82,3.37-2.24,6.49-3.61,9.76-5.6,1.87-1.32,3.73-2.64,5.6-3.96,1.9-1.18,3.74-2.41,5.73-3.71,1.61-1.24,3.22-2.47,4.83-3.71,1.14-.78,2.31-2.15,3.03-3.1.84-.89,1.69-1.79,2.53-2.68.51-.47,1.02-.93,1.52-1.4,1.62-1.55,3.26-2.92,4.47-4.58,1.96-2.68,4.66-5.24,6.7-8.03,1.91-2.51,3.83-5.02,5.74-7.53l-1.06-1.11c-2,2.66-4,5.33-6,7.99-1.94,2.7-4.57,5.13-6.47,7.71ZM104.54-17.9c-1.38,1.44-2.76,2.88-4.14,4.32-2.75,3.22-5.5,6.45-8.26,9.67-.82.9-1.63,1.81-2.45,2.71-.86,1.12-2.32,2.45-3.44,3.23-.5.46-1,.92-1.5,1.37-1.17.81-1.99,1.99-3.07,2.72-1.43,1.03-2.87,2.06-4.3,3.1-.83.65-1.66,1.3-2.49,1.95-1.72,1.09-3.41,2-5.09,2.94-1.59.89-3.02,2.12-4.66,3.12-2.62,1.6-5.21,3.1-7.92,4.85-1.16.75-4.06,3-4.3,4.21.18.17.24.16.4.2.9-.53,1.75-1.46,2.71-2.1,1.96-1.33,3.7-2.76,5.68-3.88,1.46-.86,2.91-1.72,4.37-2.58,1.1-.75,2.2-1.5,3.31-2.25,2.13-1.21,4.26-2.34,6.43-3.7.85-.67,1.69-1.33,2.54-2,1.72-1.23,3.44-2.47,5.16-3.7.91-.84,1.83-1.67,2.74-2.51.92-.83,1.85-1.66,2.77-2.48,2.08-1.98,4.12-4.04,5.7-6.18.67-.73,1.34-1.45,2-2.18,1.39-1.65,2.79-3.3,4.18-4.94,1.21-1.62,3.08-2.83,4.36-4.53,1.4-1.72,2.79-3.44,4.19-5.16.98-1.31,2.1-2.38,2.84-3.7l-1.01-1.06c-.68.93-1.37,1.86-2.05,2.8-1.57,1.92-3.15,3.85-4.72,5.77ZM-33.28,106.63c.43-.46.85-.92,1.28-1.38.59-.58,1.18-1.17,1.78-1.75,1.01-.96,2.02-1.92,3.02-2.88.91-.78,1.83-1.57,2.74-2.35,1.87-1.82,3.74-3.63,5.61-5.45.71-.61,1.42-1.21,2.13-1.82,1.42-1.03,2.83-2.07,4.25-3.1,1.86-1.68,3.71-3.36,5.57-5.05,2.02-1.49,4.05-2.98,6.07-4.46.76-.61,1.51-1.23,2.27-1.84,2.29-2.2,4.59-4.41,6.88-6.61,1.74-1.21,3.15-2.78,4.98-4.06,1.27-.89,2.92-2.31,3.91-3.62,1.21-1.6,2.69-3.05,3.61-4.66,1.33-2.33,2.3-4.55,4.02-6.95,1.07-1.5,2.92-2.57,4.08-4.11,1.03-1.33,2.05-2.66,3.08-3.99,1.22-1.67,2.67-3.02,3.69-4.63,1.81-2.87,3.77-5.53,5.76-8.46.87-1.28,2.58-3.78,4.16-4.86l2.4-1.92c2.5-1.65,4.75-3.37,7.27-4.6.83-.4,1.71-.48,2.54-.67,1.25-.29,2.56-.96,3.78-1.7,1.64-1.24,3.28-2.49,4.91-3.73,1.87-1.17,3.74-2.33,5.61-3.5.92-.76,1.84-1.51,2.77-2.27,2.16-1.48,4.08-3.09,6.19-5.11,1.47-1.38,2.94-2.77,4.41-4.15l2.76-3.05c1.83-2.32,3.65-4.65,5.48-6.97.9-1.04,1.8-2.07,2.7-3.11,1.61-1.62,3.22-3.25,4.83-4.87,1.83-2.4,3.93-4.47,5.47-6.76.49-.64.97-1.28,1.46-1.92l-1-1.05c-.77,1.03-1.54,2.06-2.3,3.09-1.29,1.6-2.59,3.21-3.88,4.81-1.14,1.51-2.99,3.19-4.31,4.37-.69.76-1.37,1.52-2.06,2.28-1.27,1.68-2.74,2.99-3.91,4.62-2.51,3.51-5.36,6.81-9,10.28-1.31,1.25-2.63,2.5-3.94,3.76-1.38,1.07-2.76,2.14-4.14,3.21-.56.48-1.13.97-1.69,1.45-2.33,1.57-4.48,2.94-6.78,4.45-1.44,1.12-2.87,2.25-4.31,3.37-1.02.59-2.09,1.14-3.12,1.39-1.07.25-2.1.34-3.19.87-3.31,1.63-6.36,4.13-9.64,6.49-1.63,1.18-2.85,2.96-3.79,4.3-2.31,3.3-4.42,6.35-6.54,9.52-2.21,2.81-4.42,5.62-6.63,8.44-1.19,1.58-3.16,2.82-4.2,4.32-1.73,2.51-2.8,4.86-4.27,7.3-.9,1.5-2.28,2.86-3.38,4.34-.82,1.1-2.17,2.18-3.19,2.88-1.85,1.5-3.7,3-5.56,4.5-1.83,1.78-3.66,3.56-5.5,5.35-.83.7-1.66,1.41-2.49,2.11-2.11,1.55-4.21,3.1-6.32,4.65-2.09,1.88-4.17,3.77-6.26,5.65-1.78,1.23-3.31,2.6-5.19,3.89-2,1.92-4,3.85-5.99,5.77-1.56,1.08-2.97,2.46-4.46,3.88-.67.65-1.33,1.31-2,1.96-1,.99-2,1.98-3,2.97-1.93,2.54-4.28,4.76-6.66,7.24l.77.81c2.44-2.31,4.71-4.57,6.45-6.9ZM-28.13,105.58c1.78-1.69,3.55-3.39,5.33-5.08,2.55-3.33,6.06-6.03,9.2-8.19,2.19-1.5,3.76-3.98,5.88-5.45,2.55-1.76,4.63-3.42,7.14-5.12,1.13-.96,2.27-1.92,3.4-2.87,2.37-2.31,4.74-4.62,7.11-6.93,2.05-1.42,3.86-3.49,5.9-5.31,1.24-1.11,2.78-2.35,3.77-3.65,1.44-1.71,2.88-3.42,4.32-5.13,1.7-1.69,3.41-3.39,5.11-5.08,1.32-1.22,2.64-2.45,3.96-3.67.93-.64,1.83-1.83,2.39-2.6.73-.87,1.45-1.74,2.18-2.6,2.6-3.59,4.28-6.82,6.89-10.44,1.79-2.48,4.91-4.47,6.86-7.02,1.03-1.34,2.23-2.49,3.32-3.91.43-.44.85-.88,1.28-1.33,2.56-1.77,4.68-2.56,7.17-3.98,1.66-1.16,3.33-2.32,4.99-3.49,1.91-1.15,3.81-2.3,5.72-3.44.92-.72,1.84-1.44,2.76-2.16,1.15-.79,2.3-1.59,3.45-2.39,1.73-1.17,2.91-3.01,4.77-4.33.93-.67,2.35-2.02,3.11-3.02.68-.7,1.35-1.4,2.03-2.09,1.19-1.44,2.38-2.87,3.57-4.31,1.87-2.19,3.74-4.38,5.61-6.56,1.19-1.22,2.37-2.44,3.56-3.66.72-.8,1.45-1.59,2.17-2.39,1.83-2.42,4.1-4.49,5.46-6.94l-1.03-1.08c-1.01,1.38-2.02,2.77-3.03,4.15-1.12,1.31-2.23,2.62-3.35,3.93-1.16,1.19-2.32,2.39-3.47,3.58-1.9,2.49-4.2,4.41-5.99,6.88-1.72,2.37-3.86,4.43-5.75,6.86-.81.81-1.63,1.62-2.44,2.44-1.28,1.22-2.55,2.43-3.83,3.65-.54.49-1.07.99-1.61,1.48-1.54,1.11-3.07,2.22-4.61,3.33-.76.6-1.51,1.19-2.27,1.79-1.96,1.22-3.93,2.44-5.89,3.66-1.43,1.01-2.87,2.03-4.3,3.04-1.09.64-2.13,1.25-3.24,1.71-1.68.7-3.94,1.58-5.56,3.72-1.14,1.36-2.29,2.71-3.43,4.07-.49.52-.98,1.04-1.47,1.56-.43.41-.87.83-1.3,1.24-1.38,1.32-2.63,2.33-3.61,3.66-2.4,3.27-4.18,6.23-6.19,9.4-1.38,1.74-2.76,3.48-4.14,5.22-1.45,1.4-2.9,2.8-4.36,4.21-1.44,1.45-2.89,2.9-4.33,4.34-.75.6-1.71,1.34-2.36,2.19-3.69,4.84-9,10.12-14.16,14.2-1.63,1.62-3.26,3.25-4.89,4.87-.44.42-.89.85-1.33,1.27-1.22,1.02-2.43,2.04-3.65,3.06-2.11,1.49-4.23,2.97-6.34,4.46-1.14,1.01-2.27,2.02-3.41,3.04-.64.63-1.28,1.25-1.92,1.88-.64.54-1.27,1.07-1.91,1.61-1.36.92-2.86,2.09-4.08,2.99-1.02.75-1.97,1.8-2.64,2.68-.87.92-1.74,1.84-2.61,2.76-1.58,1.47-3.16,2.94-4.74,4.42-1.21,1.34-2.41,2.69-3.62,4.03-1.62,2.12-3.78,4.18-5.84,6.15l.79.83c3.34-3.35,6.83-6.6,9.51-10.13ZM119.03-11.75c-1.25,2.44-2.61,4.9-4,7.41-1.29,2.35-2.31,4.6-4.1,7.03-1.71,2.33-4.39,3.68-6.21,5.65-.72.78-2.03,1.54-2.28,2.39.09.16.14.25.29.36.71.08,1.62-1,2.34-1.49,1.34-1.05,2.69-2.1,4.03-3.16.55-.53,1.11-1.06,1.66-1.59,2.34-1.86,3.69-4.86,4.72-7.04,1.04-1.82,2.07-3.64,3.11-5.46,1.21-2.25,2.16-4.7,4.05-6.92l-1.11-1.16s.01.05.01.08c-.6,1.31-1.88,2.61-2.53,3.9ZM-12.87,100.25c-.73.58-2.81,2.06-3.02,2.83.02.04.03.07.05.11.05.04.11.08.16.11,1.1-.05,2.37-1.51,3.47-2.25,1.39-.94,3.69-2.92,4.77-4.39,1.9-1.78,3.81-3.56,5.71-5.34.12-.27.27-.43.31-.67-.07-.06-.14-.11-.21-.17-.71-.22-2.49,1.84-3.34,2.44-2.7,1.92-5.2,5.18-7.9,7.32ZM-26.29,112.57c1.41-1.72,2.83-3.44,4.24-5.16,1.2-1.18,2.41-2.36,3.61-3.55,1.2-1.28,2.66-2.8,4.02-3.73.45-.41.91-.83,1.36-1.24,2.33-2.31,4.66-4.62,7-6.94.86-.65,1.73-1.3,2.59-1.94,1.41-.88,2.66-1.63,4.18-2.67,1.32-1.24,2.64-2.49,3.97-3.73.62-.54,1.24-1.07,1.85-1.61,1.58-1.09,4.05-3.61,5.14-5.06,1.13-1.24,2.26-2.48,3.4-3.71.91-1.21,2.71-2.32,3.76-3,.95-.62,1.83-1.61,2.77-2.37,1.08-1.12,2.17-2.24,3.25-3.37,1.14-1.07,2.27-2.13,3.41-3.2,1.17-1.42,2.34-2.84,3.52-4.25.62-.57,1.24-1.15,1.86-1.72.52-.48,1.03-.95,1.55-1.43,1.14-.79,2.67-2.12,3.58-3.3.69-.8,1.38-1.59,2.06-2.39.97-1.29,2.29-2.98,3.81-4,2.7-1.82,5.34-3.01,8.08-4.8,1.28-1.12,2.57-2.23,3.85-3.35,2.32-1.58,4.34-3.15,6.61-4.29,1.86-.93,3.77-1.78,5.62-2.44,1.4-.5,2.89-.69,4.34-1.28,1.32-.71,2.64-1.42,3.95-2.13,2.26-1.27,4.33-2.93,6.69-4.37,1.93-1.17,3.78-2.27,5.78-3.55,1.5-.96,2.91-2.38,4.34-3.39.45-.45.91-.9,1.36-1.35.36-.36.72-.72,1.08-1.09.84-1.05,1.68-2.09,2.51-3.14,1.05-1.47,2.64-2.88,3.65-4.22,1.16-1.12,2.31-2.24,3.47-3.36.64-.7,1.28-1.4,1.92-2.1,1.06-1.45,2.1-2.84,2.92-4.27.57-1,1.48-2.06,1.62-3.08-.74-.84-1.53.53-2.01,1.28-1.07,1.68-2.24,3.3-3.45,4.99-.65.71-1.3,1.42-1.95,2.12-1.65,1.68-3.3,3.36-4.95,5.03-1.43,1.79-2.87,3.58-4.3,5.37-.7.77-1.39,1.54-2.09,2.31-.46.39-.92.77-1.38,1.16-.93.73-1.86,1.46-2.79,2.18-2.35,1.54-4.31,2.88-6.55,4.24-.89.66-1.78,1.31-2.68,1.97-2.45,1.55-4.95,3.18-7.47,4.21-1.53.62-3.12.84-4.61,1.38-1.86.67-3.73,1.58-5.59,2.52-2.37,1.2-4.47,2.92-6.91,4.58-1.31,1.11-2.62,2.22-3.93,3.32-2.67,1.74-5.29,2.83-7.97,4.64-1.65,1.11-3.04,2.99-4.01,4.35-.54.64-1.08,1.28-1.62,1.91-2.1,2.79-5.78,4.57-7.96,7.43-1.12,1.48-2.37,2.65-3.52,4.2-1.09,1.04-2.18,2.08-3.27,3.12-.72.94-2.52,2.9-3.58,3.63-.67.54-1.34,1.07-2.02,1.61-1.15.76-2.49,1.76-3.37,2.74-3.03,3.39-6.41,7.47-10.16,10.17-1.03.98-2.05,1.96-3.08,2.94-.58.48-1.16.97-1.74,1.45-1.3.82-2.61,1.64-3.91,2.46-.93.59-1.89,1.56-2.68,2.13-2.06,2.06-4.13,4.11-6.19,6.17-1.06.94-2.12,1.88-3.19,2.83-1.06.73-3.22,2.72-4.02,3.78-.89.88-1.78,1.77-2.67,2.65-1.5,1.82-3,3.63-4.49,5.45-.76,1.01-2.81,2.72-3.74,3.35-1.09,1.04-2.18,2.08-3.27,3.12l.8.83c1.67-1.51,3.34-3.01,5.01-4.52.87-.85,1.74-1.69,2.61-2.54ZM-31.76,113.5c1.43-1.33,2.87-2.66,4.3-3.99,1.19-1.56,2.59-2.86,3.85-4.52,1.76-1.66,3.51-3.31,5.27-4.97,1.22-1.15,2.44-2.29,3.66-3.44.77-.67,1.55-1.34,2.33-2.01,1.8-1.66,3.6-3.33,5.41-5,1.12-1.15,2.59-2.02,3.78-2.76.86-.64,1.71-1.28,2.57-1.92,1.12-.95,2.25-1.9,3.38-2.85,2.03-1.38,4.6-3.34,6.17-5.41.7-.73,1.39-1.47,2.09-2.2.79-.8,1.57-1.61,2.36-2.41.74-.67,1.48-1.34,2.22-2.01.98-.92,1.96-1.83,2.94-2.75,1.27-1.24,2.54-2.49,3.8-3.73,1.14-1.23,2.28-2.46,3.42-3.69.51-.56,1.02-1.11,1.53-1.67,1.19-1.57,3.06-3.63,4.83-4.87.56-.52,1.13-1.04,1.69-1.56.39-.37.78-.74,1.17-1.11,1.3-1.24,2.42-2.45,3.34-3.72.8-.9,1.6-1.81,2.4-2.71.77-1.04,1.55-2,2.02-3.04.44-.99.68-2.04,1.24-3.03.73-1.31,1.81-2.35,2.83-3.7.53-.7,1.32-1.68,2.14-2.25.87-.68,1.73-1.37,2.6-2.05,2.29-1.39,4.53-2.7,6.91-4.2,2.56-1.85,5.13-3.69,7.7-5.54,3.18-1.92,6.26-3.46,9.4-5.36,1.55-.94,2.85-2.18,4.44-3.23,1.57-1.07,3.14-2.15,4.71-3.22,1.17-.92,2.34-1.84,3.51-2.76,1.88-1.28,4.71-4.17,6-5.88.72-.76,1.45-1.52,2.17-2.28.84-.84,1.68-1.68,2.53-2.52,2.02-2.31,4.03-4.62,6.05-6.93.95-.99,1.89-1.98,2.84-2.97.97-1.17,1.94-2.34,2.9-3.51,1.2-1.69,2.4-3.38,3.6-5.06l-1.01-1.05c-.75,1.07-1.5,2.13-2.25,3.2-1.12,1.68-2.51,3.17-3.78,4.87-.94.98-1.87,1.96-2.81,2.94-2.27,2.6-4.53,5.21-6.8,7.81-.94.95-1.89,1.91-2.83,2.86-.7.76-1.41,1.52-2.11,2.28-.92,1.21-2.6,3.11-3.97,4.05-1.21,1.01-2.42,2.02-3.62,3.03-3.07,2.24-6.14,4.48-9.22,6.72-3.75,2.38-7.27,4.22-11.05,6.52-1.88,1.14-3.5,2.7-5.41,3.94-1.71,1.13-3.42,2.27-5.12,3.4-2.29,1.29-5.18,2.67-7.45,5.46-1.34,1.65-3.07,3.47-4.06,5.24-.75,1.36-1.07,2.74-1.94,4.13-1.63,2.59-4.2,4.67-6.11,7.2-2.11,1.97-4.22,3.95-6.32,5.92-1.3,1.4-2.6,2.79-3.9,4.19-2.54,3.33-6.12,6.27-9.17,9.43-2.76,2.86-6.16,5.37-8.39,8.31-.43.38-.87.76-1.3,1.13-1.3.89-2.29,1.99-3.48,2.79-1.19.99-2.38,1.99-3.57,2.98-1.76,1.26-3.53,2.52-5.3,3.78-1.77,1.66-3.55,3.31-5.32,4.97-2.66,1.88-5.16,4.55-7.84,7.05-3.03,2.83-6.26,5.78-8.45,8.69-1.04,1.38-2.67,2.4-3.85,3.62-1.48,1.56-2.95,3.13-4.43,4.69l.8.84c1.44-1.36,2.88-2.71,4-4.19ZM-33.94,103.6c1.06-1.09,2.13-2.17,3.2-3.26,1.3-1.15,2.6-2.31,3.91-3.46.95-.91,1.9-1.82,2.86-2.72,2.34-1.95,4.68-3.9,7.03-5.85,2.56-1.96,4.64-5.11,7.43-7.04,3.25-2.24,6.41-4.88,9.39-7.1,2.1-1.56,3.66-3.48,5.78-4.93,1.62-1.1,3.07-2.9,4.76-4.06,1.26-.87,3.53-2.48,4.62-3.93,1.22-1.62,2.6-3,3.61-4.6.78-1.44,1.57-2.87,2.35-4.31.67-.99,1.33-1.97,2-2.96,2.16-3.21,5.55-5.99,7.81-9.19,1.19-1.59,2.37-3.18,3.56-4.77,1.29-2.02,2.48-3.97,3.86-6.01,1.49-2.22,3.37-4.07,5.08-6.33,1.38-1.83,4.02-2.91,5.54-3.8,1.13-.83,2.26-1.66,3.39-2.5,1.57-1.02,3.14-2.04,4.71-3.06,1.67-1.01,3.1-2.41,4.8-3.57.54-.48,1.09-.97,1.63-1.45,2.68-2.08,5.36-4.16,8.04-6.23.95-.76,1.9-1.53,2.85-2.29,1.49-1.02,3.2-2.92,4.22-4.29.99-1.03,1.98-2.07,2.97-3.1,1.62-2.15,3.53-4.1,5-6.2,1.61-1.98,3.22-3.95,4.83-5.93.61-.67,1.22-1.34,1.84-2.02,1.75-1.79,3.5-3.59,5.25-5.38,1.93-2.4,3.86-4.81,5.79-7.21l-1.03-1.08c-1.45,1.85-2.89,3.71-4.34,5.56-.96,1.11-1.91,2.21-2.87,3.32-1.17,1.17-2.33,2.33-3.5,3.5-1.57,1.81-3.14,3.63-4.71,5.45-1.85,2.56-3.96,4.82-5.92,7.45-1.03,1.39-2.61,3.2-3.84,4.3-1.6,1.43-2.85,3.56-4.81,4.9-3.43,2.35-6.14,5.32-9.59,7.66-.66.6-1.33,1.2-1.99,1.8-1.78,1.22-3.2,2.69-4.91,3.73-1.74,1.13-3.49,2.27-5.23,3.4-1.06.78-2.12,1.56-3.17,2.34-1.73,1.02-4,1.66-5.65,3.8-1.63,2.12-3.57,4.01-5.03,6.17-1.46,2.16-2.75,4.23-4.08,6.33-1.13,1.52-2.26,3.04-3.39,4.56-2.16,3.1-5.44,5.78-7.53,8.88-.82,1.19-1.65,2.38-2.47,3.57-.84,1.51-1.68,3.01-2.52,4.52-1.03,1.33-2.05,2.66-3.08,3.99-1.75,2.37-3.97,3.02-5.87,5.01-1.92,2.02-4.18,3.78-6.31,5.22-1.26,1.12-2.53,2.24-3.79,3.35-2.63,1.96-5.26,3.92-7.89,5.89-.5.44-1,.88-1.5,1.32-1.17,1.2-2.72,2.36-3.83,3.6-.83.93-1.89,2.13-2.94,2.86-1.23,1.05-2.45,2.09-3.68,3.14-1.3.89-2.54,1.95-3.82,3.16-.72.69-1.44,1.38-2.16,2.06-.86.77-1.72,1.53-2.58,2.3-.99.94-1.98,1.89-2.97,2.83-.88.89-1.76,1.78-2.64,2.68-1.9,2.5-4.4,4.73-6.92,7.13l.77.8c2.81-2.66,5.61-5.34,7.7-7.92ZM-35.37,94.22c3.98-3.32,7.97-6.64,11.95-9.96,1.29-1.2,2.59-2.4,3.88-3.59,2.59-2.47,5.06-4.62,7.73-7.16,1.65-1.57,3.31-3.53,5.13-4.79,1.65-1.31,3.3-2.61,4.95-3.92,3.09-2.07,6.06-4.66,9.16-7.62,1.54-1.47,3.05-2.84,4.23-4.4,2.18-2.9,4.3-5.56,6.25-8.45,1.18-1.54,2.35-3.09,3.53-4.63,1.34-1.67,2.68-3.33,4.02-5,2.22-3.29,4.05-6.41,6.47-9.77,1.26-1.76,3.02-3.23,4.51-5.04.8-.79,1.59-1.59,2.39-2.38,1.49-1.77,2.98-3.54,4.46-5.32,1.59-1.37,3.17-2.74,4.76-4.12,2.34-2.23,3.78-4.15,5.47-6.38.89-1.18,2.33-2.1,3.35-2.77,1.21-.96,2.41-1.91,3.62-2.87,2.22-1.82,4.31-4.31,5.74-6.32,1.26-1.77,2.59-3.37,4.15-5.02l-7.67,7.31c-.61.65-1.21,1.3-1.82,1.94-.6.59-2.47,2.52-3.21,2.85l-6.88,6.56c-1.09,1.57-2.84,3.6-4.61,4.82-.69.57-1.38,1.14-2.07,1.71-2.19,2.3-4.37,4.5-6.32,7.09-.52.51-1.04,1.02-1.55,1.54-1.33,1.4-2.67,2.79-4,4.19-.98,1.27-1.96,2.54-2.94,3.81-1.68,2.65-3.24,5.16-5.01,7.8-1.92,2.43-3.84,4.86-5.76,7.29-2.44,3.46-5.08,6.92-7.62,10.18-1.23,1.33-2.47,2.67-3.7,4.01-.73.68-1.46,1.36-2.19,2.04-.68.62-1.37,1.23-2.05,1.85-1.7,1.17-3.18,2.62-4.8,3.68-2.09,1.36-3.81,3.31-5.94,4.77-1.61,1.53-3.22,3.07-4.83,4.6-3.87,3.59-7.74,7.17-11.62,10.76-3.83,3.18-7.67,6.36-11.51,9.54-2.4,1.61-4.45,2.7-6.85,4.26-2.29,1.49-4.57,4.03-6.76,6.13l.77.8c2.52-2.46,4.66-4.77,7.37-6.49,2.03-1.29,3.79-2.14,5.86-3.52ZM-41.6,101.06c1.2-.84,3.1-2.14,4.04-3.43-.02-.13-.03-.25-.05-.38-.05-.04-.11-.08-.16-.11-.75-.08-1.78,1.02-2.53,1.51-2.48,1.62-5.02,4.45-7.29,6.63l.74.78c1.74-1.68,3.33-3.66,5.24-5ZM-37.09,92.3c3.37-2.72,6.74-5.44,10.12-8.16l1.36-1.3c1.27-1.23,2.53-2.45,3.8-3.68,3.22-3.07,6.84-6.89,10.23-9.33,1.44-1.3,2.88-2.61,4.32-3.91,2.29-1.88,4.57-3.76,6.86-5.64,1.99-1.37,3.53-2.84,5.48-4.7.8-.77,1.78-1.58,2.39-2.38.71-.77,1.43-1.54,2.14-2.31,3.16-4.23,6.5-8.08,9.43-12.27,1-1.29,2-2.57,2.99-3.86,2.75-4.07,5.33-7.84,8.32-11.91l-4.8,4.57s0,.03,0,.04c-1.21,1.81-2.42,3.61-3.63,5.42-2.15,2.86-4.29,5.72-6.44,8.58-2.15,3.16-4.87,5.95-7.24,9.13-1.01,1.09-2.02,2.18-3.03,3.26-.53.48-1.05.97-1.58,1.45-.32.31-.65.62-.97.93-1.37,1.11-2.75,2.23-4.12,3.35-2.6,2.22-5.2,4.43-7.8,6.65l-3.35,2.98c-3.4,2.34-7.07,6.37-10.45,9.59-1.25,1.19-2.42,2.7-3.83,3.65l-.92.87c-3.22,2.6-6.45,5.2-9.67,7.79-2.56,1.71-4.86,3-7.4,4.68-2.2,1.45-4.23,3.85-6.24,5.79l.74.78c2.18-2.12,4.37-4.49,6.68-5.99,2.22-1.45,4.34-2.58,6.6-4.07ZM-36.41,102.73c.7-.75,1.39-1.5,2.09-2.25,1.58-1.49,3.16-2.98,4.74-4.47,2.21-2.1,4.35-4.24,6.59-5.75,1.21-1.05,2.42-2.09,3.63-3.14.81-.81,1.63-1.62,2.44-2.44.81-1.07,2.1-2.08,3.08-2.83,1.33-1.02,2.44-2.54,3.82-3.49,2.5-1.89,5.01-3.79,7.51-5.68,1.62-1.09,2.86-2.78,4.4-3.83,1.75-1.18,3.37-2.86,5.19-4.11.52-.46,1.03-.92,1.55-1.37,1.47-1.02,4.14-3.46,5.21-4.86.96-1.14,1.92-2.29,2.87-3.43,1.01-1.5,1.76-3,2.66-4.49,1.35-1.88,2.69-3.77,4.04-5.65,1.78-2.64,4.4-4.81,6.22-7.42,2.44-3.48,4.55-6.76,6.86-10.19,1.54-2.29,3.61-4.16,5.39-6.51,1.12-1.1,2.24-2.21,3.36-3.31,1.42-1.27,2.73-2.97,4.3-4.05,2.5-1.71,4.66-3.29,7.08-4.9,1.15-.77,2.61-2.1,3.4-2.93,1.26-1.31,2.89-2.67,4.48-3.74.79-.67,1.59-1.34,2.38-2,.54-.49,1.07-.99,1.61-1.48,1.74-1.76,3.94-3.44,5.3-5.32,1.55-1.78,3.1-3.56,4.65-5.34,2.41-3.24,4.96-6.09,7.3-9.29,1.34-1.83,3.22-3.28,4.65-5.18,1.02-1.01,2.04-2.01,3.05-3.02.83-.93,1.65-1.86,2.48-2.79,1.43-1.92,2.97-3.69,4.29-5.56l-1.01-1.05c-.92,1.24-1.83,2.49-2.75,3.73-1.15,1.38-2.31,2.77-3.46,4.15-1.77,1.79-3.54,3.58-5.31,5.38-1.18,1.39-2.36,2.78-3.54,4.17-1.81,2.36-3.62,4.72-5.43,7.08-2.12,2.5-4.24,5-6.36,7.49-.77.82-1.54,1.64-2.31,2.47-.78.72-1.55,1.45-2.33,2.17-.55.51-1.11,1.02-1.66,1.53-1.26,1.05-2.53,2.09-3.79,3.14-2.28,1.55-4.07,4.03-6.29,5.52-3.4,2.28-6.45,4.14-9.94,7.46-.83.81-1.67,1.62-2.5,2.43-1.27,1.28-2.54,2.56-3.81,3.84-1.54,2.05-3.29,3.84-4.67,5.88-1.97,2.92-3.81,5.8-5.82,8.78-1.77,2.63-4.45,4.94-6.34,7.63-1.42,2.02-3.07,3.99-4.43,6.13-.96,1.53-1.73,3.07-2.79,4.62-1.18,1.72-3.14,3.32-4.46,4.99-.86,1.09-2.79,2.72-3.8,3.41-.65.56-1.29,1.13-1.94,1.69-1.72,1.34-3.44,2.68-5.17,4.02-.96.86-1.92,1.73-2.88,2.59-2.84,2.19-5.67,4.38-8.51,6.58-2.12,1.96-4.25,3.91-6.38,5.87-.77.77-1.54,1.54-2.31,2.3-1.11.97-2.22,1.94-3.32,2.9-2.36,1.62-4.61,3.86-6.95,6.1-1.85,1.73-3.7,3.45-5.55,5.18-2.43,3.19-5.31,5.81-8.53,8.88l.77.8c2.49-2.35,4.98-4.48,6.89-7.05ZM-39.87,103.22c.58-.65,1.17-1.29,1.75-1.94,1.32-1.78,3.73-4.68,5.73-6.04.75-.66,1.5-1.32,2.24-1.98,1.19-1.14,2.39-2.27,3.58-3.41.9-.81,1.81-1.62,2.71-2.43,1.47-1.21,2.95-2.42,4.42-3.64,1.91-1.56,3.31-3.37,5.29-4.73.88-.8,1.76-1.6,2.63-2.4.68-.63,1.37-1.27,2.05-1.9,2.2-1.76,4.4-3.53,6.61-5.29,1.07-.93,2.14-1.87,3.21-2.8,2.29-1.55,4.95-3.69,6.94-5.72,1.52-1.45,3.03-2.89,4.55-4.34.87-1.05,1.75-2.09,2.62-3.14,2.36-3.49,4.83-6.91,7.33-10.48,1.91-2.73,4.5-5.19,6.31-7.88,2.1-3.12,4.03-6.13,6.24-9.29,2.46-3.51,6.32-6.74,8.92-10.2.68-.91,1.79-1.83,2.63-2.4,1.29-.88,2.29-1.96,3.54-2.74,1.35-.84,2.67-1.5,4.07-2.4,1.03-.66,2.4-1.88,3.1-2.58.98-.83,1.96-1.65,2.93-2.48,1.55-1.25,3.1-2.49,4.64-3.74.67-.63,1.35-1.25,2.02-1.88,1.28-.89,2.65-2.49,3.53-3.68,1.07-1.27,2.14-2.53,3.21-3.8,1.29-1.5,2.58-2.99,3.88-4.49,2.69-3.66,5.54-6.85,8.3-10.57,1.22-1.31,2.45-2.62,3.67-3.93.37-.35.74-.71,1.11-1.06.68-.7,1.35-1.4,2.03-2.09,1.65-2.17,3.59-4.07,5.03-6.17.43-.59.86-1.17,1.3-1.76l-.88-.92-.45.43c-1.39,1.7-2.8,3.52-4.16,5.35-1.38,1.86-3.46,3.37-4.87,5.23-.83.85-1.67,1.7-2.5,2.54-1.15,1.36-2.31,2.73-3.46,4.09-2.18,3.01-4.5,5.72-6.77,8.79-2.33,2.77-4.67,5.55-7,8.32-.77.82-1.54,1.64-2.31,2.47-.86.77-1.72,1.53-2.58,2.3-1.22.98-2.43,1.97-3.65,2.95-.57.51-1.15,1.02-1.72,1.53-2.22,1.53-3.98,3.78-6.14,5.01-1.13.64-2.27,1.17-3.46,1.92-1.36.86-2.35,2.02-3.76,3-.71.68-1.42,1.36-2.14,2.04-2.81,3.74-6.94,7.25-9.53,10.94-2.07,2.95-3.85,5.8-5.82,8.73-1.97,2.93-4.76,5.55-6.79,8.49-2.17,3.11-4.34,6.22-6.51,9.33-.84,1.03-1.68,2.06-2.51,3.08-.53.54-1.06,1.08-1.58,1.62-.94.9-1.89,1.8-2.83,2.7-.81.74-1.63,1.48-2.44,2.22-1.52,1.18-3.04,2.37-4.56,3.55-.75.64-1.49,1.28-2.24,1.93-1.93,1.55-3.85,3.11-5.78,4.66-.78.69-1.57,1.39-2.35,2.09-.58.56-1.17,1.11-1.75,1.67-2,1.75-4.01,3.5-6.01,5.25l-1.83,1.75c-.52.44-1.03.88-1.55,1.32-.57.44-1.14.88-1.71,1.31-1.01.89-2.01,1.78-3.02,2.67-1.09,1.04-2.18,2.08-3.27,3.12-1.45,1.29-2.9,2.59-4.35,3.88-.81.78-1.63,1.55-2.44,2.33-2.54,3.34-5.92,6.58-9.44,9.54l.79.83c1.24-1.09,2.47-2.18,3.71-3.28.51-.47,1.02-.93,1.52-1.4ZM49.86,22.9c-1.73,1.19-3.8,3.56-5.52,5.21-1.87,1.79-3.06,3.61-4.2,5.43-1.25,1.88-2.49,3.75-3.74,5.63-1.76,2.26-3.52,4.53-5.29,6.79-.81,1.14-2.22,2.56-3.44,3.39-1.28.87-2.23,2.38-2.9,3.4-.39.59-.78,1.06-.93,1.63.04.05.09.09.13.14.13.05.16.07.3.03.24-.05.59-.45.83-.69.36-.43.73-.87,1.09-1.3,1.76-2.4,4.53-4.08,6.25-6.44,1.51-1.92,3.02-3.83,4.53-5.75,2.22-3.31,4.29-6.61,6.72-9.95,1.07-1.09,2.15-2.19,3.22-3.29.98-.95,1.96-1.91,2.94-2.86.98-.68,2.16-1.77,2.78-2.7-.06-.18-.1-.28-.29-.41-.88.26-1.54,1.09-2.48,1.73ZM155.3,32.89c-1.58,2.03-4.48,4.28-6.39,5.41-3.23,1.9-6.33,3.13-9.48,4.27-1.96.54-3.91,1.08-5.87,1.62-5.3,1.91-10.55,4.26-15.86,7.81-1.18.79-2.85,2.46-3.72,3.6-.48.63-1.14,1.49-1.89,2.02-3.43,2.39-7.01,4.37-8.65,8.09-.29.66-.94,1.61-.79,2.29.13.05.27.1.4.15,1.2-1.07,1.95-3.1,3.01-4.51.76-1.02,1.95-1.67,2.79-2.18,1.17-.81,2.33-1.63,3.5-2.44,2.09-1.41,3.15-3.76,5.3-5.27,2.29-1.61,4.76-3.22,7.26-4.49,1.74-.88,3.44-1.48,5.15-2.15l3.7-1.62c1.89-.52,3.78-1.03,5.68-1.55,3.03-.9,6-2.18,9.04-3.74,5.01-2.57,10.17-8.6,13.98-13.01l-1.08-1.14c-1.01,1.22-2.01,2.45-3.02,3.67-1.02,1.06-2.04,2.12-3.06,3.18ZM101.73,78.42c.21-.36.41-.71.62-1.07.82-1.75,1.79-3.61,3.6-5.34,1.04-1,4.13-2.3,4.39-3.28l-.1-.22c-.12-.05-.23-.1-.35-.14-1.32.54-2.66,1.17-4.01,2.07-.71.47-1.33,1.31-1.73,1.86-1.57,2.2-2.71,4.01-3.29,6.21.09.09.18.19.26.28.04.01.09.02.13.03.16-.13.31-.26.47-.4ZM109.87,57.52c.94-.54,2.31-1.06,3.06-2.07v-.27c-.21-.23-.27-.19-.48-.23-3.28,1.36-8.62,4.17-11.07,8.22-1.01,1.68-1.95,6.52-1.63,8.23.05.04.11.07.16.11.09,0,.18,0,.27,0,.05-.04.09-.09.14-.13.92-2.79.72-5.73,2.72-8.42,1.91-2.57,4.61-4.17,6.83-5.45ZM100.75,84.17c-.66.18-2.14,1.89-2.85,2.56-1.46,1.39-3.03,2.63-4.6,4.12-.52.51-1.04,1.02-1.55,1.54-.78,1.04-1.6,1.95-2.19,2.98-1.28,2.26-2.09,4.58-3.15,6.87-.68,1.27-1.36,2.53-2.04,3.8-.92,1.97-1.9,3.95-2.74,5.9-.67,1.56-1.33,3.06-2.01,4.56-.4.89-1.03,1.79-1.04,2.69.04.05.09.09.13.14.11.02.22.04.32.06.07-.05.15-.1.22-.16.54-.97,1.08-1.94,1.61-2.92,1.25-2.74,2.5-5.49,3.75-8.23.87-1.61,1.74-3.21,2.61-4.82,1.34-2.87,2.25-5.72,4.08-8.55,1.58-2.46,4.62-4.72,6.97-6.96,1.01-.97,2.56-2.19,2.92-3.27-.07-.09-.14-.18-.21-.28-.11-.04-.13-.05-.24-.03ZM112.03,60.33c-.5.15-1.16,1-1.61,1.43-1.06,1.01-2.04,1.87-3.01,2.34-.42.2-.58.5-.64.83,0,.03.02.05.03.08.07.06.14.11.21.17,1.06.39,2.82-1.3,3.99-2.43.35-.72,1.65-1.44,1.49-2.16-.03-.11-.07-.2-.18-.25-.09,0-.18,0-.27,0ZM151.5,32.18c-.64.57-1.27,1.15-1.91,1.72l-1.8,1.45c-1.64,1.05-3.22,2.07-4.81,2.79-2.68,1.2-5.22,2.12-7.85,3.04-1.29.37-2.58.73-3.88,1.1-2.7,1.06-5.4,2.11-8.1,3.17-2.06.83-4.09,1.96-6.1,3.22-1.21.94-2.41,1.88-3.62,2.81-1.13.55-2.27,1.1-3.4,1.65-.82.49-1.65.97-2.47,1.46-2.91,1.49-5.71,3.08-7.93,6.4-.37.55-.73.96-.96,1.5-.28.67-.82,3.05.33,3.07.66-.67.4-1.72.71-2.48.47-1.16,2.85-4.04,4.21-4.97,1.38-.94,2.6-1.57,3.9-2.24,1.01-.59,2.02-1.18,3.02-1.77,1.05-.52,2.18-.85,3.26-1.47,1.41-1.08,2.82-2.16,4.22-3.23,2.4-1.44,4.92-2.59,7.38-3.59,2-.77,4-1.55,5.99-2.32,1.68-.49,3.37-.99,5.05-1.48,2.85-1.03,5.6-2.02,8.52-3.51,1.37-.7,2.75-1.64,4.16-2.58.54-.47,1.09-.93,1.63-1.4.8-.77,1.61-1.53,2.41-2.3.75-.88,1.51-1.75,2.26-2.63,1.35-1.73,2.71-3.46,4.06-5.19l-1.06-1.11c-1.37,1.77-2.74,3.53-4.12,5.3-1.04,1.2-2.08,2.41-3.12,3.61ZM161.53,56.98c-.73.27-1.83.37-2.41,1.19.02.1.05.2.07.3.76.52,4.53-.94,5.53-1.31,3.83-1.38,7.76-2.96,11.65-5.17,1.24-.71,2.28-1.84,3.56-2.71.73-.5,1.45-1,2.18-1.5l-1-1.05c-4.94,4.02-9.63,6.65-14.52,8.44-1.69.6-3.37,1.2-5.06,1.8ZM179.66,50.72c.03.16.06.33.1.49.04.02.07.04.11.06,1.35.03,2.76-.96,4.12-1.51l-.95-.99c-.94.58-2.71,1.05-3.38,1.96ZM118.54,3.01c-.68,1.12-2.15,3.57-3.52,4.53-1.78,1.23-3.18,2.63-4.91,3.73-2.98,1.9-5.81,3.71-8.86,5.65-1.88,1.19-3.53,3.09-5.39,4.29-1.74,1.12-3.39,2.56-5.21,3.81-.91.83-1.81,1.66-2.72,2.48-.99.75-3.01,2.27-3.68,3.19,0,.1.01.2.02.3.06.05.12.09.19.14.72.11,2.46-1.56,3.28-2.12,2.69-1.82,5.11-4.46,7.71-6.08.89-.62,1.78-1.24,2.67-1.86.9-.76,1.81-1.51,2.71-2.27,1.59-1.07,3.18-2.15,4.77-3.22,1.37-.8,2.75-1.6,4.12-2.4,1.02-.73,2.04-1.45,3.06-2.18,1.74-1.11,4.13-2.97,5.43-4.86,2.46-3.57,4.04-6.93,5.56-10.5.82-1.91,1.45-4.09,2.99-5.92l-1.01-1.06c-1.31,1.48-1.92,3.29-2.61,4.82-1.46,3.22-2.66,6.3-4.59,9.52ZM162.13,40.95c-3.54,2.35-6.61,4.61-10.04,6.02-2.8,1.15-5.6,2.28-8.42,2.94-2.26.6-4.51,1.19-6.77,1.79-3.74,1.34-7.32,3.29-11.11,5.46-1.48.85-3.29,2.43-4.59,3.96-.85,1.01-2.14,1.95-2.89,3.02-1.77,2.48-3.53,4.96-5.3,7.44-.77,1.07-3.98,3.83-4.15,4.75.09.07.18.15.27.22.79.25,4.16-3.28,4.76-4.12,2.64-3.69,4.9-7.16,8.74-10.83.92-.88,1.62-1.77,2.66-2.43,4.16-2.64,7.96-4.76,12.05-6.25,3.42-.95,6.84-1.9,10.26-2.85,3.17-1.14,6.42-2.34,9.59-4.11,2.04-1.14,3.79-2.62,5.92-4.01,2.47-1.6,5.21-3.98,7.34-6.41l-1.06-1.11c-.91.94-1.82,1.87-2.73,2.81-1.66,1.14-2.92,2.62-4.53,3.69ZM162.67,35.29c-4.21,4.02-7.98,7.12-12.04,9.09-3.24,1.58-6.71,2.77-10.01,3.56-1.73.47-3.46.93-5.18,1.4-3.44,1.24-6.99,2.93-10.39,4.66-1.96,1-4.88,3.25-6.47,5.32-1.03,1.35-2.35,2.27-3.15,3.53-1.41,2.23-2.59,4.52-4.23,6.73-.86,1.17-2.07,2.34-3.22,3.18-.33.32-.67.63-1,.95-.6.41-1.53,1.18-2.05,1.85-1.87,2.44-3.52,4.57-5.26,6.98-.98,1.12-1.97,2.23-2.95,3.35.03.25.1.36.37.44.65-.36,1.35-1.08,2.02-1.71,2.52-2.4,3.97-4.76,5.76-7.18,2.04-2.78,5.52-4.6,7.52-7.39,2.45-3.41,3.96-6.92,7.51-10.18,1.32-1.21,2.38-2.5,3.8-3.41,2.27-1.46,4.42-2.44,6.62-3.45,1.53-.7,3.07-1.41,4.6-2.11,2.01-.74,4.14-1.27,6.17-1.75,3.57-.85,7.25-2.14,10.77-3.86,5.2-2.55,10.78-7.5,15.76-12.69l-1.11-1.16c-1.09,1.35-2.48,2.57-3.84,3.87ZM164.23,50.59c-1.76.67-3.52,1.34-5.28,2.02-2.43.99-4.67,2.67-7.17,3.92-2.15,1.08-4.28,1.73-6.43,2.53-.57.21-2.02.37-2.3,1.08.07.15.14.29.21.44,1.08.02,2.19-.46,3.27-.79,1.78-.53,3.67-1.03,5.44-1.9,1.74-1.01,3.48-2.01,5.22-3.02,2.8-1.42,5.51-2.29,8.27-3.44,1.78-.74,3.34-1.96,5.14-3.05,2.35-1.43,4.77-3.07,7.07-5.26l-1.03-1.08c-2.1,2.06-4.42,3.7-6.58,5.05-2.03,1.28-3.83,2.68-5.83,3.49ZM129.76,13.77c-.69.89-1.78,1.69-2.57,2.24-1.06.83-2.12,1.67-3.18,2.5-.62.42-2,1.12-2.16,1.79.05.11.1.22.16.33.98.35,3.93-2.15,5.11-2.92,6.61-4.27,7.88-10.27,11.7-15.34l-1.08-1.14c-1.66,2.14-2.82,4.76-4.08,7-1.07,1.93-2.35,3.53-3.9,5.52ZM148.86,30.3c-1.38,1.81-4.29,3.64-5.86,4.52-5.18,2.91-10.01,4.04-15.16,5.93-2,.73-4.01,1.24-5.96,1.97-1.44.54-2.87,1.36-4.28,2.12-1.9,1.03-3.48,2.66-5.49,4.02-1.28.86-4.46,2.69-5.14,3.89.08.17.09.22.24.36.92.09,2.28-1.15,3.18-1.66,1.02-.58,2.05-1.35,3.11-2.07.72-.58,1.44-1.16,2.16-1.74,1.67-1.07,3.26-2.08,4.92-2.89,2.01-.99,4.03-1.41,6.02-2.13,1.46-.56,2.92-1.12,4.38-1.69,2.37-.76,4.74-1.51,7.1-2.27,2.79-1.04,5.39-2.46,8.24-4.3,5.1-3.31,7.53-8.54,10.99-12.59l-1.08-1.14c-1.49,2.07-2.98,4.14-4.47,6.21-.82,1.21-1.96,2.22-2.9,3.46ZM134.26,13.66c-.52.6-1.04,1.2-1.56,1.81-1.25,1.61-3.95,3.12-5.32,3.86-2.65,1.43-5.04,2.79-7.68,3.88-1.4.59-2.79,1.18-4.19,1.77-1.33.66-2.44,1.62-3.83,2.59-1.46,1.02-2.5,2.59-3.88,3.54-2.49,1.72-4.73,3.37-7.11,4.87-1.42.9-2.6,1.99-3.97,2.73-.77.42-3.62,1.44-3.79,2.13,0,.03.02.05.03.08.24.25.31.2.54.23,1.01-.43,2.19-.67,3.25-1.2,1.53-.76,2.87-1.91,4.46-2.88,2.22-1.35,4.34-2.9,6.64-4.42,2.12-1.41,4.06-4.01,6.14-5.28,2.4-1.46,4.71-2.34,7.1-3.33,2.31-.95,4.37-2.22,6.67-3.39,1.69-.86,4.9-2.61,6.46-4.67.76-1,1.58-1.86,2.21-2.85,1.65-2.7,3.3-5.4,4.95-8.09l-1.08-1.14c-.88,1.5-1.76,3.01-2.64,4.51-1.03,1.79-2.12,3.51-3.38,5.23ZM103.47,28.25c-1.47.82-2.95,1.65-4.42,2.47-1.13.89-2.27,1.77-3.4,2.66-1.62,1-3.25,2-4.87,3-1.57.79-3.03,1.05-4.51,1.6-1.73.64-3.44,1.56-5.1,2.21-.5.2-1.15.56-.62,1.12,2-.27,3.83-1.32,5.91-2.08,1.53-.57,3.08-.92,4.68-1.71,1.87-.92,3.62-2.17,5.45-3.34.91-.73,1.82-1.46,2.74-2.19,1.7-.99,3.41-1.98,5.11-2.97,1.67-1.25,3.33-2.51,5-3.76.03-.1.06-.2.09-.3-.17-.29-.27-.32-.56-.37-1.79.83-3.57,2.49-5.48,3.64ZM122.36,8.06c-.83,1.33-2.13,2.43-3.18,3.83-.42.37-.85.74-1.27,1.11-1.81,1.24-3.24,2.41-4.93,3.27-3.4,1.73-6.63,3.79-10.01,5.89-1.1.82-2.21,1.65-3.31,2.47-1.62,1.05-3.17,2.01-4.87,3.16-.8.68-1.6,1.35-2.41,2.03-2.06,1.47-4.12,2.94-6.18,4.41-1.84,1.12-3.57,1.93-5.35,2.83-1.37.81-2.73,1.62-4.1,2.42-1.4.71-2.76,1.07-4.13,1.39-1.21.41-2.42.83-3.64,1.24-1.67.54-3.41.86-5.13,1.5-3.46,1.3-6.87,3.15-10.32,5.29-1.66,1.03-3.09,2.61-4.78,3.76-.61.56-1.22,1.13-1.83,1.69-1.76,1.67-3.36,3.33-4.57,5.04-2.09,2.98-4.25,5.6-5.84,8.54-1.65,3.05-2.89,6.1-4.61,9.16-1.12,1.98-2.6,3.79-3.85,5.79-.62,1.11-1.25,2.21-1.87,3.32-.61,1.08-1.47,2.08-2.24,3.15-1.68,1.99-3.37,3.99-5.05,5.98-.68.9-1.82,1.63-2.39,2.49l.07.46s.07.04.11.06c.51.17,2.68-1.68,3.26-2.42,1.9-2.43,4.63-5.02,6.34-7.63,1-1.68,2-3.35,2.99-5.03,1.7-2.71,3.66-5.12,4.93-7.83,3.19-6.79,6.71-13.76,13.77-20.49,5.83-5.56,11.65-8.56,17.44-10.65,1.2-.31,2.4-.63,3.6-.94,1.28-.43,2.57-.86,3.85-1.29.92-.24,1.84-.48,2.76-.72,1.6-.58,3.12-1.81,4.75-2.68,1.62-.8,3.24-1.6,4.86-2.41,1.69-.95,3.19-2.45,4.91-3.57,1.09-.76,2.19-1.52,3.28-2.28.95-.76,1.9-1.53,2.85-2.29,1.4-.86,2.81-1.72,4.21-2.58,1.73-1.08,3.18-2.46,4.85-3.41,3.41-1.94,6.72-3.71,10.09-5.7,1.61-.95,3.11-2.07,4.8-3.68.49-.49.98-.97,1.47-1.46,2.83-3.76,4.54-7.05,6.36-10.83.64-1.32,1.45-2.61,2.21-3.96.34-.61.65-1.31,1.16-1.9l-1.08-1.13c-.42.69-.83,1.39-1.25,2.08-.88,1.61-1.76,3.23-2.64,4.84-1.41,2.57-2.49,5.12-4.09,7.66ZM125.68,8.55c-.97,1.72-2.51,4.16-4.69,5.64-.97.84-1.94,1.67-2.91,2.51-4.09,2.68-7.76,4.27-11.81,6.55-1.62.91-3.05,2.22-4.74,3.25-1.37.8-2.75,1.6-4.12,2.4-.88.68-1.77,1.37-2.65,2.05-1.62,1.07-3.25,2.15-4.88,3.22-.73.43-1.88.94-2.43,1.68,0,.11,0,.22,0,.33.06.05.12.09.19.14.67.22,2.54-1.13,3.32-1.57,1.4-.8,2.8-1.72,4.24-2.66,1.54-1.02,2.83-2.26,4.3-3.04,3.05-1.63,6.31-4.21,9.38-5.77,3.02-1.54,5.91-2.83,8.98-4.69,1.57-.95,2.85-2.44,4.48-3.74.92-.74,2-1.74,2.69-2.67,3.66-4.97,5.4-9.94,8.8-15l-1.06-1.11c-.98,1.21-1.73,2.73-2.43,4.01-1.63,2.96-3.01,5.61-4.65,8.51ZM144.39,25.67c-.43.58-1.14,1.43-1.83,1.91-.61.49-1.22.98-1.82,1.47-1.49.98-2.91,1.98-4.4,2.71-5.82,2.86-11.77,3.93-17.56,6.31-3.32,1.36-6.7,4.21-10.02,6.21-1.21.73-2.22,1.53-3.38,1.95-1.42.4-2.84.8-4.26,1.2-1.21.51-2.41,1.03-3.62,1.54-2.34.85-4.98,1.03-7.35,1.23-.9.08-1.89-.08-2.79-.2-1.38-.19-2.84-.16-4.23,0-.75.09-1.73,0-2.45.54v.43c.05.05.11.09.18.14.64.24,1.56,0,2.22-.06,1,.01,2.01.03,3.01.04,2.96.39,4.99.25,7.98-.19,1.19-.17,2.49-.27,3.68-.7,1.33-.56,2.67-1.13,4-1.69,1.85-.67,3.8-.92,5.68-1.87.66-.44,1.32-.87,1.98-1.31,3.21-1.9,6.58-4.75,9.82-6.08,7.25-2.98,14.27-3.92,21.7-8.62,3.88-2.45,6.98-6.78,9.11-10.17.75-1.2,1.53-2.55,2.53-3.68l-1.03-1.08c-1.17,1.16-2.13,3.04-2.95,4.35-1.23,1.96-2.66,3.54-4.2,5.59ZM133.15,19.49c-3.58,2.33-7.18,3.84-10.82,5.65-2.54,1.27-4.88,2.02-7.45,3.35-.91.47-2.34,1.18-3.01,2.18,0,.08.01.16.02.24.18.2.27.24.43.28,1.46-.75,3.08-1.72,4.64-2.36,1.44-.56,2.88-1.12,4.32-1.69,2.48-1.23,4.96-2.47,7.44-3.7,2.33-1.15,4.63-2.04,7.02-4.31.41-.39.81-.78,1.22-1.16,1.48-1.98,2.69-3.59,3.76-5.5.9-1.61,1.71-3.45,3-4.97l-1.09-1.14s-.02.02-.03.03c-.74,1.22-1.49,2.44-2.23,3.66-1.56,2.84-3.56,7.05-7.22,9.43ZM142.7,31.46c-7.03,4.46-13.72,5.83-20.7,8.45-1.82.69-3.66,1.24-5.5,2.28-1.09.62-1.98,1.62-3.12,2.39-1.5,1.03-2.83,2.18-4.47,3.31-.54.53-1.07,1.06-1.61,1.59-1.64,1.6-3.32,3.3-5.01,4.25-1.38.78-2.63.66-3.98.88-.42.07-1.27.04-1.64.67-.84,1.41,3.02,4.44,4.23,2.38-.07-.13-.14-.26-.21-.38-.31-.09-3.1-.15-2.79-1.26.09-.32.97-.29,1.2-.3,1.27-.01,2.47-.19,3.76-.89,1.08-.58,3.11-2.17,4.04-3.37.74-.72,1.48-1.45,2.22-2.17,1.83-1.26,3.36-2.58,5.08-3.73.76-.61,1.53-1.21,2.29-1.82,2.07-1.26,4.01-1.86,6.03-2.62,7-2.63,13.78-4.03,20.8-8.4,5.52-3.43,8.23-9.18,11.58-13.47l-1.01-1.06c-1.08,1.05-1.85,2.52-2.58,3.68-1.9,3.03-5.02,7.31-8.61,9.58ZM141.79,24.06c-1.23,1.63-3.94,3.33-5.3,4.1-3.14,1.78-6.03,3.01-9.1,4.12-1.55.47-3.1.94-4.64,1.41-1.52.66-3.05,1.32-4.57,1.98-1.71.69-3.49,1.37-5.23,2.34-2.2,1.23-4.26,3.14-6.5,4.45-1.47.86-2.9,1.56-4.36,2.09-1.06.31-2.13.62-3.19.93-1.23.49-2.46.97-3.69,1.46-.65.21-4.05.99-4.26,1.36-.01.12-.02.23-.04.35.04.05.09.09.13.14,1.62.53,5.28-1.05,7.09-1.73,2.46-.92,4.93-1.36,7.41-2.62,2.57-1.31,4.99-3.63,7.63-5.05,2.12-1.14,4.14-2,6.19-2.83,1.27-.56,2.54-1.11,3.81-1.67,1.14-.33,2.27-.65,3.41-.98,2.45-.82,4.8-1.66,7.28-2.81,2.63-1.22,5.32-2.64,7.96-5.15.49-.47.98-.93,1.47-1.4.98-1.29,2.06-2.36,2.88-3.65,1.37-2.14,2.66-4.27,4.28-6.35l-1.03-1.08c-1.5,1.85-2.66,3.93-3.89,5.87-1.04,1.65-2.44,3-3.72,4.71ZM138.92,18.16c-.59.81-1.34,1.81-2.34,2.49-.83.61-1.66,1.23-2.48,1.84-2.02,1.19-4.06,2.05-6.06,3.03-4.35,2.13-8.45,4.09-12.77,5.82-1.89.71-3.77,1.41-5.66,2.12-1.77.85-3.34,2.17-5.23,3.35-2.83,1.76-5.92,3.82-8.82,4.86-1.57.57-3.2.42-4.76.78-1.13.26-2.21.91-3.34,1.33-1.62.61-3.31,1.1-4.94,1.43-3.61.6-7.22,1.2-10.83,1.8-4.9,1.05-9.63,2.72-14.58,5.65-2.13,1.26-3.91,2.78-5.86,4.63-.62.61-1.24,1.22-1.86,1.83-.31.3-.63.6-.94.9-.95,1.1-1.9,2.2-2.84,3.29-1.76,2.51-3.13,4.87-4.46,7.27-1.05,1.73-2.11,3.46-3.16,5.18-.54,1.21-1.09,2.41-1.63,3.62-.64,1.39-1.4,2.71-2.02,4.05-.97,2.06-2.4,4.06-3.86,6.06-.6.83-2.05,1.77-1.85,2.61.48.3,1.63-.7,2.09-1.31.55-.63,1.1-1.26,1.64-1.89,1.16-1.66,2.28-3.31,3.07-5,1.31-2.75,2.63-5.5,3.94-8.26.93-1.5,1.86-3.01,2.79-4.52.78-1.44,1.57-2.87,2.35-4.31,2.3-3.7,7.33-9.33,11.4-11.98,3.17-2.07,6.09-3.61,9.2-4.74,6.75-2.45,13.55-2.71,20.3-4.32,1.83-.44,3.54-1.59,5.42-2.04,2.28-.55,4.46-.61,6.79-1.65,2.55-1.15,5.01-2.78,7.5-4.29,1.47-.89,2.7-2.06,4.11-2.75,2.91-1.43,5.96-2.34,8.92-3.53,3.79-1.52,7.42-3.4,11.29-5.15,3.01-1.37,6.54-2.65,9.47-5.96,3.06-3.45,4.53-7.06,7.14-10.46l-1.06-1.11c-.72,1.14-1.43,2.28-2.15,3.42-1.17,2.04-2.41,3.84-3.91,5.9ZM79.11,83.41c-.53.58-1.06,1.15-1.59,1.72-.86,1.16-2.41,2.29-3.28,3.56-1,1.44-1.98,2.84-2.79,4.3-1.08,1.97-1.96,4-3.21,5.97-.74,1.18-1.88,2.13-2.76,3.32-1.07,1.48-2.15,2.97-3.22,4.45-1.53,2.12-4.36,4.16-6.31,5.54-2.17,1.53-3.41,4.17-4.7,5.96-.76.76-1.52,1.52-2.28,2.28-2.42,2.31-4.56,4.16-6.84,5.1-.79.33-2.97,1.1-3.14,2.04.06.05.12.09.19.14.73.25,2.03-.52,2.78-.8,1.09-.4,2.19-.84,3.32-1.52.98-.59,1.95-1.65,2.91-2.56,1.19-1.1,2.38-2.2,3.58-3.3.47-.62.93-1.24,1.4-1.86.92-1.54,1.99-3.59,4-4.97,1.82-1.26,4.21-2.81,5.73-4.88,1.15-1.57,2.13-2.99,3.23-4.51.98-1.35,2.36-2.47,3.18-3.77,2.28-3.61,3.67-7.1,6.41-10.83,1.15-1.22,2.3-2.44,3.45-3.66,1.22-1.39,2.43-2.78,3.65-4.17,2.44-3.27,4.13-5.9,3.74-9.18-.42-3.62-3.38-6.65-6.92-7.59-5.6-1.49-11.01.07-16.76,3.64-2.64,1.64-4.73,4.48-6.26,6.71-.63.93-1.45,1.73-1.61,2.65.19.19.23.17.4.2,1.47-1.05,2.63-2.85,3.57-4.2,1.12-1.6,3.08-3.42,4.71-4.44,5.21-3.24,10.5-4.78,15.59-3.37,4.75,1.32,6.77,5.92,5.71,9.71-.82,2.89-3.67,5.42-5.86,8.35ZM37.68,168.04c2.82-1.81,5.28-3.95,8.02-5.42,6.19-3.32,12.6-5.69,18.86-8.77,2.31-1.34,4.62-2.67,6.93-4.01,1.26-.88,2.52-1.77,3.78-2.65,2.13-1.35,4.12-2.97,6.22-4.98.63-.64,1.26-1.27,1.89-1.91,1.21-1.65,2.27-3.21,3.29-4.83.7-1,1.4-2.01,2.1-3.01.22-.36.81-.94.27-1.21-.05-.02-.11-.04-.16-.06-.98.83-1.74,1.91-2.4,2.87-1.33,1.93-2.55,3.59-3.98,5.49-.72.96-1.81,2.05-2.8,2.73-.73.62-1.46,1.25-2.19,1.87-1.21.84-2.43,1.68-3.64,2.52-1.14.8-2.28,1.61-3.42,2.41-2.78,1.67-5.75,3.49-8.63,4.78-5.18,2.33-10.36,4.65-15.54,6.98-4.05,2-8,5.29-12.09,7.98-.85.65-1.69,1.3-2.54,1.95-1.33.99-2.67,1.98-4,2.97-1.89,1.23-3.81,2.75-5.66,4.5l.96,1c2.73-2.24,5.47-4.49,8.31-6.4,2.26-1.52,4.26-3.41,6.43-4.81ZM31.16,168.43c1.52-1.05,3.05-2.1,4.58-3.14,2.47-1.57,4.71-3.42,7.19-4.68,3.4-1.73,6.67-3.02,10-4.4,1.28-.62,2.56-1.24,3.84-1.86,3.15-1.42,6.45-2.97,9.62-4.57,3.24-1.63,6.32-4.03,9.47-6.06.96-.75,1.92-1.51,2.87-2.26.61-.56,1.22-1.13,1.83-1.69,2.03-1.94,3.6-3.76,4.99-5.71,1.92-2.69,4.09-5.03,5.6-7.68,1.13-2.05,2.27-4.1,3.4-6.15.7-1.66,1.4-3.31,2.1-4.97.63-1.17,1.27-2.34,1.9-3.51.87-1.85,1.67-3.65,2.76-5.55,1.06-1.54,2.12-3.08,3.17-4.62,1.76-2.59,4.34-4.79,6.39-7.47,1.18-1.54,3.76-3.19,5.08-4,2.52-1.53,4.78-3.17,7.28-5.03,1.51-1.32,3.03-2.64,4.54-3.96,1.93-1.32,3.67-2.56,5.49-3.8,1.58-1.47,3.16-2.94,4.74-4.42,2.2-1.51,4.07-2.94,6.2-4,4.36-2.19,8.56-3.16,12.84-4.14,3.63-.93,7.26-1.87,10.88-2.8,6.84-1.73,13.53-5.08,20.37-7.69l-1.11-1.17s.06.07.09.1c-7.41,2.79-14.61,6.39-21.99,8.15-2.5.65-5,1.31-7.5,1.96-5.08,1.17-9.96,2.3-15.14,4.9-1.92.96-3.51,2.29-5.54,3.69-1.43,1.33-2.86,2.66-4.3,3.99-2.12,1.44-4.04,2.96-6.26,4.49-1.5,1.34-2.99,2.68-4.49,4.01-1.05.77-2.1,1.54-3.15,2.31-2.48,1.48-5.28,3.07-7.58,5.38-.63.6-1.26,1.2-1.89,1.8-1.91,2.5-4.26,4.63-5.92,7.07-1.18,1.74-2.36,3.49-3.54,5.23-.99,1.75-1.73,3.45-2.54,5.17-.67,1.26-1.34,2.52-2.01,3.77-.83,1.81-1.54,3.67-2.41,5.53-1.99,4.23-4.84,7.99-7.88,12.23-.94,1.31-2.06,2.37-3.15,3.8-.45.58-1.17,1.43-1.78,1.86-.52.48-1.03.95-1.55,1.43-.93.76-1.86,1.53-2.79,2.29-3.17,2.08-6.44,4.61-9.77,6.3-3.03,1.54-6.22,3.13-9.27,4.39-1.49.71-2.98,1.43-4.47,2.14-3.38,1.39-6.76,2.58-10.19,4.42-3.88,2.08-7.53,4.94-11.37,7.46-1.17.9-2.34,1.81-3.51,2.71-2.59,1.69-5.33,3.61-7.81,5.92l.98,1.03c2.66-2.17,5.21-4.27,7.89-6,.94-.74,1.88-1.47,2.82-2.21ZM35.56,173.93c1.12-.93,2.25-1.86,3.37-2.79,2.32-1.56,4.4-3.46,6.7-4.86,2.88-1.74,5.65-3.2,8.51-4.57,2.67-1.28,5.24-2.76,7.97-4.37.57-.34,2.55-1.32,2.84-1.91,0-.04,0-.07,0-.11-.02-.12-.1-.25-.24-.3-.73-.23-2,.82-2.74,1.24-2.34,1.3-4.6,2.56-6.95,3.71-3.57,1.76-7.09,3.43-10.76,5.65-2.33,1.41-4.43,3.33-6.79,4.94-.84.71-1.68,1.42-2.52,2.14-3.59,2.44-6.9,5.21-10.46,8.19l.95,1c1.14-.95,2.28-1.9,3.43-2.85,2.23-1.7,4.46-3.4,6.68-5.1ZM34.96,178.58c1.8-1.43,3.59-2.86,5.39-4.29.68-.56,1.36-1.12,2.05-1.69,2.23-1.65,4.45-3.29,6.68-4.94,3.91-2.37,7.65-4.43,11.6-6.83,1.96-1.19,3.68-2.74,5.68-4.09.85-.68,1.7-1.37,2.54-2.05,1.48-1.02,2.96-2.04,4.44-3.07,1.18-.91,2.36-1.82,3.54-2.74,1.61-1.02,3.1-2.22,4.72-3.44.63-.58,1.26-1.16,1.89-1.74.78-.98,1.56-1.95,2.35-2.93,1.31-1.96,2.43-3.9,3.56-5.88.69-1.21,1.58-2.27,2.14-3.47.46-1.09.92-2.18,1.38-3.27.88-1.87,2.24-3.55,3.08-5.38.77-1.79,1.53-3.58,2.3-5.37.62-1.21,1.23-2.41,1.85-3.62.59-1.33,1.07-2.73,1.8-4.05,1.23-2.22,2.83-4.32,4.33-6.46.63-.76,1.27-1.52,1.9-2.29,1.38-1.87,3.51-4.26,5.64-5.69,2.6-1.76,5-3.33,7.52-4.89,1.2-.97,2.4-1.93,3.59-2.9,2.16-1.47,4.77-3.1,6.56-5.51.44-.59.94-.97,1.09-1.52-.07-.14-.12-.29-.29-.36-.57-.2-1.43.78-2.01,1.33-1.54,1.47-2.79,2.75-4.4,3.77-1.7,1.08-3.39,2.88-5.17,4.02-2.38,1.53-4.71,3.07-7.19,4.74-2.38,1.6-4.94,4.4-6.47,6.54-.81,1.12-1.74,1.97-2.43,3.06-1.23,1.93-2.7,3.87-3.77,5.82-.6,1.31-1.2,2.63-1.8,3.94-.6,1.17-1.19,2.34-1.79,3.51-.7,1.67-1.4,3.35-2.1,5.02-.96,2.16-2.57,4.2-3.6,6.39-.48,1.15-.96,2.29-1.44,3.44-.77,1.23-1.54,2.46-2.31,3.69-.98,1.71-1.97,3.38-3.13,5.1-.69.81-1.38,1.63-2.06,2.44-.5.46-1,.92-1.5,1.37-.53.45-1.05.9-1.58,1.35-1.08.73-2.17,1.47-3.25,2.2-1.3,1.01-2.6,2.02-3.89,3.02-1.38.94-2.76,1.89-4.13,2.83-.97.8-1.94,1.6-2.9,2.4-1.78,1.22-3.3,2.62-5.05,3.65-3.96,2.33-7.74,4.33-11.6,6.67-3.07,1.86-5.86,4.47-8.94,6.57-.92.75-1.84,1.51-2.77,2.27-1.88,1.28-3.49,3-5.44,4.34-1.58,1.08-3.11,2.39-4.62,3.82l.93.97c1.31-1.2,2.68-2.41,4.06-3.35,1.01-.83,2.03-1.65,3.04-2.48ZM39.06,179.27c1.5-1.22,3-2.44,4.51-3.66l2.46-2.14c2.01-1.38,3.62-3.27,5.75-4.64,1.5-.96,3.01-1.8,4.48-2.63,2.16-1.37,4.31-2.74,6.47-4.1,1.57-1.16,3.15-2.33,4.72-3.49,2.97-1.9,5.75-3.87,8.62-5.73,1.27-.83,2.37-2.17,3.62-3.03.64-.52,1.27-1.04,1.91-1.55.93-.63,2.28-1.6,3.1-2.69,1.46-1.95,3.09-3.79,4.34-5.78.75-1.32,1.51-2.64,2.26-3.96.81-1.21,1.61-2.42,2.42-3.63.79-1.43,1.26-2.89,1.92-4.32.77-1.37,1.55-2.75,2.32-4.12.61-1.29,1.22-2.57,1.83-3.86.57-1.02,1.13-2.03,1.7-3.05,1.01-1.96,1.63-3.93,2.52-5.85.77-1.66,1.98-3.21,3.15-4.86,1.07-1.51,2.68-2.66,3.87-4.22,1.13-1.49,2.28-2.98,3.81-4,2.21-1.48,4.24-2.58,6.44-3.91,1.64-1,2.97-2.36,4.67-3.5,1.05-.82,2.1-1.65,3.15-2.47.87-.6,2.17-1.64,2.91-2.61.74-.98,1.48-1.81,2.02-2.77.65-1.16,1.03-2.35,1.87-3.53,1.23-1.74,3.44-3.51,5.07-4.57,2.24-1.45,4.1-2.97,6.28-4.13,4.29-2.3,8.23-2.84,12.42-3.69,2.01-.45,4.02-.9,6.02-1.35,8.31-1.96,16.63-5.51,24.92-8.69l-1.06-1.11c-2.32.92-4.65,1.83-6.97,2.75-6.26,2.51-12.47,4.86-18.75,6.22-4.66,1.01-9.46,1.51-14.07,3.24-2.73,1.02-5.44,2.83-8.16,4.55-2.28,1.44-5.36,3.82-7.01,6.26-.83,1.24-1.14,2.48-1.82,3.7-.49.88-1.27,1.65-1.93,2.53-.57.76-1.55,1.44-2.21,1.9-1.33,1.05-2.65,2.11-3.98,3.16-1.51,1.03-2.7,2.25-4.17,3.13-2.08,1.23-4.07,2.35-6.16,3.76-1.41.95-2.76,2.54-3.67,3.76-1.35,1.81-3.25,3.22-4.48,4.96-1.08,1.51-2.3,3.03-3.04,4.59-1.02,2.16-1.78,4.31-2.84,6.52-.45.8-.91,1.61-1.36,2.41-1.21,2.59-2.61,5.06-4.01,7.74-.81,1.55-1.26,3.12-2.06,4.61-.82,1.25-1.65,2.49-2.47,3.74-.63,1.15-1.27,2.3-1.9,3.45-1.4,1.94-2.8,3.87-4.2,5.81-1.21,1.64-3.3,3.11-4.9,4.19-1.23,1.03-2.45,2.06-3.68,3.08-2.73,1.82-5.46,3.65-8.18,5.47-2.01,1.48-4.03,2.96-6.04,4.44-4.16,2.46-7.96,4.75-12.11,7.52-.76.63-1.51,1.27-2.27,1.9-2.78,1.92-5.07,4.5-7.77,6.35-.87.77-1.74,1.55-2.6,2.32-.99.82-1.97,1.63-2.96,2.45-1.55,1.06-3.02,2.36-4.51,3.77l.9.95c2.28-1.91,4.55-3.82,6.83-5.73.68-.62,1.37-1.23,2.05-1.85ZM25.62,151.57c2.26-1.51,4.29-2.89,6.5-4.24,1.29-.79,2.37-1.72,3.61-2.33,2.02-.99,4.16-1.6,6.2-2.1,2.37-.59,4.78-1.61,7.11-2.49,5.02-1.89,10.02-4.59,15.03-7.45,1.75-1,3.29-2.34,5.05-3.54.53-.47,1.05-.93,1.58-1.4,4.42-3.18,6.09-7.98,7.62-11.61,1.29-3.08,2.71-6.06,4.04-9.04.94-1.88,1.88-3.77,2.82-5.65.55-1.33,1.09-2.67,1.64-4,.79-1.55,1.88-3.05,2.9-4.57,2.32-3.43,6.31-6.78,8.3-10.29,1.74-3.09,2.14-6.28,3.59-9.4.51-1.1,1.41-2.1,2.24-3.2,1.98-2.61,5.28-2.63,7.53-4.16,1.64-1.11,2.37-3.56,3.32-4.96,1.96-2.91,6.58-6.95,9.42-8.4,1.47-.75,2.94-1.31,4.38-1.9,2-.82,3.85-1.94,5.76-2.63,2.52-.71,5.04-1.42,7.56-2.12,3.36-.87,6.76-2.43,10.08-4.31,4.48-2.54,9.35-7.65,13.19-11.83l-1.06-1.11c-.83.93-1.66,1.86-2.48,2.79-.99.98-1.98,1.96-2.97,2.94-2.77,2.8-5.93,5.37-8.87,6.87-2.98,1.52-6.05,2.91-9.06,3.66-2.27.63-4.55,1.27-6.82,1.9-1.95.7-3.85,1.81-5.89,2.65-1.49.62-3.03,1.15-4.52,1.98-2.88,1.61-7.28,5.24-9.44,8.37-.43.68-.86,1.35-1.3,2.03-.44.9-.78,2.23-1.94,3.02-2.47,1.66-5.49,1.44-7.75,4.42-1.19,1.56-2.22,2.99-2.87,4.54-1.14,2.71-1.53,5.61-3.04,8.31-.95,1.68-2.57,3.03-3.91,4.79-1.47,1.93-3.1,3.59-4.39,5.51-1.11,1.65-2.26,3.29-3.13,5-.61,1.45-1.23,2.9-1.84,4.35-.9,1.94-1.94,3.7-2.76,5.6-1.31,3.02-2.73,6.04-4.07,9.12-.8,1.85-1.48,3.7-2.65,5.55-.77,1.22-1.96,2.33-2.96,3.51-.66.78-1.59,1.69-2.44,2.27-1.81,1.25-3.36,2.66-5.13,3.73-4.78,2.88-9.75,5.47-14.6,7.3-2,.72-3.99,1.44-5.99,2.16-2.32.81-4.7,1.27-7.08,2.25-1.61.66-2.9,1.8-4.6,2.9-2,1.29-4,2.58-6,3.87-1.39,1.11-2.78,2.23-4.17,3.34-1.94,1.27-3.7,2.17-5.58,3.26-2.59,1.49-5.66,4.04-8.15,6.39l.93.97c3.99-3.89,8.27-6.32,12.19-8.71,1.71-1.04,3.16-2.71,4.89-3.87ZM145.22,54.59c-1.93.46-3.74,1.14-5.71,1.95-2.45,1.01-4.84,2.08-7.3,3.57-1.66,1.24-3.31,2.49-4.97,3.73-1.06.73-2.51,2.31-3.22,3.23-1,1.29-2.87,2.67-4,4.19-.8.92-1.6,1.84-2.4,2.76-.81,1.06-1.9,2.38-3.14,3.31-1.08.81-2.29,1.96-3.45,2.55-1.32.66-2.52.93-3.92,1.89-.56.38-1.05.97-1.39,1.43-.41.46-.82.92-1.23,1.38-.82,1.14-1.64,2.27-2.47,3.41-2.03,2.86-5.13,5.35-6.81,8.19-3.24,5.49-5.98,10.76-9.04,16.3-.88,1.83-1.77,3.66-2.65,5.49-1.79,3.26-4.19,6.53-6.52,9.77-.87,1.21-2.28,2.73-3.56,3.6-.85.72-1.7,1.44-2.55,2.16-2.22,1.49-4.26,3.08-6.47,4.27-2.03,1.09-4.09,2.02-6.09,3-3.19,1.56-6.15,3.22-9.3,4.42-5.12,1.94-10.12,3.42-15.22,5.93-2.6,1.28-5.04,3.08-7.68,4.78-.77.5-2.27,1.38-2.44,2.22.21.21.26.17.46.2,4.45-2.29,8.84-5.74,13.22-7.52,3.76-1.37,7.51-2.75,11.27-4.12,3.43-1.29,6.68-3.05,10.14-4.75,2.18-1.07,4.47-2.11,6.7-3.37,2.23-1.25,4.25-2.83,6.53-4.37,1.69-1.14,3.28-2.91,4.88-4.44.74-.93,1.47-1.86,2.21-2.79,1.94-3.06,4.19-5.98,5.75-9.03.57-1.25,1.14-2.5,1.72-3.75,1.32-2.39,2.64-4.78,3.97-7.17.72-1.46,1.44-2.93,2.16-4.39,1.41-2.33,2.82-4.67,4.23-7,1.28-2.02,3.39-3.66,4.93-5.71,1.21-1.54,2.42-3.09,3.63-4.63.46-.63,1.2-1.66,1.95-2.18,1.64-1.13,2.96-1.47,4.5-2.33,1.02-.58,1.9-1.51,2.95-2.23.69-.68,1.39-1.36,2.08-2.04.42-.41.83-.83,1.25-1.24,1.14-1.28,2.28-2.57,3.43-3.85.77-.79,1.54-1.57,2.31-2.36,1.61-2.13,4.24-4.35,6.26-5.71,1.29-.87,2.33-1.86,3.59-2.57,3.21-1.82,6.5-3.36,9.76-4.54.73-.26,3.54-.86,3.94-1.48,0-.04,0-.07,0-.11-.09-.13-.17-.26-.26-.39-.66-.21-1.37.2-2.04.36ZM42.27,157.25c5.32-2.62,10.79-4.07,16.2-6.28,4.06-1.67,8.2-4.02,12.16-6.41,1.49-1.05,2.98-2.1,4.47-3.15.95-.82,1.9-1.64,2.85-2.45,1.01-.96,2.02-1.92,3.02-2.88.62-.65,1.24-1.29,1.86-1.94,1.44-1.92,3-3.66,4.17-5.51,3.86-6.1,6.25-11.85,9.1-17.89.5-.85,1-1.69,1.5-2.54,1.23-2.21,2.59-4.34,3.98-6.55,2-3.19,4.34-6.15,7.68-9.33,1-.97,2-1.94,3-2.91.85-.67,1.69-1.33,2.54-2,2.18-1.4,4.18-2.76,6.42-4.27,1.55-1.32,3.1-2.64,4.65-3.96,1.13-1.04,2.25-2.08,3.38-3.12,4-2.74,7.92-6.8,11.89-8.75,4.82-2.36,9.63-3.73,14.43-4.86,2.75-.65,5.4-1.58,8.1-2.22,5-1.19,9.84-3.66,14.88-5.56,2.42-.91,5.12-1.51,7.49-2.76l-1.1-1.16s.05.06.08.08c-1.04.43-2.08.85-3.12,1.28-2.25.82-4.6,1.56-6.89,2.49-3.52,1.43-6.86,3.14-10.37,4.01-3.46.86-6.81,2.02-10.32,2.85-4.96,1.17-9.94,2.68-14.93,5.23-1.41.72-2.52,1.84-4,2.86-2.32,1.81-4.64,3.61-6.96,5.42-.74.71-1.48,1.41-2.22,2.12-1.79,1.57-3.58,3.13-5.37,4.7-1.09.8-2.19,1.59-3.28,2.39-2.34,1.43-4.53,2.89-6.93,5.18-.64.64-1.28,1.29-1.92,1.93-1.1,1.07-2.2,2.13-3.3,3.2-1.45,1.91-2.95,3.59-4.17,5.51-2.18,3.46-4.35,6.87-6.27,10.37-.58,1.3-1.16,2.59-1.75,3.89-.57,1.16-1.14,2.32-1.71,3.48-1.7,3.7-3.54,7.29-5.96,11.08-1.07,1.69-2.52,3.04-3.86,4.79-.89,1.16-2.55,2.98-3.83,3.87-.48.44-.96.88-1.44,1.32-1.56,1.08-2.85,2.46-4.37,3.42-4.5,2.85-8.9,5.5-13.46,7.38-2.66,1.1-5.3,2.07-7.96,3.04-2.8,1.01-5.73,1.89-8.54,3.27-3.35,1.64-6.54,4.1-9.99,6.19-5.05,3.06-10.01,6.67-15.11,10.92l.95,1c5.02-4.33,10.32-8.08,15.42-11.16,3.07-1.85,5.89-4.14,8.89-5.62ZM44.79,189.49c.59-.55,1.18-1.09,1.77-1.64,1.93-1.79,3.86-3.58,5.79-5.37,3.02-2.56,6.03-5.12,9.05-7.67,2.94-2.13,5.89-4.27,8.83-6.41,1.45-1.35,2.9-2.7,4.35-4.04,1.88-1.38,3.75-2.77,5.63-4.15,1.64-1.12,2.97-2.57,4.53-3.63,1.48-1.36,2.96-2.71,4.43-4.07,1.62-1.72,3.25-3.45,4.87-5.17.6-.61,1.2-1.22,1.81-1.83,2.39-3.15,5.61-5.67,7.4-8.85,1.09-1.94,1.54-4.01,2.39-5.99.63-1.22,1.27-2.45,1.9-3.67,1.03-2.18,2.24-4.34,3.63-6.53,2.14-3.39,6.03-6.6,9.29-8.81,1.67-1.34,3.34-2.69,5-4.03,1.75-1.28,3.5-2.56,5.24-3.83,2.34-1.42,4.57-2.48,7.04-4.17,1.47-1.46,2.94-2.91,4.41-4.37,4.84-4.58,9.53-10.14,14.63-13.15,2.94-1.74,5.52-2.47,8.37-3.22.57-.15,2.7-.64,2.88-1.26-.38-.84-1.27-.32-1.92-.18-1.79.37-3.55.8-5.35,1.34-3.12.93-9.06,4.21-11.79,7.8-1.27,1.19-2.53,2.38-3.8,3.57-.79,1.04-1.68,2.07-2.7,3.05-.77.73-1.54,1.46-2.3,2.2-1.56,2.02-3.83,3.89-5.78,4.99-1.79,1.01-3.55,1.9-5.41,3.1-2.19,1.66-4.38,3.33-6.57,5-.75.62-1.49,1.25-2.24,1.87-3.38,2.33-7.29,5.46-9.68,9.01-2.48,3.7-4.53,7.6-6.18,11.4-.87,2.01-1.32,4.02-2.58,6.01-1.79,2.84-4.57,5.21-6.75,8.08-.6.63-1.2,1.25-1.81,1.88-1.11,1.43-2.95,2.82-4.12,4.35-.89.85-1.78,1.69-2.66,2.54-1.39.95-2.48,2.3-3.76,3.16-1.05.86-2.1,1.72-3.15,2.58-1.77,1.28-3.53,2.56-5.3,3.83l-1.55,1.48c-1.39,1.32-2.73,2.69-4.15,3.64-2.77,1.86-5.29,3.86-8.14,5.8-.34.31-.68.62-1.03.92-1.91,1.32-3.24,2.95-5.09,4.22-1.25,1.1-2.49,2.2-3.74,3.3-.48.46-.96.92-1.44,1.38-.96.88-1.92,1.76-2.88,2.64-.78.72-1.55,1.45-2.33,2.17l-1.83,1.69c-1.53,1.06-3.02,2.96-4.26,4.31l.88.92c1.11-1.17,2.23-2.33,3.34-3.5.94-.9,1.89-1.8,2.83-2.7ZM20.74,163.27c2.65-1.7,5.07-2.84,7.61-4.29,3.86-2.21,7.36-4.73,11.13-6.27,4.25-1.73,8.55-3.1,12.8-4.74,5.01-1.93,9.78-4.32,14.81-7.18,3.04-1.73,6.03-3.9,9.03-6.75.74-.71,1.48-1.41,2.22-2.12l1.95-2.18c1.3-1.77,2.63-3.39,3.65-5.17,2.96-5.19,5.24-10.26,7.66-15.41.75-1.34,1.51-2.68,2.26-4.01.98-1.77,2-3.64,3.08-5.43,1.34-2.22,3.1-4.23,4.76-6.45.83-.89,1.65-1.79,2.48-2.68.91-.99,1.82-1.98,2.73-2.97.45-.45.91-.9,1.36-1.35,1.95-1.35,3.58-2.67,5.46-3.88.96-.77,1.92-1.55,2.87-2.32,1.29-1.2,2.59-2.4,3.88-3.59.98-.68,2.54-2.11,3.27-3.07.59-.58,1.18-1.16,1.78-1.75.81-1.04,2.11-2.3,3.22-3.07,2.41-1.66,4.59-3.73,6.98-5.17,2.32-1.4,4.64-2.8,6.96-4.2,1.57-.79,3.17-1.29,4.77-2.11,1.91-.98,3.66-2.27,5.5-3.18,2.84-1.39,5.65-2.34,8.43-3.49,1.95-.8,3.79-1.97,5.74-3.09,2-1.15,3.74-2.77,5.79-4.2.85-.78,1.7-1.55,2.55-2.33l-1.03-1.08c-4.56,4.49-9.42,7.82-14.12,9.75-1.77.68-3.54,1.36-5.31,2.04-1.79.75-3.53,1.66-5.27,2.64-1.08.7-2.17,1.39-3.25,2.09-1.37.7-2.75,1.18-4.11,1.75l-3.85,2.08c-2.08,1.18-3.99,2.53-6.08,3.9-1.36,1.03-2.72,2.07-4.09,3.1-.91.84-1.83,1.67-2.74,2.51-.66.7-1.32,1.4-1.97,2.09-2.33,2.26-4.66,4.52-6.99,6.77-1.7,1.18-3.09,2.73-4.73,3.76-1.69,1.07-4.44,2.57-5.99,4.6-2.23,2.93-5.13,5.42-7.17,8.32-2.28,3.25-4.18,6.31-5.92,9.46-.58,1.02-1.17,2.03-1.75,3.05-2.95,6.13-5.52,11.96-9.41,18.13-.84,1.34-1.98,2.61-3.02,4-.57.6-1.15,1.2-1.72,1.8-.66.86-1.5,1.7-2.52,2.41-1.38.95-2.35,2.15-3.65,3-6.19,4.06-11.95,7.08-18.07,9.49-4.86,1.91-9.71,3.47-14.58,5.48-2.27.94-4.46,2.26-6.7,3.58-1.41.89-2.83,1.78-4.24,2.66-1.4.68-2.8,1.36-4.2,2.04-1.41.72-2.6,1.77-4.05,2.7-2.24,1.43-4.48,3.08-6.65,5.13l.9.95c.64-.53,1.29-1.06,1.93-1.59,1.87-1.39,3.74-2.79,5.6-4.18ZM33.94,158.74c2.05-1.24,4.1-2.48,6.16-3.49,3.25-1.59,6.57-2.62,9.82-3.81,3.88-1.42,7.76-3,11.66-4.77,3.71-1.68,7.28-4.06,11-6.46,1.34-1.08,2.67-2.16,4.01-3.24.47-.45.94-.9,1.41-1.35.97-.92,2.05-1.85,2.78-2.81,1.11-1.46,2.3-2.55,3.24-3.94,2.1-3.12,3.67-6.13,5.1-9.21.6-1.13,1.19-2.27,1.79-3.4,1.08-2.28,2.15-4.56,3.23-6.84,1.62-2.83,3.24-5.67,4.87-8.51,2-3.52,4.9-6.85,8.54-10.32,1.19-1.16,2.39-2.31,3.58-3.47,2-1.38,3.74-2.74,5.65-4.01,1.17-.94,2.34-1.88,3.51-2.82.56-.5,1.13-1,1.69-1.51,1.51-1.04,3.45-2.71,4.63-4.25l1.47-1.35c1.35-.94,2.42-2.07,3.68-2.92,1.35-1.12,2.71-2.23,4.06-3.35,1.67-1.07,3.34-2.15,5.03-2.84,3.96-1.61,8-2.24,11.91-3.67,1.21-.44,2.42-.91,3.62-1.6,1.96-1.12,3.61-2.71,5.48-3.48,2.28-.94,4.6-1.62,6.92-2.57,1.08-.44,2.02-1.11,3.1-1.69,2.67-1.42,5.34-3.31,8.08-5.59l-1.03-1.08c-3.55,3.09-7.64,5.92-11.21,7.41-2.22.83-4.45,1.67-6.67,2.5-1.85.83-3.57,2.36-5.5,3.45-1.19.67-2.43,1.18-3.64,1.62-4.29,1.56-8.72,1.99-13,4.14-1.71.86-3.27,1.95-5.01,3.13-.62.54-1.24,1.07-1.85,1.61-1.31,1.02-2.61,2.03-3.92,3.05-1.45,1.44-2.91,2.88-4.36,4.32-2.04,1.77-4.08,3.54-6.12,5.3-2.51,1.73-4.6,3.46-7.09,5.17-1.15,1.13-2.29,2.26-3.44,3.39-.86.82-1.72,1.64-2.58,2.46-1.43,1.87-3.08,3.4-4.3,5.16-4.24,6.16-7.37,12.3-10.23,18.44-.54,1.01-1.08,2.02-1.62,3.03-1.4,2.99-2.87,5.89-4.79,8.91-.86,1.35-1.96,2.44-3.02,3.83-1.14,1.5-2.93,3.44-4.58,4.58-1.31.9-2.24,2.07-3.49,2.9-5.79,3.84-11.11,6.89-16.78,9.12-5.14,2.01-10.32,3.55-15.4,5.84-3.83,1.73-7.45,4.45-11.38,6.67-4.58,2.58-9.73,5.78-14.28,10.07l.93.98c5.22-4.27,10.23-7.84,15.3-10.73,1.03-.68,2.06-1.36,3.08-2.04ZM-25.24,115.17c1.14-1.49,2.49-3.36,4.23-4.56,1.98-1.36,3.78-3.34,5.86-4.74,2.52-1.69,4.8-3.55,7.45-5.35.98-.67,3.04-2.26,3.85-3.3,1.81-2.32,3.57-4.24,5.22-6.46.8-.87,1.6-1.73,2.39-2.6.51-.48,1.02-.97,1.53-1.46.71-.92,1.94-1.99,2.88-2.64.43-.41.85-.81,1.28-1.22,1.2-1.14,2.34-2.31,3.26-3.53.77-.86,1.54-1.72,2.31-2.57,1.26-1.65,3.4-3,3.72-4.66-.17-.18-.22-.19-.37-.23-.73.52-1.77,1.55-2.42,2.41-.77.75-1.54,1.5-2.3,2.25-1.52,1.72-3.05,3.43-4.57,5.15-.52.46-1.03.92-1.55,1.37-1.73,1.65-3.46,3.3-5.19,4.95-.57.61-1.13,1.22-1.7,1.83-1.37,1.75-2.74,3.5-4.11,5.24-.45.48-.89.96-1.34,1.43-.85,1.12-2.58,2.42-3.6,3.11-.86.68-1.71,1.35-2.57,2.03-1.76,1.21-3.53,2.41-5.29,3.62-.84.71-1.68,1.42-2.52,2.14-2.87,1.97-5.78,4.82-7.94,7.67-2.03,1.9-4.07,3.81-6.1,5.71l.77.81c1.64-1.52,3.29-3.03,4.93-4.55.63-.62,1.26-1.24,1.89-1.85ZM164.6,72.75c-4.67.67-10.03.88-14.68,4.04-.78.7-1.55,1.41-2.33,2.11l-1.97,1.72c-1.56,1.09-3.57,3.13-4.64,4.63-.96,1.38-1.93,2.76-2.89,4.13-.66.73-1.32,1.47-1.98,2.2-.72.93-1.9,2.07-2.89,2.75-2.71,1.86-5.07,3.23-7.65,4.81-1.95,1.19-3.55,2.77-5.52,4.1-2.62,1.76-5.85,4.12-8.03,6.97-.44.42-.89.85-1.33,1.27-1.38,1.32-3.07,2.7-4,4.08-1.31,1.94-2.22,3.85-3.28,5.78-1.15,2.08-2.51,3.99-3.4,6.05-1.06,2.44-1.81,5.08-3.16,7.52-1.01,1.82-2.63,3.44-3.95,5.3-1.17,1.66-2.27,3.18-3.56,4.88-.94,1.24-2.08,2.09-3.25,3.2-3.25,3.1-6.16,5.54-9.35,7.64-1.05.86-2.1,1.72-3.15,2.58-1.65,1.18-3.29,2.36-4.94,3.54-.9.74-1.81,1.48-2.71,2.21-1.34.78-2.68,1.56-4.01,2.34-3.19,2.02-5.94,4.65-9.14,6.86-1.26,1.12-2.53,2.24-3.79,3.35-1.47,1.22-2.93,2.44-4.4,3.66-.66.58-1.33,1.16-1.99,1.74-.58.52-1.16,1.04-1.75,1.56-.7.65-1.4,1.3-2.11,1.96-1.66,1.63-3.31,3.26-4.97,4.9l.82.86c1.41-1.39,2.81-2.79,4.22-4.18.64-.61,1.28-1.22,1.91-1.83.96-.86,1.92-1.73,2.88-2.59,1.17-.8,1.87-1.81,2.96-2.56,1.21-1.01,2.42-2.02,3.62-3.03,1.16-1.02,2.33-2.04,3.49-3.06,3.06-2.11,5.69-4.69,8.75-6.6,1.34-.78,2.68-1.56,4.01-2.34.85-.7,1.7-1.41,2.54-2.11,1.76-1.29,3.51-2.57,5.27-3.86,1.07-.88,2.14-1.76,3.21-2.63,1.74-1.16,3.36-2.47,5.16-3.7,1.25-1.17,2.5-2.34,3.74-3.52,1.08-1.01,2.16-2.03,3.24-3.04,1.64-2.16,3.07-3.9,4.56-5.99,1.31-1.84,2.8-3.36,3.78-5.14,1.37-2.48,2.1-5.13,3.19-7.6.79-1.77,1.91-3.36,2.92-5.16,1.21-2.18,2.25-4.34,3.79-6.53.53-.75,2.02-2.46,2.86-3.05.77-.71,1.53-1.43,2.3-2.14,1.78-2.32,4.42-4.35,6.65-5.81,2.11-1.57,4.21-3.14,6.32-4.7,2.49-1.52,4.84-2.79,7.43-4.49.61-.53,1.22-1.06,1.83-1.58,2.88-2.01,5.1-5.74,6.87-8.24,1.09-1.55,3.14-3.54,4.77-4.66,1.3-1.15,2.6-2.31,3.91-3.46,5.32-3.5,10.65-3.15,15.91-4.2,2.93-.59,5.8-1.15,8.69-1.56.84-.12,1.69-.23,2.53-.35,0,0,0,0,.01.01l1.53-1.46c-2.54.34-5.09.67-7.63,1.01-2.42.38-4.83,1.06-7.25,1.4ZM165.66,75.19c-5.22.52-10.01,1.74-15.36,5.33-1.2.8-3.1,2.64-3.97,3.78-1.05,1.04-2.11,2.08-3.17,3.12-1.76,2.39-3.62,4.77-6.03,7.18-3.96,3.96-8.36,5.79-12.34,8.22-2.67,1.63-4.96,4.49-7.72,6.4-1.52,1.05-2.91,2.3-4.43,3.74-.56.55-1.11,1.09-1.67,1.64-2.14,2.83-4.03,5.34-5.56,8.11-2.18,3.97-3.52,8.01-5.71,11.96-2.26,4.08-5.49,7.59-8.57,11.67-1.32,1.75-3.49,3.39-5.1,4.6-1.21,1.12-2.42,2.24-3.63,3.36-2.3,2.31-5.3,4.18-7.76,5.81-2.29,1.51-4.33,3.95-6.53,5.38-1.49,1.05-2.98,2.1-4.47,3.15-1.26.75-2.52,1.55-3.83,2.43-1.69,1.32-3.37,2.65-5.06,3.97-2.69,2.4-5.37,4.81-8.06,7.21-1.23,1.08-2.46,2.16-3.68,3.25-.48.46-.96.92-1.44,1.38-.71.66-1.42,1.32-2.13,1.98-1.37,1.31-2.84,2.69-3.78,3.75l.8.84c1.26-1.23,2.52-2.47,3.78-3.7.57-.53,1.15-1.06,1.72-1.59.71-.66,1.42-1.32,2.13-1.98.72-.65,1.44-1.3,2.16-1.95,1.33-1.18,2.66-2.36,3.99-3.54.71-.66,1.42-1.32,2.13-1.98,1.43-1.22,2.86-2.44,4.29-3.67,1.46-1.13,2.93-2.26,4.39-3.39,1.28-.81,2.55-1.62,3.83-2.43,1.45-1.03,2.91-2.06,4.36-3.1,1.66-1.08,3.03-2.93,4.79-4.14,2.55-1.75,4.73-3.59,7.37-5.38,1.58-1.44,3.16-2.87,4.74-4.31.41-.35.81-.7,1.22-1.06,1.34-.92,3.19-2.44,4.29-3.88.89-1.03,1.78-2.05,2.68-3.08,2.21-3.01,4.53-5.67,6.25-8.72,1.33-2.36,2.28-4.71,3.31-7.02.82-1.66,1.63-3.32,2.45-4.98,1.12-2.34,2.8-4.55,4.45-6.83,1.89-2.62,4.98-5.12,7.51-6.84,2.23-1.51,4.08-3.94,6.39-5.46,2.1-1.39,4.08-2.37,6.18-3.57,1.97-1.12,3.68-2.63,5.71-4.01l1.44-1.32c2.4-1.66,4.55-4.91,5.99-6.88,1-1.37,2.66-2.26,3.78-3.71.68-.88,1.76-2.05,2.75-2.73,1.53-1.05,2.86-2.15,4.35-2.88,2.64-1.3,5.61-2.21,8.3-2.62,1.92-.19,3.84-.38,5.76-.57,1.84-.34,3.69-.69,5.53-1.03,0,0,0,0,.01.01l1.56-1.49c-1.04.15-2.08.31-3.12.46-2.45.43-4.87.88-7.29,1.13ZM173.54,68.41c-4.32.55-8.62,1.35-12.93,2.11-3.06.54-6.11.83-9.19,2.09-1.22.5-2.33,1.34-3.58,2.19-.68.6-1.37,1.2-2.05,1.79-2.1,1.45-4.97,3.59-6.57,5.89-1.05,1.53-2.1,3.06-3.15,4.59-.99,1.05-1.98,2.1-2.98,3.16-1.06,1.38-2.67,2.97-4.1,3.86-3.55,2.2-7.06,4.69-10.77,7.15-1.63,1.08-4.2,3.06-5.51,4.72-.36.36-.72.72-1.08,1.09-.82,1.01-1.64,2.02-2.46,3.03-.65.86-1.33,1.07-1.51,1.86.06.1.12.2.18.3.75,0,2.13-1.32,2.76-2.16,1.65-2.18,4.08-4.88,6.53-6.54,3.2-2.17,6.1-4.59,9.29-6.48,1.92-1.13,4.98-2.53,6.76-4.85,1.25-1.63,3.19-3.1,4.32-4.75.93-1.36,1.85-2.72,2.78-4.08.43-.48.85-.96,1.28-1.43.48-.62,1.15-1.33,1.83-1.8,2.59-1.79,4.98-4.49,7.62-5.89,2.39-1.26,4.89-1.65,7.26-2.05,2.86-.48,5.72-.93,8.55-1.42,3.14-.55,6.25-.95,9.36-1.4,1.68-.24,3.36-.48,5.03-.72,0,0,0,0,.01.01l1.71-1.63c-.89.37-2.06.39-2.96.53-2.15.28-4.3.57-6.45.85ZM191.98,58.13c-1.34.85-3.38,1.22-4.81,1.74-2.83,1.02-5.71,2.19-8.55,2.86-1.23.27-2.45.54-3.68.81-.39.07-1.17.04-1.45.43-.12.19-.09.25-.06.43.78.56,3.21-.1,4.13-.28,2.84-.57,5.74-1.41,8.63-2.45.75-.27,3.03-1.25,3.71-1.24l2.24-2.13-.15-.16ZM169.86,66.21c-3.03.44-6.03,1.01-9.09,1.63-3.64.74-7.23,1.11-10.91,2.67-2.98,1.26-6.01,4.02-8.93,5.97-3.08,2.07-4.47,4.98-5.95,7.31-.78,1.24-1.91,2.25-2.9,3.56-1.28,1.19-2.57,2.38-3.85,3.57-.91.75-1.82,1.49-2.74,2.24-2.6,1.67-5.12,3.31-7.62,4.78-2.72,1.6-6.14,4.97-8.1,7.56-.86.98-1.73,1.97-2.59,2.95-1.86,2.59-2.33,4.9-3.7,7.39-1.57,2.85-3.04,5.6-4.35,8.38-.72,1.32-1.44,2.64-2.15,3.96-1.58,3.37-3.28,6.78-5.42,10.2-1.03,1.64-2.5,3.13-3.75,4.79-1,1.08-2,2.16-3,3.24-2.52,3.29-6.57,6.46-9.77,8.52-1.21.93-2.43,1.86-3.65,2.79-2.71,1.73-5.41,3.47-8.12,5.2-2,1.47-4.01,2.94-6.02,4.41-1.97,1.22-3.86,2.4-5.89,3.76-2.01,1.78-4.02,3.56-6.04,5.33-1.82,1.24-3.51,2.8-5.33,4.24-1.04.97-2.07,1.94-3.11,2.91-1.77,1.57-3.54,3.13-5.31,4.7l.85.89c4.99-4.03,9.39-8.93,14.3-12.33.49-.45.98-.9,1.47-1.35,1.88-1.3,3.41-3.23,5.17-4.35,1.75-1.12,3.51-2.25,5.26-3.37,2.73-1.78,5.01-3.88,7.64-5.48,1.93-1.22,3.85-2.44,5.78-3.66,1.09-.84,2.17-1.68,3.26-2.53,3.19-2.07,7.88-5.73,10.49-9.16.87-.92,1.74-1.84,2.61-2.76,1.55-2.05,3.3-3.83,4.56-5.83,2.35-3.74,4.05-7.37,5.79-11.09.5-.9,1-1.8,1.5-2.7,1.34-2.84,2.91-5.63,4.49-8.57,1.11-2.06,1.44-4.08,2.83-6.14.78-1.15,1.88-2.06,2.79-3.24,1.66-2.17,4.4-5.12,6.77-6.67,1.64-1.07,3.24-2.01,4.84-2.98,2.2-1.33,4.09-2.85,6.31-4.38.89-.81,1.77-1.62,2.66-2.43,1.81-1.73,3.66-3.39,4.79-5.15.98-1.53,1.75-3.02,2.85-4.51,1.36-1.85,3.91-3.52,5.5-4.56,1.22-.92,2.45-1.84,3.67-2.76,5.25-3.21,9.96-3.45,15.1-4.49,5.04-1.03,9.93-1.48,14.94-2.22,1.66-.28,3.32-.55,4.98-.83.76-.21,1.51-.42,2.27-.62,0,0,0,0,.01.01l2.25-2.14c-1.14.6-2.62.95-3.81,1.23-4.6,1.08-9.09,1.43-13.63,2.09ZM158.23,86.51c-1.58,1.04-3.17,2.88-4.28,4.34-.84,1.11-3.16,2.65-4.37,3.47-1.54,1.04-2.71,2.76-4.18,3.72-1.39.91-2.75,1.96-4.15,2.53-1.23.5-2.47.58-3.68,1.02-1.07.39-2.14.97-3.21,1.58-3.46,2.38-6.93,4.77-10.39,7.15-.81.74-1.63,1.48-2.44,2.22-1.67,1.32-3.33,2.65-5,3.97-.43.41-.87.83-1.3,1.24-1.93,1.84-3.27,3.62-4.28,5.46-1.53,2.78-3.23,5.62-4.4,8.44-.7,1.68-.78,3.46-1.56,5.14-.64,1.38-2.13,2.43-3.24,3.88-1.19,1.56-2.69,3.06-4.25,4.43-.93,1.08-1.86,2.16-2.79,3.24-.6.63-1.2,1.25-1.81,1.88-.78,1.01-2.09,2.28-3.16,3.02-.78.72-1.55,1.45-2.33,2.17-1.67,1.47-3.34,2.94-5.01,4.41-2.13,1.45-3.87,3.1-5.96,4.52-.79.65-1.59,1.3-2.38,1.95-.8.75-1.61,1.5-2.41,2.25-2.06,1.8-4.12,3.61-6.17,5.41-2.24,1.59-4.49,3.18-6.73,4.77-.67.54-1.34,1.07-2.02,1.61-.9.85-1.79,1.71-2.69,2.57-2.06,1.96-4.17,4.03-6.19,5.95-1.93,1.84-4.01,3.65-5.47,5.59-.83.85-1.67,1.69-2.5,2.54l.88.92c2.05-1.94,3.95-3.81,5.45-5.73,1-.95,2-1.9,3-2.86.77-1.01,2.67-2.94,3.75-3.68,1.29-1.23,2.59-2.47,3.88-3.7.86-.71,1.71-1.42,2.57-2.14,2.46-1.65,4.66-3.54,7.17-5.25,2.77-2.48,5.54-4.97,8.31-7.45,1.34-1.06,2.67-2.12,4.01-3.19,2.94-1.97,6.8-5.15,9.32-7.78,2.06-2.15,4.81-3.83,6.49-6.03,1.01-1.2,2.03-2.39,3.04-3.59.49-.5.98-1.01,1.47-1.51.64-.86,2.06-1.91,2.78-2.86,1.12-1.48,2.83-2.58,3.65-4.01,1.15-2.02,1.2-4.07,2.01-6.05.82-1.99,1.9-3.83,3.01-5.84.9-1.63,1.75-3.29,2.97-5,1.22-1.71,3.23-3.55,4.77-4.6.95-.76,1.9-1.53,2.85-2.29,1.26-1.11,2.51-2.22,3.77-3.33,1.89-1.28,3.59-2.47,5.46-3.67,2.24-1.43,4.14-3.14,6.33-4.13,2.1-.95,4.13-1.15,6.32-2.26,1.4-.71,2.6-1.75,4.02-2.72.55-.51,1.11-1.02,1.66-1.53.7-.58,1.4-1.16,2.1-1.74,1.31-.88,2.53-1.83,3.84-3.08,1.02-1.08,2.04-2.16,3.06-3.23l1.41-1.19c1.15-.76,2.26-1.44,3.35-1.98.68-.33,1.35-.65,2.03-.98,0,0,0,0,.01.01l2.5-2.38c-.28.06-.55.12-.83.19-2.74,1.07-5.37,2.42-8.04,4.17ZM130.26,115.72c-2.3,1.4-4.51,3.19-6.88,5.45-.72.71-1.44,1.41-2.17,2.12-1.99,2.62-4.64,4.91-6.2,7.5-.58.96-.86,1.73-1.71,2.66l4.26-4.06-.02-.06c2.82-3.02,5.6-7.05,9.14-9.46.88-.6,2.72-2.5,3.52-2.54l5.88-5.6c-.84.52-1.76,1.08-2.66,1.66-1.06.78-2.12,1.56-3.17,2.34ZM136.42,108.47c-1.67.9-3.29,1.7-5,2.81-2.19,1.42-3.95,3.19-6.21,4.76-1.76,1.23-3.85,2.93-5.18,4.68-.48.49-.96.99-1.45,1.48-1.1,1.24-2.19,2.48-3.29,3.72-1.65,2.39-2.87,4.69-3.88,7.09-.64,1.52-.6,2.62-1.91,4.07l2.94-2.81c-.09.08-.18.16-.28.24,0-.03-.02-.05-.03-.08.32-.78.63-1.56.95-2.34.72-1.62,1.65-3.24,2.72-4.82,1.01-1.5,2.58-2.67,3.76-4.22,1.52-1.99,3.85-4.22,5.91-5.63.73-.61,1.46-1.21,2.19-1.82,2.5-1.68,4.89-3.75,7.3-4.95,1.35-.67,2.64-1.47,3.99-2.26.47-.28,1.19-1.01,1.67-.99l2.77-2.64c-1.22.56-2.58,1.04-3.88,1.78-1.03.64-2.06,1.29-3.08,1.93ZM155.65,92.52c-1.01.92-2.01,1.85-3.02,2.77l-1.97,1.72c-1.9,1.31-3.58,3.1-5.47,4.21-2.41,1.42-4.7,1.69-7.01,2.82-2.93,1.44-5.81,3.61-8.64,5.33-2.88,1.74-5.44,4.4-8.23,6.42-1.03.95-2.07,1.9-3.1,2.85-.39.39-.78.78-1.17,1.17-1.65,1.78-2.98,3.13-3.96,4.79-1.39,2.32-2.68,4.42-3.63,6.69-1.41,3.38-1.73,6.52-4.55,9.95-2.09,1.99-4.18,3.99-6.27,5.98-.28.36-.58.73-.91,1.1l10.84-10.34c-.11.1-.23.2-.34.31,0-.03-.02-.05-.03-.08.4-.68.64-1.52.84-2.23.51-1.42,1.03-2.85,1.54-4.27,1-2.42,2.42-4.79,3.97-7.23,1.23-1.95,4.21-5.02,6.37-6.65,2.4-1.82,4.86-4.38,7.49-6.14,2.33-1.56,4.43-2.96,6.72-4.29,1.36-.79,2.6-1.84,3.96-2.4,1.43-.5,2.86-1,4.29-1.5.49-.2,2.37-1.38,2.82-1.4l15.59-14.87c-1.03.93-2.05,1.8-3.15,2.61-1,.9-1.99,1.8-2.99,2.69ZM78.5,165.98c-1.6,1.11-2.89,2.37-4.39,3.39-1.34,1.26-2.68,2.52-4.02,3.78-1.18.88-2.36,1.75-3.53,2.63-.72.62-1.44,1.23-2.16,1.85-1.35,1.23-2.7,2.47-4.05,3.7-1.2,1-2.4,2-3.6,3.01-.43.41-.85.81-1.28,1.22-1.31,1.23-2.63,2.47-3.94,3.7-2.97,3.27-6.18,6.52-9.67,9.85l.82.86c2.74-2.6,6.18-5.42,8.25-8.18.77-.8,1.54-1.61,2.31-2.41.8-.75,1.61-1.5,2.41-2.25.83-.78,1.66-1.55,2.5-2.33,1.13-.98,2.27-1.95,3.4-2.93,2.05-1.84,4.04-4.11,6.15-5.49.6-.39,1.41-1.33,2.03-1.38l14.63-13.95c-1.31,1.17-2.62,2.25-3.92,3.14-.65.6-1.29,1.2-1.94,1.8ZM165.86,80.13c-1.73.57-3.46,1.15-5.19,1.72-1.88.77-3.52,2.01-5.45,3.34-1.53,1.49-3.05,2.98-4.58,4.47-1.62,1.13-3.8,3.07-5.07,4.73-.92,1.21-3.11,2.78-4.2,3.48-.45.29-1.43.74-1.68,1.29-.09.21-.08.35.12.57.79.17,1.71-.63,2.52-1.13,1.46-.9,2.87-2.1,4.4-3.56.8-.76,1.59-1.52,2.39-2.27,2.84-1.98,5.22-5.47,8.12-7.37,1.6-1.04,3.15-2.05,4.75-2.68,1.23-.4,2.46-.79,3.69-1.19,1.34-.62,2.68-1.23,4.02-1.85l2.75-2.63c-.9.36-1.8.72-2.71,1.08-1.34.66-2.54,1.47-3.87,2ZM20.23,159.47c1.8-1.22,3.13-3.4,4.85-4.58,3.09-2.1,5.78-3.9,8.75-5.43.96-.55,1.92-1.09,2.89-1.64,3.23-1.37,6.58-2.19,9.84-3.4,8.63-3.2,17.07-7.16,25.63-14,1.91-1.53,3.99-3.95,5.2-5.65,1.68-2.36,3.55-4.39,4.88-6.72,1.47-2.57,2.45-5.01,3.65-7.56,1.36-2.89,3.48-5.6,4.76-8.45.74-1.67.98-3.47,1.88-5.08.88-1.58,2.86-2.71,4.12-4.35,1.79-2.13,3.57-4.25,5.36-6.38.75-1.1,1.5-2.21,2.25-3.31.65-1.04,1.46-2.55,2.79-3.4,1.1-.7,2.26-.55,3.36-.98,1.1-.43,2.07-1.32,3.19-2.09,2.38-1.64,3.8-4.5,5.08-6.33,1.33-1.89,3.46-3.56,5.28-5.3,1.36-1.3,2.65-2.95,4.19-3.99,1.08-.73,2.06-1.57,3.14-2.15,1.32-.59,2.65-1.18,3.97-1.78,1.45-.6,2.78-1.37,4.19-1.88,2.78-1,5.75-1.45,8.56-2.13,2.31-.56,4.55-1.66,6.81-2.58,5.73-2.31,12.51-6.02,18.13-12.1l-1.06-1.11c-7.66,7.47-14.75,11.17-22.38,13.92-3.07,1.11-6.2,1.71-9.28,2.44-1.87.44-3.6,1.44-5.5,2.23-2.61,1.08-4.55,2.07-7.31,3.95-1.25.85-3.34,2.85-4.27,4.07-.65.58-1.29,1.16-1.94,1.74-1.22.89-2.76,2.69-3.56,3.87-1.1,1.62-2.02,3.01-3.34,4.72l-1.03,1.09c-1.24.86-2.24,1.93-3.42,2.36-1.3.48-2.23.16-3.71,1.16-1.56,1.06-2.39,2.79-3.08,3.99-.77,1.34-1.65,2.55-2.64,3.9-1.25,1.46-2.51,2.92-3.76,4.38-.59.62-1.19,1.24-1.78,1.86-.32.29-.65.58-.97.87-.94.89-1.87,1.77-2.4,2.71-1.05,1.86-1.29,3.81-2.17,5.72-1.16,2.53-3.06,4.9-4.27,7.46-1.04,2.26-2.08,4.52-3.12,6.79-1.03,1.85-2.33,3.41-3.71,5.33-1.37,1.91-3.07,3.69-4.69,5.58-.6.61-1.2,1.22-1.81,1.83-1.76,1.21-3.28,2.88-5.03,4-4.7,3.01-9.2,5.5-13.9,7.42-3.11,1.28-6.21,2.51-9.3,3.63-2.67.97-5.39,1.55-8.09,2.9-3.81,1.91-7.15,4.19-10.95,6.79-1.77,1.21-3.1,3.27-4.85,4.41-.94.68-1.88,1.37-2.81,2.05-2.32,1.5-4.6,3.19-6.9,5.37l.92.97c1.72-1.67,3.58-3.05,5.36-4.21,1.32-.98,2.65-1.96,3.97-2.94ZM-11.06,126.76c1.2-1.58,3.07-3.67,4.86-4.9,1.13-1.04,2.25-2.08,3.38-3.12.96-.77,1.92-1.55,2.87-2.32,2.43-1.63,4.66-3.5,7.2-5.12,2.04-1.29,4-2.36,6-3.6,1.06-.82,2.12-1.63,3.18-2.45,1.48-.99,2.95-1.99,4.41-2.88,3.39-2.06,6.25-6.11,9.58-8.39,1.15-.79,3.01-2.91,3.1-3.75-.07-.06-.14-.11-.21-.17-.09,0-.18,0-.27,0-1.05.33-1.82,1.93-2.91,2.67-1.42.95-3.25,2.01-4.51,3.66-1.34,1.75-3.31,3.58-5.02,4.68-1.43.94-2.86,1.88-4.3,2.83-1.14.88-2.28,1.75-3.42,2.63-1.96,1.16-3.92,2.33-5.88,3.49-3.05,1.84-5.63,4.21-8.66,6.25-1.28,1.14-2.57,2.27-3.85,3.41-.59.53-1.18,1.06-1.77,1.58-.54.49-1.07.99-1.61,1.48-1.2,1.15-2.45,2.34-3.39,3.61-1.1,1.1-2.2,2.21-3.3,3.31-1.43,1.55-2.86,3.11-4.29,4.66l.79.83c1.44-1.55,2.88-3.09,4.32-4.64,1.24-1.25,2.48-2.51,3.72-3.76ZM-14.08,125.98c1.19-1.22,2.37-2.44,3.56-3.66.66-.61,1.31-1.22,1.97-1.82.82-.69,1.64-1.39,2.46-2.08.84-.77,1.68-1.53,2.52-2.3,2.55-1.75,5.06-4.19,7.73-5.94,3.7-2.4,7.4-4.79,11.1-7.19,1.2-.95,2.4-1.9,3.59-2.84,2.05-1.41,4.74-3.54,6.34-5.73,1.85-2.51,3.4-4.81,4.94-7.26,2.06-3.25,4.25-6.22,5.76-9.46.59-1.38,1.19-2.76,1.78-4.13.99-2.22,2.41-4.46,3.74-6.58,1.51-2.41,3.39-4.46,5.26-6.92,1.7-2.24,4.8-5.27,7.16-6.82,3.5-2.3,6.93-4.41,10.44-5.72,2.95-1.1,6.1-1.84,9.11-2.49,4.63-1,9.18-1.1,13.87-3,1.2-.58,2.4-1.15,3.59-1.73,1.63-.67,3.24-1.4,4.91-2.35,1.56-.89,2.89-2.29,4.53-3.36,2.19-1.48,4.37-2.97,6.56-4.45,2.13-1.41,3.75-3.87,5.87-5.28,2.04-1.36,3.88-2.02,5.85-3.14,1.27-.72,2.31-2.03,3.68-2.98.55-.53,1.11-1.06,1.66-1.59,1.25-.87,3.2-2.7,4.11-3.92,3.42-4.59,5.26-9.02,8.27-13.49l-1.06-1.11c-1.14,1.22-2.24,3.65-2.94,5.03-1.46,2.87-3.12,5.69-5.16,8.47-.91,1.24-2.19,2.3-3.36,3.42-1.79,1.7-3.56,3.56-5.4,4.67-2.01,1.22-3.97,1.93-5.99,3.27-1.82,1.21-3.04,3.33-4.85,4.58-1.04.78-2.08,1.56-3.12,2.34-1.56,1.03-3.12,2.06-4.68,3.09-.7.58-1.4,1.16-2.1,1.74-1.31.89-2.46,1.81-3.75,2.46-1.39.6-2.78,1.2-4.16,1.8-2.37.98-4.43,2.13-6.73,2.66-2.13.49-4.26.72-6.37,1.04-2.54.38-4.95,1.11-7.52,1.72-1.34.36-2.67.71-4.01,1.07-3.98,1.43-7.89,3.68-11.92,6.33-1.33.87-3.87,3.05-4.93,4.44-.73.96-1.76,1.7-2.42,2.57-1.95,2.61-3.94,4.74-5.54,7.3-2.34,3.74-3.92,7.38-5.63,11.04-.98,2.09-2.37,4.02-3.67,6.09-2.12,3.37-4.18,6.49-6.72,9.9-1.68,2.26-4.3,4.33-6.48,5.81-1.15.9-2.3,1.81-3.45,2.71-3.48,2.17-7,4.54-10.38,6.77-2.28,1.72-4.56,3.43-6.85,5.15-1.11.99-2.22,1.97-3.32,2.96-1.34.92-2.55,2.06-3.85,3.3-.46.44-.92.88-1.39,1.32-1,1.3-2.45,2.23-3.45,3.55-.85.88-1.7,1.77-2.56,2.65-1.47,1.46-2.94,2.91-4.42,4.37l.77.8c1.68-1.65,3.35-3.3,5.03-4.95.68-.7,1.35-1.4,2.03-2.09ZM80.75,93.18c-1.24,2.01-2.48,4.03-3.72,6.04-.78,1.66-1.56,3.32-2.34,4.99-1.47,3.14-3.23,6.06-5.02,9.18-2.38,4.16-6.73,9.15-11.37,11.63-2.99,1.61-5.98,3.05-8.96,4.15-2.01.63-4.02,1.26-6.04,1.89-1.32.45-2.64.9-3.96,1.34-3.12.74-6.27,1.39-9.39,2.65-3.31,1.33-6.31,3.71-9.73,5.73-2.46,1.45-4.88,3.66-7.39,5.14-1.12.66-2.96,1.43-3.69,2.51.02.04.03.07.05.11.07.19.21.22.35.25,6.9-2.99,13.94-9.72,20.82-12.49,3-1.21,6.05-1.84,9.06-2.55,2.37-.77,4.74-1.55,7.1-2.33,6.5-2.35,12.54-4.33,19.23-10.71l2.06-2.39c1.33-1.9,2.61-3.66,3.66-5.55,3.82-6.9,6.43-13.5,11.28-20.39,2.08-2.96,5.6-5.1,7.67-8.01,4.64-6.5,6.54-11.67,4.01-18.34-.64-1.7-2.01-4.8-4.18-6.44-1.63-1.23-3-2.26-4.59-2.93-2.88-1.21-6.35-1.66-9.29-1.41-1.25.11-2.54.05-3.8.23-5.37.78-11.59,2.46-16.8,7.71-1.02,1.02-2.04,2.05-3.06,3.07-.91,1.15-1.83,2.31-2.74,3.46-1.92,2.86-3.5,5.65-4.73,8.54-1.66,3.89-2.74,7.85-4.56,11.82-1.16,2.52-2.39,4.78-4.24,7.33-1.02,1.4-3.44,3.23-3.69,4.63.04.05.09.09.13.14.9.05,3.68-2.96,4.4-3.94,3.2-4.33,5.16-8.57,6.71-12.96,1.98-5.65,3.83-10.4,7.84-16.11,8.31-11.85,22.61-14.43,31.81-11.85,1.87.52,3.61,1.57,5.46,2.95,2.33,1.73,3.5,4.44,4.19,6.34,2.31,6.38.42,11.25-4.16,17.47-2.34,3.19-6.45,6.04-8.38,9.1ZM-13.74,121.95c.93-.97,1.85-1.94,2.78-2.92.6-.78,1.54-1.67,2.33-2.28,1.28-.99,2.67-2.45,4.09-3.37,2.61-1.78,5.22-3.56,7.83-5.34l3.29-2.55c2.02-1.33,4.15-2.51,6.1-4.55,1.31-1.37,1.96-2.91,2.98-4.32.69-.96,1.75-1.5,2.5-2.49.94-1.24,1.94-2.23,2.76-3.38,1.08-1.49,2.21-2.73,3.14-4.21.81-1.29,1.38-2.59,2.1-3.85.68-.95,1.36-1.9,2.05-2.85.66-.9,3.29-3.27,2.78-4.03-.14,0-.29,0-.43-.01-.37.1-1.17.91-1.47,1.29-.97,1.28-2.17,2.24-3.04,3.53-1.11,1.65-1.85,3.26-2.77,4.87-.91,1.58-2.12,2.9-3.25,4.48-.86,1.2-1.73,2.39-2.96,3.56-.98.94-1.97,1.74-2.64,2.73-1.16,1.71-2.14,3.91-4.41,5.43-1.53,1.07-3.05,2.13-4.58,3.2-1.45,1.11-2.89,2.23-4.34,3.34-3.83,2.49-7.48,4.8-11.29,8.43-1.01.97-2.14,1.92-2.92,2.94-.82.85-1.63,1.7-2.45,2.54-.58.56-1.17,1.11-1.75,1.67-1.55,1.56-3.09,3.13-4.64,4.69-.58.61-1.17,1.22-1.75,1.83l.77.81c2.28-2.31,4.56-4.63,6.84-6.94.79-.75,1.57-1.5,2.36-2.25ZM-6.56,130.09c.37-.35.74-.71,1.11-1.06,1.18-1.15,2.37-2.29,3.55-3.44,2.95-2.82,5.84-5.25,8.82-7.14,2.22-1.41,4.3-2.81,6.58-4.32,1.97-1.3,3.63-3.07,5.55-4.23,2.55-1.55,5.01-3.19,7.71-4.91,1.54-.98,4.09-2.88,5.42-4.64l2.4-2.76c1.16-1.62,2.23-3.06,3.09-4.64,1.69-3.09,2.6-6.39,3.89-9.48,1.01-2.41,1.99-4.73,3.07-7.06,1.06-2.29,2.27-4.53,3.77-6.77.99-1.21,1.97-2.41,2.96-3.62,2.33-3.14,5.67-6.42,8.95-8.11,2.89-1.49,5.68-2.6,8.53-3.16,3.43-.67,7.21-1.5,10.6-1.05,1.52.17,3.05.34,4.57.52.83.13,1.71.35,2.54.28,1.65-.14,3.45-.73,5.07.04,1,.47,1.84,1.85,2.43,2.71.8.84,1.6,1.68,2.41,2.52.47.56.78,1.46,1.43,1.61.09-.07.18-.14.28-.21.48-.64-.17-1.15-.63-1.83-.98-1.43-4.32-3.97-3.54-5.21.53-.83,2.47-.66,3.11-.74,2.89-.35,4.65-1.75,7.56-3.24.69-.35,2.32-1.03,2.51-1.92-.03-.05-.05-.09-.08-.14-.13-.04-.25-.08-.38-.12-1.19.58-2.56,1.15-3.81,1.78-1.49.75-2.86,1.77-4.33,2.12-1.04.24-2.1.24-3.13.39-1.11.23-2.22.45-3.32.68-1.71.22-3.5.13-5.24.28-1.15.1-2.37-.19-3.52-.35-1.36-.15-2.72-.3-4.08-.45-1.28-.17-2.72,0-4.02.12-5.14.52-10.1,1.44-15.34,4.24-3.65,1.95-7.46,5.68-10.06,9.22-.88,1.2-1.91,2.14-2.65,3.33-1.59,2.51-2.92,4.96-4.08,7.49-1,2.18-1.95,4.43-2.9,6.68-1.35,3.21-2.31,6.54-4.11,9.8-.83,1.5-2.04,2.87-3.17,4.4-1.57,2.14-3.98,4.32-6.15,5.71-1.24.88-2.48,1.77-3.72,2.65-2.18,1.32-4.21,2.59-6.44,4.08-1.57,1.24-3.15,2.47-4.72,3.71-2.62,1.71-5.17,3.43-7.88,5.13-1.28,1.01-2.56,2.02-3.84,3.03-1.83,1.75-3.66,3.49-5.49,5.24-2.2,2.1-4.34,4.01-5.98,6.17-1.64,1.6-3.28,3.19-4.91,4.79l.77.81c1.78-1.7,3.57-3.4,5.35-5.1,1.17-1.27,2.34-2.55,3.51-3.82ZM-5.58,125.29c1.27-1.21,2.53-2.42,3.8-3.62.88-.71,1.75-1.42,2.63-2.13,3-2,5.88-4.28,8.96-6.32,1.45-1.14,2.91-2.28,4.36-3.42,1.02-.73,2.04-1.45,3.06-2.18,2.67-1.54,5.26-3.14,8.04-5.01,1.46-.98,2.82-2.48,4.21-3.8,1.26-1.24,2.52-2.47,3.78-3.71,2.27-3.05,2.86-5.36,4.07-8.28,1.07-2.57,2.01-5.14,3.08-7.65.66-1.54,1.63-2.95,2.44-4.5,1.25-2.39,2.41-4.76,4.05-7.2,1.83-2.71,4.6-5.28,7.32-7.88,1.56-1.49,3.19-2.87,4.81-3.79,5.14-2.91,10.2-4.27,15.3-5.06,1.21-.16,2.41-.32,3.62-.48,1.6-.3,3.15-1.09,4.72-1.32,1.78-.26,3.52-.37,5.33-.8,2.26-.87,4.52-1.74,6.79-2.6,2.72-1.01,5.39-1.6,8.15-3.01,1.63-.83,3.05-2.11,4.71-3.17,2.11-1.34,4.08-2.64,6.19-3.68,2.96-1.46,5.93-1.93,8.88-3.01,3.17-1.17,6.23-2.86,9.45-4.19,1.68-.7,3.37-1.63,5.05-2.7l1.91-1.5c.61-.55,1.22-1.09,1.83-1.64,1.01-1.32,2.12-2.36,2.93-3.64,1.47-2.22,2.93-4.45,4.4-6.67l-1.03-1.08c-.93,1.45-1.86,2.9-2.8,4.35-1.35,2.16-2.97,4.12-4.68,6.26l-1.88,1.64c-.89.61-1.52,1.24-2.37,1.73-1.46.85-2.93,1.56-4.36,2.2-3.09,1.39-6.06,3.02-9.13,4.15-3.17,1.16-6.27,1.71-9.49,3.33-2.03,1.02-3.89,2.35-5.94,3.65-1.58,1.01-2.9,2.19-4.46,2.98-2.68,1.37-5.3,1.95-7.96,2.93-2.3.84-4.59,2.02-6.92,2.57-1.78.42-3.53.5-5.28.8-1.46.4-2.91.8-4.37,1.2-6.42,1.14-12.58,1.91-19.14,5.75-1.55.91-3.08,2.2-4.53,3.58-2.54,2.42-5.42,4.81-7.17,7.37-.91,1.33-1.9,2.61-2.64,3.95-.7,1.36-1.4,2.71-2.1,4.07-.98,1.79-2.11,3.48-2.86,5.27-1.03,2.44-1.98,4.93-3.02,7.44-1.19,2.85-1.6,4.92-3.85,7.91-1.17,1.11-2.33,2.22-3.5,3.33-1.86,1.85-3.83,3.82-5.81,5.07-2.78,1.75-5.31,3.19-8.12,5.04-1.77,1.35-3.53,2.7-5.3,4.05-3.05,2.04-5.91,4.34-8.82,6.24l-2.43,1.89c-1.84,1.74-3.68,3.47-5.52,5.21-1.61,1.54-3.29,3.01-4.5,4.61-.57.6-1.15,1.2-1.72,1.8-1.55,1.54-3.09,3.09-4.64,4.63l.77.8c2.05-2.03,4.11-4.06,6.16-6.09,1.36-1.77,3.82-4.36,5.56-5.67ZM-16.48,110.52c1.52-1.05,2.6-2.51,4.04-3.48,2.09-1.51,4.18-3.03,6.26-4.54,1.4-.89,3.86-2.53,5.14-4.22,2.09-2.75,3.77-5.02,5.85-7.75.48-.63,1.21-1.27,1.83-1.69.45-.4.9-.79,1.36-1.19,1.51-1.48,3.78-2.71,5.23-4.62,1.36-1.65,2.72-3.3,4.08-4.95,1.47-2.22,2.94-4.43,4.41-6.65.63-.76,1.27-1.52,1.9-2.29,1.81-2.38,4.91-4.15,7.14-6.28.49-.47.98-.93,1.47-1.4,1.58-1.97,3.17-3.94,4.75-5.91.98-1.02,1.96-2.05,2.95-3.08.69-.72,1.39-1.43,2.08-2.15.71-.85,1.86-2.05,2.77-2.65,1.35-.92,2.7-1.83,4.05-2.75,1.57-1.03,2.88-2.33,4.39-3.18,2.04-1.14,4.04-1.62,6.08-2.46,2.19-1.13,4.37-2.26,6.56-3.4,3.1-1.26,6.14-1.59,9.29-3.14,3.18-1.57,6.09-4.14,9.22-5.99l4.67-2.49c1.82-1.2,3.64-2.41,5.45-3.61,1.92-1.62,3.84-3.23,5.75-4.85,2.76-1.85,5.4-3.5,8.12-5.2.55-.44,1.11-.88,1.66-1.32,1.09-.75,2.14-1.73,3.24-2.77.39-.37.78-.74,1.17-1.11.51-.63,1.02-1.26,1.54-1.89,1.13-1.73,2.02-3.47,2.89-5.19.6-1.1,1.19-2.2,1.79-3.29,1.11-2.39,2.18-5.11,4.11-7.41l-1.03-1.08c-.33.49-.66.98-.99,1.46-.8,1.34-1.6,2.6-2.21,3.91-1.41,3.01-3,5.96-4.66,8.94-.76,1.37-2.45,4.07-4.22,5.29-1.64,1.13-2.91,2.63-4.48,3.63-2.67,1.71-5.15,3.27-7.88,5.13-2.23,1.52-4.09,3.91-6.28,5.3-1.53,1-3.07,2.01-4.6,3.01-1.82,1.03-3.61,1.97-5.47,3.1-2.69,1.63-5.19,3.79-7.93,5.18-3.17,1.61-6.21,1.93-9.35,3.19-2.06.83-4.04,2.21-6.1,3.22-2.02.99-4.06,1.33-6.07,2.35-1.83.92-3.42,2.46-5.32,3.7-1.2.79-2.41,1.59-3.61,2.38-1.5,1.01-3.89,3.45-4.91,4.79-1.04,1.06-2.07,2.12-3.11,3.18-1.77,2.13-3.48,3.98-5.03,6.12-.51.5-1.02,1.01-1.53,1.51-1.88,1.79-4.12,3.01-5.76,5.01-.46.44-.92.88-1.39,1.32-.78.96-1.56,1.91-2.35,2.87-1.45,2.15-2.79,4.33-4.33,6.51-1.36,1.61-2.72,3.23-4.07,4.84-.57.76-1.5,1.57-2.22,2.06-.49.43-.98.86-1.47,1.29-1.1.76-2.23,1.8-3.21,2.74-.44.42-.89.85-1.33,1.27-1.52,1.99-2.86,3.72-4.17,5.62-.7.82-1.39,1.65-2.09,2.47-1.17,1.55-3.8,3.19-5.17,4.08-2.65,1.72-4.8,3.75-7.45,5.57-.89.79-1.77,1.58-2.66,2.38-1.37.95-2.61,2.11-3.96,3.4-.55.54-1.09,1.08-1.64,1.61-.58.59-1.17,1.18-1.75,1.77-2.02,1.93-4.05,3.86-6.07,5.79l.74.78c2.38-2.27,4.75-4.53,7.13-6.8,1.97-2.25,4.41-4.45,6.73-6.05ZM-17.64,114.92c.66-.57,1.31-1.14,1.97-1.72.46-.44.92-.88,1.39-1.32,1.21-1.06,2.42-2.13,3.63-3.19.98-.74,1.97-1.49,2.95-2.23,1.97-1.25,3.81-2.44,5.81-3.79.88-.82,1.76-1.64,2.63-2.46,2.02-1.84,3.17-4.14,4.27-6.08.42-.74,1.04-1.37,1.6-2.1.8-1.05,2.09-1.82,2.98-2.37,1.71-1.06,4.42-3.04,5.81-4.96,2.32-3.18,4.14-6.1,6.27-9.26.99-1.48,2.38-2.69,3.54-4.23.54-.71,1.52-1.52,2.16-1.96,1.05-.84,2.1-1.69,3.15-2.53,1.12-.77,3.02-2.21,3.99-3.48,1.53-2.01,2.75-3.76,4.2-5.76,1.8-2.48,4.34-4.63,6.62-7,1.08-1.12,3.11-2.23,4.38-3.07,1.41-.92,2.56-2.17,3.92-2.94,1.85-1.05,3.62-1.7,5.4-2.5,1.66-.84,3.31-1.67,4.97-2.51,3.32-1.31,6.57-2.03,9.98-3.42,1.82-.74,3.6-1.76,5.46-2.93,1.19-.88,2.37-1.77,3.56-2.65.9-.6,2.89-1.96,3.51-2.82-.03-.11-.07-.22-.1-.33-.04-.03-.09-.06-.13-.08-.51-.17-1.12.45-1.65.77-1.23.76-2.34,1.74-3.64,2.57-1.29.87-2.57,1.75-3.86,2.62-2.93,1.66-6.05,2.98-9.03,3.69-3.14.75-6.04,2.33-9.28,3.93-1.88.92-3.76,1.48-5.7,2.63-1.4.82-2.58,2.08-4.03,3.05-1.41.96-2.83,1.92-4.24,2.88-1.08.74-2.87,2.68-3.56,3.6-1.2,1.3-2.39,2.6-3.59,3.9-1.49,2.01-2.75,3.8-4.34,5.89-.67.6-1.33,1.2-1.99,1.8-.78.64-1.57,1.28-2.35,1.92-1.56,1.06-3.98,2.89-5.32,4.65-1.18,1.55-2.41,2.87-3.44,4.39-1.52,2.31-3.04,4.63-4.56,6.94l-1.98,2.37c-.56.5-1.13,1-1.69,1.51-.72.56-1.44,1.12-2.15,1.68-1.29.82-3.06,1.81-4.2,3.32-1.42,1.87-2.35,3.56-3.57,5.36-.8,1.18-1.95,2.17-2.87,3.37-1.3,1.7-3.6,2.97-5.02,3.78-1.71.98-3.23,2.28-4.96,3.46-2.15,1.47-3.82,3.88-6.04,5.44-4.25,2.99-8.47,7.65-12.61,11.6l.77.8c3.58-3.43,7.35-7.74,11.01-10.23ZM-22.61,123.09c.7-.72,1.41-1.45,2.11-2.17,1.11-1.08,2.22-2.15,3.33-3.23,1.08-1.4,2.78-2.99,4.22-4.02.97-.82,1.94-1.64,2.91-2.45,3.6-2.41,7.2-4.98,10.77-7.31.82-.71,1.64-1.43,2.46-2.14,1.38-.96,2.64-2.09,3.98-3.38.44-.42.89-.85,1.33-1.27.75-.88,1.51-1.75,2.26-2.63.78-1.13,1.55-2.26,2.33-3.39,1.13-1.54,2.87-2.79,3.9-4.25,2.02-2.87,3.55-5.65,5.49-8.52,1.13-1.68,2.74-2.84,4.04-4.54.72-.95,1.9-2.22,2.97-2.94,1.49-1,3.7-2.63,4.14-4.21-.05-.07-.1-.15-.16-.22-.1-.03-.2-.06-.3-.09-.69.62-1.39,1.25-2.08,1.88-2.4,1.65-5.01,3.98-6.88,6.4-.8,1.03-1.91,1.93-2.65,3-1.64,2.55-3.28,5.11-4.93,7.66-.78,1.15-1.88,2.11-2.79,3.3-.49.49-.98.97-1.47,1.46-1.06,1.4-1.86,2.7-2.84,4.08l-2.45,2.82c-.71.93-1.77,1.71-2.63,2.3-.6.5-1.2,1-1.8,1.5-.87.74-1.73,1.48-2.6,2.22-3.41,2.2-6.92,4.74-10.31,6.97-1.53,1.01-2.71,2.52-4.32,3.64-1.16.81-2.61,2.25-3.44,3.33-1.21,1.17-2.42,2.35-3.64,3.52-1.95,1.99-3.89,3.99-5.84,5.99l.8.84c1.39-1.31,2.98-2.71,4.06-4.13ZM4.52,97.12c.07.06.14.11.21.17.09,0,.18,0,.27,0l.94-.85c.29-.33.58-.66.86-.98.96-1.27,2.88-2.72,3.13-4.05-.08-.06-.16-.13-.24-.2-.05-.02-.11-.04-.16-.06-1.35.7-4.74,4.93-5.02,5.95ZM-13.48,117.73c1.54-1.47,2.86-2.96,4.52-4.1,3.65-2.51,6.84-4.9,10.42-7.29,2.23-1.74,4.46-3.47,6.68-5.21.4-.38.8-.76,1.19-1.14,1.35-1.28,2.45-2.51,3.37-3.8.88-1.07,1.77-2.15,2.65-3.22,1.1-1.16,2.21-2.32,3.31-3.47,2.94-3.94,4.25-7.44,7.18-11.41,1.02-1.39,2.69-2.76,4.02-3.67,1.9-1.31,3.68-3.66,4.71-5.23,1.31-1.99,1.88-3.86,3.01-5.84.73-1.27,1.85-2.34,2.74-3.62,1.66-2.38,4-5.14,6.74-7.32.96-.84,1.92-1.69,2.88-2.53,2.15-1.47,4.18-3.18,6.34-4.24,7.42-3.65,14.84-5.04,22.33-8.8,1.34-.8,2.68-1.6,4.02-2.4,2.39-1.28,4.69-2.5,7.17-4.09,1.54-.98,2.8-2.54,4.4-3.61,1.92-1.28,3.84-2.57,5.76-3.85,1.78-1.3,3.55-2.61,5.33-3.91,2-1.25,3.86-2.49,5.86-3.52,2.25-1.16,4.85-2.54,7.03-4.85,2.32-2.47,3.46-4.67,4.78-7.04,1.16-2.1,2.31-3.97,3.26-6.02.83-1.78,1.51-3.71,2.82-5.43l-1.06-1.11c-.54.59-.87,1.4-1.19,2.03-.94,1.86-1.78,3.67-2.63,5.52-.73,1.6-1.74,3.07-2.63,4.68-.74,1.33-1.37,2.7-2.29,4.04-.68.79-1.36,1.58-2.04,2.36-.52.44-1.03.88-1.55,1.32-1.51,1.03-2.7,1.99-4.1,2.75-2.84,1.53-5.43,3.31-8.37,5.22-1.58,1.19-3.17,2.38-4.75,3.57-1.52,1.01-3.05,2.02-4.57,3.04-1.83,1.24-3.37,3.09-5.14,4.22-2.11,1.34-4.1,2.28-6.15,3.32-1.54.92-3.08,1.84-4.62,2.76-2.85,1.42-5.77,2.58-8.63,3.62-1.75.56-3.5,1.11-5.24,1.66-1.32.57-2.65,1.15-3.97,1.72-1.31.51-2.63,1.02-3.94,1.53-2.85,1.39-5.29,3.66-8.21,5.66-.91.84-1.83,1.67-2.74,2.51l-1.39,1.32c-1.71,1.7-3.06,3.21-4.21,4.86-1.1,1.58-2.46,2.95-3.33,4.5-1,1.76-1.36,3.47-2.54,5.23-.73,1.09-2.4,3.33-3.57,4.14-1.71,1.19-4.01,3.11-5.27,4.81-1.16,1.56-2.25,3-3.12,4.56-1.19,2.14-2.13,4.16-3.76,6.39-1.24,1.33-2.49,2.65-3.73,3.98-1.42,1.73-2.85,3.46-4.27,5.19-.69.72-1.37,1.45-2.06,2.17-.59.51-1.18,1.02-1.77,1.53-1.91,1.47-3.83,2.95-5.74,4.42-2.5,1.69-5,3.39-7.5,5.08-.98.74-1.97,1.49-2.95,2.23-1.43,1.33-2.86,2.66-4.3,3.99-2.28,2.21-4.57,4.43-6.85,6.64-1.29,1.69-2.67,3.22-4.34,4.83l.79.83c1.82-1.83,3.48-3.54,4.96-5.46,2.09-2.03,4.18-4.06,6.27-6.09ZM69.21,82.41c-1.75,1.13-3.14,3.1-4.04,4.54-2.9,4.63-5.71,9.08-8.78,13.67-1,1.27-1.99,2.54-2.99,3.81-1.4,1.86-3.44,2.66-5.03,4.16-2.32,2.2-4.25,4.67-6.85,6.37-1.83,1.2-3.59,2.66-5.45,3.61-2.41,1.14-4.83,2.27-7.24,3.41-2.22,1.09-4.25,2.44-6.49,3.86-4.38,2.77-8.34,5.36-12.78,9.59-1.06,1.07-2.13,2.14-3.19,3.21-.32.42-.88.7-.84,1.12,0,.05.02.09.02.14.09.06.18.11.27.17,1.45-.61,3.24-2.59,4.65-3.9.43-.41.87-.83,1.3-1.24.77-.66,1.53-1.32,2.3-1.98,1.73-1.16,3.27-2.49,4.96-3.52,2.92-1.77,5.9-4.01,8.81-5.48,3.51-1.79,6.88-3.07,10.4-5.15,2.14-1.26,3.89-2.92,6.07-4.41,1.5-1.52,3-3.04,4.5-4.56.53-.45,1.05-.9,1.58-1.35,1.18-.8,2.35-1.76,3.54-2.9.7-.81,1.39-1.61,2.09-2.42,1.18-1.63,2.36-3.27,3.53-4.9,2.82-4.47,5.44-8.93,8.83-13.45.35-.3.7-.6,1.05-.9,1.39-.94,2.47-1.98,3.78-2.87,2.56-1.72,6.3-6.49,3.61-8.32-.94-.64-2.13-.54-3.11-.37-2.58.45-5.37,2-7.97,4.47-.44.42-.89.85-1.33,1.27-1.05,1.38-2.41,2.52-3.35,3.88-1.7,2.47-2.98,4.86-4.54,7.35-1.51,2.41-3.33,4.66-4.45,7.05-.78,1.67-1.19,3.28-2.15,4.86-.34.56-1.48,1.62-1.35,2.19.02.11.02.11.1.17.06.03.13.06.19.09,2.7-1.34,3.67-5.72,4.79-7.75,1.1-1.99,2.59-3.8,3.85-5.79,1.42-2.34,2.84-4.69,4.26-7.03.89-1.33,2.19-2.5,3.21-3.85.61-.58,1.22-1.16,1.83-1.75.54-.47,1.09-.93,1.63-1.4,1.68-1.08,3.19-2,4.8-2.46.76-.21,2.37-.68,3.03.45.9,1.54-.81,3.01-2.01,4.56-1.2,1.55-3.59,2.81-5.05,3.76ZM-5.73,137.3c1.3-1.21,2.61-2.41,3.91-3.62,4.58-5.46,10.98-10.44,16.38-13.93,1.61-1.22,3.22-2.44,4.83-3.65,4.37-2.66,8.83-4.72,13.1-7.14,1.44-.82,2.66-2.14,4.14-3.15,1.73-1.19,4.28-3.06,5.68-4.94,2.87-3.84,3.89-7.07,5.49-10.8,1.4-2.83,2.79-5.66,4.19-8.49,1.54-3.61,2.37-6.77,4.99-10.48,1.66-2.36,4.61-4.68,6.81-5.8,6.18-3.16,13.5-4.89,19.45-1.54,4.17,2.34,5.5,7.03,4.94,10.23-.49,2.74-2.12,5.01-4.12,7.79-.81.91-1.62,1.82-2.42,2.73-1.34,1.76-3.53,3.23-4.76,5.01-1.58,2.3-2.58,4.62-3.82,6.88-.94,1.7-2.22,3.28-2.94,4.97-.77,1.79-1.25,3.63-2.11,5.45-1.37,2.92-3.92,6.17-6.04,8.99-2.4,3.19-5.48,3.69-7.92,4.64-1.04.41-1.95,1.21-3.03,1.88-.75.47-1.77.91-2.37,1.73.05.15.05.21.21.38.08.01.16.02.24.03.75-.33,1.57-.64,2.36-1.08.82-.51,1.63-1.03,2.45-1.54,1.17-.41,2.33-.81,3.5-1.22,1.03-.42,1.99-1.08,3.02-1.77,2.83-1.89,4.8-5.44,6.29-7.79.99-1.58,2.02-3,2.74-4.57.62-1.59,1.23-3.19,1.85-4.78.71-1.58,1.87-3.05,2.77-4.65,1.36-2.43,2.38-4.9,4.19-7.38,1.77-2.42,4.56-4.36,6.31-6.71,1.02-1.37,2.22-2.65,3.02-4.05,1.94-3.39,2.6-6.83,1.3-10.3-.65-1.73-2.07-4.1-4.15-5.47-1.38-.91-2.76-1.51-4.16-1.86-2.9-.74-5.93-.64-8.86-.13-2.28.4-4.65,1.05-6.94,2.17-1.1.64-2.2,1.29-3.3,1.93-6.75,4.34-8.55,10.76-10.74,16.01-1.14,2.74-2.73,5.35-3.96,8.12-1.13,2.55-1.89,5.15-3.33,7.73-.81,1.45-2.03,2.64-3.19,4.15l-1.52,1.29c-1.02.82-2.05,1.63-3.07,2.45-1.19.82-2.13,1.87-3.29,2.55-1.66.98-3.32,1.68-4.97,2.51-2.78,1.59-5.55,3.18-8.33,4.76-1.91,1.44-3.83,2.87-5.74,4.31-1.5.95-2.94,2.02-4.49,3.06-.99.8-1.97,1.6-2.96,2.4-1.25.86-3.09,2.32-4.1,3.64-.76.78-1.52,1.55-2.28,2.33-.94.97-1.89,1.94-2.83,2.92-1.01.92-2.01,1.85-3.02,2.77-2.04,1.95-4.09,3.9-6.13,5.85l.77.8c1.29-1.23,2.59-2.47,3.88-3.7.69-.64,1.39-1.29,2.08-1.93ZM5.97,145.73c2.69-1.82,4.96-3.41,7.66-5.24.85-.7,1.7-1.41,2.54-2.11,3.25-2.23,6.16-5.24,9.44-6.93,3.26-1.68,6.3-2.43,9.47-3.73,1.51-.62,2.88-1.64,4.4-2.5,1.63-.94,3.26-1.88,4.89-2.81,3.57-2.22,6.4-6.06,8.73-9.12.52-.68,1.29-1.35,1.94-1.8,1.62-1.12,4.17-3.44,5.32-4.97,2.02-2.69,4.54-5.18,6.26-7.93,1.54-2.46,2.61-4.98,4.06-7.52,3.69-6.46,14.28-12.85,12.74-19.46-.2-.85-.72-1.57-1.32-2.44-1.51-2.2-5.2-2.72-6.85-2.58-3.12.26-5.93.91-9.15,2.74-1.13.64-2.04,1.56-3.2,2.36-.84.58-2.13,1.63-2.83,2.54-1.16,1.52-2.87,2.7-3.98,4.22-1.45,1.99-2.75,3.75-3.82,5.71-.99,1.8-1.72,3.65-2.54,5.44-.57,1.09-1.14,2.18-1.7,3.27-1.11,2.39-1.95,4.76-3.34,7.16-.52.9-1.31,1.69-1.99,2.58-.56.55-1.11,1.09-1.67,1.64-2.29,2.18-4.48,3.61-6.73,4.94-1.98,1.33-3.97,2.65-5.95,3.98-1.31.63-2.61,1.26-3.92,1.89-1.68.82-3.31,1.82-4.97,2.84-3.41,2.08-6.35,4.62-9.73,6.9-1.03.84-2.06,1.69-3.1,2.53-.88.86-1.76,1.71-2.64,2.57-1.1,1.14-2.21,2.28-3.31,3.42-3.79,3.56-7.58,7.12-11.37,10.68l.79.83c3.7-3.47,7.39-6.95,11.09-10.42.8-.81,1.59-1.62,2.39-2.44.69-.89,2.42-2.74,3.44-3.44,1.11-.91,2.21-1.83,3.32-2.74,3.3-2.22,6.18-4.71,9.49-6.71,1.36-.8,2.71-1.6,4.07-2.4,1.72-.84,3.44-1.69,5.16-2.53,2.06-1.36,4.11-2.72,6.17-4.08,1.33-.78,2.63-1.7,4.02-2.62.66-.58,1.33-1.16,1.99-1.74.75-.71,1.5-1.43,2.25-2.14.78-1.04,1.65-1.9,2.24-2.93,1.36-2.38,2.23-4.76,3.31-7.13.62-1.17,1.23-2.34,1.85-3.51,1.67-3.58,3.14-6.61,5.8-10.3,3.36-4.66,9.11-9.33,13.44-10.9,1.56-.57,3.16-.75,4.71-.89,1.7-.15,4.93.12,6.5,2.49,2.07,3.12.46,5.66-1.81,8.71-.82.9-1.63,1.81-2.45,2.71-.64.66-1.28,1.33-1.92,1.99-.69.7-1.39,1.4-2.08,2.09-1.42,1.86-2.78,3.36-3.81,5.17-1.41,2.47-2.46,4.92-4,7.36-1.79,2.83-4.38,5.28-6.48,8.09-1.97,2.62-5.05,3.88-7.1,6.56-2.12,2.76-4.58,6.13-7.81,8.14-1.65,1.02-3.25,1.93-4.87,2.84-1.62.91-3.08,1.91-4.7,2.57-3.09,1.26-6.13,1.95-9.31,3.74-3.14,1.76-5.97,4.61-9.19,6.8-1.12.93-2.25,1.86-3.37,2.79-2.42,1.58-4.52,2.96-6.89,4.55-.78.7-1.57,1.39-2.35,2.09-2.01,1.9-4.01,3.79-6.02,5.69l.85.89c1.92-1.82,3.85-3.63,5.77-5.45.72-.65,1.44-1.3,2.16-1.96ZM3.85,143.89c2.14-1.41,3.99-2.35,6.19-3.84,1.45-1.2,2.9-2.41,4.34-3.61.45-.41.91-.83,1.36-1.24.57-.53,1.15-1.06,1.72-1.59,2.44-1.69,4.72-3.56,7.22-4.98,3.12-1.77,6.09-2.7,9.15-3.96,3-1.23,5.85-3.11,8.88-5.02,2.78-1.76,6.21-5.33,8.13-7.91.65-.88,1.89-1.86,2.66-2.38,1.25-.85,3.05-2.53,3.99-3.7.36-.36.72-.72,1.08-1.09,1.93-2.57,4.01-4.95,5.52-7.6.94-1.64,1.74-3.32,2.78-4.98,1.37-2.2,2.74-4.04,4.46-6.32.86-.82,1.72-1.64,2.58-2.46,4.21-4,8.85-7.99,5.58-12.26-1.19-1.55-4.04-1.49-5.53-1.3-4.6.61-10.4,4.44-14.36,9.77-.93,1.06-1.86,2.12-2.79,3.19-2.68,3.89-4.86,7.76-6.68,11.72-1.18,2.57-2.24,5.22-3.68,7.75-.58,1.02-1.41,1.9-2.18,2.93-1.59,2.1-4.81,4.32-6.69,5.48-.86.56-1.73,1.12-2.59,1.67l-2.8,1.4c-1,.65-2,1.31-3,1.96-2.36,1.2-4.71,2.22-7.16,3.71-3.47,2.45-6.95,4.9-10.42,7.34-.7.56-1.4,1.12-2.1,1.69-2.08,1.95-4.16,3.9-6.24,5.84-1.2.9-2.54,2.27-3.39,3.39-.62.66-1.24,1.33-1.86,1.99-2.28,2.14-4.57,4.28-6.85,6.43l.82.86c1.79-1.67,3.59-3.35,5.38-5.02.78-.76,1.55-1.52,2.33-2.28.84-.91,1.69-1.82,2.53-2.73.51-.66,1.35-1.53,2.05-2.01.57-.53,1.15-1.06,1.72-1.59,1.47-1.37,2.94-2.73,4.41-4.1,4.37-3.01,8.31-6.43,12.69-9.08,2.23-1.35,4.42-2.22,6.61-3.34.98-.64,1.96-1.27,2.95-1.91,1.19-.6,2.38-1.21,3.57-1.81.95-.64,1.89-1.27,2.84-1.91,1.63-1.02,3.11-2.27,4.7-3.79.49-.47.98-.93,1.47-1.4.7-.92,1.47-1.74,2.02-2.66,1.54-2.6,2.63-5.35,3.85-8.02,1.77-3.87,3.95-7.66,6.51-11.45.75-1.11,1.79-1.97,2.65-3.11,3.41-4.52,8.68-8.77,13.13-9.56,1.42-.25,4.16-.65,5.45,1.27,1.42,2.12-.15,4.15-1.69,6.22-.44.46-.89.92-1.33,1.38-.9.85-1.79,1.71-2.69,2.57-.94.88-1.89,1.76-2.83,2.64-1.83,2.41-3.34,4.34-4.74,6.69-.79,1.43-1.59,2.85-2.38,4.28-1.52,2.67-3.52,5.21-5.53,7.76-1.13,1.43-3.8,3.95-5.43,5.08-.77.54-1.91,1.49-2.55,2.33-2.23,2.9-5.47,6.02-8.46,7.91-2.35,1.48-4.66,2.98-7.03,3.95-3.29,1.36-6.49,2.45-9.81,4.32-2.83,1.6-5.55,3.7-8.24,5.8-2.52,1.96-4.41,4.29-6.92,6.02-2.03,1.39-3.72,2.11-5.66,3.34-1.14.72-1.99,1.88-3.13,2.66-1.76,1.61-3.53,3.22-5.29,4.84l.82.86c1.71-1.54,3.42-3.08,5.12-4.62.93-.8,1.86-1.6,2.8-2.4ZM18.23,150.2c2.97-1.69,5.59-4.24,8.45-5.41,1.77-.72,3.61-1.2,5.36-1.82,1.71-.65,3.43-1.29,5.14-1.94,1.39-.39,2.78-.78,4.18-1.18,2.08-.62,4.06-1.33,6.15-2.1,3.5-1.3,7-2.73,10.52-4.52,2.21-1.12,4.2-2.56,6.41-3.94,2.43-1.52,5.72-4.12,7.53-6.71,3.92-5.59,6.03-11.05,8.61-16.69,1.1-2.4,1.74-4.61,3.09-6.98.84-1.31,1.67-2.62,2.51-3.93.4-.63.88-1.15,1.02-1.77-.07-.06-.14-.11-.21-.17-.1-.01-.2-.02-.3-.03-1.02.92-1.64,1.89-2.26,2.85-.93,1.44-1.99,2.73-2.68,4.19-.52,1.1-.82,2.26-1.27,3.33-1.04,2.21-2.08,4.42-3.11,6.62-2.22,5.2-5.44,12.84-12.09,17.2-3.69,2.42-7.11,4.85-10.78,6.36-3.23,1.33-6.4,2.73-9.63,3.78-6.14,2-12.52,3.74-18.69,6.28-3,1.24-5.67,3.86-8.75,5.59-2.2,1.24-4.41,2.11-6.67,3.39-2.48,1.41-5.06,3.82-7.41,6.06l.88.92c2.51-2.26,5.15-4.72,7.79-6.22,2.11-1.2,4.14-2,6.23-3.19ZM16.41,148.02c3-1.76,5.64-4.05,8.57-5.68,3.11-1.73,6.22-2.7,9.25-3.79.83-.28,1.66-.56,2.49-.84,7.88-1.95,15.57-4.44,23.51-9.12,2.61-1.54,6.84-4.34,9.01-7.38,1.05-1.46,2.16-2.81,3.03-4.27,2.25-3.76,4.05-7.5,5.83-11.33.73-1.66,1.45-3.33,2.18-4.99,1.17-2.12,2.6-4.18,4-6.25,2-2.96,5.88-5.22,8.2-8.29.83-1.1,1.74-2.07,2.43-3.17,1.77-2.81,2.9-5.69,3.35-8.54.51-3.23-.09-6.06-1.3-9.36-.62-1.69-1.2-3.39-2.29-5.12-.98-1.55-2.62-2.98-3.98-3.84-.61-.38-1.28-1.04-1.91-.45-.04.07-.08.14-.11.21.12.77.99,1.09,1.65,1.5,1.15.72,2.51,1.98,3.29,3.22,3.19,5.06,4.29,10.62,3.02,15.61-.62,2.44-1.84,4.82-3.48,7.24-.67.82-1.34,1.63-2.01,2.45-.87,1.15-3.08,3.36-4.3,4.21-1.61,1.11-3.46,3.58-4.26,4.86-1.17,1.88-2.35,3.76-3.52,5.64-2.38,4.94-4.47,9.99-7.32,14.98-.97,1.71-2.24,3.29-3.51,4.99-.48.53-.97,1.06-1.45,1.59-.41.37-.81.74-1.22,1.11-.54.48-1.07.95-1.61,1.43-1.3.86-2.54,1.83-3.8,2.57-3.35,1.97-6.55,3.73-9.88,4.97-2.78.88-5.55,1.77-8.33,2.65-4.93,1.77-9.96,2.6-14.98,5.07-2.61,1.28-5.19,3.09-7.81,4.75-1.32.91-2.65,1.82-3.97,2.73-2.33,1.31-4.61,1.87-6.82,3.12-2.38,1.34-4.9,3.78-7.16,5.93l.85.89c2.23-1.84,4.36-4.2,6.66-5.51,2.55-1.46,5.08-2.22,7.74-3.77ZM9.62,146.28c2.07-1.42,3.89-2.61,5.98-4.01,1.33-1.02,2.65-2.03,3.98-3.05,4.11-2.68,7.45-5.13,11.46-6.59,3.49-1.27,7.22-1.86,10.77-2.7,1.56-.37,3.04-1.04,4.59-1.63,3.07-1.16,5.97-2.25,9.15-3.85,1.6-.86,3.2-1.71,4.81-2.57.78-.46,1.34-1.06,2.15-1.63.54-.5,1.09-1,1.64-1.51.58-.69,1.15-1.38,1.73-2.07,2.26-3.28,4.25-6.44,6.09-9.78,1.1-2,1.81-4.01,2.75-6.01.95-2.04,2.24-3.97,3.4-5.99,1.13-1.97,2.5-3.63,4.04-5.65.74-.76,1.48-1.52,2.22-2.28.68-.72,1.35-1.43,2.03-2.15,1.17-1.54,2.53-2.82,3.46-4.31,3.55-5.65,3.77-11.24-.24-17.09-2.16-3.14-6.13-4.49-8.42-4.94-6.32-1.25-12.91-.26-19.33,3.39-1.71.97-3.32,2.21-5.08,3.89-.51.5-1.02,1.01-1.53,1.51-2.49,3.29-4.64,6.11-6.13,9.34-1.72,3.71-2.98,7.43-4.52,11.14-1.07,2.59-1.99,5.26-3.52,7.86-.75,1.27-1.77,2.39-2.74,3.68-.52.68-1.33,1.5-2.03,1.99-1.02.7-1.75,1.56-2.71,2.1-1.17.66-2.34,1.32-3.52,1.98-1.15.5-2.3.99-3.45,1.49-1.44.71-2.74,1.96-4.22,2.85-1.82,1.11-3.63,2.23-5.45,3.34-1.55,1.17-3.11,2.33-4.67,3.5-2.11,1.38-4.12,3.14-6.29,4.62-1.04.83-2.08,1.67-3.12,2.5-1.26,1.04-2.53,2.09-3.79,3.14l-1.3,1.24c-1.25,1.19-2.35,2.22-3.31,3.47-.88.87-1.76,1.75-2.64,2.62-.82,1.07-2.58,2.81-3.72,3.6-.82.8-1.65,1.6-2.47,2.41l.77.81c2.89-2.77,5.77-5.54,8.66-8.31,1.36-1.42,2.72-2.85,4.09-4.27,1.34-1.13,2.67-2.27,4.01-3.4,1.12-.91,2.25-1.83,3.37-2.74,2.37-1.61,4.49-3.51,6.79-4.99,1.55-1.15,3.11-2.29,4.66-3.44,1.69-1.03,3.37-2.05,5.06-3.08,1.24-.85,2.48-1.69,3.72-2.54,1.25-.54,2.5-1.08,3.75-1.62,2.41-1.18,4.71-2.64,7.11-4.93.69-.69,1.37-1.38,2.06-2.07.91-1.22,1.87-2.32,2.55-3.54,3.64-6.5,5.35-13.25,8.44-19.86,1.24-2.65,3.06-5.02,5.04-7.66,1.74-2.33,4.56-4.44,6.69-5.59,5.94-3.21,11.88-4.42,17.7-3.38,2.48.44,4.39,1.23,6.92,3.15.4.38.8.76,1.19,1.14.61.88,1.25,1.62,1.68,2.48,2.02,4.05,1.74,8.44-.4,12.41-.76,1.41-1.89,2.72-2.95,4.13-.75.82-1.5,1.65-2.25,2.47-1.06,1.1-2.11,2.19-3.17,3.29-1.56,2.06-2.98,3.77-4.12,5.79-1.11,1.96-2.23,3.92-3.34,5.89-.81,1.83-1.62,3.67-2.44,5.5-.71,1.19-1.41,2.37-2.12,3.56-1.81,3.17-3.8,6.18-6.51,9.33-.59.47-1.18.95-1.77,1.42-2.07,1.33-3.94,2.27-5.96,3.3-2.87,1.46-5.47,2.42-8.24,3.46-1.91.72-3.73,1.53-5.63,1.98-3.42.81-6.98,1.31-10.39,2.55-3.96,1.43-7.49,4.03-11.57,6.69-1.21.94-2.41,1.88-3.62,2.81-2.36,1.6-4.38,2.95-6.67,4.5-1.31,1.25-2.63,2.5-3.94,3.76-1.89,1.72-3.79,3.44-5.68,5.15L0,155.19c1.85-1.66,3.69-3.31,5.54-4.97,1.5-1.43,2.57-2.91,4.08-3.94ZM54.58,118.4l.02.24c.06.05.12.09.19.14,1.11.37,4.02-1.85,5.27-2.8.3-.62,1.28-1.47,1.68-2.07,1.71-2.62,3.82-5.11,5.12-7.63.51-.99,1.31-2,1.32-3.01-.18-.17-.24-.16-.4-.2-1.46,1.34-2.12,3.18-3.01,4.67-.89,1.49-2.19,2.81-3.22,4.29-.57.84-1.14,1.69-1.71,2.53-.88,1.2-2.35,2.08-3.4,2.6-.64.32-1.41.6-1.85,1.23ZM19.69,152.73c1.8-1.02,3.39-2.67,5.21-3.81,1.71-1.06,3.27-1.9,4.97-2.67.5-.23,1.61-.54,1.87-1.2-.07-.11-.14-.22-.21-.33-.74-.19-1.79.49-2.54.78-1.5.59-3.02,1.35-4.55,2.28-.91.67-1.82,1.35-2.73,2.02-1.07.72-2.13,1.43-3.2,2.15-1.48.79-3,1.39-4.53,2.25-2.89,1.63-5.71,4.02-8.54,6.71l.87.91c2.66-2.6,5.59-4.98,8.34-6.52,1.67-.85,3.35-1.71,5.02-2.56ZM55.77,116.42c1.13-.97,2.25-1.94,3.38-2.9.12-.27.24-.4.29-.64-.02-.04-.03-.07-.05-.11-.08-.05-.16-.09-.24-.14-1.03.42-3.89,2.44-3.69,3.68.04.03.09.06.13.08.06.01.13.02.19.03ZM-1.18,144.4c.73-.68,1.46-1.36,2.19-2.04.82-.88,1.63-1.77,2.45-2.65.8-1.06,2.23-2.33,2.95-3.18,3.54-4.23,8.91-8.21,12.83-10.59,1.35-.92,2.7-1.83,4.05-2.75,2.13-1.21,4.27-2.41,6.4-3.62,2.61-1.28,5.18-2.28,7.9-3.93,1.82-1.11,3.41-2.79,5.25-4.05,1.32-1.24,2.64-2.49,3.97-3.73,2.17-1.5,4.65-3.04,6.36-5.38,2.39-3.26,4.19-6.36,6.06-9.64.94-1.37,1.87-2.74,2.81-4.11,1.42-2.26,2.71-4.47,4.39-6.84,1.39-1.94,3.51-3.93,5.46-5.21.76-.49,1.46-1.27,2.2-1.25l.03.03c.18,2.1-4.93,4-5.2,5.43l.03.03c.16.15.18.14.32.17,1.71-.83,4.48-2.52,5.56-4.61.26-.52.86-1.6,0-2.01-1.38-.65-5.46,2.41-7.09,4.17-3.03,3.28-4.85,6.24-6.76,9.41l-2.92,4.32c-1.83,3.21-3.55,6.42-5.81,9.51-1.77,2.42-4.25,3.46-6.33,5.14-1.12,1.07-2.24,2.13-3.36,3.2-1.71,1.33-3.43,2.67-5.14,4-3.12,1.93-6.01,3.07-9.03,4.58-3.11,1.56-6.03,3.63-9.13,5.58-2.41,1.52-4.52,3.34-6.95,4.99-.91.82-1.83,1.64-2.74,2.46-1.11.77-3.31,2.91-4.11,3.97-.52.51-1.04,1.02-1.55,1.54-1.16,1.3-2.32,2.6-3.48,3.9-.75.7-1.5,1.39-2.25,2.09-.43.4-.87.79-1.3,1.19-1.28.88-2.54,2.26-3.77,3.43l.82.86c1.22-1.17,2.44-2.45,3.71-3.33.4-.36.79-.72,1.19-1.08Z"/>
    </mask>
  </defs>
  <g id="Layer_1-2" data-name="Layer 1">
    <g class="cls-1">
      <path class="cls-3" d="M140.48,44.67c-.1-1.56-.26-3.09-.46-4.64-.49-3.76-1.26-7.29-2.35-10.53-1-3.09-2.29-5.94-3.85-8.58-3.19-5.37-7.13-9.7-11.81-12.99-4.67-3.28-9.89-5.55-15.61-6.79-5.48-1.19-11.1-1.45-16.85-.79-.28.02-.53.05-.8.09-5.13.65-10.14,1.81-15.05,3.46-3.35,1.14-6.65,2.52-9.9,4.13-.63.3-1.23.6-1.86.95-6.8,3.5-13.2,7.84-19.14,12.97-.45.37-.89.74-1.32,1.12-6.88,6.08-13.09,12.98-18.68,20.73-3.69,5.11-6.94,10.44-9.75,15.97-1.5,2.86-2.85,5.78-4.09,8.75-1.52,3.63-2.84,7.29-3.98,11.02-1.57,5.1-2.8,10.31-3.66,15.61-.03.13-.05.26-.08.4C.39,100.81-.01,106.03,0,111.25c0,4.02.24,8.03.75,12.05.36,2.88.91,5.62,1.62,8.2,1.11,3.99,2.65,7.61,4.57,10.91.54.89,1.1,1.79,1.71,2.64,2.86,4.17,6.21,7.66,10.12,10.44,4.67,3.38,9.94,5.71,15.74,7.01,5.79,1.3,11.7,1.58,17.73.81,8.65-1.11,16.96-3.64,24.98-7.6,8.02-3.94,15.45-8.99,22.29-15.15,6.86-6.16,13.05-13.13,18.57-20.93,2.67-3.79,5.15-7.71,7.38-11.72,1.51-2.74,2.94-5.54,4.26-8.37.72-1.57,1.41-3.15,2.09-4.74,2-4.81,3.68-9.7,5.03-14.71,1.11-4.07,2-8.2,2.67-12.42.19-1.17.37-2.34.5-3.53.82-6.54.98-13.03.46-19.44ZM112.85,71.19c-.05.52-.11,1.08-.17,1.62-.86,7.54-2.26,15.15-4.24,22.83-1.96,7.68-4.48,15.08-7.52,22.25-3.07,7.15-6.67,13.56-10.82,19.19-4.15,5.66-8.81,10.24-14.02,13.79-5.21,3.55-10.97,5.48-17.27,5.79-4.29.22-8.23-.31-11.86-1.56-3.62-1.25-6.81-3.55-9.56-6.92-2.74-3.37-4.98-8.01-6.72-13.94-.9-3.07-1.62-6.55-2.15-10.47v-.02c-.5-3.66-.85-7.71-1.04-12.09-.13-3.02-.14-6.18-.01-9.46.14-3.68.43-7.5.88-11.48.86-7.56,2.24-15.12,4.14-22.73,1.9-7.59,4.4-15.04,7.47-22.25,3.04-7.22,6.63-13.65,10.72-19.18,1.56-2.12,3.2-4.09,4.91-5.91,2.81-2.99,5.82-5.55,9.04-7.76,1.12-.76,2.26-1.44,3.43-2.05,3.14-1.67,6.45-2.78,9.98-3.34,1.25-.22,2.56-.36,3.87-.42,3.32-.16,6.47.09,9.42.77.85.2,1.68.41,2.51.68,3.67,1.19,6.92,3.48,9.7,6.93,2.8,3.42,5.08,8.07,6.81,13.92,1.68,5.64,2.72,12.9,3.14,21.77v.02c.03.31.04.6.06.91.25,5.81.03,12.18-.68,19.12Z"/>
    </g>
  </g>
</svg>