<?xml version="1.0" encoding="UTF-8"?>
<svg id="Layer_2" data-name="Layer 2" xmlns="http://www.w3.org/2000/svg" viewBox="0 0 941.69 681.45">
  <defs>
    <style>
      .cls-1 {
        fill: #f2a7cd;
      }
    </style>
  </defs>
  <g id="Layer_1-2" data-name="Layer 1">
    <g>
      <path class="cls-1" d="M18.91,145.21c0,8.68,3.95,19.73,10.65,30.51l5,8.02c7.36,11.44,11.44,23.28,11.44,32.75v3.02c0,12.5-7.37,20.91-18.68,20.91-5.26,0-9.34-1.71-11.97-3.55-1.58-1.05-2.76-1.58-3.81-1.58-1.58,0-2.5,1.31-2.5,3.29v.53h-.66l-2.63-48.8h.66l11.31,38.54c1.58,5.92,4.73,8.94,8.29,8.94,4.21,0,6.84-4.87,6.84-14.07v-2.63c0-8.55-3.95-19.73-10.65-30.51l-5-7.89c-7.37-11.57-11.44-23.41-11.44-32.88v-2.89c0-12.5,7.5-20.91,18.68-20.91,5.39,0,9.34,1.71,11.97,3.55,1.58,1.05,2.76,1.58,3.81,1.58,1.58,0,2.5-1.31,2.5-3.29v-.53h.66l2.63,48.8h-.66l-11.31-38.54c-1.45-5.92-4.6-8.94-8.15-8.94-4.21,0-6.97,4.87-6.97,13.94v2.63Z"/>
      <path class="cls-1" d="M56.53,82.21c0,8.68,3.95,19.73,10.65,30.51l5,8.02c7.36,11.44,11.44,23.28,11.44,32.75v3.02c0,12.5-7.37,20.91-18.68,20.91-5.26,0-9.34-1.71-11.97-3.55-1.58-1.05-2.76-1.58-3.81-1.58-1.58,0-2.5,1.31-2.5,3.29v.53h-.66l-2.63-48.8h.66l11.31,38.54c1.58,5.92,4.73,8.94,8.29,8.94,4.21,0,6.84-4.87,6.84-14.07v-2.63c0-8.55-3.95-19.73-10.65-30.51l-5-7.89c-7.37-11.57-11.44-23.41-11.44-32.88v-2.89c0-12.5,7.5-20.91,18.68-20.91,5.39,0,9.34,1.71,11.97,3.55,1.58,1.05,2.76,1.58,3.81,1.58,1.58,0,2.5-1.31,2.5-3.29v-.53h.66l2.63,48.8h-.66l-11.31-38.54c-1.45-5.92-4.6-8.94-8.15-8.94-4.21,0-6.97,4.87-6.97,13.94v2.63Z"/>
      <path class="cls-1" d="M94.15,19.2c0,8.68,3.95,19.73,10.65,30.51l5,8.02c7.36,11.44,11.44,23.28,11.44,32.75v3.02c0,12.5-7.37,20.91-18.68,20.91-5.26,0-9.34-1.71-11.97-3.55-1.58-1.05-2.76-1.58-3.81-1.58-1.58,0-2.5,1.31-2.5,3.29v.53h-.66l-2.63-48.8h.66l11.31,38.54c1.58,5.92,4.73,8.94,8.29,8.94,4.21,0,6.84-4.87,6.84-14.07v-2.63c0-8.55-3.95-19.73-10.65-30.51l-5-7.89c-7.37-11.57-11.44-23.41-11.44-32.88v-2.89c0-12.5,7.5-20.91,18.68-20.91,5.39,0,9.34,1.71,11.97,3.55,1.58,1.05,2.76,1.58,3.81,1.58,1.58,0,2.5-1.31,2.5-3.29v-.53h.66l2.63,48.8h-.66l-11.31-38.54c-1.45-5.92-4.6-8.94-8.15-8.94-4.21,0-6.97,4.87-6.97,13.94v2.63Z"/>
      <path class="cls-1" d="M34.84,271.21c0,8.68,3.95,19.73,10.65,30.51l5,8.02c7.36,11.44,11.44,23.28,11.44,32.75v3.02c0,12.5-7.37,20.91-18.68,20.91-5.26,0-9.34-1.71-11.97-3.55-1.58-1.05-2.76-1.58-3.81-1.58-1.58,0-2.5,1.31-2.5,3.29v.53h-.66l-2.63-48.8h.66l11.31,38.54c1.58,5.92,4.73,8.94,8.29,8.94,4.21,0,6.84-4.87,6.84-14.07v-2.63c0-8.55-3.95-19.73-10.65-30.51l-5-7.89c-7.37-11.57-11.44-23.41-11.44-32.88v-2.89c0-12.5,7.5-20.91,18.68-20.91,5.39,0,9.34,1.71,11.97,3.55,1.58,1.05,2.76,1.58,3.81,1.58,1.58,0,2.5-1.31,2.5-3.29v-.53h.66l2.63,48.8h-.66l-11.31-38.54c-1.45-5.92-4.6-8.94-8.15-8.94-4.21,0-6.97,4.87-6.97,13.94v2.63Z"/>
      <path class="cls-1" d="M72.46,208.21c0,8.68,3.95,19.73,10.65,30.51l5,8.02c7.36,11.44,11.44,23.28,11.44,32.75v3.02c0,12.5-7.37,20.91-18.68,20.91-5.26,0-9.34-1.71-11.97-3.55-1.58-1.05-2.76-1.58-3.81-1.58-1.58,0-2.5,1.31-2.5,3.29v.53h-.66l-2.63-48.8h.66l11.31,38.54c1.58,5.92,4.73,8.94,8.29,8.94,4.21,0,6.84-4.87,6.84-14.07v-2.63c0-8.55-3.95-19.73-10.65-30.51l-5-7.89c-7.37-11.57-11.44-23.41-11.44-32.88v-2.89c0-12.5,7.5-20.91,18.68-20.91,5.39,0,9.34,1.71,11.97,3.55,1.58,1.05,2.76,1.58,3.81,1.58,1.58,0,2.5-1.31,2.5-3.29v-.53h.66l2.63,48.8h-.66l-11.31-38.54c-1.45-5.92-4.6-8.94-8.15-8.94-4.21,0-6.97,4.87-6.97,13.94v2.63Z"/>
      <path class="cls-1" d="M110.07,145.21c0,8.68,3.95,19.73,10.65,30.51l5,8.02c7.36,11.44,11.44,23.28,11.44,32.75v3.02c0,12.5-7.37,20.91-18.68,20.91-5.26,0-9.34-1.71-11.97-3.55-1.58-1.05-2.76-1.58-3.81-1.58-1.58,0-2.5,1.31-2.5,3.29v.53h-.66l-2.63-48.8h.66l11.31,38.54c1.58,5.92,4.73,8.94,8.29,8.94,4.21,0,6.84-4.87,6.84-14.07v-2.63c0-8.55-3.95-19.73-10.65-30.51l-5-7.89c-7.37-11.57-11.44-23.41-11.44-32.88v-2.89c0-12.5,7.5-20.91,18.68-20.91,5.39,0,9.34,1.71,11.97,3.55,1.58,1.05,2.76,1.58,3.81,1.58,1.58,0,2.5-1.31,2.5-3.29v-.53h.66l2.63,48.8h-.66l-11.31-38.54c-1.45-5.92-4.6-8.94-8.15-8.94-4.21,0-6.97,4.87-6.97,13.94v2.63Z"/>
      <path class="cls-1" d="M147.69,82.21c0,8.68,3.95,19.73,10.65,30.51l5,8.02c7.36,11.44,11.44,23.28,11.44,32.75v3.02c0,12.5-7.37,20.91-18.68,20.91-5.26,0-9.34-1.71-11.97-3.55-1.58-1.05-2.76-1.58-3.81-1.58-1.58,0-2.5,1.31-2.5,3.29v.53h-.66l-2.63-48.8h.66l11.31,38.54c1.58,5.92,4.73,8.94,8.29,8.94,4.21,0,6.84-4.87,6.84-14.07v-2.63c0-8.55-3.95-19.73-10.65-30.51l-5-7.89c-7.37-11.57-11.44-23.41-11.44-32.88v-2.89c0-12.5,7.5-20.91,18.68-20.91,5.39,0,9.34,1.71,11.97,3.55,1.58,1.05,2.76,1.58,3.81,1.58,1.58,0,2.5-1.31,2.5-3.29v-.53h.66l2.63,48.8h-.66l-11.31-38.54c-1.45-5.92-4.6-8.94-8.15-8.94-4.21,0-6.97,4.87-6.97,13.94v2.63Z"/>
      <path class="cls-1" d="M185.31,19.2c0,8.68,3.95,19.73,10.65,30.51l5,8.02c7.36,11.44,11.44,23.28,11.44,32.75v3.02c0,12.5-7.37,20.91-18.68,20.91-5.26,0-9.34-1.71-11.97-3.55-1.58-1.05-2.76-1.58-3.81-1.58-1.58,0-2.5,1.31-2.5,3.29v.53h-.66l-2.63-48.8h.66l11.31,38.54c1.58,5.92,4.73,8.94,8.29,8.94,4.21,0,6.84-4.87,6.84-14.07v-2.63c0-8.55-3.95-19.73-10.65-30.51l-5-7.89c-7.37-11.57-11.44-23.41-11.44-32.88v-2.89c0-12.5,7.5-20.91,18.68-20.91,5.39,0,9.34,1.71,11.97,3.55,1.58,1.05,2.76,1.58,3.81,1.58,1.58,0,2.5-1.31,2.5-3.29v-.53h.66l2.63,48.8h-.66l-11.31-38.54c-1.45-5.92-4.6-8.94-8.15-8.94-4.21,0-6.97,4.87-6.97,13.94v2.63Z"/>
      <path class="cls-1" d="M13.15,460.22c0,8.68,3.95,19.73,10.65,30.51l5,8.02c7.36,11.44,11.44,23.28,11.44,32.75v3.02c0,12.5-7.37,20.91-18.68,20.91-5.26,0-9.34-1.71-11.97-3.55-1.58-1.05-2.76-1.58-3.81-1.58-1.58,0-2.5,1.31-2.5,3.29v.53h-.66l-2.63-48.8h.66l11.31,38.54c1.58,5.92,4.73,8.94,8.29,8.94,4.21,0,6.84-4.87,6.84-14.07v-2.63c0-8.55-3.95-19.73-10.65-30.51l-5-7.89c-7.37-11.57-11.44-23.41-11.44-32.88v-2.89c0-12.5,7.5-20.91,18.68-20.91,5.39,0,9.34,1.71,11.97,3.55,1.58,1.05,2.76,1.58,3.81,1.58,1.58,0,2.5-1.31,2.5-3.29v-.53h.66l2.63,48.8h-.66l-11.31-38.54c-1.45-5.92-4.6-8.94-8.15-8.94-4.21,0-6.97,4.87-6.97,13.94v2.63Z"/>
      <path class="cls-1" d="M50.77,397.22c0,8.68,3.95,19.73,10.65,30.51l5,8.02c7.36,11.44,11.44,23.28,11.44,32.75v3.02c0,12.5-7.37,20.91-18.68,20.91-5.26,0-9.34-1.71-11.97-3.55-1.58-1.05-2.76-1.58-3.81-1.58-1.58,0-2.5,1.31-2.5,3.29v.53h-.66l-2.63-48.8h.66l11.31,38.54c1.58,5.92,4.73,8.94,8.29,8.94,4.21,0,6.84-4.87,6.84-14.07v-2.63c0-8.55-3.95-19.73-10.65-30.51l-5-7.89c-7.37-11.57-11.44-23.41-11.44-32.88v-2.89c0-12.5,7.5-20.91,18.68-20.91,5.39,0,9.34,1.71,11.97,3.55,1.58,1.05,2.76,1.58,3.81,1.58,1.58,0,2.5-1.31,2.5-3.29v-.53h.66l2.63,48.8h-.66l-11.31-38.54c-1.45-5.92-4.6-8.94-8.15-8.94-4.21,0-6.97,4.87-6.97,13.94v2.63Z"/>
      <path class="cls-1" d="M88.39,334.22c0,8.68,3.95,19.73,10.65,30.51l5,8.02c7.36,11.44,11.44,23.28,11.44,32.75v3.02c0,12.5-7.37,20.91-18.68,20.91-5.26,0-9.34-1.71-11.97-3.55-1.58-1.05-2.76-1.58-3.81-1.58-1.58,0-2.5,1.31-2.5,3.29v.53h-.66l-2.63-48.8h.66l11.31,38.54c1.58,5.92,4.73,8.94,8.29,8.94,4.21,0,6.84-4.87,6.84-14.07v-2.63c0-8.55-3.95-19.73-10.65-30.51l-5-7.89c-7.37-11.57-11.44-23.41-11.44-32.88v-2.89c0-12.5,7.5-20.91,18.68-20.91,5.39,0,9.34,1.71,11.97,3.55,1.58,1.05,2.76,1.58,3.81,1.58,1.58,0,2.5-1.31,2.5-3.29v-.53h.66l2.63,48.8h-.66l-11.31-38.54c-1.45-5.92-4.6-8.94-8.15-8.94-4.21,0-6.97,4.87-6.97,13.94v2.63Z"/>
      <path class="cls-1" d="M126,271.21c0,8.68,3.95,19.73,10.65,30.51l5,8.02c7.36,11.44,11.44,23.28,11.44,32.75v3.02c0,12.5-7.37,20.91-18.68,20.91-5.26,0-9.34-1.71-11.97-3.55-1.58-1.05-2.76-1.58-3.81-1.58-1.58,0-2.5,1.31-2.5,3.29v.53h-.66l-2.63-48.8h.66l11.31,38.54c1.58,5.92,4.73,8.94,8.29,8.94,4.21,0,6.84-4.87,6.84-14.07v-2.63c0-8.55-3.95-19.73-10.65-30.51l-5-7.89c-7.37-11.57-11.44-23.41-11.44-32.88v-2.89c0-12.5,7.5-20.91,18.68-20.91,5.39,0,9.34,1.71,11.97,3.55,1.58,1.05,2.76,1.58,3.81,1.58,1.58,0,2.5-1.31,2.5-3.29v-.53h.66l2.63,48.8h-.66l-11.31-38.54c-1.45-5.92-4.6-8.94-8.15-8.94-4.21,0-6.97,4.87-6.97,13.94v2.63Z"/>
      <path class="cls-1" d="M163.62,208.21c0,8.68,3.95,19.73,10.65,30.51l5,8.02c7.36,11.44,11.44,23.28,11.44,32.75v3.02c0,12.5-7.37,20.91-18.68,20.91-5.26,0-9.34-1.71-11.97-3.55-1.58-1.05-2.76-1.58-3.81-1.58-1.58,0-2.5,1.31-2.5,3.29v.53h-.66l-2.63-48.8h.66l11.31,38.54c1.58,5.92,4.73,8.94,8.29,8.94,4.21,0,6.84-4.87,6.84-14.07v-2.63c0-8.55-3.95-19.73-10.65-30.51l-5-7.89c-7.37-11.57-11.44-23.41-11.44-32.88v-2.89c0-12.5,7.5-20.91,18.68-20.91,5.39,0,9.34,1.71,11.97,3.55,1.58,1.05,2.76,1.58,3.81,1.58,1.58,0,2.5-1.31,2.5-3.29v-.53h.66l2.63,48.8h-.66l-11.31-38.54c-1.45-5.92-4.6-8.94-8.15-8.94-4.21,0-6.97,4.87-6.97,13.94v2.63Z"/>
      <path class="cls-1" d="M201.23,145.21c0,8.68,3.95,19.73,10.65,30.51l5,8.02c7.36,11.44,11.44,23.28,11.44,32.75v3.02c0,12.5-7.37,20.91-18.68,20.91-5.26,0-9.34-1.71-11.97-3.55-1.58-1.05-2.76-1.58-3.81-1.58-1.58,0-2.5,1.31-2.5,3.29v.53h-.66l-2.63-48.8h.66l11.31,38.54c1.58,5.92,4.73,8.94,8.29,8.94,4.21,0,6.84-4.87,6.84-14.07v-2.63c0-8.55-3.95-19.73-10.65-30.51l-5-7.89c-7.37-11.57-11.44-23.41-11.44-32.88v-2.89c0-12.5,7.5-20.91,18.68-20.91,5.39,0,9.34,1.71,11.97,3.55,1.58,1.05,2.76,1.58,3.81,1.58,1.58,0,2.5-1.31,2.5-3.29v-.53h.66l2.63,48.8h-.66l-11.31-38.54c-1.45-5.92-4.6-8.94-8.15-8.94-4.21,0-6.97,4.87-6.97,13.94v2.63Z"/>
      <path class="cls-1" d="M238.85,82.21c0,8.68,3.95,19.73,10.65,30.51l5,8.02c7.36,11.44,11.44,23.28,11.44,32.75v3.02c0,12.5-7.37,20.91-18.68,20.91-5.26,0-9.34-1.71-11.97-3.55-1.58-1.05-2.76-1.58-3.81-1.58-1.58,0-2.5,1.31-2.5,3.29v.53h-.66l-2.63-48.8h.66l11.31,38.54c1.58,5.92,4.73,8.94,8.29,8.94,4.21,0,6.84-4.87,6.84-14.07v-2.63c0-8.55-3.95-19.73-10.65-30.51l-5-7.89c-7.37-11.57-11.44-23.41-11.44-32.88v-2.89c0-12.5,7.5-20.91,18.68-20.91,5.39,0,9.34,1.71,11.97,3.55,1.58,1.05,2.76,1.58,3.81,1.58,1.58,0,2.5-1.31,2.5-3.29v-.53h.66l2.63,48.8h-.66l-11.31-38.54c-1.45-5.92-4.6-8.94-8.15-8.94-4.21,0-6.97,4.87-6.97,13.94v2.63Z"/>
      <path class="cls-1" d="M276.47,19.2c0,8.68,3.95,19.73,10.65,30.51l5,8.02c7.36,11.44,11.44,23.28,11.44,32.75v3.02c0,12.5-7.37,20.91-18.68,20.91-5.26,0-9.34-1.71-11.97-3.55-1.58-1.05-2.76-1.58-3.81-1.58-1.58,0-2.5,1.31-2.5,3.29v.53h-.66l-2.63-48.8h.66l11.31,38.54c1.58,5.92,4.73,8.94,8.29,8.94,4.21,0,6.84-4.87,6.84-14.07v-2.63c0-8.55-3.95-19.73-10.65-30.51l-5-7.89c-7.37-11.57-11.44-23.41-11.44-32.88v-2.89c0-12.5,7.5-20.91,18.68-20.91,5.39,0,9.34,1.71,11.97,3.55,1.58,1.05,2.76,1.58,3.81,1.58,1.58,0,2.5-1.31,2.5-3.29v-.53h.66l2.63,48.8h-.66l-11.31-38.54c-1.45-5.92-4.6-8.94-8.15-8.94-4.21,0-6.97,4.87-6.97,13.94v2.63Z"/>
      <path class="cls-1" d="M29.08,586.23c0,8.68,3.95,19.73,10.65,30.51l5,8.02c7.36,11.44,11.44,23.28,11.44,32.75v3.02c0,12.5-7.37,20.91-18.68,20.91-5.26,0-9.34-1.71-11.97-3.55-1.58-1.05-2.76-1.58-3.81-1.58-1.58,0-2.5,1.31-2.5,3.29v.53h-.66l-2.63-48.8h.66l11.31,38.54c1.58,5.92,4.73,8.94,8.29,8.94,4.21,0,6.84-4.87,6.84-14.07v-2.63c0-8.55-3.95-19.73-10.65-30.51l-5-7.89c-7.37-11.57-11.44-23.41-11.44-32.88v-2.89c0-12.5,7.5-20.91,18.68-20.91,5.39,0,9.34,1.71,11.97,3.55,1.58,1.05,2.76,1.58,3.81,1.58,1.58,0,2.5-1.31,2.5-3.29v-.53h.66l2.63,48.8h-.66l-11.31-38.54c-1.45-5.92-4.6-8.94-8.15-8.94-4.21,0-6.97,4.87-6.97,13.94v2.63Z"/>
      <path class="cls-1" d="M66.7,523.22c0,8.68,3.95,19.73,10.65,30.51l5,8.02c7.36,11.44,11.44,23.28,11.44,32.75v3.02c0,12.5-7.37,20.91-18.68,20.91-5.26,0-9.34-1.71-11.97-3.55-1.58-1.05-2.76-1.58-3.81-1.58-1.58,0-2.5,1.31-2.5,3.29v.53h-.66l-2.63-48.8h.66l11.31,38.54c1.58,5.92,4.73,8.94,8.29,8.94,4.21,0,6.84-4.87,6.84-14.07v-2.63c0-8.55-3.95-19.73-10.65-30.51l-5-7.89c-7.37-11.57-11.44-23.41-11.44-32.88v-2.89c0-12.5,7.5-20.91,18.68-20.91,5.39,0,9.34,1.71,11.97,3.55,1.58,1.05,2.76,1.58,3.81,1.58,1.58,0,2.5-1.31,2.5-3.29v-.53h.66l2.63,48.8h-.66l-11.31-38.54c-1.45-5.92-4.6-8.94-8.15-8.94-4.21,0-6.97,4.87-6.97,13.94v2.63Z"/>
      <path class="cls-1" d="M104.31,460.22c0,8.68,3.95,19.73,10.65,30.51l5,8.02c7.36,11.44,11.44,23.28,11.44,32.75v3.02c0,12.5-7.37,20.91-18.68,20.91-5.26,0-9.34-1.71-11.97-3.55-1.58-1.05-2.76-1.58-3.81-1.58-1.58,0-2.5,1.31-2.5,3.29v.53h-.66l-2.63-48.8h.66l11.31,38.54c1.58,5.92,4.73,8.94,8.29,8.94,4.21,0,6.84-4.87,6.84-14.07v-2.63c0-8.55-3.95-19.73-10.65-30.51l-5-7.89c-7.37-11.57-11.44-23.41-11.44-32.88v-2.89c0-12.5,7.5-20.91,18.68-20.91,5.39,0,9.34,1.71,11.97,3.55,1.58,1.05,2.76,1.58,3.81,1.58,1.58,0,2.5-1.31,2.5-3.29v-.53h.66l2.63,48.8h-.66l-11.31-38.54c-1.45-5.92-4.6-8.94-8.15-8.94-4.21,0-6.97,4.87-6.97,13.94v2.63Z"/>
      <path class="cls-1" d="M141.93,397.22c0,8.68,3.95,19.73,10.65,30.51l5,8.02c7.36,11.44,11.44,23.28,11.44,32.75v3.02c0,12.5-7.37,20.91-18.68,20.91-5.26,0-9.34-1.71-11.97-3.55-1.58-1.05-2.76-1.58-3.81-1.58-1.58,0-2.5,1.31-2.5,3.29v.53h-.66l-2.63-48.8h.66l11.31,38.54c1.58,5.92,4.73,8.94,8.29,8.94,4.21,0,6.84-4.87,6.84-14.07v-2.63c0-8.55-3.95-19.73-10.65-30.51l-5-7.89c-7.37-11.57-11.44-23.41-11.44-32.88v-2.89c0-12.5,7.5-20.91,18.68-20.91,5.39,0,9.34,1.71,11.97,3.55,1.58,1.05,2.76,1.58,3.81,1.58,1.58,0,2.5-1.31,2.5-3.29v-.53h.66l2.63,48.8h-.66l-11.31-38.54c-1.45-5.92-4.6-8.94-8.15-8.94-4.21,0-6.97,4.87-6.97,13.94v2.63Z"/>
      <path class="cls-1" d="M179.55,334.22c0,8.68,3.95,19.73,10.65,30.51l5,8.02c7.36,11.44,11.44,23.28,11.44,32.75v3.02c0,12.5-7.37,20.91-18.68,20.91-5.26,0-9.34-1.71-11.97-3.55-1.58-1.05-2.76-1.58-3.81-1.58-1.58,0-2.5,1.31-2.5,3.29v.53h-.66l-2.63-48.8h.66l11.31,38.54c1.58,5.92,4.73,8.94,8.29,8.94,4.21,0,6.84-4.87,6.84-14.07v-2.63c0-8.55-3.95-19.73-10.65-30.51l-5-7.89c-7.37-11.57-11.44-23.41-11.44-32.88v-2.89c0-12.5,7.5-20.91,18.68-20.91,5.39,0,9.34,1.71,11.97,3.55,1.58,1.05,2.76,1.58,3.81,1.58,1.58,0,2.5-1.31,2.5-3.29v-.53h.66l2.63,48.8h-.66l-11.31-38.54c-1.45-5.92-4.6-8.94-8.15-8.94-4.21,0-6.97,4.87-6.97,13.94v2.63Z"/>
      <path class="cls-1" d="M217.16,271.21c0,8.68,3.95,19.73,10.65,30.51l5,8.02c7.36,11.44,11.44,23.28,11.44,32.75v3.02c0,12.5-7.37,20.91-18.68,20.91-5.26,0-9.34-1.71-11.97-3.55-1.58-1.05-2.76-1.58-3.81-1.58-1.58,0-2.5,1.31-2.5,3.29v.53h-.66l-2.63-48.8h.66l11.31,38.54c1.58,5.92,4.73,8.94,8.29,8.94,4.21,0,6.84-4.87,6.84-14.07v-2.63c0-8.55-3.95-19.73-10.65-30.51l-5-7.89c-7.37-11.57-11.44-23.41-11.44-32.88v-2.89c0-12.5,7.5-20.91,18.68-20.91,5.39,0,9.34,1.71,11.97,3.55,1.58,1.05,2.76,1.58,3.81,1.58,1.58,0,2.5-1.31,2.5-3.29v-.53h.66l2.63,48.8h-.66l-11.31-38.54c-1.45-5.92-4.6-8.94-8.15-8.94-4.21,0-6.97,4.87-6.97,13.94v2.63Z"/>
      <path class="cls-1" d="M254.78,208.21c0,8.68,3.95,19.73,10.65,30.51l5,8.02c7.36,11.44,11.44,23.28,11.44,32.75v3.02c0,12.5-7.37,20.91-18.68,20.91-5.26,0-9.34-1.71-11.97-3.55-1.58-1.05-2.76-1.58-3.81-1.58-1.58,0-2.5,1.31-2.5,3.29v.53h-.66l-2.63-48.8h.66l11.31,38.54c1.58,5.92,4.73,8.94,8.29,8.94,4.21,0,6.84-4.87,6.84-14.07v-2.63c0-8.55-3.95-19.73-10.65-30.51l-5-7.89c-7.37-11.57-11.44-23.41-11.44-32.88v-2.89c0-12.5,7.5-20.91,18.68-20.91,5.39,0,9.34,1.71,11.97,3.55,1.58,1.05,2.76,1.58,3.81,1.58,1.58,0,2.5-1.31,2.5-3.29v-.53h.66l2.63,48.8h-.66l-11.31-38.54c-1.45-5.92-4.6-8.94-8.15-8.94-4.21,0-6.97,4.87-6.97,13.94v2.63Z"/>
      <path class="cls-1" d="M292.4,145.21c0,8.68,3.95,19.73,10.65,30.51l5,8.02c7.36,11.44,11.44,23.28,11.44,32.75v3.02c0,12.5-7.37,20.91-18.68,20.91-5.26,0-9.34-1.71-11.97-3.55-1.58-1.05-2.76-1.58-3.81-1.58-1.58,0-2.5,1.31-2.5,3.29v.53h-.66l-2.63-48.8h.66l11.31,38.54c1.58,5.92,4.73,8.94,8.29,8.94,4.21,0,6.84-4.87,6.84-14.07v-2.63c0-8.55-3.95-19.73-10.65-30.51l-5-7.89c-7.37-11.57-11.44-23.41-11.44-32.88v-2.89c0-12.5,7.5-20.91,18.68-20.91,5.39,0,9.34,1.71,11.97,3.55,1.58,1.05,2.76,1.58,3.81,1.58,1.58,0,2.5-1.31,2.5-3.29v-.53h.66l2.63,48.8h-.66l-11.31-38.54c-1.45-5.92-4.6-8.94-8.15-8.94-4.21,0-6.97,4.87-6.97,13.94v2.63Z"/>
      <path class="cls-1" d="M330.01,82.21c0,8.68,3.95,19.73,10.65,30.51l5,8.02c7.36,11.44,11.44,23.28,11.44,32.75v3.02c0,12.5-7.37,20.91-18.68,20.91-5.26,0-9.34-1.71-11.97-3.55-1.58-1.05-2.76-1.58-3.81-1.58-1.58,0-2.5,1.31-2.5,3.29v.53h-.66l-2.63-48.8h.66l11.31,38.54c1.58,5.92,4.73,8.94,8.29,8.94,4.21,0,6.84-4.87,6.84-14.07v-2.63c0-8.55-3.95-19.73-10.65-30.51l-5-7.89c-7.37-11.57-11.44-23.41-11.44-32.88v-2.89c0-12.5,7.5-20.91,18.68-20.91,5.39,0,9.34,1.71,11.97,3.55,1.58,1.05,2.76,1.58,3.81,1.58,1.58,0,2.5-1.31,2.5-3.29v-.53h.66l2.63,48.8h-.66l-11.31-38.54c-1.45-5.92-4.6-8.94-8.15-8.94-4.21,0-6.97,4.87-6.97,13.94v2.63Z"/>
      <path class="cls-1" d="M367.63,19.2c0,8.68,3.95,19.73,10.65,30.51l5,8.02c7.36,11.44,11.44,23.28,11.44,32.75v3.02c0,12.5-7.37,20.91-18.68,20.91-5.26,0-9.34-1.71-11.97-3.55-1.58-1.05-2.76-1.58-3.81-1.58-1.58,0-2.5,1.31-2.5,3.29v.53h-.66l-2.63-48.8h.66l11.31,38.54c1.58,5.92,4.73,8.94,8.29,8.94,4.21,0,6.84-4.87,6.84-14.07v-2.63c0-8.55-3.95-19.73-10.65-30.51l-5-7.89c-7.37-11.57-11.44-23.41-11.44-32.88v-2.89c0-12.5,7.5-20.91,18.68-20.91,5.39,0,9.34,1.71,11.97,3.55,1.58,1.05,2.76,1.58,3.81,1.58,1.58,0,2.5-1.31,2.5-3.29v-.53h.66l2.63,48.8h-.66l-11.31-38.54c-1.45-5.92-4.6-8.94-8.15-8.94-4.21,0-6.97,4.87-6.97,13.94v2.63Z"/>
      <path class="cls-1" d="M120.24,586.23c0,8.68,3.95,19.73,10.65,30.51l5,8.02c7.36,11.44,11.44,23.28,11.44,32.75v3.02c0,12.5-7.37,20.91-18.68,20.91-5.26,0-9.34-1.71-11.97-3.55-1.58-1.05-2.76-1.58-3.81-1.58-1.58,0-2.5,1.31-2.5,3.29v.53h-.66l-2.63-48.8h.66l11.31,38.54c1.58,5.92,4.73,8.94,8.29,8.94,4.21,0,6.84-4.87,6.84-14.07v-2.63c0-8.55-3.95-19.73-10.65-30.51l-5-7.89c-7.37-11.57-11.44-23.41-11.44-32.88v-2.89c0-12.5,7.5-20.91,18.68-20.91,5.39,0,9.34,1.71,11.97,3.55,1.58,1.05,2.76,1.58,3.81,1.58,1.58,0,2.5-1.31,2.5-3.29v-.53h.66l2.63,48.8h-.66l-11.31-38.54c-1.45-5.92-4.6-8.94-8.15-8.94-4.21,0-6.97,4.87-6.97,13.94v2.63Z"/>
      <path class="cls-1" d="M157.86,523.22c0,8.68,3.95,19.73,10.65,30.51l5,8.02c7.36,11.44,11.44,23.28,11.44,32.75v3.02c0,12.5-7.37,20.91-18.68,20.91-5.26,0-9.34-1.71-11.97-3.55-1.58-1.05-2.76-1.58-3.81-1.58-1.58,0-2.5,1.31-2.5,3.29v.53h-.66l-2.63-48.8h.66l11.31,38.54c1.58,5.92,4.73,8.94,8.29,8.94,4.21,0,6.84-4.87,6.84-14.07v-2.63c0-8.55-3.95-19.73-10.65-30.51l-5-7.89c-7.37-11.57-11.44-23.41-11.44-32.88v-2.89c0-12.5,7.5-20.91,18.68-20.91,5.39,0,9.34,1.71,11.97,3.55,1.58,1.05,2.76,1.58,3.81,1.58,1.58,0,2.5-1.31,2.5-3.29v-.53h.66l2.63,48.8h-.66l-11.31-38.54c-1.45-5.92-4.6-8.94-8.15-8.94-4.21,0-6.97,4.87-6.97,13.94v2.63Z"/>
      <path class="cls-1" d="M195.47,460.22c0,8.68,3.95,19.73,10.65,30.51l5,8.02c7.36,11.44,11.44,23.28,11.44,32.75v3.02c0,12.5-7.37,20.91-18.68,20.91-5.26,0-9.34-1.71-11.97-3.55-1.58-1.05-2.76-1.58-3.81-1.58-1.58,0-2.5,1.31-2.5,3.29v.53h-.66l-2.63-48.8h.66l11.31,38.54c1.58,5.92,4.73,8.94,8.29,8.94,4.21,0,6.84-4.87,6.84-14.07v-2.63c0-8.55-3.95-19.73-10.65-30.51l-5-7.89c-7.37-11.57-11.44-23.41-11.44-32.88v-2.89c0-12.5,7.5-20.91,18.68-20.91,5.39,0,9.34,1.71,11.97,3.55,1.58,1.05,2.76,1.58,3.81,1.58,1.58,0,2.5-1.31,2.5-3.29v-.53h.66l2.63,48.8h-.66l-11.31-38.54c-1.45-5.92-4.6-8.94-8.15-8.94-4.21,0-6.97,4.87-6.97,13.94v2.63Z"/>
      <path class="cls-1" d="M233.09,397.22c0,8.68,3.95,19.73,10.65,30.51l5,8.02c7.36,11.44,11.44,23.28,11.44,32.75v3.02c0,12.5-7.37,20.91-18.68,20.91-5.26,0-9.34-1.71-11.97-3.55-1.58-1.05-2.76-1.58-3.81-1.58-1.58,0-2.5,1.31-2.5,3.29v.53h-.66l-2.63-48.8h.66l11.31,38.54c1.58,5.92,4.73,8.94,8.29,8.94,4.21,0,6.84-4.87,6.84-14.07v-2.63c0-8.55-3.95-19.73-10.65-30.51l-5-7.89c-7.37-11.57-11.44-23.41-11.44-32.88v-2.89c0-12.5,7.5-20.91,18.68-20.91,5.39,0,9.34,1.71,11.97,3.55,1.58,1.05,2.76,1.58,3.81,1.58,1.58,0,2.5-1.31,2.5-3.29v-.53h.66l2.63,48.8h-.66l-11.31-38.54c-1.45-5.92-4.6-8.94-8.15-8.94-4.21,0-6.97,4.87-6.97,13.94v2.63Z"/>
      <path class="cls-1" d="M270.71,334.22c0,8.68,3.95,19.73,10.65,30.51l5,8.02c7.36,11.44,11.44,23.28,11.44,32.75v3.02c0,12.5-7.37,20.91-18.68,20.91-5.26,0-9.34-1.71-11.97-3.55-1.58-1.05-2.76-1.58-3.81-1.58-1.58,0-2.5,1.31-2.5,3.29v.53h-.66l-2.63-48.8h.66l11.31,38.54c1.58,5.92,4.73,8.94,8.29,8.94,4.21,0,6.84-4.87,6.84-14.07v-2.63c0-8.55-3.95-19.73-10.65-30.51l-5-7.89c-7.37-11.57-11.44-23.41-11.44-32.88v-2.89c0-12.5,7.5-20.91,18.68-20.91,5.39,0,9.34,1.71,11.97,3.55,1.58,1.05,2.76,1.58,3.81,1.58,1.58,0,2.5-1.31,2.5-3.29v-.53h.66l2.63,48.8h-.66l-11.31-38.54c-1.45-5.92-4.6-8.94-8.15-8.94-4.21,0-6.97,4.87-6.97,13.94v2.63Z"/>
      <path class="cls-1" d="M308.33,271.21c0,8.68,3.95,19.73,10.65,30.51l5,8.02c7.36,11.44,11.44,23.28,11.44,32.75v3.02c0,12.5-7.37,20.91-18.68,20.91-5.26,0-9.34-1.71-11.97-3.55-1.58-1.05-2.76-1.58-3.81-1.58-1.58,0-2.5,1.31-2.5,3.29v.53h-.66l-2.63-48.8h.66l11.31,38.54c1.58,5.92,4.73,8.94,8.29,8.94,4.21,0,6.84-4.87,6.84-14.07v-2.63c0-8.55-3.95-19.73-10.65-30.51l-5-7.89c-7.37-11.57-11.44-23.41-11.44-32.88v-2.89c0-12.5,7.5-20.91,18.68-20.91,5.39,0,9.34,1.71,11.97,3.55,1.58,1.05,2.76,1.58,3.81,1.58,1.58,0,2.5-1.31,2.5-3.29v-.53h.66l2.63,48.8h-.66l-11.31-38.54c-1.45-5.92-4.6-8.94-8.15-8.94-4.21,0-6.97,4.87-6.97,13.94v2.63Z"/>
      <path class="cls-1" d="M345.94,208.21c0,8.68,3.95,19.73,10.65,30.51l5,8.02c7.36,11.44,11.44,23.28,11.44,32.75v3.02c0,12.5-7.37,20.91-18.68,20.91-5.26,0-9.34-1.71-11.97-3.55-1.58-1.05-2.76-1.58-3.81-1.58-1.58,0-2.5,1.31-2.5,3.29v.53h-.66l-2.63-48.8h.66l11.31,38.54c1.58,5.92,4.73,8.94,8.29,8.94,4.21,0,6.84-4.87,6.84-14.07v-2.63c0-8.55-3.95-19.73-10.65-30.51l-5-7.89c-7.37-11.57-11.44-23.41-11.44-32.88v-2.89c0-12.5,7.5-20.91,18.68-20.91,5.39,0,9.34,1.71,11.97,3.55,1.58,1.05,2.76,1.58,3.81,1.58,1.58,0,2.5-1.31,2.5-3.29v-.53h.66l2.63,48.8h-.66l-11.31-38.54c-1.45-5.92-4.6-8.94-8.15-8.94-4.21,0-6.97,4.87-6.97,13.94v2.63Z"/>
      <path class="cls-1" d="M383.56,145.21c0,8.68,3.95,19.73,10.65,30.51l5,8.02c7.36,11.44,11.44,23.28,11.44,32.75v3.02c0,12.5-7.37,20.91-18.68,20.91-5.26,0-9.34-1.71-11.97-3.55-1.58-1.05-2.76-1.58-3.81-1.58-1.58,0-2.5,1.31-2.5,3.29v.53h-.66l-2.63-48.8h.66l11.31,38.54c1.58,5.92,4.73,8.94,8.29,8.94,4.21,0,6.84-4.87,6.84-14.07v-2.63c0-8.55-3.95-19.73-10.65-30.51l-5-7.89c-7.37-11.57-11.44-23.41-11.44-32.88v-2.89c0-12.5,7.5-20.91,18.68-20.91,5.39,0,9.34,1.71,11.97,3.55,1.58,1.05,2.76,1.58,3.81,1.58,1.58,0,2.5-1.31,2.5-3.29v-.53h.66l2.63,48.8h-.66l-11.31-38.54c-1.45-5.92-4.6-8.94-8.15-8.94-4.21,0-6.97,4.87-6.97,13.94v2.63Z"/>
      <path class="cls-1" d="M421.17,82.21c0,8.68,3.95,19.73,10.65,30.51l5,8.02c7.36,11.44,11.44,23.28,11.44,32.75v3.02c0,12.5-7.37,20.91-18.68,20.91-5.26,0-9.34-1.71-11.97-3.55-1.58-1.05-2.76-1.58-3.81-1.58-1.58,0-2.5,1.31-2.5,3.29v.53h-.66l-2.63-48.8h.66l11.31,38.54c1.58,5.92,4.73,8.94,8.29,8.94,4.21,0,6.84-4.87,6.84-14.07v-2.63c0-8.55-3.95-19.73-10.65-30.51l-5-7.89c-7.37-11.57-11.44-23.41-11.44-32.88v-2.89c0-12.5,7.5-20.91,18.68-20.91,5.39,0,9.34,1.71,11.97,3.55,1.58,1.05,2.76,1.58,3.81,1.58,1.58,0,2.5-1.31,2.5-3.29v-.53h.66l2.63,48.8h-.66l-11.31-38.54c-1.45-5.92-4.6-8.94-8.15-8.94-4.21,0-6.97,4.87-6.97,13.94v2.63Z"/>
      <path class="cls-1" d="M458.79,19.2c0,8.68,3.95,19.73,10.65,30.51l5,8.02c7.36,11.44,11.44,23.28,11.44,32.75v3.02c0,12.5-7.37,20.91-18.68,20.91-5.26,0-9.34-1.71-11.97-3.55-1.58-1.05-2.76-1.58-3.81-1.58-1.58,0-2.5,1.31-2.5,3.29v.53h-.66l-2.63-48.8h.66l11.31,38.54c1.58,5.92,4.73,8.94,8.29,8.94,4.21,0,6.84-4.87,6.84-14.07v-2.63c0-8.55-3.95-19.73-10.65-30.51l-5-7.89c-7.37-11.57-11.44-23.41-11.44-32.88v-2.89c0-12.5,7.5-20.91,18.68-20.91,5.39,0,9.34,1.71,11.97,3.55,1.58,1.05,2.76,1.58,3.81,1.58,1.58,0,2.5-1.31,2.5-3.29v-.53h.66l2.63,48.8h-.66l-11.31-38.54c-1.45-5.92-4.6-8.94-8.15-8.94-4.21,0-6.97,4.87-6.97,13.94v2.63Z"/>
      <path class="cls-1" d="M211.4,586.23c0,8.68,3.95,19.73,10.65,30.51l5,8.02c7.36,11.44,11.44,23.28,11.44,32.75v3.02c0,12.5-7.37,20.91-18.68,20.91-5.26,0-9.34-1.71-11.97-3.55-1.58-1.05-2.76-1.58-3.81-1.58-1.58,0-2.5,1.31-2.5,3.29v.53h-.66l-2.63-48.8h.66l11.31,38.54c1.58,5.92,4.73,8.94,8.29,8.94,4.21,0,6.84-4.87,6.84-14.07v-2.63c0-8.55-3.95-19.73-10.65-30.51l-5-7.89c-7.37-11.57-11.44-23.41-11.44-32.88v-2.89c0-12.5,7.5-20.91,18.68-20.91,5.39,0,9.34,1.71,11.97,3.55,1.58,1.05,2.76,1.58,3.81,1.58,1.58,0,2.5-1.31,2.5-3.29v-.53h.66l2.63,48.8h-.66l-11.31-38.54c-1.45-5.92-4.6-8.94-8.15-8.94-4.21,0-6.97,4.87-6.97,13.94v2.63Z"/>
      <path class="cls-1" d="M249.02,523.22c0,8.68,3.95,19.73,10.65,30.51l5,8.02c7.36,11.44,11.44,23.28,11.44,32.75v3.02c0,12.5-7.37,20.91-18.68,20.91-5.26,0-9.34-1.71-11.97-3.55-1.58-1.05-2.76-1.58-3.81-1.58-1.58,0-2.5,1.31-2.5,3.29v.53h-.66l-2.63-48.8h.66l11.31,38.54c1.58,5.92,4.73,8.94,8.29,8.94,4.21,0,6.84-4.87,6.84-14.07v-2.63c0-8.55-3.95-19.73-10.65-30.51l-5-7.89c-7.37-11.57-11.44-23.41-11.44-32.88v-2.89c0-12.5,7.5-20.91,18.68-20.91,5.39,0,9.34,1.71,11.97,3.55,1.58,1.05,2.76,1.58,3.81,1.58,1.58,0,2.5-1.31,2.5-3.29v-.53h.66l2.63,48.8h-.66l-11.31-38.54c-1.45-5.92-4.6-8.94-8.15-8.94-4.21,0-6.97,4.87-6.97,13.94v2.63Z"/>
      <path class="cls-1" d="M286.64,460.22c0,8.68,3.95,19.73,10.65,30.51l5,8.02c7.36,11.44,11.44,23.28,11.44,32.75v3.02c0,12.5-7.37,20.91-18.68,20.91-5.26,0-9.34-1.71-11.97-3.55-1.58-1.05-2.76-1.58-3.81-1.58-1.58,0-2.5,1.31-2.5,3.29v.53h-.66l-2.63-48.8h.66l11.31,38.54c1.58,5.92,4.73,8.94,8.29,8.94,4.21,0,6.84-4.87,6.84-14.07v-2.63c0-8.55-3.95-19.73-10.65-30.51l-5-7.89c-7.37-11.57-11.44-23.41-11.44-32.88v-2.89c0-12.5,7.5-20.91,18.68-20.91,5.39,0,9.34,1.71,11.97,3.55,1.58,1.05,2.76,1.58,3.81,1.58,1.58,0,2.5-1.31,2.5-3.29v-.53h.66l2.63,48.8h-.66l-11.31-38.54c-1.45-5.92-4.6-8.94-8.15-8.94-4.21,0-6.97,4.87-6.97,13.94v2.63Z"/>
      <path class="cls-1" d="M324.25,397.22c0,8.68,3.95,19.73,10.65,30.51l5,8.02c7.36,11.44,11.44,23.28,11.44,32.75v3.02c0,12.5-7.37,20.91-18.68,20.91-5.26,0-9.34-1.71-11.97-3.55-1.58-1.05-2.76-1.58-3.81-1.58-1.58,0-2.5,1.31-2.5,3.29v.53h-.66l-2.63-48.8h.66l11.31,38.54c1.58,5.92,4.73,8.94,8.29,8.94,4.21,0,6.84-4.87,6.84-14.07v-2.63c0-8.55-3.95-19.73-10.65-30.51l-5-7.89c-7.37-11.57-11.44-23.41-11.44-32.88v-2.89c0-12.5,7.5-20.91,18.68-20.91,5.39,0,9.34,1.71,11.97,3.55,1.58,1.05,2.76,1.58,3.81,1.58,1.58,0,2.5-1.31,2.5-3.29v-.53h.66l2.63,48.8h-.66l-11.31-38.54c-1.45-5.92-4.6-8.94-8.15-8.94-4.21,0-6.97,4.87-6.97,13.94v2.63Z"/>
      <path class="cls-1" d="M361.87,334.22c0,8.68,3.95,19.73,10.65,30.51l5,8.02c7.36,11.44,11.44,23.28,11.44,32.75v3.02c0,12.5-7.37,20.91-18.68,20.91-5.26,0-9.34-1.71-11.97-3.55-1.58-1.05-2.76-1.58-3.81-1.58-1.58,0-2.5,1.31-2.5,3.29v.53h-.66l-2.63-48.8h.66l11.31,38.54c1.58,5.92,4.73,8.94,8.29,8.94,4.21,0,6.84-4.87,6.84-14.07v-2.63c0-8.55-3.95-19.73-10.65-30.51l-5-7.89c-7.37-11.57-11.44-23.41-11.44-32.88v-2.89c0-12.5,7.5-20.91,18.68-20.91,5.39,0,9.34,1.71,11.97,3.55,1.58,1.05,2.76,1.58,3.81,1.58,1.58,0,2.5-1.31,2.5-3.29v-.53h.66l2.63,48.8h-.66l-11.31-38.54c-1.45-5.92-4.6-8.94-8.15-8.94-4.21,0-6.97,4.87-6.97,13.94v2.63Z"/>
      <path class="cls-1" d="M399.49,271.21c0,8.68,3.95,19.73,10.65,30.51l5,8.02c7.36,11.44,11.44,23.28,11.44,32.75v3.02c0,12.5-7.37,20.91-18.68,20.91-5.26,0-9.34-1.71-11.97-3.55-1.58-1.05-2.76-1.58-3.81-1.58-1.58,0-2.5,1.31-2.5,3.29v.53h-.66l-2.63-48.8h.66l11.31,38.54c1.58,5.92,4.73,8.94,8.29,8.94,4.21,0,6.84-4.87,6.84-14.07v-2.63c0-8.55-3.95-19.73-10.65-30.51l-5-7.89c-7.37-11.57-11.44-23.41-11.44-32.88v-2.89c0-12.5,7.5-20.91,18.68-20.91,5.39,0,9.34,1.71,11.97,3.55,1.58,1.05,2.76,1.58,3.81,1.58,1.58,0,2.5-1.31,2.5-3.29v-.53h.66l2.63,48.8h-.66l-11.31-38.54c-1.45-5.92-4.6-8.94-8.15-8.94-4.21,0-6.97,4.87-6.97,13.94v2.63Z"/>
      <path class="cls-1" d="M437.1,208.21c0,8.68,3.95,19.73,10.65,30.51l5,8.02c7.36,11.44,11.44,23.28,11.44,32.75v3.02c0,12.5-7.37,20.91-18.68,20.91-5.26,0-9.34-1.71-11.97-3.55-1.58-1.05-2.76-1.58-3.81-1.58-1.58,0-2.5,1.31-2.5,3.29v.53h-.66l-2.63-48.8h.66l11.31,38.54c1.58,5.92,4.73,8.94,8.29,8.94,4.21,0,6.84-4.87,6.84-14.07v-2.63c0-8.55-3.95-19.73-10.65-30.51l-5-7.89c-7.37-11.57-11.44-23.41-11.44-32.88v-2.89c0-12.5,7.5-20.91,18.68-20.91,5.39,0,9.34,1.71,11.97,3.55,1.58,1.05,2.76,1.58,3.81,1.58,1.58,0,2.5-1.31,2.5-3.29v-.53h.66l2.63,48.8h-.66l-11.31-38.54c-1.45-5.92-4.6-8.94-8.15-8.94-4.21,0-6.97,4.87-6.97,13.94v2.63Z"/>
      <path class="cls-1" d="M474.72,145.21c0,8.68,3.95,19.73,10.65,30.51l5,8.02c7.36,11.44,11.44,23.28,11.44,32.75v3.02c0,12.5-7.37,20.91-18.68,20.91-5.26,0-9.34-1.71-11.97-3.55-1.58-1.05-2.76-1.58-3.81-1.58-1.58,0-2.5,1.31-2.5,3.29v.53h-.66l-2.63-48.8h.66l11.31,38.54c1.58,5.92,4.73,8.94,8.29,8.94,4.21,0,6.84-4.87,6.84-14.07v-2.63c0-8.55-3.95-19.73-10.65-30.51l-5-7.89c-7.37-11.57-11.44-23.41-11.44-32.88v-2.89c0-12.5,7.5-20.91,18.68-20.91,5.39,0,9.34,1.71,11.97,3.55,1.58,1.05,2.76,1.58,3.81,1.58,1.58,0,2.5-1.31,2.5-3.29v-.53h.66l2.63,48.8h-.66l-11.31-38.54c-1.45-5.92-4.6-8.94-8.15-8.94-4.21,0-6.97,4.87-6.97,13.94v2.63Z"/>
      <path class="cls-1" d="M512.33,82.21c0,8.68,3.95,19.73,10.65,30.51l5,8.02c7.36,11.44,11.44,23.28,11.44,32.75v3.02c0,12.5-7.37,20.91-18.68,20.91-5.26,0-9.34-1.71-11.97-3.55-1.58-1.05-2.76-1.58-3.81-1.58-1.58,0-2.5,1.31-2.5,3.29v.53h-.66l-2.63-48.8h.66l11.31,38.54c1.58,5.92,4.73,8.94,8.29,8.94,4.21,0,6.84-4.87,6.84-14.07v-2.63c0-8.55-3.95-19.73-10.65-30.51l-5-7.89c-7.37-11.57-11.44-23.41-11.44-32.88v-2.89c0-12.5,7.5-20.91,18.68-20.91,5.39,0,9.34,1.71,11.97,3.55,1.58,1.05,2.76,1.58,3.81,1.58,1.58,0,2.5-1.31,2.5-3.29v-.53h.66l2.63,48.8h-.66l-11.31-38.54c-1.45-5.92-4.6-8.94-8.15-8.94-4.21,0-6.97,4.87-6.97,13.94v2.63Z"/>
      <path class="cls-1" d="M549.95,19.2c0,8.68,3.95,19.73,10.65,30.51l5,8.02c7.36,11.44,11.44,23.28,11.44,32.75v3.02c0,12.5-7.37,20.91-18.68,20.91-5.26,0-9.34-1.71-11.97-3.55-1.58-1.05-2.76-1.58-3.81-1.58-1.58,0-2.5,1.31-2.5,3.29v.53h-.66l-2.63-48.8h.66l11.31,38.54c1.58,5.92,4.73,8.94,8.29,8.94,4.21,0,6.84-4.87,6.84-14.07v-2.63c0-8.55-3.95-19.73-10.65-30.51l-5-7.89c-7.37-11.57-11.44-23.41-11.44-32.88v-2.89c0-12.5,7.5-20.91,18.68-20.91,5.39,0,9.34,1.71,11.97,3.55,1.58,1.05,2.76,1.58,3.81,1.58,1.58,0,2.5-1.31,2.5-3.29v-.53h.66l2.63,48.8h-.66l-11.31-38.54c-1.45-5.92-4.6-8.94-8.15-8.94-4.21,0-6.97,4.87-6.97,13.94v2.63Z"/>
      <path class="cls-1" d="M302.57,586.23c0,8.68,3.95,19.73,10.65,30.51l5,8.02c7.36,11.44,11.44,23.28,11.44,32.75v3.02c0,12.5-7.37,20.91-18.68,20.91-5.26,0-9.34-1.71-11.97-3.55-1.58-1.05-2.76-1.58-3.81-1.58-1.58,0-2.5,1.31-2.5,3.29v.53h-.66l-2.63-48.8h.66l11.31,38.54c1.58,5.92,4.73,8.94,8.29,8.94,4.21,0,6.84-4.87,6.84-14.07v-2.63c0-8.55-3.95-19.73-10.65-30.51l-5-7.89c-7.37-11.57-11.44-23.41-11.44-32.88v-2.89c0-12.5,7.5-20.91,18.68-20.91,5.39,0,9.34,1.71,11.97,3.55,1.58,1.05,2.76,1.58,3.81,1.58,1.58,0,2.5-1.31,2.5-3.29v-.53h.66l2.63,48.8h-.66l-11.31-38.54c-1.45-5.92-4.6-8.94-8.15-8.94-4.21,0-6.97,4.87-6.97,13.94v2.63Z"/>
      <path class="cls-1" d="M340.18,523.22c0,8.68,3.95,19.73,10.65,30.51l5,8.02c7.36,11.44,11.44,23.28,11.44,32.75v3.02c0,12.5-7.37,20.91-18.68,20.91-5.26,0-9.34-1.71-11.97-3.55-1.58-1.05-2.76-1.58-3.81-1.58-1.58,0-2.5,1.31-2.5,3.29v.53h-.66l-2.63-48.8h.66l11.31,38.54c1.58,5.92,4.73,8.94,8.29,8.94,4.21,0,6.84-4.87,6.84-14.07v-2.63c0-8.55-3.95-19.73-10.65-30.51l-5-7.89c-7.37-11.57-11.44-23.41-11.44-32.88v-2.89c0-12.5,7.5-20.91,18.68-20.91,5.39,0,9.34,1.71,11.97,3.55,1.58,1.05,2.76,1.58,3.81,1.58,1.58,0,2.5-1.31,2.5-3.29v-.53h.66l2.63,48.8h-.66l-11.31-38.54c-1.45-5.92-4.6-8.94-8.15-8.94-4.21,0-6.97,4.87-6.97,13.94v2.63Z"/>
      <path class="cls-1" d="M377.8,460.22c0,8.68,3.95,19.73,10.65,30.51l5,8.02c7.36,11.44,11.44,23.28,11.44,32.75v3.02c0,12.5-7.37,20.91-18.68,20.91-5.26,0-9.34-1.71-11.97-3.55-1.58-1.05-2.76-1.58-3.81-1.58-1.58,0-2.5,1.31-2.5,3.29v.53h-.66l-2.63-48.8h.66l11.31,38.54c1.58,5.92,4.73,8.94,8.29,8.94,4.21,0,6.84-4.87,6.84-14.07v-2.63c0-8.55-3.95-19.73-10.65-30.51l-5-7.89c-7.37-11.57-11.44-23.41-11.44-32.88v-2.89c0-12.5,7.5-20.91,18.68-20.91,5.39,0,9.34,1.71,11.97,3.55,1.58,1.05,2.76,1.58,3.81,1.58,1.58,0,2.5-1.31,2.5-3.29v-.53h.66l2.63,48.8h-.66l-11.31-38.54c-1.45-5.92-4.6-8.94-8.15-8.94-4.21,0-6.97,4.87-6.97,13.94v2.63Z"/>
      <path class="cls-1" d="M415.41,397.22c0,8.68,3.95,19.73,10.65,30.51l5,8.02c7.36,11.44,11.44,23.28,11.44,32.75v3.02c0,12.5-7.37,20.91-18.68,20.91-5.26,0-9.34-1.71-11.97-3.55-1.58-1.05-2.76-1.58-3.81-1.58-1.58,0-2.5,1.31-2.5,3.29v.53h-.66l-2.63-48.8h.66l11.31,38.54c1.58,5.92,4.73,8.94,8.29,8.94,4.21,0,6.84-4.87,6.84-14.07v-2.63c0-8.55-3.95-19.73-10.65-30.51l-5-7.89c-7.37-11.57-11.44-23.41-11.44-32.88v-2.89c0-12.5,7.5-20.91,18.68-20.91,5.39,0,9.34,1.71,11.97,3.55,1.58,1.05,2.76,1.58,3.81,1.58,1.58,0,2.5-1.31,2.5-3.29v-.53h.66l2.63,48.8h-.66l-11.31-38.54c-1.45-5.92-4.6-8.94-8.15-8.94-4.21,0-6.97,4.87-6.97,13.94v2.63Z"/>
      <path class="cls-1" d="M453.03,334.22c0,8.68,3.95,19.73,10.65,30.51l5,8.02c7.36,11.44,11.44,23.28,11.44,32.75v3.02c0,12.5-7.37,20.91-18.68,20.91-5.26,0-9.34-1.71-11.97-3.55-1.58-1.05-2.76-1.58-3.81-1.58-1.58,0-2.5,1.31-2.5,3.29v.53h-.66l-2.63-48.8h.66l11.31,38.54c1.58,5.92,4.73,8.94,8.29,8.94,4.21,0,6.84-4.87,6.84-14.07v-2.63c0-8.55-3.95-19.73-10.65-30.51l-5-7.89c-7.37-11.57-11.44-23.41-11.44-32.88v-2.89c0-12.5,7.5-20.91,18.68-20.91,5.39,0,9.34,1.71,11.97,3.55,1.58,1.05,2.76,1.58,3.81,1.58,1.58,0,2.5-1.31,2.5-3.29v-.53h.66l2.63,48.8h-.66l-11.31-38.54c-1.45-5.92-4.6-8.94-8.15-8.94-4.21,0-6.97,4.87-6.97,13.94v2.63Z"/>
      <path class="cls-1" d="M490.65,271.21c0,8.68,3.95,19.73,10.65,30.51l5,8.02c7.36,11.44,11.44,23.28,11.44,32.75v3.02c0,12.5-7.37,20.91-18.68,20.91-5.26,0-9.34-1.71-11.97-3.55-1.58-1.05-2.76-1.58-3.81-1.58-1.58,0-2.5,1.31-2.5,3.29v.53h-.66l-2.63-48.8h.66l11.31,38.54c1.58,5.92,4.73,8.94,8.29,8.94,4.21,0,6.84-4.87,6.84-14.07v-2.63c0-8.55-3.95-19.73-10.65-30.51l-5-7.89c-7.37-11.57-11.44-23.41-11.44-32.88v-2.89c0-12.5,7.5-20.91,18.68-20.91,5.39,0,9.34,1.71,11.97,3.55,1.58,1.05,2.76,1.58,3.81,1.58,1.58,0,2.5-1.31,2.5-3.29v-.53h.66l2.63,48.8h-.66l-11.31-38.54c-1.45-5.92-4.6-8.94-8.15-8.94-4.21,0-6.97,4.87-6.97,13.94v2.63Z"/>
      <path class="cls-1" d="M528.26,208.21c0,8.68,3.95,19.73,10.65,30.51l5,8.02c7.36,11.44,11.44,23.28,11.44,32.75v3.02c0,12.5-7.37,20.91-18.68,20.91-5.26,0-9.34-1.71-11.97-3.55-1.58-1.05-2.76-1.58-3.81-1.58-1.58,0-2.5,1.31-2.5,3.29v.53h-.66l-2.63-48.8h.66l11.31,38.54c1.58,5.92,4.73,8.94,8.29,8.94,4.21,0,6.84-4.87,6.84-14.07v-2.63c0-8.55-3.95-19.73-10.65-30.51l-5-7.89c-7.37-11.57-11.44-23.41-11.44-32.88v-2.89c0-12.5,7.5-20.91,18.68-20.91,5.39,0,9.34,1.71,11.97,3.55,1.58,1.05,2.76,1.58,3.81,1.58,1.58,0,2.5-1.31,2.5-3.29v-.53h.66l2.63,48.8h-.66l-11.31-38.54c-1.45-5.92-4.6-8.94-8.15-8.94-4.21,0-6.97,4.87-6.97,13.94v2.63Z"/>
      <path class="cls-1" d="M565.88,145.21c0,8.68,3.95,19.73,10.65,30.51l5,8.02c7.36,11.44,11.44,23.28,11.44,32.75v3.02c0,12.5-7.37,20.91-18.68,20.91-5.26,0-9.34-1.71-11.97-3.55-1.58-1.05-2.76-1.58-3.81-1.58-1.58,0-2.5,1.31-2.5,3.29v.53h-.66l-2.63-48.8h.66l11.31,38.54c1.58,5.92,4.73,8.94,8.29,8.94,4.21,0,6.84-4.87,6.84-14.07v-2.63c0-8.55-3.95-19.73-10.65-30.51l-5-7.89c-7.37-11.57-11.44-23.41-11.44-32.88v-2.89c0-12.5,7.5-20.91,18.68-20.91,5.39,0,9.34,1.71,11.97,3.55,1.58,1.05,2.76,1.58,3.81,1.58,1.58,0,2.5-1.31,2.5-3.29v-.53h.66l2.63,48.8h-.66l-11.31-38.54c-1.45-5.92-4.6-8.94-8.15-8.94-4.21,0-6.97,4.87-6.97,13.94v2.63Z"/>
      <path class="cls-1" d="M603.5,82.21c0,8.68,3.95,19.73,10.65,30.51l5,8.02c7.36,11.44,11.44,23.28,11.44,32.75v3.02c0,12.5-7.37,20.91-18.68,20.91-5.26,0-9.34-1.71-11.97-3.55-1.58-1.05-2.76-1.58-3.81-1.58-1.58,0-2.5,1.31-2.5,3.29v.53h-.66l-2.63-48.8h.66l11.31,38.54c1.58,5.92,4.73,8.94,8.29,8.94,4.21,0,6.84-4.87,6.84-14.07v-2.63c0-8.55-3.95-19.73-10.65-30.51l-5-7.89c-7.37-11.57-11.44-23.41-11.44-32.88v-2.89c0-12.5,7.5-20.91,18.68-20.91,5.39,0,9.34,1.71,11.97,3.55,1.58,1.05,2.76,1.58,3.81,1.58,1.58,0,2.5-1.31,2.5-3.29v-.53h.66l2.63,48.8h-.66l-11.31-38.54c-1.45-5.92-4.6-8.94-8.15-8.94-4.21,0-6.97,4.87-6.97,13.94v2.63Z"/>
      <path class="cls-1" d="M641.11,19.2c0,8.68,3.95,19.73,10.65,30.51l5,8.02c7.36,11.44,11.44,23.28,11.44,32.75v3.02c0,12.5-7.37,20.91-18.68,20.91-5.26,0-9.34-1.71-11.97-3.55-1.58-1.05-2.76-1.58-3.81-1.58-1.58,0-2.5,1.31-2.5,3.29v.53h-.66l-2.63-48.8h.66l11.31,38.54c1.58,5.92,4.73,8.94,8.29,8.94,4.21,0,6.84-4.87,6.84-14.07v-2.63c0-8.55-3.95-19.73-10.65-30.51l-5-7.89c-7.37-11.57-11.44-23.41-11.44-32.88v-2.89c0-12.5,7.5-20.91,18.68-20.91,5.39,0,9.34,1.71,11.97,3.55,1.58,1.05,2.76,1.58,3.81,1.58,1.58,0,2.5-1.31,2.5-3.29v-.53h.66l2.63,48.8h-.66l-11.31-38.54c-1.45-5.92-4.6-8.94-8.15-8.94-4.21,0-6.97,4.87-6.97,13.94v2.63Z"/>
      <path class="cls-1" d="M393.73,586.23c0,8.68,3.95,19.73,10.65,30.51l5,8.02c7.36,11.44,11.44,23.28,11.44,32.75v3.02c0,12.5-7.37,20.91-18.68,20.91-5.26,0-9.34-1.71-11.97-3.55-1.58-1.05-2.76-1.58-3.81-1.58-1.58,0-2.5,1.31-2.5,3.29v.53h-.66l-2.63-48.8h.66l11.31,38.54c1.58,5.92,4.73,8.94,8.29,8.94,4.21,0,6.84-4.87,6.84-14.07v-2.63c0-8.55-3.95-19.73-10.65-30.51l-5-7.89c-7.37-11.57-11.44-23.41-11.44-32.88v-2.89c0-12.5,7.5-20.91,18.68-20.91,5.39,0,9.34,1.71,11.97,3.55,1.58,1.05,2.76,1.58,3.81,1.58,1.58,0,2.5-1.31,2.5-3.29v-.53h.66l2.63,48.8h-.66l-11.31-38.54c-1.45-5.92-4.6-8.94-8.15-8.94-4.21,0-6.97,4.87-6.97,13.94v2.63Z"/>
      <path class="cls-1" d="M431.34,523.22c0,8.68,3.95,19.73,10.65,30.51l5,8.02c7.36,11.44,11.44,23.28,11.44,32.75v3.02c0,12.5-7.37,20.91-18.68,20.91-5.26,0-9.34-1.71-11.97-3.55-1.58-1.05-2.76-1.58-3.81-1.58-1.58,0-2.5,1.31-2.5,3.29v.53h-.66l-2.63-48.8h.66l11.31,38.54c1.58,5.92,4.73,8.94,8.29,8.94,4.21,0,6.84-4.87,6.84-14.07v-2.63c0-8.55-3.95-19.73-10.65-30.51l-5-7.89c-7.37-11.57-11.44-23.41-11.44-32.88v-2.89c0-12.5,7.5-20.91,18.68-20.91,5.39,0,9.34,1.71,11.97,3.55,1.58,1.05,2.76,1.58,3.81,1.58,1.58,0,2.5-1.31,2.5-3.29v-.53h.66l2.63,48.8h-.66l-11.31-38.54c-1.45-5.92-4.6-8.94-8.15-8.94-4.21,0-6.97,4.87-6.97,13.94v2.63Z"/>
      <path class="cls-1" d="M468.96,460.22c0,8.68,3.95,19.73,10.65,30.51l5,8.02c7.36,11.44,11.44,23.28,11.44,32.75v3.02c0,12.5-7.37,20.91-18.68,20.91-5.26,0-9.34-1.71-11.97-3.55-1.58-1.05-2.76-1.58-3.81-1.58-1.58,0-2.5,1.31-2.5,3.29v.53h-.66l-2.63-48.8h.66l11.31,38.54c1.58,5.92,4.73,8.94,8.29,8.94,4.21,0,6.84-4.87,6.84-14.07v-2.63c0-8.55-3.95-19.73-10.65-30.51l-5-7.89c-7.37-11.57-11.44-23.41-11.44-32.88v-2.89c0-12.5,7.5-20.91,18.68-20.91,5.39,0,9.34,1.71,11.97,3.55,1.58,1.05,2.76,1.58,3.81,1.58,1.58,0,2.5-1.31,2.5-3.29v-.53h.66l2.63,48.8h-.66l-11.31-38.54c-1.45-5.92-4.6-8.94-8.15-8.94-4.21,0-6.97,4.87-6.97,13.94v2.63Z"/>
      <path class="cls-1" d="M506.57,397.22c0,8.68,3.95,19.73,10.65,30.51l5,8.02c7.36,11.44,11.44,23.28,11.44,32.75v3.02c0,12.5-7.37,20.91-18.68,20.91-5.26,0-9.34-1.71-11.97-3.55-1.58-1.05-2.76-1.58-3.81-1.58-1.58,0-2.5,1.31-2.5,3.29v.53h-.66l-2.63-48.8h.66l11.31,38.54c1.58,5.92,4.73,8.94,8.29,8.94,4.21,0,6.84-4.87,6.84-14.07v-2.63c0-8.55-3.95-19.73-10.65-30.51l-5-7.89c-7.37-11.57-11.44-23.41-11.44-32.88v-2.89c0-12.5,7.5-20.91,18.68-20.91,5.39,0,9.34,1.71,11.97,3.55,1.58,1.05,2.76,1.58,3.81,1.58,1.58,0,2.5-1.31,2.5-3.29v-.53h.66l2.63,48.8h-.66l-11.31-38.54c-1.45-5.92-4.6-8.94-8.15-8.94-4.21,0-6.97,4.87-6.97,13.94v2.63Z"/>
      <path class="cls-1" d="M544.19,334.22c0,8.68,3.95,19.73,10.65,30.51l5,8.02c7.36,11.44,11.44,23.28,11.44,32.75v3.02c0,12.5-7.37,20.91-18.68,20.91-5.26,0-9.34-1.71-11.97-3.55-1.58-1.05-2.76-1.58-3.81-1.58-1.58,0-2.5,1.31-2.5,3.29v.53h-.66l-2.63-48.8h.66l11.31,38.54c1.58,5.92,4.73,8.94,8.29,8.94,4.21,0,6.84-4.87,6.84-14.07v-2.63c0-8.55-3.95-19.73-10.65-30.51l-5-7.89c-7.37-11.57-11.44-23.41-11.44-32.88v-2.89c0-12.5,7.5-20.91,18.68-20.91,5.39,0,9.34,1.71,11.97,3.55,1.58,1.05,2.76,1.58,3.81,1.58,1.58,0,2.5-1.31,2.5-3.29v-.53h.66l2.63,48.8h-.66l-11.31-38.54c-1.45-5.92-4.6-8.94-8.15-8.94-4.21,0-6.97,4.87-6.97,13.94v2.63Z"/>
      <path class="cls-1" d="M581.81,271.21c0,8.68,3.95,19.73,10.65,30.51l5,8.02c7.36,11.44,11.44,23.28,11.44,32.75v3.02c0,12.5-7.37,20.91-18.68,20.91-5.26,0-9.34-1.71-11.97-3.55-1.58-1.05-2.76-1.58-3.81-1.58-1.58,0-2.5,1.31-2.5,3.29v.53h-.66l-2.63-48.8h.66l11.31,38.54c1.58,5.92,4.73,8.94,8.29,8.94,4.21,0,6.84-4.87,6.84-14.07v-2.63c0-8.55-3.95-19.73-10.65-30.51l-5-7.89c-7.37-11.57-11.44-23.41-11.44-32.88v-2.89c0-12.5,7.5-20.91,18.68-20.91,5.39,0,9.34,1.71,11.97,3.55,1.58,1.05,2.76,1.58,3.81,1.58,1.58,0,2.5-1.31,2.5-3.29v-.53h.66l2.63,48.8h-.66l-11.31-38.54c-1.45-5.92-4.6-8.94-8.15-8.94-4.21,0-6.97,4.87-6.97,13.94v2.63Z"/>
      <path class="cls-1" d="M619.42,208.21c0,8.68,3.95,19.73,10.65,30.51l5,8.02c7.36,11.44,11.44,23.28,11.44,32.75v3.02c0,12.5-7.37,20.91-18.68,20.91-5.26,0-9.34-1.71-11.97-3.55-1.58-1.05-2.76-1.58-3.81-1.58-1.58,0-2.5,1.31-2.5,3.29v.53h-.66l-2.63-48.8h.66l11.31,38.54c1.58,5.92,4.73,8.94,8.29,8.94,4.21,0,6.84-4.87,6.84-14.07v-2.63c0-8.55-3.95-19.73-10.65-30.51l-5-7.89c-7.37-11.57-11.44-23.41-11.44-32.88v-2.89c0-12.5,7.5-20.91,18.68-20.91,5.39,0,9.34,1.71,11.97,3.55,1.58,1.05,2.76,1.58,3.81,1.58,1.58,0,2.5-1.31,2.5-3.29v-.53h.66l2.63,48.8h-.66l-11.31-38.54c-1.45-5.92-4.6-8.94-8.15-8.94-4.21,0-6.97,4.87-6.97,13.94v2.63Z"/>
      <path class="cls-1" d="M657.04,145.21c0,8.68,3.95,19.73,10.65,30.51l5,8.02c7.36,11.44,11.44,23.28,11.44,32.75v3.02c0,12.5-7.37,20.91-18.68,20.91-5.26,0-9.34-1.71-11.97-3.55-1.58-1.05-2.76-1.58-3.81-1.58-1.58,0-2.5,1.31-2.5,3.29v.53h-.66l-2.63-48.8h.66l11.31,38.54c1.58,5.92,4.73,8.94,8.29,8.94,4.21,0,6.84-4.87,6.84-14.07v-2.63c0-8.55-3.95-19.73-10.65-30.51l-5-7.89c-7.37-11.57-11.44-23.41-11.44-32.88v-2.89c0-12.5,7.5-20.91,18.68-20.91,5.39,0,9.34,1.71,11.97,3.55,1.58,1.05,2.76,1.58,3.81,1.58,1.58,0,2.5-1.31,2.5-3.29v-.53h.66l2.63,48.8h-.66l-11.31-38.54c-1.45-5.92-4.6-8.94-8.15-8.94-4.21,0-6.97,4.87-6.97,13.94v2.63Z"/>
      <path class="cls-1" d="M694.66,82.21c0,8.68,3.95,19.73,10.65,30.51l5,8.02c7.36,11.44,11.44,23.28,11.44,32.75v3.02c0,12.5-7.37,20.91-18.68,20.91-5.26,0-9.34-1.71-11.97-3.55-1.58-1.05-2.76-1.58-3.81-1.58-1.58,0-2.5,1.31-2.5,3.29v.53h-.66l-2.63-48.8h.66l11.31,38.54c1.58,5.92,4.73,8.94,8.29,8.94,4.21,0,6.84-4.87,6.84-14.07v-2.63c0-8.55-3.95-19.73-10.65-30.51l-5-7.89c-7.37-11.57-11.44-23.41-11.44-32.88v-2.89c0-12.5,7.5-20.91,18.68-20.91,5.39,0,9.34,1.71,11.97,3.55,1.58,1.05,2.76,1.58,3.81,1.58,1.58,0,2.5-1.31,2.5-3.29v-.53h.66l2.63,48.8h-.66l-11.31-38.54c-1.45-5.92-4.6-8.94-8.15-8.94-4.21,0-6.97,4.87-6.97,13.94v2.63Z"/>
      <path class="cls-1" d="M732.27,19.2c0,8.68,3.95,19.73,10.65,30.51l5,8.02c7.36,11.44,11.44,23.28,11.44,32.75v3.02c0,12.5-7.37,20.91-18.68,20.91-5.26,0-9.34-1.71-11.97-3.55-1.58-1.05-2.76-1.58-3.81-1.58-1.58,0-2.5,1.31-2.5,3.29v.53h-.66l-2.63-48.8h.66l11.31,38.54c1.58,5.92,4.73,8.94,8.29,8.94,4.21,0,6.84-4.87,6.84-14.07v-2.63c0-8.55-3.95-19.73-10.65-30.51l-5-7.89c-7.37-11.57-11.44-23.41-11.44-32.88v-2.89c0-12.5,7.5-20.91,18.68-20.91,5.39,0,9.34,1.71,11.97,3.55,1.58,1.05,2.76,1.58,3.81,1.58,1.58,0,2.5-1.31,2.5-3.29v-.53h.66l2.63,48.8h-.66l-11.31-38.54c-1.45-5.92-4.6-8.94-8.15-8.94-4.21,0-6.97,4.87-6.97,13.94v2.63Z"/>
      <path class="cls-1" d="M484.89,586.23c0,8.68,3.95,19.73,10.65,30.51l5,8.02c7.36,11.44,11.44,23.28,11.44,32.75v3.02c0,12.5-7.37,20.91-18.68,20.91-5.26,0-9.34-1.71-11.97-3.55-1.58-1.05-2.76-1.58-3.81-1.58-1.58,0-2.5,1.31-2.5,3.29v.53h-.66l-2.63-48.8h.66l11.31,38.54c1.58,5.92,4.73,8.94,8.29,8.94,4.21,0,6.84-4.87,6.84-14.07v-2.63c0-8.55-3.95-19.73-10.65-30.51l-5-7.89c-7.37-11.57-11.44-23.41-11.44-32.88v-2.89c0-12.5,7.5-20.91,18.68-20.91,5.39,0,9.34,1.71,11.97,3.55,1.58,1.05,2.76,1.58,3.81,1.58,1.58,0,2.5-1.31,2.5-3.29v-.53h.66l2.63,48.8h-.66l-11.31-38.54c-1.45-5.92-4.6-8.94-8.15-8.94-4.21,0-6.97,4.87-6.97,13.94v2.63Z"/>
      <path class="cls-1" d="M522.5,523.22c0,8.68,3.95,19.73,10.65,30.51l5,8.02c7.36,11.44,11.44,23.28,11.44,32.75v3.02c0,12.5-7.37,20.91-18.68,20.91-5.26,0-9.34-1.71-11.97-3.55-1.58-1.05-2.76-1.58-3.81-1.58-1.58,0-2.5,1.31-2.5,3.29v.53h-.66l-2.63-48.8h.66l11.31,38.54c1.58,5.92,4.73,8.94,8.29,8.94,4.21,0,6.84-4.87,6.84-14.07v-2.63c0-8.55-3.95-19.73-10.65-30.51l-5-7.89c-7.37-11.57-11.44-23.41-11.44-32.88v-2.89c0-12.5,7.5-20.91,18.68-20.91,5.39,0,9.34,1.71,11.97,3.55,1.58,1.05,2.76,1.58,3.81,1.58,1.58,0,2.5-1.31,2.5-3.29v-.53h.66l2.63,48.8h-.66l-11.31-38.54c-1.45-5.92-4.6-8.94-8.15-8.94-4.21,0-6.97,4.87-6.97,13.94v2.63Z"/>
      <path class="cls-1" d="M560.12,460.22c0,8.68,3.95,19.73,10.65,30.51l5,8.02c7.36,11.44,11.44,23.28,11.44,32.75v3.02c0,12.5-7.37,20.91-18.68,20.91-5.26,0-9.34-1.71-11.97-3.55-1.58-1.05-2.76-1.58-3.81-1.58-1.58,0-2.5,1.31-2.5,3.29v.53h-.66l-2.63-48.8h.66l11.31,38.54c1.58,5.92,4.73,8.94,8.29,8.94,4.21,0,6.84-4.87,6.84-14.07v-2.63c0-8.55-3.95-19.73-10.65-30.51l-5-7.89c-7.37-11.57-11.44-23.41-11.44-32.88v-2.89c0-12.5,7.5-20.91,18.68-20.91,5.39,0,9.34,1.71,11.97,3.55,1.58,1.05,2.76,1.58,3.81,1.58,1.58,0,2.5-1.31,2.5-3.29v-.53h.66l2.63,48.8h-.66l-11.31-38.54c-1.45-5.92-4.6-8.94-8.15-8.94-4.21,0-6.97,4.87-6.97,13.94v2.63Z"/>
      <path class="cls-1" d="M597.74,397.22c0,8.68,3.95,19.73,10.65,30.51l5,8.02c7.36,11.44,11.44,23.28,11.44,32.75v3.02c0,12.5-7.37,20.91-18.68,20.91-5.26,0-9.34-1.71-11.97-3.55-1.58-1.05-2.76-1.58-3.81-1.58-1.58,0-2.5,1.31-2.5,3.29v.53h-.66l-2.63-48.8h.66l11.31,38.54c1.58,5.92,4.73,8.94,8.29,8.94,4.21,0,6.84-4.87,6.84-14.07v-2.63c0-8.55-3.95-19.73-10.65-30.51l-5-7.89c-7.37-11.57-11.44-23.41-11.44-32.88v-2.89c0-12.5,7.5-20.91,18.68-20.91,5.39,0,9.34,1.71,11.97,3.55,1.58,1.05,2.76,1.58,3.81,1.58,1.58,0,2.5-1.31,2.5-3.29v-.53h.66l2.63,48.8h-.66l-11.31-38.54c-1.45-5.92-4.6-8.94-8.15-8.94-4.21,0-6.97,4.87-6.97,13.94v2.63Z"/>
      <path class="cls-1" d="M635.35,334.22c0,8.68,3.95,19.73,10.65,30.51l5,8.02c7.36,11.44,11.44,23.28,11.44,32.75v3.02c0,12.5-7.37,20.91-18.68,20.91-5.26,0-9.34-1.71-11.97-3.55-1.58-1.05-2.76-1.58-3.81-1.58-1.58,0-2.5,1.31-2.5,3.29v.53h-.66l-2.63-48.8h.66l11.31,38.54c1.58,5.92,4.73,8.94,8.29,8.94,4.21,0,6.84-4.87,6.84-14.07v-2.63c0-8.55-3.95-19.73-10.65-30.51l-5-7.89c-7.37-11.57-11.44-23.41-11.44-32.88v-2.89c0-12.5,7.5-20.91,18.68-20.91,5.39,0,9.34,1.71,11.97,3.55,1.58,1.05,2.76,1.58,3.81,1.58,1.58,0,2.5-1.31,2.5-3.29v-.53h.66l2.63,48.8h-.66l-11.31-38.54c-1.45-5.92-4.6-8.94-8.15-8.94-4.21,0-6.97,4.87-6.97,13.94v2.63Z"/>
      <path class="cls-1" d="M672.97,271.21c0,8.68,3.95,19.73,10.65,30.51l5,8.02c7.36,11.44,11.44,23.28,11.44,32.75v3.02c0,12.5-7.37,20.91-18.68,20.91-5.26,0-9.34-1.71-11.97-3.55-1.58-1.05-2.76-1.58-3.81-1.58-1.58,0-2.5,1.31-2.5,3.29v.53h-.66l-2.63-48.8h.66l11.31,38.54c1.58,5.92,4.73,8.94,8.29,8.94,4.21,0,6.84-4.87,6.84-14.07v-2.63c0-8.55-3.95-19.73-10.65-30.51l-5-7.89c-7.37-11.57-11.44-23.41-11.44-32.88v-2.89c0-12.5,7.5-20.91,18.68-20.91,5.39,0,9.34,1.71,11.97,3.55,1.58,1.05,2.76,1.58,3.81,1.58,1.58,0,2.5-1.31,2.5-3.29v-.53h.66l2.63,48.8h-.66l-11.31-38.54c-1.45-5.92-4.6-8.94-8.15-8.94-4.21,0-6.97,4.87-6.97,13.94v2.63Z"/>
      <path class="cls-1" d="M710.58,208.21c0,8.68,3.95,19.73,10.65,30.51l5,8.02c7.36,11.44,11.44,23.28,11.44,32.75v3.02c0,12.5-7.37,20.91-18.68,20.91-5.26,0-9.34-1.71-11.97-3.55-1.58-1.05-2.76-1.58-3.81-1.58-1.58,0-2.5,1.31-2.5,3.29v.53h-.66l-2.63-48.8h.66l11.31,38.54c1.58,5.92,4.73,8.94,8.29,8.94,4.21,0,6.84-4.87,6.84-14.07v-2.63c0-8.55-3.95-19.73-10.65-30.51l-5-7.89c-7.37-11.57-11.44-23.41-11.44-32.88v-2.89c0-12.5,7.5-20.91,18.68-20.91,5.39,0,9.34,1.71,11.97,3.55,1.58,1.05,2.76,1.58,3.81,1.58,1.58,0,2.5-1.31,2.5-3.29v-.53h.66l2.63,48.8h-.66l-11.31-38.54c-1.45-5.92-4.6-8.94-8.15-8.94-4.21,0-6.97,4.87-6.97,13.94v2.63Z"/>
      <path class="cls-1" d="M748.2,145.21c0,8.68,3.95,19.73,10.65,30.51l5,8.02c7.36,11.44,11.44,23.28,11.44,32.75v3.02c0,12.5-7.37,20.91-18.68,20.91-5.26,0-9.34-1.71-11.97-3.55-1.58-1.05-2.76-1.58-3.81-1.58-1.58,0-2.5,1.31-2.5,3.29v.53h-.66l-2.63-48.8h.66l11.31,38.54c1.58,5.92,4.73,8.94,8.29,8.94,4.21,0,6.84-4.87,6.84-14.07v-2.63c0-8.55-3.95-19.73-10.65-30.51l-5-7.89c-7.37-11.57-11.44-23.41-11.44-32.88v-2.89c0-12.5,7.5-20.91,18.68-20.91,5.39,0,9.34,1.71,11.97,3.55,1.58,1.05,2.76,1.58,3.81,1.58,1.58,0,2.5-1.31,2.5-3.29v-.53h.66l2.63,48.8h-.66l-11.31-38.54c-1.45-5.92-4.6-8.94-8.15-8.94-4.21,0-6.97,4.87-6.97,13.94v2.63Z"/>
      <path class="cls-1" d="M785.82,82.21c0,8.68,3.95,19.73,10.65,30.51l5,8.02c7.36,11.44,11.44,23.28,11.44,32.75v3.02c0,12.5-7.37,20.91-18.68,20.91-5.26,0-9.34-1.71-11.97-3.55-1.58-1.05-2.76-1.58-3.81-1.58-1.58,0-2.5,1.31-2.5,3.29v.53h-.66l-2.63-48.8h.66l11.31,38.54c1.58,5.92,4.73,8.94,8.29,8.94,4.21,0,6.84-4.87,6.84-14.07v-2.63c0-8.55-3.95-19.73-10.65-30.51l-5-7.89c-7.37-11.57-11.44-23.41-11.44-32.88v-2.89c0-12.5,7.5-20.91,18.68-20.91,5.39,0,9.34,1.71,11.97,3.55,1.58,1.05,2.76,1.58,3.81,1.58,1.58,0,2.5-1.31,2.5-3.29v-.53h.66l2.63,48.8h-.66l-11.31-38.54c-1.45-5.92-4.6-8.94-8.15-8.94-4.21,0-6.97,4.87-6.97,13.94v2.63Z"/>
      <path class="cls-1" d="M823.43,19.2c0,8.68,3.95,19.73,10.65,30.51l5,8.02c7.36,11.44,11.44,23.28,11.44,32.75v3.02c0,12.5-7.37,20.91-18.68,20.91-5.26,0-9.34-1.71-11.97-3.55-1.58-1.05-2.76-1.58-3.81-1.58-1.58,0-2.5,1.31-2.5,3.29v.53h-.66l-2.63-48.8h.66l11.31,38.54c1.58,5.92,4.73,8.94,8.29,8.94,4.21,0,6.84-4.87,6.84-14.07v-2.63c0-8.55-3.95-19.73-10.65-30.51l-5-7.89c-7.37-11.57-11.44-23.41-11.44-32.88v-2.89c0-12.5,7.5-20.91,18.68-20.91,5.39,0,9.34,1.71,11.97,3.55,1.58,1.05,2.76,1.58,3.81,1.58,1.58,0,2.5-1.31,2.5-3.29v-.53h.66l2.63,48.8h-.66l-11.31-38.54c-1.45-5.92-4.6-8.94-8.15-8.94-4.21,0-6.97,4.87-6.97,13.94v2.63Z"/>
      <path class="cls-1" d="M576.05,586.23c0,8.68,3.95,19.73,10.65,30.51l5,8.02c7.36,11.44,11.44,23.28,11.44,32.75v3.02c0,12.5-7.37,20.91-18.68,20.91-5.26,0-9.34-1.71-11.97-3.55-1.58-1.05-2.76-1.58-3.81-1.58-1.58,0-2.5,1.31-2.5,3.29v.53h-.66l-2.63-48.8h.66l11.31,38.54c1.58,5.92,4.73,8.94,8.29,8.94,4.21,0,6.84-4.87,6.84-14.07v-2.63c0-8.55-3.95-19.73-10.65-30.51l-5-7.89c-7.37-11.57-11.44-23.41-11.44-32.88v-2.89c0-12.5,7.5-20.91,18.68-20.91,5.39,0,9.34,1.71,11.97,3.55,1.58,1.05,2.76,1.58,3.81,1.58,1.58,0,2.5-1.31,2.5-3.29v-.53h.66l2.63,48.8h-.66l-11.31-38.54c-1.45-5.92-4.6-8.94-8.15-8.94-4.21,0-6.97,4.87-6.97,13.94v2.63Z"/>
      <path class="cls-1" d="M613.66,523.22c0,8.68,3.95,19.73,10.65,30.51l5,8.02c7.36,11.44,11.44,23.28,11.44,32.75v3.02c0,12.5-7.37,20.91-18.68,20.91-5.26,0-9.34-1.71-11.97-3.55-1.58-1.05-2.76-1.58-3.81-1.58-1.58,0-2.5,1.31-2.5,3.29v.53h-.66l-2.63-48.8h.66l11.31,38.54c1.58,5.92,4.73,8.94,8.29,8.94,4.21,0,6.84-4.87,6.84-14.07v-2.63c0-8.55-3.95-19.73-10.65-30.51l-5-7.89c-7.37-11.57-11.44-23.41-11.44-32.88v-2.89c0-12.5,7.5-20.91,18.68-20.91,5.39,0,9.34,1.71,11.97,3.55,1.58,1.05,2.76,1.58,3.81,1.58,1.58,0,2.5-1.31,2.5-3.29v-.53h.66l2.63,48.8h-.66l-11.31-38.54c-1.45-5.92-4.6-8.94-8.15-8.94-4.21,0-6.97,4.87-6.97,13.94v2.63Z"/>
      <path class="cls-1" d="M651.28,460.22c0,8.68,3.95,19.73,10.65,30.51l5,8.02c7.36,11.44,11.44,23.28,11.44,32.75v3.02c0,12.5-7.37,20.91-18.68,20.91-5.26,0-9.34-1.71-11.97-3.55-1.58-1.05-2.76-1.58-3.81-1.58-1.58,0-2.5,1.31-2.5,3.29v.53h-.66l-2.63-48.8h.66l11.31,38.54c1.58,5.92,4.73,8.94,8.29,8.94,4.21,0,6.84-4.87,6.84-14.07v-2.63c0-8.55-3.95-19.73-10.65-30.51l-5-7.89c-7.37-11.57-11.44-23.41-11.44-32.88v-2.89c0-12.5,7.5-20.91,18.68-20.91,5.39,0,9.34,1.71,11.97,3.55,1.58,1.05,2.76,1.58,3.81,1.58,1.58,0,2.5-1.31,2.5-3.29v-.53h.66l2.63,48.8h-.66l-11.31-38.54c-1.45-5.92-4.6-8.94-8.15-8.94-4.21,0-6.97,4.87-6.97,13.94v2.63Z"/>
      <path class="cls-1" d="M688.9,397.22c0,8.68,3.95,19.73,10.65,30.51l5,8.02c7.36,11.44,11.44,23.28,11.44,32.75v3.02c0,12.5-7.37,20.91-18.68,20.91-5.26,0-9.34-1.71-11.97-3.55-1.58-1.05-2.76-1.58-3.81-1.58-1.58,0-2.5,1.31-2.5,3.29v.53h-.66l-2.63-48.8h.66l11.31,38.54c1.58,5.92,4.73,8.94,8.29,8.94,4.21,0,6.84-4.87,6.84-14.07v-2.63c0-8.55-3.95-19.73-10.65-30.51l-5-7.89c-7.37-11.57-11.44-23.41-11.44-32.88v-2.89c0-12.5,7.5-20.91,18.68-20.91,5.39,0,9.34,1.71,11.97,3.55,1.58,1.05,2.76,1.58,3.81,1.58,1.58,0,2.5-1.31,2.5-3.29v-.53h.66l2.63,48.8h-.66l-11.31-38.54c-1.45-5.92-4.6-8.94-8.15-8.94-4.21,0-6.97,4.87-6.97,13.94v2.63Z"/>
      <path class="cls-1" d="M726.51,334.22c0,8.68,3.95,19.73,10.65,30.51l5,8.02c7.36,11.44,11.44,23.28,11.44,32.75v3.02c0,12.5-7.37,20.91-18.68,20.91-5.26,0-9.34-1.71-11.97-3.55-1.58-1.05-2.76-1.58-3.81-1.58-1.58,0-2.5,1.31-2.5,3.29v.53h-.66l-2.63-48.8h.66l11.31,38.54c1.58,5.92,4.73,8.94,8.29,8.94,4.21,0,6.84-4.87,6.84-14.07v-2.63c0-8.55-3.95-19.73-10.65-30.51l-5-7.89c-7.37-11.57-11.44-23.41-11.44-32.88v-2.89c0-12.5,7.5-20.91,18.68-20.91,5.39,0,9.34,1.71,11.97,3.55,1.58,1.05,2.76,1.58,3.81,1.58,1.58,0,2.5-1.31,2.5-3.29v-.53h.66l2.63,48.8h-.66l-11.31-38.54c-1.45-5.92-4.6-8.94-8.15-8.94-4.21,0-6.97,4.87-6.97,13.94v2.63Z"/>
      <path class="cls-1" d="M764.13,271.21c0,8.68,3.95,19.73,10.65,30.51l5,8.02c7.36,11.44,11.44,23.28,11.44,32.75v3.02c0,12.5-7.37,20.91-18.68,20.91-5.26,0-9.34-1.71-11.97-3.55-1.58-1.05-2.76-1.58-3.81-1.58-1.58,0-2.5,1.31-2.5,3.29v.53h-.66l-2.63-48.8h.66l11.31,38.54c1.58,5.92,4.73,8.94,8.29,8.94,4.21,0,6.84-4.87,6.84-14.07v-2.63c0-8.55-3.95-19.73-10.65-30.51l-5-7.89c-7.37-11.57-11.44-23.41-11.44-32.88v-2.89c0-12.5,7.5-20.91,18.68-20.91,5.39,0,9.34,1.71,11.97,3.55,1.58,1.05,2.76,1.58,3.81,1.58,1.58,0,2.5-1.31,2.5-3.29v-.53h.66l2.63,48.8h-.66l-11.31-38.54c-1.45-5.92-4.6-8.94-8.15-8.94-4.21,0-6.97,4.87-6.97,13.94v2.63Z"/>
      <path class="cls-1" d="M801.74,208.21c0,8.68,3.95,19.73,10.65,30.51l5,8.02c7.36,11.44,11.44,23.28,11.44,32.75v3.02c0,12.5-7.37,20.91-18.68,20.91-5.26,0-9.34-1.71-11.97-3.55-1.58-1.05-2.76-1.58-3.81-1.58-1.58,0-2.5,1.31-2.5,3.29v.53h-.66l-2.63-48.8h.66l11.31,38.54c1.58,5.92,4.73,8.94,8.29,8.94,4.21,0,6.84-4.87,6.84-14.07v-2.63c0-8.55-3.95-19.73-10.65-30.51l-5-7.89c-7.37-11.57-11.44-23.41-11.44-32.88v-2.89c0-12.5,7.5-20.91,18.68-20.91,5.39,0,9.34,1.71,11.97,3.55,1.58,1.05,2.76,1.58,3.81,1.58,1.58,0,2.5-1.31,2.5-3.29v-.53h.66l2.63,48.8h-.66l-11.31-38.54c-1.45-5.92-4.6-8.94-8.15-8.94-4.21,0-6.97,4.87-6.97,13.94v2.63Z"/>
      <path class="cls-1" d="M839.36,145.21c0,8.68,3.95,19.73,10.65,30.51l5,8.02c7.36,11.44,11.44,23.28,11.44,32.75v3.02c0,12.5-7.37,20.91-18.68,20.91-5.26,0-9.34-1.71-11.97-3.55-1.58-1.05-2.76-1.58-3.81-1.58-1.58,0-2.5,1.31-2.5,3.29v.53h-.66l-2.63-48.8h.66l11.31,38.54c1.58,5.92,4.73,8.94,8.29,8.94,4.21,0,6.84-4.87,6.84-14.07v-2.63c0-8.55-3.95-19.73-10.65-30.51l-5-7.89c-7.37-11.57-11.44-23.41-11.44-32.88v-2.89c0-12.5,7.5-20.91,18.68-20.91,5.39,0,9.34,1.71,11.97,3.55,1.58,1.05,2.76,1.58,3.81,1.58,1.58,0,2.5-1.31,2.5-3.29v-.53h.66l2.63,48.8h-.66l-11.31-38.54c-1.45-5.92-4.6-8.94-8.15-8.94-4.21,0-6.97,4.87-6.97,13.94v2.63Z"/>
      <path class="cls-1" d="M876.98,82.21c0,8.68,3.95,19.73,10.65,30.51l5,8.02c7.36,11.44,11.44,23.28,11.44,32.75v3.02c0,12.5-7.37,20.91-18.68,20.91-5.26,0-9.34-1.71-11.97-3.55-1.58-1.05-2.76-1.58-3.81-1.58-1.58,0-2.5,1.31-2.5,3.29v.53h-.66l-2.63-48.8h.66l11.31,38.54c1.58,5.92,4.73,8.94,8.29,8.94,4.21,0,6.84-4.87,6.84-14.07v-2.63c0-8.55-3.95-19.73-10.65-30.51l-5-7.89c-7.37-11.57-11.44-23.41-11.44-32.88v-2.89c0-12.5,7.5-20.91,18.68-20.91,5.39,0,9.34,1.71,11.97,3.55,1.58,1.05,2.76,1.58,3.81,1.58,1.58,0,2.5-1.31,2.5-3.29v-.53h.66l2.63,48.8h-.66l-11.31-38.54c-1.45-5.92-4.6-8.94-8.15-8.94-4.21,0-6.97,4.87-6.97,13.94v2.63Z"/>
      <path class="cls-1" d="M914.59,19.2c0,8.68,3.95,19.73,10.65,30.51l5,8.02c7.36,11.44,11.44,23.28,11.44,32.75v3.02c0,12.5-7.37,20.91-18.68,20.91-5.26,0-9.34-1.71-11.97-3.55-1.58-1.05-2.76-1.58-3.81-1.58-1.58,0-2.5,1.31-2.5,3.29v.53h-.66l-2.63-48.8h.66l11.31,38.54c1.58,5.92,4.73,8.94,8.29,8.94,4.21,0,6.84-4.87,6.84-14.07v-2.63c0-8.55-3.95-19.73-10.65-30.51l-5-7.89c-7.37-11.57-11.44-23.41-11.44-32.88v-2.89c0-12.5,7.5-20.91,18.68-20.91,5.39,0,9.34,1.71,11.97,3.55,1.58,1.05,2.76,1.58,3.81,1.58,1.58,0,2.5-1.31,2.5-3.29v-.53h.66l2.63,48.8h-.66l-11.31-38.54c-1.45-5.92-4.6-8.94-8.15-8.94-4.21,0-6.97,4.87-6.97,13.94v2.63Z"/>
      <path class="cls-1" d="M667.21,586.23c0,8.68,3.95,19.73,10.65,30.51l5,8.02c7.36,11.44,11.44,23.28,11.44,32.75v3.02c0,12.5-7.37,20.91-18.68,20.91-5.26,0-9.34-1.71-11.97-3.55-1.58-1.05-2.76-1.58-3.81-1.58-1.58,0-2.5,1.31-2.5,3.29v.53h-.66l-2.63-48.8h.66l11.31,38.54c1.58,5.92,4.73,8.94,8.29,8.94,4.21,0,6.84-4.87,6.84-14.07v-2.63c0-8.55-3.95-19.73-10.65-30.51l-5-7.89c-7.37-11.57-11.44-23.41-11.44-32.88v-2.89c0-12.5,7.5-20.91,18.68-20.91,5.39,0,9.34,1.71,11.97,3.55,1.58,1.05,2.76,1.58,3.81,1.58,1.58,0,2.5-1.31,2.5-3.29v-.53h.66l2.63,48.8h-.66l-11.31-38.54c-1.45-5.92-4.6-8.94-8.15-8.94-4.21,0-6.97,4.87-6.97,13.94v2.63Z"/>
      <path class="cls-1" d="M704.83,523.22c0,8.68,3.95,19.73,10.65,30.51l5,8.02c7.36,11.44,11.44,23.28,11.44,32.75v3.02c0,12.5-7.37,20.91-18.68,20.91-5.26,0-9.34-1.71-11.97-3.55-1.58-1.05-2.76-1.58-3.81-1.58-1.58,0-2.5,1.31-2.5,3.29v.53h-.66l-2.63-48.8h.66l11.31,38.54c1.58,5.92,4.73,8.94,8.29,8.94,4.21,0,6.84-4.87,6.84-14.07v-2.63c0-8.55-3.95-19.73-10.65-30.51l-5-7.89c-7.37-11.57-11.44-23.41-11.44-32.88v-2.89c0-12.5,7.5-20.91,18.68-20.91,5.39,0,9.34,1.71,11.97,3.55,1.58,1.05,2.76,1.58,3.81,1.58,1.58,0,2.5-1.31,2.5-3.29v-.53h.66l2.63,48.8h-.66l-11.31-38.54c-1.45-5.92-4.6-8.94-8.15-8.94-4.21,0-6.97,4.87-6.97,13.94v2.63Z"/>
      <path class="cls-1" d="M742.44,460.22c0,8.68,3.95,19.73,10.65,30.51l5,8.02c7.36,11.44,11.44,23.28,11.44,32.75v3.02c0,12.5-7.37,20.91-18.68,20.91-5.26,0-9.34-1.71-11.97-3.55-1.58-1.05-2.76-1.58-3.81-1.58-1.58,0-2.5,1.31-2.5,3.29v.53h-.66l-2.63-48.8h.66l11.31,38.54c1.58,5.92,4.73,8.94,8.29,8.94,4.21,0,6.84-4.87,6.84-14.07v-2.63c0-8.55-3.95-19.73-10.65-30.51l-5-7.89c-7.37-11.57-11.44-23.41-11.44-32.88v-2.89c0-12.5,7.5-20.91,18.68-20.91,5.39,0,9.34,1.71,11.97,3.55,1.58,1.05,2.76,1.58,3.81,1.58,1.58,0,2.5-1.31,2.5-3.29v-.53h.66l2.63,48.8h-.66l-11.31-38.54c-1.45-5.92-4.6-8.94-8.15-8.94-4.21,0-6.97,4.87-6.97,13.94v2.63Z"/>
      <path class="cls-1" d="M780.06,397.22c0,8.68,3.95,19.73,10.65,30.51l5,8.02c7.36,11.44,11.44,23.28,11.44,32.75v3.02c0,12.5-7.37,20.91-18.68,20.91-5.26,0-9.34-1.71-11.97-3.55-1.58-1.05-2.76-1.58-3.81-1.58-1.58,0-2.5,1.31-2.5,3.29v.53h-.66l-2.63-48.8h.66l11.31,38.54c1.58,5.92,4.73,8.94,8.29,8.94,4.21,0,6.84-4.87,6.84-14.07v-2.63c0-8.55-3.95-19.73-10.65-30.51l-5-7.89c-7.37-11.57-11.44-23.41-11.44-32.88v-2.89c0-12.5,7.5-20.91,18.68-20.91,5.39,0,9.34,1.71,11.97,3.55,1.58,1.05,2.76,1.58,3.81,1.58,1.58,0,2.5-1.31,2.5-3.29v-.53h.66l2.63,48.8h-.66l-11.31-38.54c-1.45-5.92-4.6-8.94-8.15-8.94-4.21,0-6.97,4.87-6.97,13.94v2.63Z"/>
      <path class="cls-1" d="M817.67,334.22c0,8.68,3.95,19.73,10.65,30.51l5,8.02c7.36,11.44,11.44,23.28,11.44,32.75v3.02c0,12.5-7.37,20.91-18.68,20.91-5.26,0-9.34-1.71-11.97-3.55-1.58-1.05-2.76-1.58-3.81-1.58-1.58,0-2.5,1.31-2.5,3.29v.53h-.66l-2.63-48.8h.66l11.31,38.54c1.58,5.92,4.73,8.94,8.29,8.94,4.21,0,6.84-4.87,6.84-14.07v-2.63c0-8.55-3.95-19.73-10.65-30.51l-5-7.89c-7.37-11.57-11.44-23.41-11.44-32.88v-2.89c0-12.5,7.5-20.91,18.68-20.91,5.39,0,9.34,1.71,11.97,3.55,1.58,1.05,2.76,1.58,3.81,1.58,1.58,0,2.5-1.31,2.5-3.29v-.53h.66l2.63,48.8h-.66l-11.31-38.54c-1.45-5.92-4.6-8.94-8.15-8.94-4.21,0-6.97,4.87-6.97,13.94v2.63Z"/>
      <path class="cls-1" d="M855.29,271.21c0,8.68,3.95,19.73,10.65,30.51l5,8.02c7.36,11.44,11.44,23.28,11.44,32.75v3.02c0,12.5-7.37,20.91-18.68,20.91-5.26,0-9.34-1.71-11.97-3.55-1.58-1.05-2.76-1.58-3.81-1.58-1.58,0-2.5,1.31-2.5,3.29v.53h-.66l-2.63-48.8h.66l11.31,38.54c1.58,5.92,4.73,8.94,8.29,8.94,4.21,0,6.84-4.87,6.84-14.07v-2.63c0-8.55-3.95-19.73-10.65-30.51l-5-7.89c-7.37-11.57-11.44-23.41-11.44-32.88v-2.89c0-12.5,7.5-20.91,18.68-20.91,5.39,0,9.34,1.71,11.97,3.55,1.58,1.05,2.76,1.58,3.81,1.58,1.58,0,2.5-1.31,2.5-3.29v-.53h.66l2.63,48.8h-.66l-11.31-38.54c-1.45-5.92-4.6-8.94-8.15-8.94-4.21,0-6.97,4.87-6.97,13.94v2.63Z"/>
      <path class="cls-1" d="M892.9,208.21c0,8.68,3.95,19.73,10.65,30.51l5,8.02c7.36,11.44,11.44,23.28,11.44,32.75v3.02c0,12.5-7.37,20.91-18.68,20.91-5.26,0-9.34-1.71-11.97-3.55-1.58-1.05-2.76-1.58-3.81-1.58-1.58,0-2.5,1.31-2.5,3.29v.53h-.66l-2.63-48.8h.66l11.31,38.54c1.58,5.92,4.73,8.94,8.29,8.94,4.21,0,6.84-4.87,6.84-14.07v-2.63c0-8.55-3.95-19.73-10.65-30.51l-5-7.89c-7.37-11.57-11.44-23.41-11.44-32.88v-2.89c0-12.5,7.5-20.91,18.68-20.91,5.39,0,9.34,1.71,11.97,3.55,1.58,1.05,2.76,1.58,3.81,1.58,1.58,0,2.5-1.31,2.5-3.29v-.53h.66l2.63,48.8h-.66l-11.31-38.54c-1.45-5.92-4.6-8.94-8.15-8.94-4.21,0-6.97,4.87-6.97,13.94v2.63Z"/>
      <path class="cls-1" d="M758.37,586.23c0,8.68,3.95,19.73,10.65,30.51l5,8.02c7.36,11.44,11.44,23.28,11.44,32.75v3.02c0,12.5-7.37,20.91-18.68,20.91-5.26,0-9.34-1.71-11.97-3.55-1.58-1.05-2.76-1.58-3.81-1.58-1.58,0-2.5,1.31-2.5,3.29v.53h-.66l-2.63-48.8h.66l11.31,38.54c1.58,5.92,4.73,8.94,8.29,8.94,4.21,0,6.84-4.87,6.84-14.07v-2.63c0-8.55-3.95-19.73-10.65-30.51l-5-7.89c-7.37-11.57-11.44-23.41-11.44-32.88v-2.89c0-12.5,7.5-20.91,18.68-20.91,5.39,0,9.34,1.71,11.97,3.55,1.58,1.05,2.76,1.58,3.81,1.58,1.58,0,2.5-1.31,2.5-3.29v-.53h.66l2.63,48.8h-.66l-11.31-38.54c-1.45-5.92-4.6-8.94-8.15-8.94-4.21,0-6.97,4.87-6.97,13.94v2.63Z"/>
      <path class="cls-1" d="M795.99,523.22c0,8.68,3.95,19.73,10.65,30.51l5,8.02c7.36,11.44,11.44,23.28,11.44,32.75v3.02c0,12.5-7.37,20.91-18.68,20.91-5.26,0-9.34-1.71-11.97-3.55-1.58-1.05-2.76-1.58-3.81-1.58-1.58,0-2.5,1.31-2.5,3.29v.53h-.66l-2.63-48.8h.66l11.31,38.54c1.58,5.92,4.73,8.94,8.29,8.94,4.21,0,6.84-4.87,6.84-14.07v-2.63c0-8.55-3.95-19.73-10.65-30.51l-5-7.89c-7.37-11.57-11.44-23.41-11.44-32.88v-2.89c0-12.5,7.5-20.91,18.68-20.91,5.39,0,9.34,1.71,11.97,3.55,1.58,1.05,2.76,1.58,3.81,1.58,1.58,0,2.5-1.31,2.5-3.29v-.53h.66l2.63,48.8h-.66l-11.31-38.54c-1.45-5.92-4.6-8.94-8.15-8.94-4.21,0-6.97,4.87-6.97,13.94v2.63Z"/>
      <path class="cls-1" d="M833.6,460.22c0,8.68,3.95,19.73,10.65,30.51l5,8.02c7.36,11.44,11.44,23.28,11.44,32.75v3.02c0,12.5-7.37,20.91-18.68,20.91-5.26,0-9.34-1.71-11.97-3.55-1.58-1.05-2.76-1.58-3.81-1.58-1.58,0-2.5,1.31-2.5,3.29v.53h-.66l-2.63-48.8h.66l11.31,38.54c1.58,5.92,4.73,8.94,8.29,8.94,4.21,0,6.84-4.87,6.84-14.07v-2.63c0-8.55-3.95-19.73-10.65-30.51l-5-7.89c-7.37-11.57-11.44-23.41-11.44-32.88v-2.89c0-12.5,7.5-20.91,18.68-20.91,5.39,0,9.34,1.71,11.97,3.55,1.58,1.05,2.76,1.58,3.81,1.58,1.58,0,2.5-1.31,2.5-3.29v-.53h.66l2.63,48.8h-.66l-11.31-38.54c-1.45-5.92-4.6-8.94-8.15-8.94-4.21,0-6.97,4.87-6.97,13.94v2.63Z"/>
      <path class="cls-1" d="M871.22,397.22c0,8.68,3.95,19.73,10.65,30.51l5,8.02c7.36,11.44,11.44,23.28,11.44,32.75v3.02c0,12.5-7.37,20.91-18.68,20.91-5.26,0-9.34-1.71-11.97-3.55-1.58-1.05-2.76-1.58-3.81-1.58-1.58,0-2.5,1.31-2.5,3.29v.53h-.66l-2.63-48.8h.66l11.31,38.54c1.58,5.92,4.73,8.94,8.29,8.94,4.21,0,6.84-4.87,6.84-14.07v-2.63c0-8.55-3.95-19.73-10.65-30.51l-5-7.89c-7.37-11.57-11.44-23.41-11.44-32.88v-2.89c0-12.5,7.5-20.91,18.68-20.91,5.39,0,9.34,1.71,11.97,3.55,1.58,1.05,2.76,1.58,3.81,1.58,1.58,0,2.5-1.31,2.5-3.29v-.53h.66l2.63,48.8h-.66l-11.31-38.54c-1.45-5.92-4.6-8.94-8.15-8.94-4.21,0-6.97,4.87-6.97,13.94v2.63Z"/>
      <path class="cls-1" d="M908.83,334.22c0,8.68,3.95,19.73,10.65,30.51l5,8.02c7.36,11.44,11.44,23.28,11.44,32.75v3.02c0,12.5-7.37,20.91-18.68,20.91-5.26,0-9.34-1.71-11.97-3.55-1.58-1.05-2.76-1.58-3.81-1.58-1.58,0-2.5,1.31-2.5,3.29v.53h-.66l-2.63-48.8h.66l11.31,38.54c1.58,5.92,4.73,8.94,8.29,8.94,4.21,0,6.84-4.87,6.84-14.07v-2.63c0-8.55-3.95-19.73-10.65-30.51l-5-7.89c-7.37-11.57-11.44-23.41-11.44-32.88v-2.89c0-12.5,7.5-20.91,18.68-20.91,5.39,0,9.34,1.71,11.97,3.55,1.58,1.05,2.76,1.58,3.81,1.58,1.58,0,2.5-1.31,2.5-3.29v-.53h.66l2.63,48.8h-.66l-11.31-38.54c-1.45-5.92-4.6-8.94-8.15-8.94-4.21,0-6.97,4.87-6.97,13.94v2.63Z"/>
      <path class="cls-1" d="M849.53,586.23c0,8.68,3.95,19.73,10.65,30.51l5,8.02c7.36,11.44,11.44,23.28,11.44,32.75v3.02c0,12.5-7.37,20.91-18.68,20.91-5.26,0-9.34-1.71-11.97-3.55-1.58-1.05-2.76-1.58-3.81-1.58-1.58,0-2.5,1.31-2.5,3.29v.53h-.66l-2.63-48.8h.66l11.31,38.54c1.58,5.92,4.73,8.94,8.29,8.94,4.21,0,6.84-4.87,6.84-14.07v-2.63c0-8.55-3.95-19.73-10.65-30.51l-5-7.89c-7.37-11.57-11.44-23.41-11.44-32.88v-2.89c0-12.5,7.5-20.91,18.68-20.91,5.39,0,9.34,1.71,11.97,3.55,1.58,1.05,2.76,1.58,3.81,1.58,1.58,0,2.5-1.31,2.5-3.29v-.53h.66l2.63,48.8h-.66l-11.31-38.54c-1.45-5.92-4.6-8.94-8.15-8.94-4.21,0-6.97,4.87-6.97,13.94v2.63Z"/>
      <path class="cls-1" d="M887.15,523.22c0,8.68,3.95,19.73,10.65,30.51l5,8.02c7.36,11.44,11.44,23.28,11.44,32.75v3.02c0,12.5-7.37,20.91-18.68,20.91-5.26,0-9.34-1.71-11.97-3.55-1.58-1.05-2.76-1.58-3.81-1.58-1.58,0-2.5,1.31-2.5,3.29v.53h-.66l-2.63-48.8h.66l11.31,38.54c1.58,5.92,4.73,8.94,8.29,8.94,4.21,0,6.84-4.87,6.84-14.07v-2.63c0-8.55-3.95-19.73-10.65-30.51l-5-7.89c-7.37-11.57-11.44-23.41-11.44-32.88v-2.89c0-12.5,7.5-20.91,18.68-20.91,5.39,0,9.34,1.71,11.97,3.55,1.58,1.05,2.76,1.58,3.81,1.58,1.58,0,2.5-1.31,2.5-3.29v-.53h.66l2.63,48.8h-.66l-11.31-38.54c-1.45-5.92-4.6-8.94-8.15-8.94-4.21,0-6.97,4.87-6.97,13.94v2.63Z"/>
    </g>
  </g>
</svg>