<?xml version="1.0" encoding="UTF-8"?>
<svg id="Layer_2" data-name="Layer 2" xmlns="http://www.w3.org/2000/svg" viewBox="0 0 122.91 280.09">
  <defs>
    <style>
      .cls-1 {
        fill: #ff641d;
      }
    </style>
  </defs>
  <g id="Layer_1-2" data-name="Layer 1">
    <g>
      <path class="cls-1" d="M20.76,129.77c0,13.7,6.23,31.15,16.82,48.17l7.89,12.67c11.63,18.06,18.06,36.75,18.06,51.7v4.78c0,19.73-11.63,33.01-29.48,33.01-8.3,0-14.74-2.7-18.89-5.61-2.49-1.66-4.36-2.49-6.02-2.49-2.49,0-3.94,2.08-3.94,5.19v.83h-1.04L0,200.99h1.04l17.86,60.84c2.49,9.34,7.47,14.12,13.08,14.12,6.64,0,10.8-7.68,10.8-22.22v-4.15c0-13.5-6.23-31.14-16.82-48.17l-7.89-12.46C6.44,170.67,0,151.98,0,137.04v-4.57c0-19.73,11.84-33.01,29.48-33.01,8.51,0,14.74,2.7,18.89,5.61,2.49,1.66,4.36,2.49,6.02,2.49,2.49,0,3.95-2.08,3.95-5.19v-.83h1.04l4.15,77.03h-1.04l-17.86-60.84c-2.28-9.34-7.27-14.12-12.87-14.12-6.64,0-11.01,7.68-11.01,22.01v4.15Z"/>
      <path class="cls-1" d="M80.14,30.31c0,13.7,6.23,31.15,16.82,48.17l7.89,12.67c11.63,18.06,18.06,36.75,18.06,51.7v4.78c0,19.73-11.63,33.01-29.48,33.01-8.3,0-14.74-2.7-18.89-5.61-2.49-1.66-4.36-2.49-6.02-2.49-2.49,0-3.94,2.08-3.94,5.19v.83h-1.04l-4.15-77.03h1.04l17.86,60.84c2.49,9.34,7.47,14.12,13.08,14.12,6.64,0,10.8-7.68,10.8-22.22v-4.15c0-13.5-6.23-31.14-16.82-48.17l-7.89-12.46c-11.63-18.27-18.07-36.96-18.07-51.91v-4.57C59.38,13.29,71.21,0,88.86,0c8.51,0,14.74,2.7,18.89,5.61,2.49,1.66,4.36,2.49,6.02,2.49,2.49,0,3.95-2.08,3.95-5.19v-.83h1.04l4.15,77.03h-1.04l-17.86-60.84c-2.28-9.34-7.27-14.12-12.87-14.12-6.64,0-11.01,7.68-11.01,22.01v4.15Z"/>
    </g>
  </g>
</svg>