<?xml version="1.0" encoding="UTF-8"?>
<svg id="Layer_2" data-name="Layer 2" xmlns="http://www.w3.org/2000/svg" xmlns:xlink="http://www.w3.org/1999/xlink" viewBox="0 0 107.65 87.85">
  <defs>
    <style>
      .cls-1 {
        mask: url(#mask);
      }

      .cls-2 {
        fill: #f2ede7;
      }

      .cls-3 {
        fill: #fff;
      }
    </style>
    <mask id="mask" x="48.59" y="29.86" width="59.7" height="59.16" maskUnits="userSpaceOnUse">
      <path class="cls-3" d="M84.48,32.73c-.36.37-.72.73-1.08,1.1-.13.14-.26.29-.4.43-.14.17-.28.33-.42.5-.28.35-.56.69-.84,1.04-.36.52-.82,1-1.22,1.53l-.73.8c-.27.36-.61.7-.98,1.05-.12.12-.25.24-.37.36l-.81.71c-.88.6-1.66,1.55-2.55,2.13-.42.29-.83.57-1.25.85-.17.13-.33.27-.5.4-.24.17-.61.42-.73.59,0,.03.02.06.02.09.02,0,.03.01.05.02.41-.22.79-.55,1.23-.84.6-.39,1.15-.83,1.77-1.25.35-.3.7-.6,1.05-.91.38-.31.76-.61,1.14-.92.1-.1.21-.19.31-.29.67-.46,1.55-1.35,1.98-1.94.26-.28.51-.56.77-.84.62-.78,1.24-1.55,1.86-2.33.29-.32.58-.65.87-.97.14-.14.28-.28.42-.42.18-.18.36-.36.55-.55l.87-1c.25-.33.5-.66.76-.99l-.25-.26c-.24.32-.48.64-.72.95-.26.31-.53.62-.79.93ZM85.46,33.75l-.31.33c-.5.66-1.27,1.2-1.73,1.85-.21.26-.41.51-.62.77-.78,1.1-1.83,2.27-2.96,3.34-.28.27-.58.51-.88.7l-.59.48c-.39.26-.75.53-1.12.77-.34.22-.62.51-.98.75-.3.2-.56.46-.85.63-.11.06-.37.16-.44.29-.03.07.04.11.1.12.25-.13.53-.23.8-.4.53-.33,1-.82,1.51-1.14.37-.23.73-.48,1.11-.73.19-.16.39-.32.58-.48.51-.34,1.32-1,1.74-1.56.23-.22.46-.45.69-.67l.53-.58c.52-.66,1.03-1.32,1.55-1.99.16-.18.31-.36.47-.53.5-.66,1.29-1.2,1.79-1.86.24-.29.47-.57.71-.86.22-.28.43-.57.65-.85l-.25-.27c-.18.24-.36.48-.54.73-.32.39-.63.77-.95,1.16ZM75.31,39.92c-.48.33-.88.84-1.31,1.25-.14.14-.45.35-.4.5l.05.03c.28-.1.59-.43.86-.69.41-.39.82-.8,1.28-1.11,1.18-.81,2.13-1.99,2.9-3.04.28-.33.56-.66.84-.98.55-.7,1.09-1.41,1.64-2.11.31-.43.78-.78,1.09-1.18.08-.1.16-.2.25-.3l-2.32,2.21c-.35.46-.71.92-1.06,1.38-.36.42-.72.84-1.07,1.26-.68.94-1.69,2.08-2.75,2.8ZM59.42,54.46c.28-.24.57-.49.85-.73.27-.25.55-.5.82-.75.39-.38.79-.76,1.18-1.14.17-.17.34-.34.51-.51.37-.48.84-.91,1.16-1.36l-6.22,5.93c.47-.26.88-.79,1.35-1.12.11-.11.23-.22.34-.32ZM53.79,60.33c.09-.08.18-.17.27-.25.64-.44,1.06-1.11,1.68-1.6.46-.43.93-.86,1.39-1.28.14-.12.29-.25.43-.37.49-.37.99-.74,1.48-1.1.17-.14.33-.29.5-.43.17-.16.33-.32.5-.47.4-.35.81-.7,1.21-1.05l.5-.48c.42-.4.87-.8,1.19-1.23l.36-.38c.32-.43.71-.8,1.01-1.22.65-.95,1.43-1.86,2.1-2.82l-1.3,1.24c-.4.54-.79,1.09-1.19,1.63-.3.35-.59.7-.89,1.04-.44.47-.89.93-1.33,1.4-.22.21-.44.42-.67.64-.33.29-.66.58-.99.87-.26.24-.52.49-.78.73-.14.12-.28.23-.42.35-.43.31-.85.61-1.28.92l-.62.52c-.34.32-.69.64-1.03.97l-.38.35c-.26.18-.65.58-.84.83-.23.21-.46.42-.69.63-.34.3-.67.6-1.01.91-.17.14-.33.27-.5.41-.22.15-.44.3-.66.46l-1.42,1.35c.63-.39,1.29-.93,1.94-1.36.49-.32.9-.83,1.41-1.18ZM89.11,36.07c-.2.3-.39.6-.59.9l-.73.8c-.34.46-.68.92-1.02,1.39-.21.28-.72.78-1.02.99-.13.12-.26.24-.4.36-1.07,1.39-2.85,2.43-4.13,3.16-.41.3-.83.61-1.24.91-.53.32-1.07.56-1.6.82-.18.09-.86.38-.91.56.01.02.03.04.04.05.33,0,.67-.24.99-.38.61-.25,1.21-.57,1.83-.95.3-.23.6-.45.9-.68.28-.16.56-.32.84-.48.61-.35,1.11-.75,1.72-1.14s1.36-1.05,1.84-1.67c.11-.1.22-.2.33-.3.16-.15.33-.3.49-.45.17-.17.35-.34.52-.51.36-.48.67-.91,1.01-1.38.28-.31.56-.61.84-.92.44-.6.83-1.3,1.35-1.91l-.25-.27c-.13.18-.25.35-.38.53-.14.19-.29.37-.43.56ZM52.04,62.6c.83-.67,1.66-1.34,2.48-2,.11-.11.22-.21.33-.32.31-.3.62-.6.93-.9.79-.75,1.68-1.69,2.51-2.29.35-.32.71-.64,1.06-.96.56-.46,1.12-.92,1.68-1.38.49-.34.87-.7,1.35-1.15.2-.19.44-.39.59-.58.18-.19.35-.38.53-.57.78-1.04,1.6-1.98,2.31-3.01.24-.32.49-.63.73-.95.67-1,1.31-1.92,2.04-2.92l-1.18,1.12s0,0,0,.01c-.3.44-.59.89-.89,1.33-.53.7-1.05,1.4-1.58,2.1-.53.78-1.2,1.46-1.78,2.24-.25.27-.5.53-.74.8-.13.12-.26.24-.39.36-.08.08-.16.15-.24.23-.34.27-.67.55-1.01.82-.64.54-1.28,1.09-1.92,1.63-.27.24-.55.49-.82.73-.83.57-1.74,1.56-2.56,2.35-.31.29-.6.66-.94.9-.07.07-.15.14-.22.21l-2.37,1.91c-.63.42-1.19.74-1.82,1.15-.54.36-1.04.95-1.53,1.42l.18.19c.54-.52,1.07-1.1,1.64-1.47.55-.36,1.06-.63,1.62-1ZM87.76,40.2c-.15.17-.31.33-.46.49l-.36.32c-.27.26-.54.51-.8.77-.68.89-1.48,1.95-2.52,2.64-.87.58-1.64,1.02-2.5,1.54-.61.37-1.19.85-1.81,1.15-.66.33-1.32.38-1.99.68-.58.26-1.13.59-1.72.92-.12.07-.53.27-.6.42-.02.04,0,.06.02.11.25.03.59-.25.83-.38.63-.32,1.26-.71,1.9-.94.56-.2,1.13-.27,1.7-.56.34-.17.64-.42.99-.63.53-.33,1.05-.67,1.58-1,.58-.33,1.15-.65,1.76-1.05.34-.22.58-.53.94-.78l.62-.58c.42-.55.85-1.08,1.25-1.56.19-.16.37-.32.56-.48.39-.27.92-.87,1.15-1.2,1.02-1.46,1.26-2.84,2.41-4.29l-.25-.27c-1.04,1.15-1.27,2.44-1.92,3.6-.21.37-.48.71-.76,1.07ZM86.38,38.33c-.32.43-.76.82-1.19,1.23-.15.14-.3.29-.45.43-.2.21-.39.43-.59.64-.16.21-.43.5-.67.66-.41.32-.82.64-1.23.96-.39.26-.75.5-1.13.74-.44.32-.88.63-1.32.95-.63.39-1.24.69-1.88,1.05-.31.18-.59.42-.91.63-.3.24-.6.48-.9.72-.64.4-1.29.79-1.93,1.19-.25.2-.5.4-.75.59-.4.27-1.29,1.25-1.29,1.53.04.03.06.04.1.02.14-.05.35-.34.45-.47.19-.25.48-.52.72-.69.16-.14.32-.28.48-.41.83-.57,1.58-1.01,2.38-1.53.4-.26.76-.66,1.17-.94.83-.55,1.59-.89,2.4-1.37.46-.32.92-.65,1.37-.97.47-.29.92-.59,1.41-.91.4-.3.79-.61,1.19-.91.28-.19.57-.53.74-.76.21-.22.41-.44.62-.66.12-.11.25-.23.37-.34.4-.38.8-.72,1.1-1.13.48-.66,1.14-1.29,1.64-1.97.47-.62.94-1.23,1.41-1.85l-.26-.27c-.49.65-.98,1.31-1.47,1.96-.48.66-1.12,1.26-1.59,1.89ZM86.8,35.55l-1.02,1.06c-.68.79-1.35,1.58-2.03,2.37-.2.22-.4.44-.6.66-.21.28-.57.6-.84.79-.12.11-.25.23-.37.34-.29.2-.49.49-.75.67-.35.25-.7.51-1.06.76-.2.16-.41.32-.61.48-.42.27-.84.49-1.25.72-.39.22-.74.52-1.14.76-.64.39-1.28.76-1.94,1.19-.28.18-1,.74-1.06,1.03.04.04.06.04.1.05.22-.13.43-.36.66-.52.48-.33.91-.68,1.39-.95.36-.21.72-.42,1.07-.63.27-.18.54-.37.81-.55.52-.3,1.05-.57,1.58-.91l.62-.49c.42-.3.84-.61,1.27-.91.22-.21.45-.41.67-.62l.68-.61c.51-.49,1.01-.99,1.4-1.52.16-.18.33-.36.49-.53.34-.4.69-.81,1.03-1.21.3-.4.75-.7,1.07-1.11.34-.42.69-.84,1.03-1.27.24-.32.52-.58.7-.91l-.25-.26c-.17.23-.34.46-.5.69-.39.47-.77.94-1.16,1.42ZM81.49,44.28c-.2.15-.39.3-.59.44-.53.35-1.01.69-1.53.9-.76.31-1.54.55-2.3.86-.82.34-1.61,1.01-2.41,1.48-.54.32-1.05.86-1.6,1.23-.16.11-.51.42-.55.56.04.04.05.04.08.05.64-.32,1.21-.93,1.86-1.36.81-.54,1.63-1.14,2.46-1.55.87-.43,1.78-.67,2.67-1.05.47-.2.91-.5,1.38-.81.21-.16.42-.32.64-.48.31-.19.63-.38.94-.56.28-.2.55-.4.83-.59.26-.17.52-.35.77-.59,0-.05,0-.1-.04-.13-.15-.08-.69.36-.88.48-.59.38-1.17.77-1.74,1.11ZM54.69,67.57c.35-.42.69-.84,1.04-1.27.3-.29.59-.58.89-.87.3-.32.65-.69.99-.92.11-.1.22-.2.33-.3.57-.57,1.15-1.14,1.72-1.7.21-.16.42-.32.64-.48.34-.22.65-.4,1.03-.65.32-.31.65-.61.97-.92.15-.13.3-.26.46-.4.39-.27.99-.89,1.26-1.24.28-.3.56-.61.83-.91.22-.3.66-.57.92-.74.23-.15.45-.39.68-.58l.8-.83c.28-.26.56-.52.84-.79.29-.35.58-.7.86-1.04.15-.14.3-.28.46-.42l.38-.35c.28-.19.66-.52.88-.81.17-.2.34-.39.51-.59.24-.32.56-.73.94-.98.66-.45,1.31-.74,1.98-1.18.31-.27.63-.55.94-.82.57-.39,1.06-.77,1.62-1.05.46-.23.92-.44,1.38-.6.34-.12.71-.17,1.07-.31.32-.17.65-.35.97-.52.55-.31,1.06-.72,1.64-1.07.47-.29.93-.56,1.42-.87.37-.24.71-.58,1.06-.83.11-.11.22-.22.33-.33.09-.09.18-.18.27-.27.21-.26.41-.51.62-.77.26-.36.65-.71.9-1.04.28-.27.57-.55.85-.83l.47-.51c.26-.35.52-.7.72-1.05.14-.25.36-.5.4-.76-.18-.21-.38.13-.49.31-.26.41-.55.81-.85,1.22-.16.17-.32.35-.48.52-.4.41-.81.82-1.21,1.24-.35.44-.7.88-1.06,1.32l-.51.57c-.11.09-.23.19-.34.28-.23.18-.46.36-.69.54-.58.38-1.06.71-1.61,1.04-.22.16-.44.32-.66.48-.6.38-1.21.78-1.83,1.03-.38.15-.77.21-1.13.34-.46.16-.92.39-1.37.62-.58.29-1.1.72-1.7,1.12-.32.27-.64.54-.96.82-.66.43-1.3.69-1.96,1.14-.4.27-.75.73-.98,1.07-.13.16-.26.31-.4.47-.52.69-1.42,1.12-1.95,1.82-.28.36-.58.65-.86,1.03-.27.26-.54.51-.8.77-.18.23-.62.71-.88.89l-.5.39c-.28.19-.61.43-.83.67-.74.83-1.57,1.83-2.49,2.5l-.76.72-.43.36c-.32.2-.64.4-.96.6-.23.15-.46.38-.66.52-.51.5-1.01,1.01-1.52,1.51-.26.23-.52.46-.78.69-.26.18-.79.67-.99.93-.22.22-.44.43-.65.65-.37.45-.74.89-1.1,1.34-.19.25-.69.67-.92.82-.27.26-.54.51-.8.77l.2.21c.41-.37.82-.74,1.23-1.11.21-.21.43-.42.64-.62ZM54.23,65.86c.44-.42.87-.83,1.31-1.25.63-.82,1.49-1.48,2.26-2.01.54-.37.92-.98,1.44-1.34.63-.43,1.14-.84,1.75-1.26.28-.23.56-.47.84-.71.58-.57,1.16-1.13,1.74-1.7.5-.35.95-.86,1.45-1.3.3-.27.68-.58.93-.9.35-.42.71-.84,1.06-1.26l1.25-1.25c.32-.3.65-.6.97-.9.23-.16.45-.45.59-.64.18-.21.36-.43.53-.64.64-.88,1.05-1.67,1.69-2.56.44-.61,1.2-1.1,1.69-1.72.25-.33.55-.61.81-.96.1-.11.21-.22.31-.33.63-.43,1.15-.63,1.76-.98.41-.29.82-.57,1.22-.86.47-.28.94-.56,1.4-.85.23-.18.45-.35.68-.53.28-.19.56-.39.85-.59.43-.29.72-.74,1.17-1.06.23-.16.58-.5.76-.74l.5-.51c.29-.35.58-.7.88-1.06.46-.54.92-1.07,1.38-1.61.29-.3.58-.6.87-.9.18-.2.36-.39.53-.59.45-.59,1.01-1.1,1.34-1.7l-.25-.27c-.25.34-.5.68-.74,1.02-.27.32-.55.64-.82.97-.28.29-.57.59-.85.88-.47.61-1.03,1.08-1.47,1.69-.42.58-.95,1.09-1.41,1.68-.2.2-.4.4-.6.6-.31.3-.63.6-.94.9-.13.12-.26.24-.4.36-.38.27-.75.55-1.13.82-.19.15-.37.29-.56.44-.48.3-.96.6-1.45.9-.35.25-.7.5-1.06.75-.27.16-.52.31-.8.42-.41.17-.97.39-1.37.91-.28.33-.56.67-.84,1-.12.13-.24.26-.36.38-.11.1-.21.2-.32.31-.34.32-.65.57-.89.9-.59.8-1.03,1.53-1.52,2.31-.34.43-.68.85-1.02,1.28l-1.07,1.03-1.06,1.07c-.18.15-.42.33-.58.54-.9,1.19-2.21,2.48-3.48,3.48-.4.4-.8.8-1.2,1.2-.11.1-.22.21-.33.31-.3.25-.6.5-.9.75-.52.36-1.04.73-1.56,1.09-.28.25-.56.5-.84.75-.16.15-.31.31-.47.46-.16.13-.31.26-.47.39-.33.23-.7.51-1,.73-.25.19-.48.44-.65.66l-.64.68c-.39.36-.78.72-1.16,1.08-.3.33-.59.66-.89.99-.4.52-.93,1.03-1.43,1.51l.19.2c.82-.82,1.68-1.62,2.34-2.49ZM57.98,64.55c-.18.14-.69.51-.74.69,0,0,0,.02.01.03.01,0,.03.02.04.03.27-.01.58-.37.85-.55.34-.23.91-.72,1.17-1.08l1.4-1.31c.03-.07.07-.1.08-.16-.02-.01-.03-.03-.05-.04-.17-.05-.61.45-.82.6-.66.47-1.28,1.27-1.94,1.8ZM90.35,37.06c-.31.6-.64,1.2-.98,1.82-.32.58-.57,1.13-1.01,1.73-.42.57-1.08.9-1.52,1.39-.18.19-.5.38-.56.59.02.04.03.06.07.09.18.02.4-.25.57-.37.33-.26.66-.52.99-.77l.41-.39c.57-.46.91-1.19,1.16-1.73.25-.45.51-.89.76-1.34.3-.55.53-1.15.99-1.7l-.27-.28s0,.01,0,.02c-.15.32-.46.64-.62.96ZM52.97,66.12c.1-.11.21-.23.31-.34.15-.14.29-.29.44-.43.25-.24.49-.47.74-.71.22-.19.45-.38.67-.58.46-.45.92-.89,1.38-1.34.17-.15.35-.3.52-.45.35-.25.7-.51,1.04-.76.46-.41.91-.83,1.37-1.24.5-.37.99-.73,1.49-1.1.19-.15.37-.3.56-.45.56-.54,1.13-1.08,1.69-1.62.43-.3.77-.68,1.22-1,.31-.22.72-.57.96-.89.3-.39.66-.75.89-1.14.33-.57.56-1.12.99-1.71.26-.37.72-.63,1-1.01.25-.33.5-.65.76-.98.3-.41.65-.74.91-1.14.45-.7.92-1.36,1.41-2.08.21-.31.63-.93,1.02-1.19.2-.16.39-.31.59-.47.61-.4,1.17-.83,1.78-1.13.2-.1.42-.12.62-.17.31-.07.63-.23.93-.42.4-.31.8-.61,1.21-.92.46-.29.92-.57,1.38-.86.23-.19.45-.37.68-.56.53-.36,1-.76,1.52-1.25.36-.34.72-.68,1.08-1.02.23-.25.45-.5.68-.75.45-.57.9-1.14,1.35-1.71.22-.25.44-.51.66-.76.4-.4.79-.8,1.19-1.2.45-.59.96-1.1,1.34-1.66l.36-.47-.25-.26c-.19.25-.38.51-.57.76-.32.39-.64.79-.95,1.18-.28.37-.73.78-1.06,1.07-.17.19-.34.37-.51.56-.31.41-.67.73-.96,1.14-.62.86-1.32,1.67-2.21,2.52-.32.31-.64.61-.97.92-.34.26-.68.52-1.02.79-.14.12-.28.24-.41.36-.57.39-1.1.72-1.66,1.09-.35.28-.71.55-1.06.83-.25.14-.51.28-.77.34-.26.06-.52.08-.78.21-.81.4-1.56,1.01-2.37,1.59-.4.29-.7.73-.93,1.06-.57.81-1.08,1.56-1.61,2.34-.54.69-1.08,1.38-1.63,2.07-.29.39-.78.69-1.03,1.06-.43.62-.69,1.19-1.05,1.79-.22.37-.56.7-.83,1.06-.2.27-.53.54-.78.71-.45.37-.91.74-1.36,1.11-.45.44-.9.88-1.35,1.31-.2.17-.41.35-.61.52l-1.55,1.14c-.51.46-1.02.92-1.54,1.39-.44.3-.81.64-1.27.95-.49.47-.98.94-1.47,1.42-.38.27-.73.6-1.09.95-.16.16-.33.32-.49.48-.25.24-.49.48-.74.73-.47.62-1.05,1.17-1.63,1.78l.19.2c.6-.57,1.16-1.12,1.58-1.69ZM53.34,67.8c.35-.33.7-.65,1.05-.98.29-.38.64-.7.94-1.11.43-.41.86-.81,1.29-1.22.3-.28.6-.56.9-.84.19-.16.38-.33.57-.49.44-.41.88-.82,1.33-1.23.28-.28.64-.5.93-.68.21-.16.42-.31.63-.47.28-.23.55-.47.83-.7.5-.34,1.13-.82,1.52-1.33.17-.18.34-.36.51-.54.19-.2.39-.39.58-.59.18-.16.36-.33.54-.49.24-.23.48-.45.72-.68.31-.31.62-.61.93-.92.28-.3.56-.6.84-.9.13-.14.25-.27.38-.41.29-.39.75-.89,1.19-1.2.14-.13.28-.26.42-.38.1-.09.19-.18.29-.27.32-.3.59-.6.82-.91.2-.22.39-.44.59-.66.19-.25.38-.49.5-.75.11-.24.17-.5.3-.74.18-.32.44-.58.69-.91.13-.17.32-.41.53-.55.21-.17.43-.34.64-.5.56-.34,1.11-.66,1.69-1.03.63-.45,1.26-.91,1.89-1.36.78-.47,1.54-.85,2.31-1.32.38-.23.7-.54,1.09-.79.39-.26.77-.53,1.16-.79.29-.23.57-.45.86-.68.46-.31,1.15-1.02,1.47-1.44.18-.19.35-.37.53-.56.21-.21.41-.41.62-.62.5-.57.99-1.13,1.48-1.7.23-.24.46-.49.7-.73.24-.29.48-.57.71-.86.29-.41.59-.83.88-1.24l-.25-.26c-.18.26-.37.52-.55.78-.28.41-.62.78-.93,1.2-.23.24-.46.48-.69.72-.56.64-1.11,1.28-1.67,1.92-.23.23-.46.47-.7.7-.17.19-.35.37-.52.56-.23.3-.64.76-.98,1l-.89.74c-.75.55-1.51,1.1-2.26,1.65-.92.58-1.78,1.04-2.71,1.6-.46.28-.86.66-1.33.97-.42.28-.84.56-1.26.84-.56.32-1.27.65-1.83,1.34-.33.4-.75.85-1,1.29-.19.33-.26.67-.48,1.01-.4.63-1.03,1.15-1.5,1.77-.52.48-1.03.97-1.55,1.45-.32.34-.64.69-.96,1.03-.62.82-1.5,1.54-2.25,2.32-.68.7-1.51,1.32-2.06,2.04l-.32.28c-.32.22-.56.49-.85.69-.29.24-.58.49-.88.73-.43.31-.87.62-1.3.93-.44.41-.87.81-1.31,1.22-.65.46-1.27,1.12-1.92,1.73-.74.69-1.54,1.42-2.07,2.13-.25.34-.65.59-.95.89-.36.38-.72.77-1.09,1.15l.2.21c.35-.33.71-.66.98-1.03ZM52.2,65.16c.17-.18.34-.37.51-.55.39-.37.78-.73,1.16-1.1.54-.52,1.07-1.04,1.62-1.41.3-.26.59-.51.89-.77.2-.2.4-.4.6-.6.2-.26.51-.51.75-.69.33-.25.6-.62.94-.86.61-.46,1.23-.93,1.84-1.39.4-.27.7-.68,1.08-.94.43-.29.83-.7,1.28-1.01l.38-.34c.36-.25,1.02-.85,1.28-1.19.23-.28.47-.56.71-.84.25-.37.43-.74.65-1.1l.99-1.39c.44-.65,1.08-1.18,1.53-1.82.6-.86,1.12-1.66,1.68-2.5.38-.56.89-1.02,1.32-1.6.27-.27.55-.54.82-.81.35-.31.67-.73,1.05-.99.61-.42,1.14-.81,1.74-1.2.28-.19.64-.52.84-.72.31-.32.71-.66,1.1-.92.19-.16.39-.33.58-.49.13-.12.26-.24.39-.36.43-.43.97-.84,1.3-1.31.38-.44.76-.87,1.14-1.31.59-.8,1.22-1.5,1.79-2.28.33-.45.79-.81,1.14-1.27l.75-.74c.2-.23.41-.46.61-.68.35-.47.73-.91,1.05-1.37l-.25-.26c-.23.31-.45.61-.68.92l-.85,1.02-1.3,1.32c-.29.34-.58.68-.87,1.02-.44.58-.89,1.16-1.33,1.74-.52.61-1.04,1.23-1.56,1.84-.19.2-.38.4-.57.61-.19.18-.38.35-.57.53-.14.13-.27.25-.41.38-.31.26-.62.51-.93.77-.56.38-1,.99-1.54,1.35-.84.56-1.58,1.02-2.44,1.83-.2.2-.41.4-.61.6-.31.31-.62.63-.93.94-.38.5-.81.94-1.15,1.44-.48.72-.93,1.42-1.43,2.16-.43.65-1.09,1.21-1.56,1.87-.35.5-.75.98-1.09,1.5-.24.37-.42.75-.69,1.13-.29.42-.77.81-1.09,1.23-.21.27-.68.67-.93.84-.16.14-.32.28-.48.41-.42.33-.85.66-1.27.99-.24.21-.47.42-.71.64-.7.54-1.39,1.08-2.09,1.61l-1.56,1.44-.57.57c-.27.24-.54.48-.82.71-.58.4-1.13.95-1.71,1.5-.45.42-.91.85-1.36,1.27-.6.78-1.3,1.43-2.09,2.18l.19.2c.61-.58,1.22-1.1,1.69-1.73ZM52.81,65.37c.26-.27.52-.53.78-.8.32-.28.64-.57.96-.85.23-.22.47-.45.7-.67.57-.48,1.15-.96,1.72-1.44.63-.48,1.14-1.26,1.82-1.73.8-.55,1.57-1.2,2.3-1.74.52-.38.9-.85,1.42-1.21.4-.27.75-.71,1.17-1,.31-.21.87-.61,1.13-.96.3-.4.64-.74.89-1.13.19-.35.39-.71.58-1.06.16-.24.33-.48.49-.73.53-.79,1.36-1.47,1.92-2.26l.87-1.17c.32-.5.61-.97.95-1.48.37-.54.83-1,1.25-1.55.34-.45.99-.71,1.36-.93.28-.2.56-.41.83-.61.39-.25.77-.5,1.16-.75.41-.25.76-.59,1.18-.88.13-.12.27-.24.4-.36.66-.51,1.31-1.02,1.97-1.53l.7-.56c.37-.25.79-.72,1.04-1.05.24-.25.49-.51.73-.76.4-.53.87-1.01,1.23-1.52.4-.49.79-.97,1.19-1.46.15-.17.3-.33.45-.5.43-.44.86-.88,1.29-1.32.47-.59.95-1.18,1.42-1.77l-.25-.27c-.35.45-.71.91-1.07,1.36-.23.27-.47.54-.7.82-.29.29-.57.57-.86.86-.39.45-.77.89-1.16,1.34-.45.63-.97,1.18-1.45,1.83-.25.34-.64.78-.94,1.06-.39.35-.7.87-1.18,1.2-.84.58-1.51,1.31-2.35,1.88-.16.15-.33.29-.49.44-.44.3-.79.66-1.21.92-.43.28-.86.56-1.28.83-.26.19-.52.38-.78.57-.42.25-.98.41-1.39.93-.4.52-.88.99-1.23,1.51-.36.53-.68,1.04-1,1.55-.28.37-.55.75-.83,1.12-.53.76-1.33,1.42-1.85,2.18-.2.29-.4.58-.61.88-.21.37-.41.74-.62,1.11-.25.33-.5.65-.76.98-.43.58-.97.74-1.44,1.23-.47.5-1.03.93-1.55,1.28l-.93.82c-.65.48-1.29.96-1.94,1.44-.12.11-.24.22-.37.32-.29.29-.67.58-.94.88-.2.23-.46.52-.72.7-.3.26-.6.51-.9.77-.32.22-.62.48-.94.78-.18.17-.35.34-.53.51l-.63.56c-.24.23-.49.46-.73.69-.22.22-.43.44-.65.66-.47.61-1.08,1.16-1.7,1.75l.19.2c.69-.65,1.38-1.31,1.89-1.94ZM51.35,65.28c.14-.16.29-.32.43-.48.32-.44.92-1.15,1.41-1.48.18-.16.37-.32.55-.49.29-.28.59-.56.88-.84.22-.2.44-.4.67-.6.36-.3.72-.59,1.09-.89.47-.38.81-.83,1.3-1.16l.65-.59c.17-.16.34-.31.5-.47.54-.43,1.08-.87,1.62-1.3.26-.23.53-.46.79-.69.56-.38,1.21-.91,1.7-1.4.37-.35.74-.71,1.12-1.06.21-.26.43-.51.64-.77.58-.86,1.19-1.7,1.8-2.57.47-.67,1.11-1.27,1.55-1.93.52-.77.99-1.51,1.53-2.28.6-.86,1.55-1.65,2.19-2.5.17-.22.44-.45.65-.59.32-.22.56-.48.87-.67.33-.21.66-.37,1-.59.25-.16.59-.46.76-.63.24-.2.48-.41.72-.61.38-.31.76-.61,1.14-.92.17-.15.33-.31.5-.46.31-.22.65-.61.87-.9.26-.31.52-.62.79-.93.32-.37.63-.73.95-1.1.66-.9,1.36-1.68,2.04-2.59.3-.32.6-.64.9-.96.09-.09.18-.17.27-.26.17-.17.33-.34.5-.51.4-.53.88-1,1.23-1.51.11-.14.21-.29.32-.43l-.22-.23-.11.11c-.34.42-.69.86-1.02,1.31-.34.46-.85.83-1.2,1.28l-.61.62c-.28.33-.57.67-.85,1-.54.74-1.11,1.4-1.66,2.16-.57.68-1.15,1.36-1.72,2.04l-.57.6c-.21.19-.42.38-.63.56-.3.24-.6.48-.9.72-.14.13-.28.25-.42.38-.55.38-.98.93-1.51,1.23-.28.16-.56.29-.85.47-.33.21-.58.5-.92.74-.17.17-.35.33-.52.5-.69.92-1.7,1.78-2.34,2.69-.51.72-.95,1.42-1.43,2.14-.48.72-1.17,1.36-1.67,2.08-.53.76-1.07,1.53-1.6,2.29l-.62.76c-.13.13-.26.26-.39.4-.23.22-.46.44-.69.66-.2.18-.4.36-.6.54-.37.29-.75.58-1.12.87-.18.16-.37.32-.55.47l-1.42,1.14c-.19.17-.39.34-.58.51-.14.14-.29.27-.43.41-.49.43-.98.86-1.47,1.29-.15.14-.3.29-.45.43-.13.11-.25.22-.38.32-.14.11-.28.22-.42.32-.25.22-.49.44-.74.65-.27.26-.54.51-.8.77-.36.32-.71.63-1.07.95-.2.19-.4.38-.6.57-.62.82-1.45,1.62-2.32,2.34l.19.2c.3-.27.61-.54.91-.8.12-.11.25-.23.37-.34ZM50.93,64.75c.29-.21.76-.53.99-.84,0-.03,0-.06-.01-.09l-.04-.03c-.18-.02-.44.25-.62.37-.61.4-1.23,1.09-1.79,1.63l.18.19c.43-.41.82-.9,1.29-1.23ZM52.46,63.07c.98-.82,1.96-1.63,2.93-2.45.32-.29.64-.59.95-.88.63-.61,1.24-1.13,1.9-1.76.4-.39.81-.87,1.26-1.17.4-.32.81-.64,1.21-.96.76-.51,1.49-1.15,2.25-1.87.38-.36.75-.7,1.04-1.08.54-.71,1.06-1.37,1.53-2.07.29-.38.58-.76.87-1.14.33-.41.66-.82.99-1.23.54-.81,1-1.57,1.59-2.4.31-.43.74-.79,1.11-1.24.2-.19.39-.39.59-.58.37-.44.73-.87,1.1-1.3.39-.34.78-.67,1.17-1.01.57-.55.93-1.02,1.34-1.56.22-.29.57-.51.82-.68.3-.23.59-.47.89-.7.54-.45,1.06-1.06,1.41-1.55.31-.44.64-.83,1.02-1.23l-1.88,1.79c-.15.16-.3.32-.45.48-.15.15-.61.62-.79.7l-1.69,1.61c-.27.39-.7.88-1.13,1.18-.17.14-.34.28-.51.42-.54.56-1.07,1.1-1.55,1.74-.13.13-.25.25-.38.38-.33.34-.65.69-.98,1.03-.24.31-.48.62-.72.93-.41.65-.79,1.27-1.23,1.91-.47.6-.94,1.19-1.41,1.79-.6.85-1.25,1.7-1.87,2.5-.3.33-.61.66-.91.98l-.54.5c-.17.15-.34.3-.5.45-.42.29-.78.64-1.18.9-.51.33-.93.81-1.46,1.17-.4.38-.79.75-1.18,1.13-.95.88-1.9,1.76-2.85,2.64-.94.78-1.88,1.56-2.82,2.34-.59.39-1.09.66-1.68,1.04-.56.37-1.12.99-1.66,1.5l.19.2c.62-.6,1.14-1.17,1.81-1.59.5-.32.93-.53,1.44-.86ZM72.02,46.84c-.46.44-.75.89-1.03,1.33-.31.46-.61.92-.92,1.38-.43.56-.86,1.11-1.3,1.67-.2.28-.54.63-.85.83-.31.21-.55.58-.71.83-.09.15-.19.26-.23.4.01.01.02.02.03.03.03.01.04.02.07,0,.06-.01.15-.11.2-.17.09-.11.18-.21.27-.32.43-.59,1.11-1,1.53-1.58.37-.47.74-.94,1.11-1.41.54-.81,1.05-1.62,1.65-2.44.26-.27.53-.54.79-.81.24-.23.48-.47.72-.7.24-.17.53-.43.68-.66-.01-.04-.02-.07-.07-.1-.22.06-.38.27-.61.42-.43.29-.93.87-1.35,1.28ZM99.26,48.02c-.39.5-1.1,1.05-1.57,1.33-.79.47-1.55.77-2.33,1.05l-1.44.4c-1.3.47-2.59,1.05-3.89,1.92-.29.19-.7.6-.91.88-.12.15-.28.37-.46.49-.84.59-1.72,1.07-2.12,1.99-.07.16-.23.4-.19.56.03.01.07.02.1.04.29-.26.48-.76.74-1.11.19-.25.48-.41.69-.54.29-.2.57-.4.86-.6.51-.35.77-.92,1.3-1.29.56-.4,1.17-.79,1.78-1.1.43-.22.84-.36,1.26-.53.3-.13.6-.27.91-.4l1.39-.38c.74-.22,1.47-.54,2.22-.92,1.23-.63,2.5-2.11,3.43-3.19l-.27-.28c-.25.3-.49.6-.74.9-.25.26-.5.52-.75.78ZM86.11,59.19c.05-.09.1-.17.15-.26.2-.43.44-.89.88-1.31.26-.25,1.01-.56,1.08-.81,0-.02-.02-.04-.02-.05-.03-.01-.06-.02-.09-.04-.33.13-.65.29-.98.51-.17.12-.33.32-.42.46-.38.54-.67.99-.81,1.52.02.02.04.04.06.07.01,0,.02,0,.03,0,.04-.03.08-.06.12-.1ZM88.11,54.06c.23-.13.57-.26.75-.51,0-.02,0-.04,0-.07-.05-.06-.07-.05-.12-.06-.8.33-2.12,1.02-2.72,2.02-.25.41-.48,1.6-.4,2.02l.04.03s.04,0,.07,0c.01-.01.02-.02.03-.03.23-.69.18-1.41.67-2.07.47-.63,1.13-1.02,1.68-1.34ZM88.64,54.75c-.12.04-.28.25-.39.35-.26.25-.5.46-.74.57-.1.05-.14.12-.16.2,0,0,0,.01,0,.02.02.01.03.03.05.04.26.1.69-.32.98-.6.09-.18.4-.35.37-.53,0-.03-.02-.05-.04-.06-.02,0-.04,0-.07,0ZM85.17,61.23c-.36.34-.74.65-1.13,1.01-.13.13-.25.25-.38.38-.19.25-.39.48-.54.73-.31.56-.51,1.12-.77,1.69-.17.31-.33.62-.5.93-.23.48-.47.97-.67,1.45-.17.38-.33.75-.49,1.12-.1.22-.25.44-.25.66.01.01.02.02.03.03.03,0,.05.01.08.02.02-.01.04-.03.05-.04.13-.24.26-.48.4-.72.31-.67.61-1.35.92-2.02.21-.39.43-.79.64-1.18.33-.71.55-1.4,1-2.1.39-.6,1.13-1.16,1.71-1.71.25-.24.63-.54.72-.8-.02-.02-.03-.05-.05-.07-.03,0-.03-.01-.06,0-.16.04-.53.46-.7.63ZM105.26,52.51s.02,0,.03.01c.33,0,.68-.23,1.01-.37l-.23-.24c-.23.14-.67.26-.83.48,0,.04.02.08.02.12ZM98.32,47.84c-.16.14-.31.28-.47.42-.15.12-.29.24-.44.36-.4.26-.79.51-1.18.68-.66.3-1.28.52-1.93.75-.32.09-.63.18-.95.27-.66.26-1.33.52-1.99.78-.51.2-1,.48-1.5.79-.3.23-.59.46-.89.69-.28.14-.56.27-.83.41-.2.12-.4.24-.61.36-.71.37-1.4.75-1.95,1.57-.09.14-.18.23-.23.37-.07.16-.2.75.08.75.16-.17.1-.42.17-.61.12-.28.7-.99,1.03-1.22.34-.23.64-.38.96-.55.25-.15.49-.29.74-.44.26-.13.54-.21.8-.36l1.04-.79c.59-.35,1.21-.64,1.81-.88.49-.19.98-.38,1.47-.57.41-.12.83-.24,1.24-.36.7-.25,1.38-.5,2.09-.86.34-.17.68-.4,1.02-.63.13-.11.27-.23.4-.34.2-.19.4-.38.59-.56.19-.21.37-.43.55-.65.33-.42.66-.85,1-1.27l-.26-.27c-.34.43-.67.87-1.01,1.3-.26.3-.51.59-.77.89ZM100.79,53.93c-.18.07-.45.09-.59.29,0,.02.01.05.02.07.19.13,1.11-.23,1.36-.32.94-.34,1.91-.73,2.86-1.27.31-.17.56-.45.87-.67.18-.12.36-.25.53-.37l-.25-.26c-1.21.99-2.36,1.63-3.56,2.07-.41.15-.83.3-1.24.44ZM100.93,49.99c-.87.58-1.62,1.13-2.46,1.48-.69.28-1.38.56-2.07.72-.55.15-1.11.29-1.66.44-.92.33-1.8.81-2.73,1.34-.36.21-.81.6-1.13.97-.21.25-.53.48-.71.74-.43.61-.87,1.22-1.3,1.83-.19.26-.98.94-1.02,1.17.02.02.04.04.07.06.19.06,1.02-.81,1.17-1.01.65-.91,1.2-1.76,2.15-2.66.23-.22.4-.44.65-.6,1.02-.65,1.96-1.17,2.96-1.53.84-.23,1.68-.47,2.52-.7.78-.28,1.58-.57,2.35-1.01.5-.28.93-.64,1.45-.98.61-.39,1.28-.98,1.8-1.57l-.26-.27c-.22.23-.45.46-.67.69-.41.28-.72.64-1.11.91ZM101.07,48.61c-1.03.99-1.96,1.75-2.95,2.23-.8.39-1.65.68-2.46.87-.42.11-.85.23-1.27.34-.84.3-1.72.72-2.55,1.14-.48.25-1.2.8-1.59,1.31-.25.33-.58.56-.77.87-.35.55-.64,1.11-1.04,1.65-.21.29-.51.57-.79.78-.08.08-.16.16-.25.23-.15.1-.38.29-.5.45-.46.6-.86,1.12-1.29,1.71-.24.27-.48.55-.73.82,0,.06.03.09.09.11.16-.09.33-.26.5-.42.62-.59.98-1.17,1.41-1.76.5-.68,1.35-1.13,1.85-1.81.6-.84.97-1.7,1.84-2.5.32-.3.58-.61.93-.84.56-.36,1.09-.6,1.62-.85.38-.17.75-.35,1.13-.52.49-.18,1.02-.31,1.51-.43.88-.21,1.78-.52,2.64-.95,1.28-.63,2.65-1.84,3.87-3.12l-.27-.29c-.27.33-.61.63-.94.95ZM101.45,52.36c-.43.17-.86.33-1.3.49-.6.24-1.15.65-1.76.96-.53.26-1.05.43-1.58.62-.14.05-.5.09-.57.27.02.04.03.07.05.11.26,0,.54-.11.8-.19.44-.13.9-.25,1.33-.47.43-.25.85-.49,1.28-.74.69-.35,1.35-.56,2.03-.84.44-.18.82-.48,1.26-.75.58-.35,1.17-.75,1.73-1.29l-.25-.27c-.51.51-1.09.91-1.61,1.24-.5.31-.94.66-1.43.86ZM91.17,41.92c-.21.33-.52.6-.78.94-.1.09-.21.18-.31.27-.44.3-.8.59-1.21.8-.83.42-1.63.93-2.46,1.45-.27.2-.54.4-.81.61-.4.26-.78.49-1.2.78-.2.17-.39.33-.59.5-.51.36-1.01.72-1.52,1.08-.45.28-.88.47-1.31.69-.33.2-.67.4-1.01.6-.34.17-.68.26-1.01.34-.3.1-.59.2-.89.3-.41.13-.84.21-1.26.37-.85.32-1.69.77-2.53,1.3-.41.25-.76.64-1.17.92-.15.14-.3.28-.45.42-.43.41-.83.82-1.12,1.24-.51.73-1.04,1.37-1.43,2.1-.4.75-.71,1.5-1.13,2.25-.27.49-.64.93-.95,1.42l-.46.81c-.15.26-.36.51-.55.77l-1.24,1.47c-.17.22-.45.4-.59.61,0,.04.01.08.02.11,0,0,.02,0,.03.01.13.04.66-.41.8-.59.47-.6,1.14-1.23,1.56-1.87.25-.41.49-.82.73-1.23.42-.67.9-1.26,1.21-1.92.78-1.67,1.65-3.38,3.38-5.03,1.43-1.36,2.86-2.1,4.28-2.61.29-.08.59-.15.88-.23.31-.11.63-.21.95-.32.23-.06.45-.12.68-.18.39-.14.77-.44,1.17-.66.4-.2.79-.39,1.19-.59.41-.23.78-.6,1.21-.88.27-.19.54-.37.81-.56.23-.19.47-.38.7-.56.34-.21.69-.42,1.03-.63.43-.26.78-.6,1.19-.84.84-.48,1.65-.91,2.48-1.4.39-.23.76-.51,1.18-.9.12-.12.24-.24.36-.36.69-.92,1.11-1.73,1.56-2.66.16-.32.36-.64.54-.97.08-.15.16-.32.28-.47l-.27-.28c-.1.17-.2.34-.31.51-.22.4-.43.79-.65,1.19-.35.63-.61,1.26-1,1.88ZM91.99,42.04c-.24.42-.62,1.02-1.15,1.38l-.71.62c-1,.66-1.9,1.05-2.9,1.61-.4.22-.75.55-1.16.8-.34.2-.67.39-1.01.59-.22.17-.43.34-.65.5-.4.26-.8.53-1.2.79-.18.11-.46.23-.6.41,0,.03,0,.05,0,.08.02.01.03.02.05.03.17.05.62-.28.81-.39.34-.2.69-.42,1.04-.65.38-.25.7-.55,1.06-.75.75-.4,1.55-1.03,2.3-1.42.74-.38,1.45-.7,2.2-1.15.39-.23.7-.6,1.1-.92.23-.18.49-.43.66-.66.9-1.22,1.32-2.44,2.16-3.68l-.26-.27c-.24.3-.42.67-.6.98-.4.73-.74,1.38-1.14,2.09ZM92.99,43.32c-.17.22-.44.42-.63.55-.26.2-.52.41-.78.61-.15.1-.49.27-.53.44l.04.08c.24.09.97-.53,1.25-.72,1.62-1.05,1.93-2.52,2.87-3.76l-.27-.28c-.41.53-.69,1.17-1,1.72-.26.47-.58.87-.96,1.35ZM94.09,43.3c-.13.15-.26.3-.38.44-.31.39-.97.77-1.31.95-.65.35-1.24.68-1.89.95-.34.14-.69.29-1.03.43-.33.16-.6.4-.94.64-.36.25-.61.63-.95.87-.61.42-1.16.83-1.75,1.2-.35.22-.64.49-.97.67-.19.1-.89.35-.93.52,0,0,0,.01,0,.02.06.06.08.05.13.06.25-.11.54-.16.8-.29.38-.19.71-.47,1.09-.71.55-.33,1.06-.71,1.63-1.09.52-.35,1-.98,1.51-1.3.59-.36,1.16-.58,1.74-.82.57-.23,1.07-.54,1.64-.83.41-.21,1.2-.64,1.58-1.15.19-.25.39-.46.54-.7.4-.66.81-1.32,1.21-1.99l-.27-.28c-.22.37-.43.74-.65,1.11-.25.44-.52.86-.83,1.28ZM90.24,40.68c-.17.28-.53.88-.86,1.11-.44.3-.78.65-1.21.92-.73.47-1.43.91-2.18,1.39-.46.29-.87.76-1.32,1.05-.43.28-.83.63-1.28.93-.22.2-.44.41-.67.61-.24.19-.74.56-.9.78,0,.02,0,.05,0,.07.02.01.03.02.05.03.18.03.6-.38.8-.52.66-.45,1.25-1.1,1.89-1.49l.66-.46c.22-.19.44-.37.67-.56.39-.26.78-.53,1.17-.79.34-.2.67-.39,1.01-.59.25-.18.5-.36.75-.53.43-.27,1.01-.73,1.33-1.19.6-.88.99-1.7,1.37-2.58.2-.47.36-1,.73-1.45l-.25-.26c-.32.36-.47.81-.64,1.18-.36.79-.65,1.55-1.13,2.34ZM86.53,46.88c-.36.2-.72.4-1.09.61-.28.22-.56.44-.83.65-.4.25-.8.49-1.2.74-.38.19-.74.26-1.11.39-.42.16-.84.38-1.25.54-.12.05-.28.14-.15.28.49-.07.94-.32,1.45-.51.38-.14.76-.23,1.15-.42.46-.23.89-.53,1.34-.82.22-.18.45-.36.67-.54.42-.24.84-.49,1.26-.73.41-.31.82-.62,1.23-.92,0-.02.01-.05.02-.07-.04-.07-.07-.08-.14-.09-.44.2-.88.61-1.35.89ZM97.68,47.38c-.34.44-1.05.89-1.44,1.11-1.27.71-2.46.99-3.72,1.46-.49.18-.98.3-1.46.48-.35.13-.7.33-1.05.52-.47.25-.85.65-1.35.99-.31.21-1.09.66-1.26.96.02.04.02.06.06.09.23.02.56-.28.78-.41.25-.14.5-.33.76-.51.18-.14.35-.28.53-.43.41-.26.8-.51,1.21-.71.49-.24.99-.35,1.48-.52.36-.14.72-.28,1.07-.41.58-.19,1.16-.37,1.74-.56.68-.25,1.32-.6,2.02-1.06,1.25-.81,1.85-2.1,2.7-3.09l-.27-.28c-.37.51-.73,1.02-1.1,1.52-.2.3-.48.54-.71.85ZM96.17,47.66c-1.73,1.09-3.37,1.43-5.08,2.08-.45.17-.9.3-1.35.56-.27.15-.49.4-.77.59-.37.25-.7.54-1.1.81-.13.13-.26.26-.4.39-.4.39-.81.81-1.23,1.04-.34.19-.65.16-.98.22-.1.02-.31,0-.4.16-.21.35.74,1.09,1.04.58-.02-.03-.03-.06-.05-.09-.08-.02-.76-.04-.68-.31.02-.08.24-.07.29-.07.31,0,.61-.05.92-.22.26-.14.76-.53.99-.83.18-.18.36-.35.55-.53.45-.31.82-.63,1.25-.92.19-.15.38-.3.56-.45.51-.31.98-.46,1.48-.64,1.72-.65,3.38-.99,5.11-2.06,1.35-.84,2.02-2.25,2.84-3.31l-.25-.26c-.27.26-.46.62-.63.9-.47.74-1.23,1.79-2.11,2.35ZM96.58,46.24c-.11.14-.28.35-.45.47l-.45.36c-.37.24-.71.49-1.08.67-1.43.7-2.89.96-4.31,1.55-.82.33-1.64,1.03-2.46,1.53-.3.18-.55.37-.83.48-.35.1-.7.2-1.05.29-.3.13-.59.25-.89.38-.58.21-1.22.25-1.8.3-.22.02-.46-.02-.68-.05-.34-.05-.7-.04-1.04,0-.18.02-.42,0-.6.13,0,.04,0,.07,0,.11.02.01.03.02.05.03.16.06.38,0,.55-.01.25,0,.49,0,.74.01.73.1,1.23.06,1.96-.05.29-.04.61-.07.9-.17l.98-.42c.45-.16.93-.23,1.4-.46.16-.11.32-.21.49-.32.79-.47,1.62-1.17,2.41-1.49,1.78-.73,3.5-.96,5.33-2.12.95-.6,1.71-1.66,2.24-2.5.19-.29.38-.63.62-.9l-.25-.27c-.29.29-.52.75-.73,1.07-.3.48-.65.87-1.03,1.37ZM95.24,44.4c-.15.2-.33.44-.57.61l-.61.45c-.5.29-1,.5-1.49.74-1.07.52-2.08,1-3.14,1.43-.46.17-.93.35-1.39.52-.43.21-.82.53-1.28.82-.69.43-1.45.94-2.16,1.19-.39.14-.79.1-1.17.19-.28.06-.54.22-.82.33-.4.15-.81.27-1.21.35-.89.15-1.77.29-2.66.44-1.2.26-2.36.67-3.58,1.39-.52.31-.96.68-1.44,1.14-.15.15-.3.3-.46.45-.08.07-.15.15-.23.22-.23.27-.47.54-.7.81-.43.62-.77,1.19-1.09,1.78-.26.42-.52.85-.78,1.27-.13.3-.27.59-.4.89-.16.34-.34.67-.5.99-.24.51-.59,1-.95,1.49-.15.2-.5.43-.45.64.12.07.4-.17.51-.32.13-.15.27-.31.4-.46.28-.41.56-.81.75-1.23.32-.68.64-1.35.97-2.03.23-.37.46-.74.69-1.11.19-.35.39-.71.58-1.06.56-.91,1.8-2.29,2.8-2.94.78-.51,1.49-.89,2.26-1.16,1.66-.6,3.33-.67,4.98-1.06.45-.11.87-.39,1.33-.5.56-.13,1.1-.15,1.67-.41.63-.28,1.23-.68,1.84-1.05.36-.22.66-.5,1.01-.67.71-.35,1.46-.57,2.19-.87.93-.37,1.82-.83,2.77-1.27.74-.33,1.6-.65,2.32-1.46.75-.85,1.11-1.73,1.75-2.57l-.26-.27c-.18.28-.35.56-.53.84-.29.5-.59.94-.96,1.45ZM93.82,44.73c-.88.57-1.76.94-2.66,1.39-.62.31-1.2.5-1.83.82-.22.12-.58.29-.74.54,0,.02,0,.04,0,.06.04.05.07.06.1.07.36-.19.76-.42,1.14-.58.35-.14.71-.28,1.06-.41l1.83-.91c.57-.28,1.14-.5,1.72-1.06.1-.1.2-.19.3-.29.36-.49.66-.88.92-1.35.22-.4.42-.85.74-1.22l-.27-.28s0,0,0,0c-.18.3-.36.6-.55.9-.38.7-.87,1.73-1.77,2.31ZM95.94,45.85c-.3.4-.97.82-1.3,1.01-.77.44-1.48.74-2.23,1.01-.38.12-.76.23-1.14.35-.37.16-.75.32-1.12.49-.42.17-.86.34-1.28.58-.54.3-1.05.77-1.6,1.09-.36.21-.71.38-1.07.51-.26.08-.52.15-.78.23-.3.12-.6.24-.91.36-.16.05-.99.24-1.05.33v.09s.01.02.02.03c.4.13,1.3-.26,1.74-.42.6-.23,1.21-.33,1.82-.64.63-.32,1.23-.89,1.87-1.24.52-.28,1.02-.49,1.52-.7.31-.14.62-.27.93-.41.28-.08.56-.16.84-.24.6-.2,1.18-.41,1.79-.69.65-.3,1.31-.65,1.95-1.26.12-.11.24-.23.36-.34.24-.32.5-.58.71-.9.34-.53.65-1.05,1.05-1.56l-.25-.27c-.37.45-.65.96-.95,1.44-.26.4-.6.74-.91,1.16ZM80.96,62.82c-.3.49-.61.99-.91,1.48-.19.41-.38.82-.57,1.22-.36.77-.79,1.49-1.23,2.25-.59,1.02-1.65,2.25-2.79,2.85-.73.39-1.47.75-2.2,1.02-.49.15-.99.31-1.48.46l-.97.33c-.77.18-1.54.34-2.3.65-.81.33-1.55.91-2.39,1.41-.6.36-1.2.9-1.81,1.26-.28.16-.73.35-.91.62,0,0,0,.02.01.03.02.05.05.05.08.06,1.69-.73,3.42-2.39,5.11-3.07.74-.3,1.49-.45,2.22-.63.58-.19,1.16-.38,1.74-.57,1.6-.58,3.08-1.06,4.72-2.63.17-.2.34-.39.51-.59.33-.47.64-.9.9-1.36.94-1.69,1.58-3.31,2.77-5,.51-.73,1.37-1.25,1.88-1.96,1.14-1.6,1.6-2.86.99-4.5-.16-.42-.49-1.18-1.03-1.58-.4-.3-.74-.56-1.13-.72-.71-.3-1.56-.41-2.28-.35-.31.03-.62.01-.93.06-1.32.19-2.84.6-4.12,1.89-.25.25-.5.5-.75.75-.22.28-.45.57-.67.85-.47.7-.86,1.39-1.16,2.1-.41.96-.67,1.93-1.12,2.9-.28.62-.59,1.17-1.04,1.8-.25.34-.84.79-.91,1.14l.03.03c.22.01.9-.73,1.08-.97.79-1.06,1.27-2.1,1.65-3.18.49-1.39.94-2.55,1.92-3.95,2.04-2.91,5.55-3.54,7.81-2.91.46.13.89.39,1.34.72.57.42.86,1.09,1.03,1.56.57,1.56.1,2.76-1.02,4.29-.58.78-1.58,1.48-2.06,2.23ZM68.79,81.29c.37-.26.75-.51,1.12-.77.61-.39,1.16-.84,1.76-1.15.83-.43,1.64-.74,2.45-1.08.31-.15.63-.3.94-.46.77-.35,1.58-.73,2.36-1.12.8-.4,1.55-.99,2.32-1.49.23-.19.47-.37.71-.56.15-.14.3-.28.45-.42.5-.48.88-.92,1.22-1.4.47-.66,1-1.24,1.38-1.88.28-.5.56-1.01.83-1.51.17-.41.34-.81.52-1.22.16-.29.31-.57.47-.86.21-.45.41-.9.68-1.36.26-.38.52-.76.78-1.13.43-.64,1.07-1.18,1.57-1.83.29-.38.92-.78,1.25-.98.62-.38,1.17-.78,1.79-1.24.37-.32.74-.65,1.11-.97.47-.32.9-.63,1.35-.93.39-.36.78-.72,1.16-1.08.54-.37,1-.72,1.52-.98,1.07-.54,2.1-.78,3.15-1.02.89-.23,1.78-.46,2.67-.69,1.68-.42,3.32-1.25,5-1.89l-.27-.29s.01.02.02.02c-1.82.68-3.59,1.57-5.4,2-.61.16-1.23.32-1.84.48-1.25.29-2.44.56-3.72,1.2-.47.24-.86.56-1.36.91-.35.33-.7.65-1.05.98-.52.35-.99.73-1.54,1.1-.37.33-.73.66-1.1.99-.26.19-.51.38-.77.57-.61.36-1.3.75-1.86,1.32-.15.15-.31.29-.46.44-.47.61-1.05,1.14-1.45,1.74-.29.43-.58.86-.87,1.28-.24.43-.42.85-.62,1.27-.16.31-.33.62-.49.93-.2.45-.38.9-.59,1.36-.49,1.04-1.19,1.96-1.94,3-.23.32-.5.58-.77.93-.11.14-.29.35-.44.46l-.38.35c-.23.19-.46.38-.69.56-.78.51-1.58,1.13-2.4,1.55-.74.38-1.53.77-2.27,1.08-.37.18-.73.35-1.1.53-.83.34-1.66.63-2.5,1.09-.95.51-1.85,1.21-2.79,1.83-.29.22-.57.44-.86.67-.64.41-1.31.88-1.92,1.45l.24.25c.65-.53,1.28-1.05,1.94-1.47.23-.18.46-.36.69-.54ZM69.87,82.64c.28-.23.55-.46.83-.69.57-.38,1.08-.85,1.65-1.19.71-.43,1.39-.78,2.09-1.12.66-.31,1.29-.68,1.96-1.07.14-.08.62-.32.7-.47,0,0,0-.02,0-.03,0-.03-.02-.06-.06-.07-.18-.06-.49.2-.67.3-.57.32-1.13.63-1.71.91-.88.43-1.74.84-2.64,1.39-.57.35-1.09.82-1.67,1.21-.21.17-.41.35-.62.52-.88.6-1.69,1.28-2.57,2.01l.23.24c.28-.23.56-.47.84-.7.55-.42,1.09-.83,1.64-1.25ZM70.39,81.19c.69-.44,1.3-.97,1.97-1.33,1.52-.81,3.09-1.4,4.63-2.15.57-.33,1.13-.66,1.7-.98.31-.22.62-.43.93-.65.52-.33,1.01-.73,1.53-1.22.15-.16.31-.31.46-.47.3-.4.56-.79.81-1.19.17-.25.34-.49.52-.74.05-.09.2-.23.07-.3-.01,0-.03,0-.04-.01-.24.2-.43.47-.59.7-.33.47-.63.88-.98,1.35-.18.24-.45.5-.69.67-.18.15-.36.31-.54.46-.3.21-.6.41-.89.62-.28.2-.56.39-.84.59-.68.41-1.41.86-2.12,1.17-1.27.57-2.54,1.14-3.81,1.71-.99.49-1.96,1.3-2.97,1.96-.21.16-.42.32-.62.48-.33.24-.65.49-.98.73-.46.3-.94.68-1.39,1.1l.23.25c.67-.55,1.34-1.1,2.04-1.57.55-.37,1.04-.84,1.58-1.18ZM69.72,83.78l1.32-1.05c.17-.14.33-.28.5-.41.55-.4,1.09-.81,1.64-1.21.96-.58,1.88-1.09,2.85-1.68.48-.29.9-.67,1.4-1,.21-.17.42-.34.62-.5.36-.25.73-.5,1.09-.75.29-.22.58-.45.87-.67.4-.25.76-.55,1.16-.84.15-.14.31-.29.46-.43.19-.24.38-.48.58-.72.32-.48.6-.96.87-1.44.17-.3.39-.56.53-.85.11-.27.23-.54.34-.8.22-.46.55-.87.76-1.32.19-.44.38-.88.56-1.32.15-.3.3-.59.45-.89.15-.33.26-.67.44-.99.3-.54.69-1.06,1.06-1.58.16-.19.31-.37.47-.56.34-.46.86-1.04,1.38-1.4.64-.43,1.23-.82,1.85-1.2.29-.24.59-.47.88-.71.53-.36,1.17-.76,1.61-1.35.11-.14.23-.24.27-.37-.02-.03-.03-.07-.07-.09-.14-.05-.35.19-.49.33-.38.36-.68.67-1.08.93-.42.27-.83.71-1.27.99-.58.38-1.16.75-1.76,1.16-.58.39-1.21,1.08-1.59,1.61-.2.28-.43.48-.6.75-.3.47-.66.95-.93,1.43-.15.32-.29.65-.44.97l-.44.86c-.17.41-.34.82-.52,1.23-.24.53-.63,1.03-.88,1.57-.12.28-.24.56-.35.84-.19.3-.38.6-.57.9-.24.42-.48.83-.77,1.25-.17.2-.34.4-.51.6-.12.11-.25.23-.37.34-.13.11-.26.22-.39.33-.27.18-.53.36-.8.54-.32.25-.64.5-.96.74-.34.23-.68.46-1.01.69-.24.2-.48.39-.71.59-.44.3-.81.64-1.24.9-.97.57-1.9,1.06-2.85,1.64-.75.46-1.44,1.1-2.19,1.61-.23.19-.45.37-.68.56-.46.31-.86.74-1.34,1.07-.39.27-.76.59-1.13.94l.23.24c.32-.29.66-.59,1-.82.25-.2.5-.41.75-.61ZM70.73,83.95c.37-.3.74-.6,1.11-.9l.6-.52c.49-.34.89-.8,1.41-1.14.37-.24.74-.44,1.1-.65.53-.34,1.06-.67,1.59-1.01.39-.29.77-.57,1.16-.86.73-.47,1.41-.95,2.12-1.41.31-.2.58-.53.89-.74.16-.13.31-.25.47-.38.23-.16.56-.39.76-.66.36-.48.76-.93,1.07-1.42.19-.32.37-.65.56-.97.2-.3.4-.59.59-.89.19-.35.31-.71.47-1.06.19-.34.38-.67.57-1.01l.45-.95c.14-.25.28-.5.42-.75.25-.48.4-.96.62-1.44.19-.41.49-.79.77-1.19.26-.37.66-.65.95-1.04.28-.37.56-.73.94-.98.54-.36,1.04-.63,1.58-.96.4-.24.73-.58,1.15-.86.26-.2.52-.4.77-.61.21-.15.53-.4.71-.64.18-.24.36-.44.5-.68.16-.29.25-.58.46-.87.3-.43.84-.86,1.24-1.12.55-.36,1.01-.73,1.54-1.02,1.05-.56,2.02-.7,3.05-.91.49-.11.99-.22,1.48-.33,2.04-.48,4.08-1.35,6.12-2.13l-.26-.27c-.57.22-1.14.45-1.71.67-1.54.62-3.06,1.19-4.6,1.53-1.15.25-2.32.37-3.45.8-.67.25-1.34.69-2,1.12-.56.35-1.32.94-1.72,1.54-.21.3-.28.61-.45.91-.12.22-.31.4-.47.62-.14.19-.38.35-.54.47-.33.26-.65.52-.98.78-.37.25-.66.55-1.02.77-.51.3-1,.58-1.51.92-.34.23-.68.62-.9.92-.33.44-.8.79-1.1,1.22-.26.37-.56.74-.75,1.13-.25.53-.44,1.06-.7,1.6-.11.2-.22.39-.33.59-.3.64-.64,1.24-.98,1.9-.2.38-.31.77-.51,1.13-.2.31-.4.61-.61.92-.16.28-.31.56-.47.85-.34.48-.69.95-1.03,1.43-.3.4-.81.76-1.2,1.03-.3.25-.6.5-.9.76l-2.01,1.34c-.49.36-.99.73-1.48,1.09-1.02.6-1.95,1.17-2.97,1.85l-.56.47c-.68.47-1.24,1.1-1.91,1.56-.21.19-.43.38-.64.57-.24.2-.48.4-.73.6-.38.26-.74.58-1.11.93l.22.23c.56-.47,1.12-.94,1.68-1.41.17-.15.34-.3.5-.45ZM69.47,78.91c.5-.3,1.01-.61,1.51-.86.8-.39,1.61-.64,2.41-.93.95-.35,1.91-.74,2.86-1.17.91-.41,1.79-1,2.7-1.59.33-.26.66-.53.98-.79.12-.11.23-.22.35-.33.24-.23.5-.45.68-.69.27-.36.57-.62.79-.97.51-.77.9-1.5,1.25-2.26l.44-.83c.26-.56.53-1.12.79-1.68.4-.7.8-1.39,1.19-2.09.49-.86,1.2-1.68,2.1-2.53.29-.28.59-.57.88-.85.49-.34.92-.67,1.39-.99.29-.23.57-.46.86-.69.14-.12.28-.25.41-.37.37-.26.85-.67,1.14-1.04.12-.11.24-.22.36-.33.33-.23.59-.51.9-.72.33-.27.67-.55,1-.82.41-.26.82-.53,1.23-.7.97-.4,1.96-.55,2.92-.9.3-.11.59-.22.89-.39.48-.27.89-.66,1.34-.85.56-.23,1.13-.4,1.7-.63.26-.11.5-.27.76-.41.66-.35,1.31-.81,1.98-1.37l-.25-.27c-.87.76-1.87,1.45-2.75,1.82-.55.2-1.09.41-1.64.61-.45.2-.88.58-1.35.85-.29.17-.6.29-.89.4-1.05.38-2.14.49-3.19,1.02-.42.21-.8.48-1.23.77-.15.13-.3.26-.46.4-.32.25-.64.5-.96.75-.36.35-.71.71-1.07,1.06l-1.5,1.3c-.62.42-1.13.85-1.74,1.27-.28.28-.56.55-.84.83-.21.2-.42.4-.63.6-.35.46-.76.83-1.06,1.27-1.04,1.51-1.81,3.02-2.51,4.53l-.4.74c-.34.73-.7,1.45-1.18,2.19-.21.33-.48.6-.74.94-.28.37-.72.84-1.12,1.12-.32.22-.55.51-.86.71-1.42.94-2.73,1.69-4.12,2.24-1.26.49-2.53.87-3.78,1.43-.94.42-1.83,1.09-2.79,1.64-1.12.63-2.39,1.42-3.51,2.47l.23.24c1.28-1.05,2.51-1.92,3.75-2.63.25-.17.5-.33.76-.5ZM96.78,53.34c-.47.11-.92.28-1.4.48-.6.25-1.19.51-1.79.88-.41.31-.81.61-1.22.92-.26.18-.62.57-.79.79-.25.32-.7.66-.98,1.03-.2.23-.39.45-.59.68-.2.26-.47.59-.77.81-.26.2-.56.48-.85.62-.32.16-.62.23-.96.46-.14.09-.26.24-.34.35-.1.11-.2.23-.3.34-.2.28-.4.56-.61.84-.5.7-1.26,1.31-1.67,2.01-.8,1.35-1.47,2.64-2.22,4-.22.45-.43.9-.65,1.35-.44.8-1.03,1.6-1.6,2.4-.21.3-.56.67-.87.88-.21.18-.42.35-.62.53-.54.37-1.04.76-1.59,1.05-.5.27-1,.5-1.49.74-.78.38-1.51.79-2.28,1.08-1.26.48-2.48.84-3.73,1.46-.64.31-1.24.76-1.88,1.17-.19.12-.56.34-.6.54.05.05.06.04.11.05,1.09-.56,2.17-1.41,3.25-1.85.92-.34,1.84-.67,2.77-1.01.84-.32,1.64-.75,2.49-1.17.54-.26,1.1-.52,1.64-.83.55-.31,1.04-.7,1.6-1.07.41-.28.8-.71,1.2-1.09.18-.23.36-.46.54-.69.48-.75,1.03-1.47,1.41-2.22.14-.31.28-.61.42-.92.32-.59.65-1.17.97-1.76.18-.36.35-.72.53-1.08.35-.57.69-1.15,1.04-1.72.31-.5.83-.9,1.21-1.4.3-.38.59-.76.89-1.14.11-.16.29-.41.48-.53.4-.28.73-.36,1.1-.57.25-.14.47-.37.73-.55.17-.17.34-.33.51-.5.1-.1.2-.2.31-.31.28-.31.56-.63.84-.95.19-.19.38-.39.57-.58.4-.52,1.04-1.07,1.54-1.4.32-.21.57-.46.88-.63.79-.45,1.6-.82,2.4-1.11.18-.06.87-.21.97-.36,0,0,0-.02,0-.03-.02-.03-.04-.06-.06-.09-.16-.05-.34.05-.5.09ZM66.1,79.09c.44-.3.77-.83,1.19-1.12.76-.52,1.42-.96,2.15-1.33.24-.13.47-.27.71-.4.79-.34,1.61-.54,2.42-.83,2.12-.79,4.19-1.76,6.29-3.44.47-.38.98-.97,1.28-1.39.41-.58.87-1.08,1.2-1.65.36-.63.6-1.23.9-1.86.33-.71.86-1.37,1.17-2.08.18-.41.24-.85.46-1.25.22-.39.7-.67,1.01-1.07.44-.52.88-1.04,1.31-1.57.18-.27.37-.54.55-.81.16-.25.36-.63.69-.84.27-.17.55-.14.82-.24s.51-.32.78-.51c.58-.4.93-1.1,1.25-1.55.33-.46.85-.87,1.29-1.3.33-.32.65-.72,1.03-.98.27-.18.51-.39.77-.53.32-.15.65-.29.98-.44.36-.15.68-.34,1.03-.46.68-.25,1.41-.35,2.1-.52.57-.14,1.12-.41,1.67-.63,1.41-.57,3.07-1.48,4.45-2.97l-.26-.27c-1.88,1.83-3.62,2.74-5.49,3.42-.75.27-1.52.42-2.28.6-.46.11-.88.35-1.35.55-.64.27-1.12.51-1.79.97-.31.21-.82.7-1.05,1l-.48.43c-.3.22-.68.66-.87.95-.27.4-.5.74-.82,1.16-.08.09-.17.18-.25.27-.3.21-.55.47-.84.58-.32.12-.55.04-.91.28-.38.26-.59.69-.76.98-.19.33-.4.63-.65.96-.31.36-.62.72-.92,1.08l-.44.46c-.08.07-.16.14-.24.21-.23.22-.46.44-.59.67-.26.46-.32.94-.53,1.4-.28.62-.75,1.2-1.05,1.83l-.76,1.67c-.25.46-.57.84-.91,1.31-.34.47-.75.9-1.15,1.37-.15.15-.3.3-.44.45-.43.3-.8.71-1.23.98-1.15.74-2.26,1.35-3.41,1.82-.76.31-1.53.62-2.28.89-.66.24-1.32.38-1.99.71-.94.47-1.75,1.03-2.69,1.67-.43.3-.76.8-1.19,1.08-.23.17-.46.34-.69.5-.57.37-1.13.78-1.69,1.32l.23.24c.42-.41.88-.75,1.32-1.03l.98-.72ZM71.51,78.54c1.31-.64,2.65-1,3.98-1.54,1-.41,2.01-.99,2.99-1.57.37-.26.73-.52,1.1-.77.23-.2.47-.4.7-.6.25-.24.5-.47.74-.71.15-.16.31-.32.46-.48.35-.47.74-.9,1.02-1.35.95-1.5,1.54-2.91,2.23-4.39.12-.21.25-.42.37-.62.3-.54.64-1.07.98-1.61.49-.78,1.06-1.51,1.88-2.29.25-.24.49-.48.74-.71l.62-.49c.53-.34,1.03-.68,1.58-1.05.38-.32.76-.65,1.14-.97.28-.25.55-.51.83-.77.98-.67,1.94-1.67,2.92-2.15,1.18-.58,2.36-.92,3.54-1.19.67-.16,1.33-.39,1.99-.54,1.23-.29,2.42-.9,3.65-1.36.59-.22,1.26-.37,1.84-.68l-.27-.28s.01.01.02.02c-.25.1-.51.21-.77.31-.55.2-1.13.38-1.69.61-.86.35-1.68.77-2.55.98-.85.21-1.67.49-2.53.7-1.22.29-2.44.66-3.66,1.28-.35.18-.62.45-.98.7-.57.44-1.14.89-1.71,1.33-.18.17-.36.35-.54.52-.44.38-.88.77-1.32,1.15-.27.2-.54.39-.81.59-.57.35-1.11.71-1.7,1.27-.16.16-.31.32-.47.47-.27.26-.54.52-.81.79-.35.47-.72.88-1.02,1.35-.54.85-1.07,1.69-1.54,2.55-.14.32-.29.64-.43.95-.14.29-.28.57-.42.85-.42.91-.87,1.79-1.46,2.72-.26.42-.62.75-.95,1.18-.22.28-.63.73-.94.95-.12.11-.24.22-.35.32-.38.26-.7.6-1.07.84-1.1.7-2.19,1.35-3.3,1.81-.65.27-1.3.51-1.95.75-.69.25-1.41.46-2.1.8-.82.4-1.6,1.01-2.45,1.52-1.24.75-2.46,1.64-3.71,2.68l.23.24c1.23-1.06,2.53-1.98,3.78-2.74.75-.45,1.45-1.02,2.18-1.38ZM66.23,80.02c.65-.42,1.24-.7,1.87-1.05.95-.54,1.81-1.16,2.73-1.54,1.04-.42,2.1-.76,3.14-1.16,1.23-.47,2.4-1.06,3.64-1.76.75-.43,1.48-.96,2.22-1.66.18-.17.36-.35.54-.52.16-.18.32-.36.48-.53.32-.43.65-.83.9-1.27.73-1.27,1.29-2.52,1.88-3.78.19-.33.37-.66.56-.98.24-.44.49-.89.76-1.33.33-.54.76-1.04,1.17-1.58l.61-.66.67-.73c.11-.11.22-.22.33-.33.48-.33.88-.66,1.34-.95.24-.19.47-.38.71-.57.32-.29.64-.59.95-.88.24-.17.62-.52.8-.75.15-.14.29-.29.44-.43.2-.26.52-.57.79-.75.59-.41,1.13-.92,1.71-1.27.57-.34,1.14-.69,1.71-1.03.39-.19.78-.32,1.17-.52.47-.24.9-.56,1.35-.78.7-.34,1.39-.57,2.07-.86.48-.2.93-.48,1.41-.76.49-.28.92-.68,1.42-1.03.21-.19.42-.38.63-.57l-.25-.27c-1.12,1.1-2.31,1.92-3.46,2.39-.43.17-.87.33-1.3.5-.44.18-.87.41-1.29.65-.27.17-.53.34-.8.51-.34.17-.67.29-1.01.43-.31.17-.63.34-.94.51-.51.29-.98.62-1.49.96l-1,.76c-.22.21-.45.41-.67.62-.16.17-.32.34-.48.51-.57.55-1.14,1.11-1.72,1.66-.42.29-.76.67-1.16.92-.41.26-1.09.63-1.47,1.13-.55.72-1.26,1.33-1.76,2.04-.56.8-1.03,1.55-1.45,2.32l-.43.75c-.72,1.51-1.35,2.94-2.31,4.45-.21.33-.49.64-.74.98l-.42.44c-.16.21-.37.42-.62.59-.34.23-.58.53-.9.74-1.52,1-2.93,1.74-4.43,2.33-1.19.47-2.38.85-3.58,1.35-.56.23-1.09.55-1.64.88-.35.22-.69.44-1.04.65-.34.17-.69.33-1.03.5-.35.18-.64.44-.99.66-.55.35-1.1.75-1.63,1.26l.22.23c.16-.13.32-.26.47-.39.46-.34.92-.68,1.38-1.03ZM67.43,77.15c.56-.37,1.05-.71,1.6-1.04.32-.19.58-.42.89-.57.5-.24,1.02-.39,1.52-.52.58-.14,1.17-.4,1.74-.61,1.23-.46,2.46-1.13,3.69-1.83.43-.25.81-.57,1.24-.87.13-.11.26-.23.39-.34,1.08-.78,1.5-1.96,1.87-2.85.32-.75.67-1.49.99-2.22.23-.46.46-.93.69-1.39.13-.33.27-.65.4-.98.19-.38.46-.75.71-1.12.57-.84,1.55-1.66,2.04-2.53.43-.76.52-1.54.88-2.31.13-.27.35-.52.55-.79.49-.64,1.3-.65,1.85-1.02.4-.27.58-.87.81-1.22.48-.71,1.61-1.71,2.31-2.06.36-.18.72-.32,1.08-.47.49-.2.94-.48,1.41-.65l1.86-.52c.82-.21,1.66-.6,2.47-1.06,1.1-.62,2.29-1.88,3.24-2.9l-.26-.27c-.2.23-.41.46-.61.68-.24.24-.49.48-.73.72-.68.69-1.46,1.32-2.18,1.69-.73.37-1.48.71-2.22.9-.56.16-1.12.31-1.67.47-.48.17-.94.44-1.45.65-.37.15-.74.28-1.11.49-.71.39-1.79,1.29-2.32,2.05l-.32.5c-.11.22-.19.55-.48.74-.61.41-1.35.35-1.9,1.09-.29.38-.55.73-.71,1.11-.28.67-.38,1.38-.75,2.04-.23.41-.63.74-.96,1.17-.36.47-.76.88-1.08,1.35-.27.4-.56.81-.77,1.23-.15.36-.3.71-.45,1.07-.22.48-.48.91-.68,1.38-.32.74-.67,1.48-1,2.24-.2.45-.36.91-.65,1.36-.19.3-.48.57-.73.86-.16.19-.39.41-.6.56-.45.31-.83.65-1.26.92-1.17.71-2.39,1.34-3.58,1.79-.49.18-.98.35-1.47.53-.57.2-1.15.31-1.74.55-.4.16-.71.44-1.13.71-.49.32-.98.63-1.47.95-.34.27-.68.55-1.02.82-.48.31-.91.53-1.37.8-.63.37-1.39.99-2,1.57l.23.24c.98-.96,2.03-1.55,2.99-2.14.42-.26.77-.67,1.2-.95ZM72.13,86.46c.15-.13.29-.27.44-.4.47-.44.95-.88,1.42-1.32.74-.63,1.48-1.26,2.22-1.88.72-.52,1.44-1.05,2.17-1.57.36-.33.71-.66,1.07-.99.46-.34.92-.68,1.38-1.02.4-.27.73-.63,1.11-.89l1.09-1c.4-.42.8-.85,1.19-1.27.15-.15.3-.3.44-.45.59-.77,1.38-1.39,1.81-2.17.27-.48.38-.98.59-1.47.16-.3.31-.6.47-.9.25-.54.55-1.07.89-1.6.53-.83,1.48-1.62,2.28-2.16l1.23-.99c.43-.31.86-.63,1.29-.94.57-.35,1.12-.61,1.73-1.02.36-.36.72-.71,1.08-1.07,1.19-1.12,2.34-2.49,3.59-3.23.72-.43,1.36-.61,2.06-.79.14-.04.66-.16.71-.31-.09-.21-.31-.08-.47-.04-.44.09-.87.2-1.31.33-.77.23-2.22,1.03-2.89,1.91-.31.29-.62.58-.93.88-.19.25-.41.51-.66.75l-.57.54c-.38.5-.94.95-1.42,1.22-.44.25-.87.47-1.33.76l-1.61,1.23c-.18.15-.37.31-.55.46-.83.57-1.79,1.34-2.38,2.21-.61.91-1.11,1.86-1.52,2.8-.21.49-.32.99-.63,1.48-.44.7-1.12,1.28-1.66,1.98-.15.15-.3.31-.44.46-.27.35-.73.69-1.01,1.07-.22.21-.44.42-.65.62-.34.23-.61.57-.92.78-.26.21-.52.42-.77.63-.43.31-.87.63-1.3.94-.13.12-.25.24-.38.36-.34.32-.67.66-1.02.89-.68.46-1.3.95-2,1.42l-.25.23c-.47.32-.79.72-1.25,1.04-.31.27-.61.54-.92.81-.12.11-.24.23-.35.34-.24.22-.47.43-.71.65-.19.18-.38.35-.57.53-.15.14-.3.28-.45.42-.38.26-.74.73-1.04,1.06l.22.23c.27-.29.55-.57.82-.86.23-.22.46-.44.69-.66ZM103.74,56.74c-1.06.14-2.12.33-3.17.52-.75.13-1.5.2-2.25.51-.3.12-.57.33-.88.54-.17.15-.33.29-.5.44-.51.35-1.22.88-1.61,1.45l-.77,1.13c-.24.26-.49.52-.73.77-.26.34-.65.73-1.01.95-.87.54-1.73,1.15-2.64,1.75-.4.26-1.03.75-1.35,1.16-.09.09-.18.18-.27.27-.2.25-.4.5-.6.74-.16.21-.33.26-.37.46.02.02.03.05.04.07.18,0,.52-.32.68-.53.41-.54,1-1.2,1.6-1.61.78-.53,1.5-1.13,2.28-1.59.47-.28,1.22-.62,1.66-1.19.31-.4.78-.76,1.06-1.17l.68-1c.1-.12.21-.23.31-.35.12-.15.28-.33.45-.44.64-.44,1.22-1.1,1.87-1.45.59-.31,1.2-.4,1.78-.5.7-.12,1.4-.23,2.1-.35.77-.14,1.53-.23,2.3-.34.41-.06.82-.12,1.24-.18,0,0,0,0,0,0l.42-.4c-.22.09-.5.1-.73.13-.53.07-1.05.14-1.58.21ZM80.41,80.68c-.39.27-.71.58-1.08.83-.33.31-.66.62-.99.93l-.87.64c-.18.15-.35.3-.53.45-.33.3-.66.61-.99.91-.29.25-.59.49-.88.74l-.31.3c-.32.3-.64.61-.97.91-.73.8-1.52,1.6-2.37,2.42l.2.21c.67-.64,1.52-1.33,2.02-2.01.19-.2.38-.4.57-.59.2-.18.39-.37.59-.55.2-.19.41-.38.61-.57.28-.24.56-.48.84-.72.5-.45.99-1.01,1.51-1.35.15-.1.35-.33.5-.34l3.59-3.42c-.32.29-.64.55-.96.77-.16.15-.32.29-.48.44ZM108.26,54.21c-.33.21-.83.3-1.18.43-.69.25-1.4.54-2.1.7-.3.07-.6.13-.9.2-.1.02-.29,0-.36.1-.03.05-.02.06-.02.11.19.14.79-.02,1.01-.07.7-.14,1.41-.35,2.12-.6.18-.07.74-.31.91-.3l.55-.52-.04-.04ZM102.83,56.19c-.74.11-1.48.25-2.23.4-.89.18-1.77.27-2.68.65-.73.31-1.48.99-2.19,1.47-.76.51-1.1,1.22-1.46,1.8-.19.31-.47.55-.71.88-.31.29-.63.58-.95.88-.22.18-.45.37-.67.55-.64.41-1.26.81-1.87,1.17-.67.39-1.51,1.22-1.99,1.86-.21.24-.42.48-.64.72-.46.64-.57,1.2-.91,1.81-.39.7-.75,1.37-1.07,2.06-.18.32-.35.65-.53.97-.39.83-.8,1.66-1.33,2.5-.25.4-.61.77-.92,1.18-.25.26-.49.53-.74.79-.62.81-1.61,1.59-2.4,2.09-.3.23-.6.46-.89.68-.66.43-1.33.85-1.99,1.28-.49.36-.98.72-1.48,1.08-.48.3-.95.59-1.45.92-.49.44-.99.87-1.48,1.31-.45.31-.86.69-1.31,1.04-.25.24-.51.48-.76.71-.43.38-.87.77-1.3,1.15l.21.22c1.23-.99,2.31-2.19,3.51-3.03.12-.11.24-.22.36-.33.46-.32.84-.79,1.27-1.07.43-.28.86-.55,1.29-.83.67-.44,1.23-.95,1.88-1.35.47-.3.95-.6,1.42-.9l.8-.62c.78-.51,1.93-1.41,2.58-2.25l.64-.68c.38-.5.81-.94,1.12-1.43.58-.92.99-1.81,1.42-2.72.12-.22.25-.44.37-.66.33-.7.71-1.38,1.1-2.1.27-.51.35-1,.69-1.51.19-.28.46-.5.68-.8.41-.53,1.08-1.26,1.66-1.64.4-.26.79-.49,1.19-.73.54-.33,1-.7,1.55-1.07.22-.2.44-.4.65-.6.44-.42.9-.83,1.17-1.26.24-.37.43-.74.7-1.11.33-.45.96-.86,1.35-1.12.3-.23.6-.45.9-.68,1.29-.79,2.45-.85,3.71-1.1,1.24-.25,2.44-.36,3.67-.54.41-.07.81-.14,1.22-.2.19-.05.37-.1.56-.15,0,0,0,0,0,0l.55-.53c-.28.15-.64.23-.93.3-1.13.26-2.23.35-3.35.51ZM101.8,58.4c-1.28.13-2.46.43-3.77,1.31-.29.2-.76.65-.97.93-.26.26-.52.51-.78.77-.43.59-.89,1.17-1.48,1.76-.97.97-2.05,1.42-3.03,2.02-.66.4-1.22,1.1-1.89,1.57-.37.26-.71.56-1.09.92l-.41.4c-.53.69-.99,1.31-1.36,1.99-.54.97-.86,1.97-1.4,2.93-.55,1-1.35,1.86-2.1,2.86-.32.43-.86.83-1.25,1.13-.3.27-.59.55-.89.82-.57.57-1.3,1.03-1.9,1.43-.56.37-1.06.97-1.6,1.32-.37.26-.73.52-1.1.77-.31.18-.62.38-.94.6l-1.24.98c-.66.59-1.32,1.18-1.98,1.77-.3.27-.6.53-.9.8-.12.11-.24.23-.35.34-.17.16-.35.32-.52.49-.34.32-.7.66-.93.92l.2.21c.31-.3.62-.61.93-.91.14-.13.28-.26.42-.39.17-.16.35-.32.52-.49.18-.16.35-.32.53-.48.33-.29.65-.58.98-.87.17-.16.35-.32.52-.49.35-.3.7-.6,1.05-.9.36-.28.72-.56,1.08-.83.31-.2.63-.4.94-.6.36-.25.71-.51,1.07-.76.41-.27.74-.72,1.18-1.02.62-.43,1.16-.88,1.81-1.32.39-.35.78-.71,1.16-1.06l.3-.26c.33-.23.78-.6,1.05-.95.22-.25.44-.5.66-.76.54-.74,1.11-1.39,1.53-2.14.33-.58.56-1.16.81-1.72.2-.41.4-.82.6-1.22.28-.57.69-1.12,1.09-1.68.46-.64,1.22-1.26,1.84-1.68.55-.37,1-.97,1.57-1.34.52-.34,1-.58,1.52-.88.48-.27.9-.64,1.4-.98.12-.11.24-.22.35-.32.59-.41,1.12-1.2,1.47-1.69.25-.33.65-.55.93-.91.17-.22.43-.5.67-.67.38-.26.7-.53,1.07-.71.65-.32,1.38-.54,2.04-.64.47-.05.94-.09,1.41-.14.45-.08.9-.17,1.36-.25,0,0,0,0,0,0l.38-.36-.76.11c-.6.11-1.19.22-1.79.28ZM54.94,68.21c.28-.37.61-.82,1.04-1.12.48-.33.93-.82,1.44-1.16.62-.42,1.18-.87,1.83-1.31.24-.16.75-.56.94-.81.44-.57.88-1.04,1.28-1.59.2-.21.39-.43.59-.64.12-.12.25-.24.37-.36.17-.23.48-.49.71-.65.1-.1.21-.2.31-.3.29-.28.57-.57.8-.87.19-.21.38-.42.57-.63.31-.41.83-.74.91-1.14-.04-.04-.05-.05-.09-.06-.18.13-.43.38-.59.59l-.57.55c-.37.42-.75.84-1.12,1.26l-.38.34-1.27,1.21c-.14.15-.28.3-.42.45-.34.43-.67.86-1.01,1.29-.11.12-.22.23-.33.35-.21.28-.63.59-.88.76-.21.17-.42.33-.63.5-.43.3-.87.59-1.3.89-.21.17-.41.35-.62.52-.7.48-1.42,1.18-1.95,1.88-.5.47-1,.94-1.5,1.4l.19.2c.4-.37.81-.74,1.21-1.12.15-.15.31-.3.46-.46ZM94.62,66.57c-.41.22-.81.42-1.23.69-.54.35-.97.78-1.52,1.17-.43.3-.94.72-1.27,1.15-.12.12-.24.24-.35.36l-.81.91c-.4.59-.7,1.15-.95,1.74-.16.37-.15.64-.47,1l.72-.69s-.05.04-.07.06c0,0,0-.01,0-.02.08-.19.16-.38.23-.57.18-.4.41-.79.67-1.18.25-.37.63-.66.92-1.04.37-.49.94-1.04,1.45-1.38.18-.15.36-.3.54-.45.61-.41,1.2-.92,1.79-1.21.33-.17.65-.36.98-.56.12-.07.29-.25.41-.24l.68-.65c-.3.14-.63.25-.95.44-.25.16-.5.32-.76.47ZM93.11,68.35c-.57.34-1.11.78-1.69,1.34-.18.17-.35.35-.53.52-.49.64-1.14,1.21-1.52,1.84-.14.24-.21.42-.42.65l1.05-1s0,0,0-.01c.69-.74,1.37-1.73,2.24-2.32.22-.15.67-.61.86-.62l1.44-1.38c-.21.13-.43.27-.65.41-.26.19-.52.38-.78.57ZM99.98,61.18c-.39.25-.78.71-1.05,1.07-.21.27-.77.65-1.07.85-.38.26-.67.68-1.03.91-.34.22-.67.48-1.02.62-.3.12-.61.14-.9.25-.26.09-.53.24-.79.39-.85.59-1.7,1.17-2.55,1.76-.2.18-.4.36-.6.54l-1.23.98c-.11.1-.21.2-.32.31-.47.45-.8.89-1.05,1.34-.38.68-.79,1.38-1.08,2.07-.17.41-.19.85-.38,1.26-.16.34-.52.6-.79.95-.29.38-.66.75-1.04,1.09l-.68.8c-.15.15-.3.31-.44.46-.19.25-.51.56-.78.74-.19.18-.38.35-.57.53-.41.36-.82.72-1.23,1.08-.52.36-.95.76-1.46,1.11-.19.16-.39.32-.58.48-.2.18-.39.37-.59.55-.51.44-1.01.89-1.52,1.33-.55.39-1.1.78-1.65,1.17l-.5.39-.66.63c-.5.48-1.02.99-1.52,1.46-.47.45-.98.9-1.34,1.37-.2.21-.41.42-.61.62l.21.23c.5-.48.97-.93,1.34-1.41.25-.23.49-.47.74-.7.19-.25.66-.72.92-.9.32-.3.64-.61.95-.91.21-.17.42-.35.63-.52.6-.4,1.14-.87,1.76-1.29.68-.61,1.36-1.22,2.04-1.83.33-.26.66-.52.98-.78.72-.48,1.67-1.26,2.29-1.91.51-.53,1.18-.94,1.59-1.48.25-.29.5-.59.75-.88.12-.12.24-.25.36-.37.16-.21.51-.47.68-.7.27-.36.69-.63.9-.98.28-.5.29-1,.49-1.49.2-.49.47-.94.74-1.43.22-.4.43-.81.73-1.23.3-.42.79-.87,1.17-1.13.23-.19.47-.38.7-.56.31-.27.62-.54.92-.82.46-.31.88-.61,1.34-.9.55-.35,1.02-.77,1.55-1.01.52-.23,1.01-.28,1.55-.56.34-.17.64-.43.99-.67.14-.13.27-.25.41-.38.17-.14.34-.28.52-.43.32-.22.62-.45.94-.76.25-.26.5-.53.75-.79.12-.1.23-.19.35-.29.28-.19.55-.35.82-.49.17-.08.33-.16.5-.24,0,0,0,0,0,0l.61-.58c-.07.02-.14.03-.2.05-.67.26-1.32.59-1.97,1.02ZM101.85,59.61c-.42.14-.85.28-1.27.42-.46.19-.86.49-1.34.82-.38.37-.75.73-1.12,1.1-.4.28-.93.75-1.25,1.16-.23.3-.76.68-1.03.85-.11.07-.35.18-.41.32-.02.05-.02.09.03.14.19.04.42-.16.62-.28.36-.22.7-.52,1.08-.87.2-.19.39-.37.59-.56.7-.49,1.28-1.34,1.99-1.81.39-.26.77-.5,1.17-.66.3-.1.6-.19.91-.29.33-.15.66-.3.99-.46l.68-.64c-.22.09-.44.18-.66.26-.33.16-.62.36-.95.49ZM99.34,62.65c-.25.23-.49.45-.74.68-.16.14-.32.28-.48.42-.47.32-.88.76-1.34,1.03-.59.35-1.15.41-1.72.69-.72.35-1.43.89-2.12,1.31-.71.43-1.34,1.08-2.02,1.58-.25.23-.51.47-.76.7-.1.1-.19.19-.29.29-.4.44-.73.77-.97,1.17-.34.57-.66,1.08-.89,1.64-.35.83-.42,1.6-1.12,2.44-.51.49-1.03.98-1.54,1.47-.07.09-.14.18-.22.27l2.66-2.54s-.06.05-.08.08v-.02c.09-.17.15-.37.2-.55.13-.35.25-.7.38-1.05.25-.59.59-1.18.97-1.77.3-.48,1.03-1.23,1.56-1.63.59-.45,1.19-1.08,1.84-1.51.57-.38,1.09-.73,1.65-1.05.33-.19.64-.45.97-.59.35-.12.7-.25,1.05-.37.12-.05.58-.34.69-.34l3.83-3.65c-.25.23-.5.44-.77.64-.24.22-.49.44-.73.66ZM101.54,57.8c-1.15.16-2.46.22-3.6.99-.19.17-.38.35-.57.52-.16.14-.32.28-.48.42-.38.27-.88.77-1.14,1.14-.24.34-.47.68-.71,1.01-.16.18-.32.36-.49.54-.18.23-.47.51-.71.68-.66.46-1.24.79-1.88,1.18-.48.29-.87.68-1.35,1.01-.64.43-1.44,1.01-1.97,1.71-.11.1-.22.21-.33.31-.34.32-.75.66-.98,1-.32.48-.54.95-.81,1.42-.28.51-.62.98-.83,1.48-.26.6-.44,1.25-.78,1.84-.25.45-.65.84-.97,1.3-.29.41-.56.78-.87,1.2-.23.3-.51.51-.8.79-.8.76-1.51,1.36-2.29,1.88-.26.21-.52.42-.77.63-.4.29-.81.58-1.21.87l-.67.54c-.33.19-.66.38-.99.58-.78.5-1.46,1.14-2.24,1.68-.31.27-.62.55-.93.82l-1.08.9c-.16.14-.33.28-.49.43-.14.13-.29.25-.43.38-.17.16-.35.32-.52.48-.41.4-.81.8-1.22,1.2l.2.21c.35-.34.69-.68,1.04-1.03.16-.15.31-.3.47-.45.24-.21.47-.42.71-.64.29-.2.46-.45.73-.63l.89-.74c.29-.25.57-.5.86-.75.75-.52,1.4-1.15,2.15-1.62.33-.19.66-.38.99-.58.21-.17.42-.35.62-.52l1.29-.95c.26-.22.52-.43.79-.65.43-.29.82-.61,1.27-.91.31-.29.61-.58.92-.86.27-.25.53-.5.8-.75.4-.53.75-.96,1.12-1.47.32-.45.69-.82.93-1.26.34-.61.51-1.26.78-1.86.19-.43.47-.82.72-1.27.3-.54.55-1.07.93-1.6.13-.19.5-.6.7-.75.19-.18.38-.35.56-.53.44-.57,1.09-1.07,1.63-1.42.52-.38,1.03-.77,1.55-1.15.61-.37,1.19-.69,1.82-1.1.15-.13.3-.26.45-.39.71-.49,1.25-1.41,1.69-2.02.27-.38.77-.87,1.17-1.14.32-.28.64-.57.96-.85,1.3-.86,2.61-.77,3.9-1.03.72-.14,1.42-.28,2.13-.38.21-.03.41-.06.62-.08,0,0,0,0,0,0l.38-.36c-.62.08-1.25.16-1.87.25-.59.09-1.19.26-1.78.34ZM57.68,70.87c.29-.3.58-.6.87-.9.16-.15.32-.3.48-.45.2-.17.4-.34.6-.51.21-.19.41-.38.62-.56.62-.43,1.24-1.03,1.9-1.46.91-.59,1.82-1.18,2.72-1.77.29-.23.59-.46.88-.7.5-.35,1.16-.87,1.56-1.41.45-.62.83-1.18,1.21-1.78.51-.8,1.04-1.53,1.41-2.32.15-.34.29-.68.44-1.01.24-.54.59-1.1.92-1.62.37-.59.83-1.09,1.29-1.7.42-.55,1.18-1.29,1.76-1.68.86-.57,1.7-1.08,2.56-1.4.72-.27,1.5-.45,2.24-.61,1.14-.25,2.25-.27,3.41-.74.29-.14.59-.28.88-.42.4-.17.8-.34,1.2-.58.38-.22.71-.56,1.11-.83.54-.36,1.07-.73,1.61-1.09.52-.35.92-.95,1.44-1.3.5-.33.95-.5,1.44-.77.31-.18.57-.5.9-.73.14-.13.27-.26.41-.39.31-.21.79-.66,1.01-.96.84-1.13,1.29-2.21,2.03-3.31l-.26-.27c-.28.3-.55.9-.72,1.23-.36.71-.77,1.4-1.27,2.08-.22.3-.54.56-.83.84-.44.42-.87.87-1.32,1.15-.49.3-.97.48-1.47.8-.45.3-.75.82-1.19,1.12-.26.19-.51.38-.77.57-.38.25-.77.5-1.15.76-.17.14-.34.28-.52.43-.32.22-.6.44-.92.6-.34.15-.68.29-1.02.44-.58.24-1.09.52-1.65.65-.52.12-1.04.18-1.56.26-.62.09-1.22.27-1.85.42-.33.09-.66.18-.98.26-.98.35-1.94.9-2.93,1.55-.33.21-.95.75-1.21,1.09-.18.24-.43.42-.59.63-.48.64-.97,1.17-1.36,1.79-.57.92-.96,1.81-1.38,2.71-.24.51-.58.99-.9,1.5-.52.83-1.03,1.59-1.65,2.43-.41.56-1.06,1.06-1.59,1.43-.28.22-.57.44-.85.67-.85.53-1.72,1.11-2.55,1.66-.56.42-1.12.84-1.68,1.26-.27.24-.54.48-.82.73-.33.23-.63.51-.94.81-.11.11-.23.22-.34.32-.24.32-.6.55-.85.87-.21.22-.42.43-.63.65-.36.36-.72.71-1.08,1.07l.19.2c.41-.4.82-.81,1.23-1.21l.5-.51ZM57.77,69.88c.23-.24.45-.48.68-.72.15-.19.38-.41.57-.56.31-.24.66-.6,1-.83.64-.44,1.28-.87,1.92-1.31.27-.21.54-.42.81-.63.5-.33,1.02-.62,1.5-1.12.32-.34.48-.72.73-1.06.17-.23.43-.37.61-.61.23-.3.48-.55.68-.83.26-.37.54-.67.77-1.03.2-.32.34-.63.51-.95.17-.23.34-.47.5-.7.16-.22.81-.8.68-.99-.04,0-.07,0-.11,0-.09.02-.29.22-.36.32-.24.31-.53.55-.75.87-.27.4-.45.8-.68,1.19-.22.39-.52.71-.8,1.1-.21.29-.42.59-.73.87-.24.23-.48.43-.65.67-.28.42-.53.96-1.08,1.33-.37.26-.75.52-1.12.79-.35.27-.71.55-1.06.82-.94.61-1.84,1.18-2.77,2.07-.25.24-.53.47-.72.72-.2.21-.4.42-.6.62-.14.14-.29.27-.43.41-.38.38-.76.77-1.14,1.15-.14.15-.29.3-.43.45l.19.2c.56-.57,1.12-1.14,1.68-1.7.19-.18.39-.37.58-.55ZM58.42,71.06c.3-.39.75-.9,1.19-1.2.28-.25.55-.51.83-.77.23-.19.47-.38.71-.57.6-.4,1.14-.86,1.77-1.26.5-.32.98-.58,1.47-.88.26-.2.52-.4.78-.6.36-.24.72-.49,1.08-.71.83-.5,1.53-1.5,2.35-2.06.28-.19.74-.71.76-.92-.02-.01-.03-.03-.05-.04-.02,0-.04,0-.07,0-.26.08-.45.47-.71.66-.35.23-.8.49-1.11.9-.33.43-.81.88-1.23,1.15-.35.23-.7.46-1.05.69-.28.22-.56.43-.84.65-.48.29-.96.57-1.44.86-.75.45-1.38,1.03-2.13,1.53l-.94.84c-.15.13-.29.26-.44.39-.13.12-.26.24-.39.36-.29.28-.6.58-.83.89-.27.27-.54.54-.81.81-.35.38-.7.76-1.05,1.15l.2.2c.35-.38.71-.76,1.06-1.14.3-.31.61-.62.91-.92ZM59.53,71.87c.09-.09.18-.17.27-.26.29-.28.58-.56.87-.84.72-.69,1.43-1.29,2.16-1.75.54-.35,1.06-.69,1.62-1.06.48-.32.89-.75,1.36-1.04.63-.38,1.23-.78,1.89-1.21.38-.24,1-.71,1.33-1.14.2-.23.39-.45.59-.68.29-.4.55-.75.76-1.14.42-.76.64-1.57.95-2.33.25-.59.49-1.16.75-1.73.26-.56.56-1.11.92-1.66.24-.3.48-.59.73-.89.57-.77,1.39-1.58,2.2-1.99.71-.36,1.39-.64,2.09-.78.84-.17,1.77-.37,2.6-.26.37.04.75.08,1.12.13.2.03.42.09.62.07.4-.03.85-.18,1.24,0,.25.12.45.46.6.67.2.21.39.41.59.62.12.14.19.36.35.39.02-.02.05-.03.07-.05.12-.16-.04-.28-.16-.45-.24-.35-1.06-.98-.87-1.28.13-.2.61-.16.76-.18.71-.09,1.14-.43,1.86-.79.17-.09.57-.25.62-.47l-.02-.03s-.06-.02-.09-.03c-.29.14-.63.28-.94.44-.36.18-.7.44-1.06.52-.25.06-.51.06-.77.09l-.82.17c-.42.05-.86.03-1.29.07-.28.02-.58-.05-.86-.09-.33-.04-.67-.07-1-.11-.31-.04-.67,0-.99.03-1.26.13-2.48.35-3.76,1.04-.9.48-1.83,1.39-2.47,2.26-.22.29-.47.53-.65.82-.39.62-.72,1.22-1,1.84-.25.54-.48,1.09-.71,1.64-.33.79-.57,1.6-1.01,2.41-.2.37-.5.7-.78,1.08-.39.52-.98,1.06-1.51,1.4-.3.22-.61.43-.91.65-.53.32-1.03.64-1.58,1-.39.3-.77.61-1.16.91-.64.42-1.27.84-1.93,1.26-.31.25-.63.5-.94.74-.45.43-.9.86-1.35,1.29-.54.52-1.07.98-1.47,1.52-.4.39-.8.78-1.21,1.18l.19.2c.44-.42.88-.84,1.31-1.25.29-.31.57-.63.86-.94ZM59.73,73.64l.96-.89c1.12-1.34,2.69-2.56,4.02-3.42.4-.3.79-.6,1.19-.9,1.07-.65,2.17-1.16,3.22-1.75.35-.2.65-.52,1.02-.77.43-.29,1.05-.75,1.39-1.21.7-.94.96-1.73,1.35-2.65.34-.7.69-1.39,1.03-2.09.38-.89.58-1.66,1.23-2.57.41-.58,1.13-1.15,1.67-1.42,1.52-.78,3.31-1.2,4.77-.38,1.02.57,1.35,1.73,1.21,2.51-.12.67-.52,1.23-1.01,1.91-.2.22-.4.45-.59.67-.33.43-.87.79-1.17,1.23-.39.56-.63,1.14-.94,1.69-.23.42-.54.81-.72,1.22-.19.44-.31.89-.52,1.34-.34.72-.96,1.51-1.48,2.21-.59.78-1.35.91-1.94,1.14-.26.1-.48.3-.74.46-.19.12-.43.22-.58.43.01.04.01.05.05.09.02,0,.04,0,.06,0,.18-.08.39-.16.58-.27.2-.13.4-.25.6-.38.29-.1.57-.2.86-.3.25-.1.49-.27.74-.44.69-.46,1.18-1.34,1.54-1.91.24-.39.49-.74.67-1.12.15-.39.3-.78.45-1.17.17-.39.46-.75.68-1.14.33-.6.58-1.2,1.03-1.81.43-.59,1.12-1.07,1.55-1.65.25-.34.55-.65.74-.99.48-.83.64-1.68.32-2.53-.16-.42-.51-1.01-1.02-1.34-.34-.22-.68-.37-1.02-.46-.71-.18-1.46-.16-2.18-.03-.56.1-1.14.26-1.7.53-.27.16-.54.32-.81.47-1.66,1.06-2.1,2.64-2.64,3.93-.28.67-.67,1.31-.97,1.99-.28.63-.46,1.26-.82,1.9-.2.35-.5.65-.78,1.02-.12.11-.25.21-.37.32-.25.2-.5.4-.75.6-.29.2-.52.46-.81.63-.41.24-.81.41-1.22.62-.68.39-1.36.78-2.04,1.17l-1.41,1.06c-.37.23-.72.5-1.1.75-.24.2-.48.39-.73.59-.31.21-.76.57-1.01.89-.19.19-.37.38-.56.57-.23.24-.46.48-.7.72-.25.23-.49.45-.74.68-.5.48-1,.96-1.5,1.44l.19.2c.32-.3.64-.61.95-.91.17-.16.34-.32.51-.47ZM59.77,70.7c.31-.3.62-.59.93-.89.21-.17.43-.35.65-.52.74-.49,1.44-1.05,2.2-1.55.36-.28.71-.56,1.07-.84l.75-.53c.66-.38,1.29-.77,1.97-1.23.36-.24.69-.61,1.03-.93.31-.3.62-.61.93-.91.56-.75.7-1.31,1-2.03.26-.63.49-1.26.76-1.88.16-.38.4-.72.6-1.1.31-.59.59-1.17.99-1.77.45-.67,1.13-1.3,1.8-1.93.38-.36.78-.71,1.18-.93,1.26-.72,2.5-1.05,3.76-1.24.3-.04.59-.08.89-.12.39-.07.77-.27,1.16-.33.44-.06.86-.09,1.31-.2.56-.21,1.11-.43,1.67-.64.67-.25,1.32-.39,2-.74.4-.2.75-.52,1.16-.78.52-.33,1-.65,1.52-.9.73-.36,1.46-.47,2.18-.74.78-.29,1.53-.7,2.32-1.03.41-.17.83-.4,1.24-.66.16-.12.31-.25.47-.37.15-.13.3-.27.45-.4.25-.32.52-.58.72-.89.36-.55.72-1.09,1.08-1.64l-.25-.27c-.23.36-.46.71-.69,1.07-.33.53-.73,1.01-1.15,1.54-.15.13-.31.27-.46.4-.22.15-.37.3-.58.43-.36.21-.72.38-1.07.54-.76.34-1.49.74-2.24,1.02-.78.29-1.54.42-2.33.82-.5.25-.95.58-1.46.9-.39.25-.71.54-1.1.73-.66.33-1.3.48-1.95.72-.56.21-1.13.5-1.7.63-.44.1-.87.12-1.3.2-.36.1-.71.2-1.07.29-1.58.28-3.09.47-4.7,1.41-.38.22-.76.54-1.11.88-.62.59-1.33,1.18-1.76,1.81-.22.33-.47.64-.65.97-.17.33-.34.67-.52,1-.24.44-.52.86-.7,1.29-.25.6-.49,1.21-.74,1.83-.29.7-.39,1.21-.94,1.94-.29.27-.57.55-.86.82-.46.45-.94.94-1.43,1.24-.68.43-1.3.78-1.99,1.24-.43.33-.87.66-1.3.99-.75.5-1.45,1.07-2.17,1.53-.2.16-.4.31-.6.46l-1.35,1.28c-.4.38-.81.74-1.1,1.13-.14.15-.28.29-.42.44-.38.38-.76.76-1.14,1.14l.19.2c.5-.5,1.01-1,1.51-1.49.33-.43.94-1.07,1.36-1.39ZM57.09,67.07c.37-.26.64-.62.99-.85.51-.37,1.02-.74,1.54-1.11.34-.22.95-.62,1.26-1.03.51-.67.92-1.23,1.44-1.9.12-.16.3-.31.45-.42.11-.1.22-.19.33-.29.37-.36.93-.67,1.28-1.13l1-1.21c.36-.54.72-1.09,1.08-1.63l.47-.56c.44-.58,1.21-1.02,1.75-1.54.12-.11.24-.23.36-.34.39-.48.78-.97,1.17-1.45l.72-.75.51-.53c.17-.21.46-.5.68-.65.33-.23.66-.45.99-.68.38-.25.71-.57,1.08-.78.5-.28.99-.4,1.49-.6.54-.28,1.07-.56,1.61-.83.76-.31,1.51-.39,2.28-.77.78-.39,1.5-1.02,2.26-1.47.38-.2.76-.41,1.15-.61.45-.3.89-.59,1.34-.89.47-.4.94-.79,1.41-1.19.68-.45,1.32-.86,1.99-1.28.14-.11.27-.22.41-.32.27-.18.53-.42.79-.68.1-.09.19-.18.29-.27.13-.15.25-.31.38-.46.28-.42.5-.85.71-1.27.15-.27.29-.54.44-.81.27-.59.54-1.26,1.01-1.82l-.25-.27c-.08.12-.16.24-.24.36-.2.33-.39.64-.54.96-.34.74-.74,1.46-1.14,2.2-.19.34-.6,1-1.04,1.3-.4.28-.72.65-1.1.89-.66.42-1.26.8-1.93,1.26-.55.37-1,.96-1.54,1.3-.38.25-.75.49-1.13.74-.45.25-.89.48-1.34.76-.66.4-1.27.93-1.95,1.27-.78.4-1.52.47-2.29.78-.51.2-.99.54-1.5.79-.5.24-1,.33-1.49.58-.45.23-.84.6-1.31.91-.29.19-.59.39-.89.58-.37.25-.96.85-1.21,1.18-.25.26-.51.52-.76.78-.43.52-.85.98-1.23,1.5l-.38.37c-.46.44-1.01.74-1.41,1.23-.11.11-.23.22-.34.32l-.58.7c-.36.53-.69,1.06-1.06,1.6-.33.4-.67.79-1,1.19-.14.19-.37.39-.54.51l-.36.32c-.27.19-.55.44-.79.67-.11.1-.22.21-.33.31-.37.49-.7.91-1.02,1.38-.17.2-.34.4-.51.61-.29.38-.93.78-1.27,1-.65.42-1.18.92-1.83,1.37-.22.19-.44.39-.65.58-.34.23-.64.52-.97.84-.13.13-.27.26-.4.4-.14.15-.29.29-.43.44-.5.47-.99.95-1.49,1.42l.18.19c.58-.56,1.17-1.11,1.75-1.67.48-.55,1.08-1.09,1.65-1.48ZM56.81,68.15c.16-.14.32-.28.48-.42.11-.11.23-.22.34-.32.3-.26.59-.52.89-.78.24-.18.48-.37.73-.55.48-.31.93-.6,1.43-.93.22-.2.43-.4.65-.6.5-.45.78-1.02,1.05-1.49.1-.18.26-.34.39-.52.2-.26.51-.45.73-.58.42-.26,1.08-.75,1.43-1.22.57-.78,1.02-1.5,1.54-2.27.24-.36.58-.66.87-1.04.13-.17.37-.37.53-.48.26-.21.52-.41.77-.62.28-.19.74-.54.98-.85.38-.49.68-.92,1.03-1.41.44-.61,1.06-1.14,1.62-1.72.26-.27.76-.55,1.08-.75.35-.23.63-.53.96-.72.45-.26.89-.42,1.33-.61.41-.21.81-.41,1.22-.62.81-.32,1.61-.5,2.45-.84.45-.18.88-.43,1.34-.72.29-.22.58-.43.87-.65.22-.15.71-.48.86-.69,0-.03-.02-.05-.02-.08-.01,0-.02-.01-.03-.02-.12-.04-.28.11-.4.19-.3.19-.57.43-.89.63-.32.21-.63.43-.95.64-.72.41-1.49.73-2.22.91-.77.18-1.48.57-2.28.96-.46.23-.92.36-1.4.65-.34.2-.63.51-.99.75l-1.04.71c-.27.18-.7.66-.87.88-.29.32-.59.64-.88.96-.37.49-.68.93-1.07,1.45-.16.15-.33.29-.49.44-.19.16-.38.31-.58.47-.38.26-.98.71-1.31,1.14-.29.38-.59.7-.84,1.08-.37.57-.75,1.14-1.12,1.7-.16.19-.32.39-.49.58-.14.12-.28.25-.41.37-.18.14-.35.28-.53.41-.32.2-.75.44-1.03.81-.35.46-.58.87-.88,1.32-.2.29-.48.53-.71.83-.32.42-.88.73-1.23.93-.42.24-.79.56-1.22.85-.53.36-.94.95-1.48,1.34-1.04.73-2.08,1.88-3.1,2.85l.19.2c.88-.84,1.8-1.9,2.7-2.51ZM55.59,70.16l.52-.53.82-.79c.26-.34.68-.73,1.04-.99.24-.2.48-.4.71-.6.88-.59,1.77-1.22,2.64-1.79.2-.17.4-.35.6-.52.34-.23.65-.51.98-.83.11-.1.22-.21.33-.31.18-.22.37-.43.55-.65.19-.28.38-.55.57-.83.28-.38.7-.68.96-1.04.5-.71.87-1.39,1.35-2.09.28-.41.67-.7.99-1.11.18-.23.47-.55.73-.72.37-.25.91-.65,1.02-1.03-.01-.02-.03-.04-.04-.05-.02,0-.05-.01-.07-.02-.17.15-.34.31-.51.46-.59.41-1.23.98-1.69,1.57-.2.25-.47.47-.65.74-.4.63-.81,1.25-1.21,1.88-.19.28-.46.52-.69.81-.12.12-.24.24-.36.36-.26.34-.46.66-.7,1-.2.23-.4.46-.6.69-.17.23-.44.42-.65.56-.15.12-.29.25-.44.37-.21.18-.43.36-.64.54-.84.54-1.7,1.16-2.53,1.71-.38.25-.66.62-1.06.89-.28.2-.64.55-.84.82-.3.29-.59.58-.89.86-.48.49-.96.98-1.43,1.47l.2.21c.34-.32.73-.67,1-1.01ZM57.83,68.84c.38-.36.7-.73,1.11-1.01.9-.62,1.68-1.2,2.56-1.79.55-.43,1.09-.85,1.64-1.28.1-.09.19-.19.29-.28.33-.32.6-.62.83-.93.22-.26.43-.53.65-.79.27-.28.54-.57.81-.85.72-.97,1.04-1.83,1.76-2.8.25-.34.66-.68.99-.9.47-.32.9-.9,1.16-1.28.32-.49.46-.95.74-1.43.18-.31.46-.58.67-.89.41-.58.98-1.26,1.65-1.8.24-.21.47-.41.71-.62.53-.36,1.03-.78,1.56-1.04,1.82-.9,3.64-1.24,5.48-2.16l.99-.59c.59-.32,1.15-.61,1.76-1,.38-.24.69-.62,1.08-.89.47-.31.94-.63,1.41-.94.44-.32.87-.64,1.31-.96.49-.31.95-.61,1.44-.86.55-.28,1.19-.62,1.73-1.19.57-.6.85-1.15,1.17-1.73.29-.52.57-.97.8-1.48.2-.44.37-.91.69-1.33l-.26-.27c-.13.14-.21.34-.29.5-.23.46-.44.9-.64,1.36-.18.39-.43.75-.65,1.15-.18.33-.34.66-.56.99-.17.19-.33.39-.5.58-.13.11-.25.22-.38.32-.37.25-.66.49-1.01.67-.7.38-1.33.81-2.05,1.28-.39.29-.78.58-1.17.88-.37.25-.75.5-1.12.75-.45.3-.83.76-1.26,1.04-.52.33-1.01.56-1.51.82-.38.23-.76.45-1.13.68-.7.35-1.42.63-2.12.89-.43.14-.86.27-1.29.41-.33.14-.65.28-.98.42-.32.13-.65.25-.97.38-.7.34-1.3.9-2.02,1.39-.22.21-.45.41-.67.62-.11.11-.23.22-.34.32-.42.42-.75.79-1.03,1.19-.27.39-.6.72-.82,1.1-.24.43-.33.85-.62,1.28-.18.27-.59.82-.88,1.02-.42.29-.98.76-1.29,1.18-.28.38-.55.74-.77,1.12-.29.52-.52,1.02-.92,1.57-.3.33-.61.65-.92.98-.35.42-.7.85-1.05,1.27-.17.18-.34.36-.51.53-.14.13-.29.25-.43.38-.47.36-.94.72-1.41,1.08-.61.42-1.23.83-1.84,1.25-.24.18-.48.37-.73.55-.35.33-.7.65-1.06.98-.56.54-1.12,1.09-1.68,1.63-.32.41-.66.79-1.07,1.19l.19.2c.45-.45.85-.87,1.22-1.34.51-.5,1.03-1,1.54-1.49ZM62.25,63.78s.03.03.05.04c.02,0,.04,0,.07,0,.08-.07.15-.14.23-.21.07-.08.14-.16.21-.24.24-.31.71-.67.77-.99-.02-.02-.04-.03-.06-.05-.01,0-.03,0-.04-.01-.33.17-1.16,1.21-1.23,1.46ZM65.61,76.81c.73-.42,1.37-1.04,2.07-1.33.43-.18.89-.29,1.31-.45.42-.16.84-.32,1.26-.48.34-.1.68-.19,1.02-.29.51-.15,1-.33,1.51-.52.86-.32,1.72-.67,2.58-1.11.54-.27,1.03-.63,1.57-.97.6-.37,1.4-1.01,1.85-1.65.96-1.37,1.48-2.71,2.11-4.1.27-.59.43-1.13.76-1.71.21-.32.41-.64.62-.96.1-.15.22-.28.25-.43-.02-.01-.03-.03-.05-.04-.02,0-.05,0-.07,0-.25.23-.4.46-.56.7-.23.35-.49.67-.66,1.03-.13.27-.2.55-.31.82-.25.54-.51,1.08-.76,1.63-.55,1.28-1.34,3.15-2.97,4.22-.91.59-1.75,1.19-2.65,1.56-.79.33-1.57.67-2.36.93-1.51.49-3.07.92-4.59,1.54-.74.3-1.39.95-2.15,1.37-.54.3-1.08.52-1.64.83-.61.35-1.24.94-1.82,1.49l.21.23c.62-.55,1.26-1.16,1.91-1.53.52-.29,1.02-.49,1.53-.78ZM62.6,75.71c.66-.45,1.22-.84,1.88-1.29.21-.17.42-.35.62-.52.8-.55,1.51-1.29,2.32-1.7.8-.41,1.55-.6,2.32-.92.37-.15.71-.4,1.08-.61.4-.23.8-.46,1.2-.69.88-.55,1.57-1.49,2.14-2.24.13-.17.32-.33.48-.44.4-.27,1.02-.84,1.31-1.22.5-.66,1.11-1.27,1.54-1.95.38-.6.64-1.22,1-1.85.91-1.59,3.51-3.15,3.13-4.78-.05-.21-.18-.39-.33-.6-.37-.54-1.27-.67-1.68-.63-.77.06-1.46.22-2.25.67-.28.16-.5.38-.79.58-.21.14-.52.4-.69.62-.28.37-.7.66-.98,1.04-.36.49-.67.92-.94,1.4-.24.44-.42.89-.62,1.34-.14.27-.28.53-.42.8-.27.59-.48,1.17-.82,1.76-.13.22-.32.41-.49.63-.14.13-.27.27-.41.4-.56.54-1.1.89-1.65,1.21-.49.33-.97.65-1.46.98l-.96.46c-.41.2-.81.45-1.22.7-.84.51-1.56,1.13-2.39,1.69-.25.21-.51.41-.76.62-.22.21-.43.42-.65.63-.27.28-.54.56-.81.84-.93.87-1.86,1.75-2.79,2.62l.19.2c.91-.85,1.81-1.71,2.72-2.56.2-.2.39-.4.59-.6.17-.22.59-.67.85-.84.27-.22.54-.45.81-.67.81-.54,1.52-1.15,2.33-1.65.33-.2.67-.39,1-.59.42-.21.84-.41,1.27-.62.5-.33,1.01-.67,1.51-1,.33-.19.65-.42.99-.64.16-.14.33-.29.49-.43.18-.18.37-.35.55-.53.19-.25.41-.47.55-.72.33-.58.55-1.17.81-1.75.15-.29.3-.57.45-.86.41-.88.77-1.62,1.42-2.53.82-1.14,2.24-2.29,3.3-2.68.38-.14.78-.19,1.16-.22.42-.04,1.21.03,1.6.61.51.77.11,1.39-.44,2.14-.2.22-.4.44-.6.66-.16.16-.31.33-.47.49-.17.17-.34.34-.51.51-.35.46-.68.83-.94,1.27-.35.61-.6,1.21-.98,1.81-.44.7-1.07,1.3-1.59,1.99-.48.64-1.24.95-1.74,1.61-.52.68-1.12,1.51-1.92,2-.4.25-.8.47-1.19.7-.4.22-.76.47-1.15.63-.76.31-1.5.48-2.28.92-.77.43-1.47,1.13-2.26,1.67-.28.23-.55.46-.83.69-.59.39-1.11.73-1.69,1.12-.19.17-.39.34-.58.51-.49.47-.98.93-1.48,1.4l.21.22c.47-.45.94-.89,1.42-1.34.18-.16.35-.32.53-.48ZM62.08,75.26c.52-.35.98-.58,1.52-.94.35-.3.71-.59,1.07-.89.11-.1.22-.2.33-.3.14-.13.28-.26.42-.39.6-.42,1.16-.88,1.77-1.22.77-.43,1.5-.66,2.25-.97.74-.3,1.44-.76,2.18-1.23.68-.43,1.52-1.31,2-1.94.16-.22.46-.46.65-.58.31-.21.75-.62.98-.91.09-.09.18-.18.27-.27.47-.63.98-1.21,1.36-1.86.23-.4.43-.82.68-1.22.34-.54.67-.99,1.09-1.55.21-.2.42-.4.63-.6,1.03-.98,2.17-1.96,1.37-3.01-.29-.38-.99-.37-1.36-.32-1.13.15-2.55,1.09-3.52,2.4l-.68.78c-.66.96-1.19,1.91-1.64,2.88-.29.63-.55,1.28-.9,1.9-.14.25-.35.47-.54.72-.39.52-1.18,1.06-1.64,1.34-.21.14-.42.27-.64.41-.23.11-.46.23-.69.34-.25.16-.49.32-.74.48-.58.29-1.16.54-1.76.91-.85.6-1.71,1.2-2.56,1.8-.17.14-.34.28-.52.41-.51.48-1.02.96-1.53,1.43-.29.22-.62.56-.83.83-.15.16-.31.33-.46.49-.56.53-1.12,1.05-1.68,1.58l.2.21c.44-.41.88-.82,1.32-1.23.19-.19.38-.37.57-.56.21-.22.41-.45.62-.67.12-.16.33-.37.5-.49l.42-.39c.36-.33.72-.67,1.08-1.01,1.07-.74,2.04-1.58,3.11-2.23.55-.33,1.08-.55,1.62-.82.24-.16.48-.31.72-.47.29-.15.58-.3.88-.44.23-.16.46-.31.7-.47.4-.25.76-.56,1.15-.93.12-.11.24-.23.36-.34.17-.23.36-.43.49-.65.38-.64.65-1.31.94-1.97.43-.95.97-1.88,1.6-2.81.18-.27.44-.48.65-.76.84-1.11,2.13-2.15,3.22-2.35.35-.06,1.02-.16,1.34.31.35.52-.04,1.02-.42,1.53-.11.11-.22.23-.33.34l-.66.63c-.23.22-.46.43-.69.65-.45.59-.82,1.07-1.16,1.64-.19.35-.39.7-.58,1.05-.37.66-.86,1.28-1.36,1.9-.28.35-.93.97-1.33,1.25-.19.13-.47.37-.63.57-.55.71-1.34,1.48-2.08,1.94-.58.36-1.14.73-1.73.97-.81.33-1.59.6-2.41,1.06-.7.39-1.36.91-2.02,1.42-.62.48-1.08,1.05-1.7,1.48-.5.34-.91.52-1.39.82-.28.18-.49.46-.77.65-.43.4-.87.79-1.3,1.19l.2.21c.42-.38.84-.76,1.26-1.13.23-.2.46-.39.69-.59ZM63.5,75.85c.51-.35.95-.64,1.47-.98.33-.25.65-.5.98-.75,1.01-.66,1.83-1.26,2.81-1.62.86-.31,1.77-.46,2.64-.66.38-.09.75-.26,1.13-.4.75-.28,1.47-.55,2.25-.94.39-.21.79-.42,1.18-.63.19-.11.33-.26.53-.4.13-.12.27-.25.4-.37.14-.17.28-.34.42-.51.55-.8,1.04-1.58,1.49-2.4.27-.49.44-.98.67-1.47.23-.5.55-.98.83-1.47.28-.48.61-.89.99-1.39.18-.19.36-.37.55-.56.17-.18.33-.35.5-.53.29-.38.62-.69.85-1.06.87-1.39.93-2.76-.06-4.19-.53-.77-1.5-1.1-2.07-1.21-1.55-.31-3.17-.06-4.74.83-.42.24-.81.54-1.25.96-.12.12-.25.25-.38.37-.61.81-1.14,1.5-1.51,2.29-.42.91-.73,1.82-1.11,2.74-.26.63-.49,1.29-.86,1.93-.18.31-.43.59-.67.9-.13.17-.33.37-.5.49-.25.17-.43.38-.66.52-.29.16-.58.32-.86.49-.28.12-.56.24-.85.37-.35.17-.67.48-1.03.7-.45.27-.89.55-1.34.82-.38.29-.76.57-1.15.86-.52.34-1.01.77-1.54,1.13-.26.2-.51.41-.77.61-.31.26-.62.51-.93.77-.11.1-.21.2-.32.31-.31.29-.58.54-.81.85l-.65.64c-.2.26-.63.69-.91.88-.2.2-.4.39-.61.59l.19.2c.71-.68,1.42-1.36,2.12-2.04l1-1.05c.33-.28.66-.56.98-.83l.83-.67c.58-.4,1.1-.86,1.67-1.23.38-.28.76-.56,1.14-.84l1.24-.76c.3-.21.61-.42.91-.62.31-.13.61-.27.92-.4.59-.29,1.16-.65,1.75-1.21.17-.17.34-.34.5-.51.22-.3.46-.57.63-.87.89-1.59,1.31-3.25,2.07-4.88.31-.65.75-1.23,1.24-1.88.43-.57,1.12-1.09,1.64-1.37,1.46-.79,2.92-1.08,4.35-.83.61.11,1.08.3,1.7.77.1.09.2.19.29.28.15.22.31.4.41.61.5.99.43,2.07-.1,3.05-.19.35-.46.67-.72,1.01-.18.2-.37.4-.55.61-.26.27-.52.54-.78.81-.38.5-.73.93-1.01,1.42-.27.48-.55.96-.82,1.44-.2.45-.4.9-.6,1.35-.17.29-.35.58-.52.87-.44.78-.93,1.52-1.6,2.29-.14.12-.29.23-.43.35-.51.33-.97.56-1.46.81-.7.36-1.34.59-2.02.85-.47.18-.91.38-1.38.49-.84.2-1.71.32-2.55.62-.97.35-1.84.99-2.84,1.64-.3.23-.59.46-.89.69-.58.39-1.07.72-1.64,1.11-.32.31-.65.61-.97.92-.46.42-.93.84-1.39,1.27l.21.22c.45-.41.91-.81,1.36-1.22.37-.35.63-.71,1-.97ZM65.97,77.43c.44-.25.83-.66,1.28-.93.42-.26.8-.47,1.22-.66.12-.06.39-.13.46-.29-.02-.03-.03-.05-.05-.08-.18-.05-.44.12-.62.19-.37.14-.74.33-1.12.56l-.67.5c-.26.18-.52.35-.78.53-.36.19-.74.34-1.11.55-.71.4-1.4.99-2.1,1.65l.21.22c.65-.64,1.37-1.22,2.05-1.6.41-.21.82-.42,1.23-.63ZM65.17,76.27c.74-.43,1.38-.99,2.1-1.39.76-.42,1.53-.66,2.27-.93.2-.07.41-.14.61-.21,1.94-.48,3.82-1.09,5.77-2.24.64-.38,1.68-1.06,2.21-1.81.26-.36.53-.69.74-1.05.55-.92.99-1.84,1.43-2.78.18-.41.36-.82.53-1.23.29-.52.64-1.03.98-1.53.49-.73,1.44-1.28,2.01-2.03.2-.27.43-.51.6-.78.44-.69.71-1.4.82-2.1.12-.79-.02-1.49-.32-2.3-.15-.42-.29-.83-.56-1.26-.24-.38-.64-.73-.98-.94-.15-.09-.31-.25-.47-.11l-.03.05c.03.19.24.27.4.37.28.18.61.49.81.79.78,1.24,1.05,2.61.74,3.83-.15.6-.45,1.18-.85,1.78l-.49.6c-.21.28-.75.83-1.06,1.03-.4.27-.85.88-1.05,1.19-.29.46-.58.92-.86,1.38-.58,1.21-1.1,2.45-1.8,3.68-.24.42-.55.81-.86,1.22-.12.13-.24.26-.35.39-.1.09-.2.18-.3.27-.13.12-.26.23-.39.35-.32.21-.62.45-.93.63-.82.48-1.61.92-2.42,1.22l-2.04.65c-1.21.44-2.45.64-3.68,1.24-.64.31-1.28.76-1.92,1.17-.32.22-.65.45-.97.67-.57.32-1.13.46-1.68.77-.58.33-1.2.93-1.76,1.46l.21.22c.55-.45,1.07-1.03,1.63-1.35.63-.36,1.25-.54,1.9-.93ZM74.54,69.06s.03.02.05.03c.27.09.99-.45,1.29-.69.07-.15.31-.36.41-.51.42-.64.94-1.25,1.26-1.87.12-.24.32-.49.32-.74-.04-.04-.06-.04-.1-.05-.36.33-.52.78-.74,1.15-.22.37-.54.69-.79,1.05-.14.21-.28.41-.42.62-.22.29-.58.51-.83.64-.16.08-.35.15-.45.3,0,.02,0,.04,0,.06ZM78.13,60.17c-.43.28-.77.76-.99,1.11-.71,1.14-1.4,2.23-2.16,3.36l-.73.93c-.34.46-.85.65-1.24,1.02-.57.54-1.04,1.15-1.68,1.56-.45.29-.88.65-1.34.89-.59.28-1.18.56-1.78.84-.54.27-1.04.6-1.59.95-1.08.68-2.05,1.32-3.14,2.35l-.78.79c-.08.1-.22.17-.21.27v.03s.05.03.07.04c.36-.15.79-.64,1.14-.96.11-.1.21-.2.32-.31.19-.16.38-.32.56-.49.42-.28.8-.61,1.22-.86.72-.43,1.45-.98,2.16-1.35.86-.44,1.69-.75,2.55-1.26.52-.31.95-.72,1.49-1.08.37-.37.74-.75,1.1-1.12.13-.11.26-.22.39-.33.29-.2.58-.43.87-.71.17-.2.34-.4.51-.59.29-.4.58-.8.87-1.2.69-1.1,1.33-2.19,2.17-3.3.09-.07.17-.15.26-.22.34-.23.61-.49.93-.7.63-.42,1.54-1.59.89-2.04-.23-.16-.52-.13-.76-.09-.63.11-1.32.49-1.96,1.1-.11.1-.22.21-.33.31-.26.34-.59.62-.82.95-.42.61-.73,1.19-1.11,1.8-.37.59-.82,1.14-1.09,1.73-.19.41-.29.8-.53,1.19-.08.14-.36.4-.33.54,0,.03,0,.03.03.04.02,0,.03.01.05.02.66-.33.9-1.4,1.18-1.9.27-.49.64-.93.95-1.42l1.05-1.73c.22-.33.54-.61.79-.95.15-.14.3-.29.45-.43.13-.11.27-.23.4-.34.41-.27.78-.49,1.18-.6.19-.05.58-.17.74.11.22.38-.2.74-.49,1.12-.29.38-.88.69-1.24.92ZM80.56,60.42l-.39.42c-.21.28-.59.56-.81.87-.24.35-.49.7-.68,1.06-.27.48-.48.98-.79,1.47-.18.29-.46.52-.68.82-.26.36-.53.73-.79,1.09-.38.52-1.07,1.02-1.55,1.36-.53.38-.84,1.02-1.15,1.46-.19.19-.37.37-.56.56-.59.57-1.12,1.02-1.68,1.25-.19.08-.73.27-.77.5.02.01.03.02.05.03.18.06.5-.13.68-.2.27-.1.54-.21.81-.37.24-.14.48-.4.71-.63.29-.27.59-.54.88-.81.11-.15.23-.31.34-.46.23-.38.49-.88.98-1.22.45-.31,1.03-.69,1.41-1.2.28-.39.52-.73.79-1.11.24-.33.58-.61.78-.93.56-.89.9-1.74,1.57-2.66.28-.3.56-.6.85-.9.3-.34.6-.68.9-1.02.6-.8,1.01-1.45.92-2.25-.1-.89-.83-1.63-1.7-1.86-1.38-.37-2.7.02-4.11.89-.65.4-1.16,1.1-1.54,1.65-.16.23-.36.42-.39.65.05.05.06.04.1.05.36-.26.64-.7.88-1.03.28-.39.75-.84,1.16-1.09,1.28-.8,2.58-1.17,3.83-.83,1.17.32,1.66,1.45,1.4,2.38-.2.71-.9,1.33-1.44,2.05ZM75.66,67.81c.03-.07.06-.1.07-.16,0,0,0-.02-.01-.03-.02-.01-.04-.02-.06-.03-.25.1-.96.6-.91.9.01,0,.02.01.03.02.02,0,.03,0,.05,0,.28-.24.55-.48.83-.71ZM60.85,75.39l.54-.5c.2-.22.4-.43.6-.65.2-.26.55-.57.72-.78.87-1.04,2.19-2.01,3.15-2.6.33-.23.66-.45.99-.68.52-.3,1.05-.59,1.57-.89.64-.32,1.27-.56,1.94-.97.45-.27.84-.68,1.29-.99.32-.3.65-.61.97-.92.53-.37,1.14-.75,1.56-1.32.59-.8,1.03-1.56,1.49-2.37.23-.34.46-.67.69-1.01.35-.55.66-1.1,1.08-1.68.34-.48.86-.97,1.34-1.28.19-.12.36-.31.54-.31h0c.04.52-1.21.99-1.28,1.34,0,0,0,0,0,0,.04.04.04.03.08.04.42-.2,1.1-.62,1.36-1.13.07-.13.21-.39,0-.49-.34-.16-1.34.59-1.74,1.02-.74.8-1.19,1.53-1.66,2.31-.24.35-.48.71-.72,1.06-.45.79-.87,1.57-1.43,2.33-.43.59-1.04.85-1.55,1.26-.27.26-.55.52-.82.79-.42.33-.84.65-1.26.98-.77.47-1.47.75-2.22,1.12-.76.38-1.48.89-2.24,1.37-.59.37-1.11.82-1.71,1.22-.22.2-.45.4-.67.6-.27.19-.81.71-1.01.97-.13.13-.25.25-.38.38-.28.32-.57.64-.85.96-.18.17-.37.34-.55.51-.11.1-.21.19-.32.29-.31.22-.62.55-.92.84l.2.21c.3-.29.6-.6.91-.82.1-.09.2-.18.29-.27Z"/>
    </mask>
  </defs>
  <g id="Layer_1-2" data-name="Layer 1">
    <g>
      <g class="cls-1">
        <path class="cls-2" d="M95.62,50.91c-.02-.38-.06-.76-.11-1.14-.12-.92-.31-1.79-.58-2.58-.25-.76-.56-1.46-.94-2.11-.78-1.32-1.75-2.38-2.9-3.19-1.15-.81-2.43-1.36-3.83-1.67-1.34-.29-2.72-.36-4.14-.19-.07,0-.13.01-.2.02-1.26.16-2.49.44-3.69.85-.82.28-1.63.62-2.43,1.01-.16.07-.3.15-.46.23-1.67.86-3.24,1.92-4.7,3.18-.11.09-.22.18-.32.28-1.69,1.49-3.21,3.19-4.58,5.09-.91,1.26-1.7,2.56-2.39,3.92-.37.7-.7,1.42-1,2.15-.37.89-.7,1.79-.98,2.71-.39,1.25-.69,2.53-.9,3.83,0,.03-.01.06-.02.1-.21,1.29-.31,2.57-.31,3.85,0,.99.06,1.97.18,2.96.09.71.22,1.38.4,2.01.27.98.65,1.87,1.12,2.68.13.22.27.44.42.65.7,1.02,1.53,1.88,2.48,2.56,1.15.83,2.44,1.4,3.86,1.72,1.42.32,2.87.39,4.35.2,2.12-.27,4.16-.89,6.13-1.87,1.97-.97,3.79-2.21,5.47-3.72,1.68-1.51,3.2-3.22,4.56-5.14.65-.93,1.26-1.89,1.81-2.88.37-.67.72-1.36,1.04-2.05.18-.38.35-.77.51-1.16.49-1.18.9-2.38,1.23-3.61.27-1,.49-2.01.65-3.05.05-.29.09-.57.12-.87.2-1.61.24-3.2.11-4.77ZM88.84,57.42c-.01.13-.03.27-.04.4-.21,1.85-.55,3.72-1.04,5.6-.48,1.89-1.1,3.7-1.85,5.46-.75,1.76-1.64,3.33-2.66,4.71-1.02,1.39-2.16,2.51-3.44,3.38-1.28.87-2.69,1.34-4.24,1.42-1.05.05-2.02-.08-2.91-.38-.89-.31-1.67-.87-2.35-1.7-.67-.83-1.22-1.97-1.65-3.42-.22-.75-.4-1.61-.53-2.57h0c-.12-.9-.21-1.9-.25-2.97-.03-.74-.03-1.52,0-2.32.03-.9.11-1.84.22-2.82.21-1.86.55-3.71,1.02-5.58.47-1.86,1.08-3.69,1.83-5.46.75-1.77,1.63-3.35,2.63-4.71.38-.52.79-1,1.21-1.45.69-.73,1.43-1.36,2.22-1.9.28-.19.56-.35.84-.5.77-.41,1.58-.68,2.45-.82.31-.05.63-.09.95-.1.81-.04,1.59.02,2.31.19.21.05.41.1.62.17.9.29,1.7.86,2.38,1.7.69.84,1.25,1.98,1.67,3.42.41,1.39.67,3.17.77,5.34h0c0,.08.01.15.01.23.06,1.43,0,2.99-.17,4.69Z"/>
      </g>
      <g>
        <path class="cls-2" d="M10.82,40.48H0v.23l.14.05c.79.46,1.25.97,1.25,1.9v34.91c0,.92-.46,1.43-1.25,1.9l-.14.09v.23h7.31v-.23l-.05-.05c-.83-.33-1.25-1.02-1.25-1.94v-16.05l4.02-3c4.12-3.1,6.89-7.26,6.89-10.36v-.79c0-4.12-2.4-6.89-6.1-6.89ZM12.3,48.25c0,3.84-1.62,7.95-4.07,10.27l-2.22,2.08v-19.19h3.33c1.8,0,2.96,1.25,2.96,3.05v3.79Z"/>
        <path class="cls-2" d="M31.83,79.42c-.88-.33-1.39-.97-1.52-1.9l-6.71-37.04h-4.12v.23l.18.05c.79.23,1.25.79,1.16,1.39l-5.73,31.82c-.37,2.08-1.11,3.88-2.27,5.41l-.18.19v.23h5.97v-.23l-.42-.23c-1.76-1.53-2.45-3.42-2.03-5.83l1.34-7.49,2.73,2.59c2.73,2.4,4.9,5.78,5.36,8.42l.09.56c.14.92-.18,1.52-.97,1.85l-.37.14v.23h7.72v-.23l-.23-.14ZM17.68,65.13l2.87-15.86,4.02,22.29-6.89-6.43Z"/>
        <path class="cls-2" d="M41.15,57.5c-2.36-3.79-3.75-7.68-3.75-10.73v-.93c0-3.19.97-4.9,2.45-4.9,1.25,0,2.36,1.06,2.87,3.14l3.98,13.55h.23l-.93-17.16h-.23v.18c0,.69-.32,1.16-.88,1.16-.37,0-.79-.18-1.34-.55-.93-.65-2.31-1.25-4.21-1.25-3.93,0-6.57,2.96-6.57,7.35v1.02c0,3.33,1.43,7.49,4.02,11.56l1.76,2.77c2.36,3.79,3.75,7.72,3.75,10.73v.93c0,3.24-.92,4.95-2.4,4.95-1.25,0-2.36-1.06-2.91-3.15l-3.98-13.55h-.23l.93,17.16h.23v-.18c0-.69.32-1.16.88-1.16.37,0,.79.18,1.34.55.93.65,2.36,1.25,4.21,1.25,3.98,0,6.57-2.96,6.57-7.35v-1.06c0-3.33-1.43-7.49-4.02-11.51l-1.76-2.82Z"/>
        <path class="cls-2" d="M56.18,40.94c1.25,0,2.36,1.06,2.87,3.14l3.96,13.5c.07-.18.14-.36.21-.54l-.89-16.56h-.23v.18c0,.69-.33,1.16-.88,1.16-.37,0-.79-.18-1.34-.55-.92-.65-2.31-1.25-4.21-1.25-3.93,0-6.57,2.96-6.57,7.35v1.02c0,3.33,1.43,7.49,4.02,11.56l1.76,2.77c2.36,3.79,3.75,7.72,3.75,10.73v.93c0,3.24-.93,4.95-2.4,4.95-1.25,0-2.36-1.06-2.91-3.15l-3.98-13.55h-.23l.92,17.16h.23v-.18c0-.69.32-1.16.88-1.16.37,0,.79.18,1.34.55.92.65,2.36,1.25,4.21,1.25,3.25,0,5.57-1.97,6.31-5.09-.05-.09-.11-.17-.16-.26-.47-.81-.85-1.7-1.12-2.68-.17-.63-.31-1.31-.4-2.01-.13-.99-.19-1.97-.18-2.96,0-1.03.06-2.07.2-3.1-.58-1.27-1.28-2.56-2.1-3.83l-1.76-2.82c-2.36-3.79-3.75-7.68-3.75-10.73v-.93c0-3.19.97-4.9,2.45-4.9Z"/>
        <path class="cls-2" d="M101.87,57.5c-2.36-3.79-3.75-7.68-3.75-10.73v-.93c0-3.19.97-4.9,2.45-4.9,1.25,0,2.36,1.06,2.87,3.14l3.98,13.55h.23l-.93-17.16h-.23v.18c0,.69-.32,1.16-.88,1.16-.37,0-.79-.18-1.34-.55-.92-.65-2.31-1.25-4.21-1.25-3.11,0-5.41,1.86-6.24,4.81.05.08.1.17.16.25.38.65.7,1.35.94,2.1.27.79.46,1.66.57,2.58.05.38.09.76.11,1.14.13,1.57.09,3.17-.11,4.77-.02.15-.04.3-.06.46.57,1.26,1.27,2.54,2.08,3.81l1.76,2.77c2.36,3.79,3.75,7.72,3.75,10.73v.93c0,3.24-.93,4.95-2.41,4.95-1.25,0-2.36-1.06-2.91-3.15l-3.98-13.55h0c-.06.17-.13.33-.2.5l.9,16.66h.23v-.18c0-.69.32-1.16.88-1.16.37,0,.79.18,1.34.55.93.65,2.36,1.25,4.21,1.25,3.98,0,6.57-2.96,6.57-7.35v-1.06c0-3.33-1.43-7.49-4.02-11.51l-1.76-2.82Z"/>
        <g>
          <path class="cls-2" d="M7.04,7.1c.38,0,.72.31.79.65l2.19,11.01h.17l-.51-12.34H0v.17l.1.03c.58.34.92.72.92,1.4v25.82c0,.68-.34,1.06-.92,1.4l-.1.07v.17h5.4v-.17l-.04-.03c-.61-.24-.92-.75-.92-1.44v-12.55h4.28v-.69h-4.28V7.1h2.6Z"/>
          <path class="cls-2" d="M24.17,35.2c-.65-.24-1.1-.68-1.2-1.37l-1.61-10.84c-.17-1.1-.99-1.71-2.15-1.71h-3.32l2.05-1.54c3.04-2.29,5.09-5.37,5.09-7.66v-.58c0-3.05-1.78-5.1-4.51-5.1h-8v.17l.1.03c.58.34.92.72.92,1.4v25.82c0,.68-.34,1.06-.92,1.4l-.1.07v.17h5.4v-.17l-.03-.03c-.62-.24-.92-.75-.92-1.44v-11.87h1.91c.65,0,1.16.41,1.27,1.06l1.44,10.81c.07.65-.14,1.13-.75,1.37l-.27.1v.17h5.81v-.17l-.2-.1ZM14.97,7.1h2.46c1.33,0,2.19.92,2.19,2.26v2.8c0,2.84-1.2,5.88-3.01,7.59l-1.64,1.54V7.1Z"/>
          <path class="cls-2" d="M32.55,34.15c-.07.34-.41.65-.79.65h-2.6v-17.27h4.28v-.68h-4.28V7.1h2.6c.38,0,.72.31.79.65l2.19,8.1h.17l-.51-9.44h-9.68v.17l.1.03c.58.34.92.72.92,1.4v25.82c0,.68-.34,1.06-.92,1.4l-.1.07v.17h9.68l.51-12.34h-.17l-2.19,11.01Z"/>
          <path class="cls-2" d="M43.25,6.42h-8v.17l.1.03c.58.34.92.72.92,1.4v25.82c0,.68-.34,1.06-.92,1.4l-.1.07v.17h8c2.74,0,4.51-2.05,4.51-5.09V11.51c0-3.05-1.78-5.1-4.51-5.1ZM44.34,32.51c0,1.37-.85,2.29-2.19,2.29h-2.46V7.1h2.46c1.33,0,2.19.92,2.19,2.26v23.15Z"/>
          <path class="cls-2" d="M56.14,34.15c-.07.34-.41.65-.79.65h-2.6v-17.27h4.28v-.68h-4.28V7.1h2.6c.38,0,.72.31.79.65l2.19,8.1h.17l-.51-9.44h-9.68v.17l.1.03c.58.34.93.72.93,1.4v25.82c0,.68-.34,1.06-.93,1.4l-.1.07v.17h9.68l.51-12.34h-.17l-2.19,11.01Z"/>
          <path class="cls-2" d="M72.57,35.2c-.65-.24-1.09-.68-1.2-1.37l-1.61-10.84c-.17-1.1-.99-1.71-2.16-1.71h-3.32l2.05-1.54c3.04-2.29,5.09-5.37,5.09-7.66v-.58c0-3.05-1.78-5.1-4.51-5.1h-8v.17l.1.03c.58.34.92.72.92,1.4v25.82c0,.68-.34,1.06-.92,1.4l-.1.07v.17h5.4v-.17l-.03-.03c-.62-.24-.92-.75-.92-1.44v-11.87h1.92c.65,0,1.16.41,1.26,1.06l1.44,10.81c.07.65-.14,1.13-.75,1.37l-.27.1v.17h6.16v-.17l-.55-.1ZM63.37,7.1h2.46c1.33,0,2.19.92,2.19,2.26v2.8c0,2.84-1.2,5.88-3.01,7.59l-1.64,1.54V7.1Z"/>
          <path class="cls-2" d="M78.82,6.59h.04v-.17h-5.4v.17l.1.03c.58.34.92.72.92,1.4v25.82c0,.68-.34,1.06-.92,1.4l-.1.07v.17h5.4v-.17l-.04-.03c-.61-.24-.92-.75-.92-1.44V8.02c0-.68.27-1.2.92-1.44Z"/>
          <path class="cls-2" d="M90.47,30.73c0,1.92-1.47,3.22-3.73,3.22s-3.66-1.23-3.66-3.05V9.01c0-1.34.82-2.26,2.09-2.26,1.16,0,2.12.82,2.39,1.99l3.42,10.36h.17l-.68-12.69h-.17v.14c0,.51-.21.82-.65.82-.24,0-.58-.1-.99-.38-.72-.48-1.88-.92-3.49-.92-3.32,0-5.51,2.05-5.51,5.1v19.56c0,3.04,2.33,5.1,5.78,5.1s5.71-2.05,5.71-5.1v-7.01h-.68v7.01Z"/>
          <path class="cls-2" d="M105.97,35.21c-.65-.24-1.03-.72-1.13-1.4l-4.96-27.39h-3.04v.17l.14.03c.58.17.92.58.85,1.03l-4.24,23.53c-.27,1.54-.82,2.87-1.67,4l-.14.14v.17h4.41v-.17l-.31-.17c-1.3-1.13-1.81-2.53-1.51-4.31l.99-5.54,2.02,1.92c2.02,1.78,3.62,4.27,3.97,6.22l.07.41c.1.68-.13,1.13-.72,1.37l-.27.1v.17h5.71v-.17l-.17-.1ZM95.51,24.64l2.12-11.73,2.98,16.48-5.1-4.75Z"/>
        </g>
      </g>
      <g>
        <g>
          <path class="cls-2" d="M42.37,86.17l-1-1.35v2.95h-.64v-3.99h.59l1.29,1.7,1.26-1.7h.6v3.99h-.64v-2.95l-1.01,1.36h-.44Z"/>
          <path class="cls-2" d="M48.47,85.48v.59h-2.25v1.11h3.03v.59h-3.67v-3.99h3.67v.59h-3.03v1.1h2.25Z"/>
          <path class="cls-2" d="M50.89,84.8v2.97h-.64v-3.99h.61l2.5,2.97v-2.97h.64v3.99h-.61l-2.5-2.97Z"/>
          <path class="cls-2" d="M58.59,83.78v.59h-1.55v3.4h-.64v-3.4h-1.56v-.59h3.75Z"/>
          <path class="cls-2" d="M62.34,85.48v.59h-2.25v1.11h3.03v.59h-3.67v-3.99h3.67v.59h-3.03v1.1h2.25Z"/>
          <path class="cls-2" d="M67.03,87.54c-.33.2-.73.31-1.21.31s-.86-.09-1.24-.26c-.37-.17-.59-.45-.64-.84v-.07s.63,0,.63,0v.05c.06.19.2.32.43.41.24.08.49.13.75.13.3,0,.56-.05.78-.15s.34-.27.34-.5-.12-.39-.35-.47-.5-.12-.79-.12c-.5,0-.92-.07-1.24-.22-.32-.15-.48-.44-.48-.89,0-.42.16-.72.47-.92.31-.2.7-.3,1.16-.3s.84.09,1.2.26c.35.17.56.45.6.84v.07s-.63,0-.63,0v-.04c-.05-.18-.18-.32-.41-.41s-.46-.13-.71-.13c-.27,0-.51.05-.71.14-.21.1-.31.25-.31.46s.11.36.32.43c.22.07.46.11.72.11.53,0,.96.07,1.31.23.34.15.52.45.52.92,0,.44-.17.76-.5.96Z"/>
          <path class="cls-2" d="M72.01,86.17l-1-1.35v2.95h-.64v-3.99h.59l1.29,1.7,1.26-1.7h.6v3.99h-.64v-2.95l-1.01,1.36h-.44Z"/>
          <path class="cls-2" d="M75.27,84.76c.16-.32.38-.57.68-.77.29-.19.64-.29,1.04-.29s.75.1,1.04.29c.3.19.52.45.68.76.16.32.23.66.23,1.03s-.08.7-.23,1.02c-.16.31-.38.57-.68.76-.3.19-.64.29-1.04.29s-.74-.1-1.04-.29c-.29-.19-.52-.45-.68-.76-.16-.32-.23-.66-.23-1.02s.08-.71.23-1.02ZM75.88,86.47c.1.22.24.4.43.53.19.14.41.2.67.2s.49-.07.68-.2c.19-.13.34-.31.44-.53s.15-.45.15-.7-.05-.49-.15-.71-.25-.4-.44-.54c-.19-.14-.42-.2-.68-.2s-.48.07-.68.2c-.19.14-.33.32-.43.54-.1.22-.15.46-.15.71s.05.48.15.7Z"/>
          <path class="cls-2" d="M82.77,84.05c.29.18.52.42.68.73.16.3.24.64.24,1s-.08.69-.24.99c-.16.3-.39.55-.68.73-.29.18-.64.27-1.02.27h-1.88v-3.99h1.88c.39,0,.73.09,1.02.27ZM81.75,87.18c.26,0,.48-.07.67-.2.19-.13.34-.3.44-.52.1-.21.15-.44.15-.69s-.05-.48-.15-.7-.25-.39-.44-.52c-.19-.13-.42-.2-.67-.2h-1.24v2.81h1.24Z"/>
          <path class="cls-2" d="M87.52,85.48v.59h-2.25v1.11h3.03v.59h-3.67v-3.99h3.67v.59h-3.03v1.1h2.25Z"/>
          <path class="cls-2" d="M89.94,86.07v1.7h-.64v-3.99h2.73c.23,0,.43.05.59.16s.29.24.37.42.13.37.13.57c0,.3-.08.56-.24.78-.16.21-.4.33-.72.36h-.08l.99,1.71h-.71l-.98-1.7h-1.43ZM92.03,85.48c.15,0,.26-.05.34-.15s.11-.23.11-.39-.04-.29-.11-.4c-.07-.11-.19-.17-.33-.17h-2.09v1.1h2.09Z"/>
          <path class="cls-2" d="M94.72,84.8v2.97h-.64v-3.99h.61l2.5,2.97v-2.97h.64v3.99h-.61l-2.5-2.97Z"/>
          <path class="cls-2" d="M102.07,87.77l-.46-1.03h-1.89l-.44,1.03h-.69l1.74-4.02h.63l1.8,4.02h-.7ZM101.4,86.15l-.74-1.66-.71,1.66h1.45Z"/>
          <path class="cls-2" d="M106.4,87.54c-.33.2-.73.31-1.21.31s-.86-.09-1.24-.26c-.37-.17-.59-.45-.64-.84v-.07s.63,0,.63,0v.05c.06.19.2.32.43.41.24.08.49.13.75.13.3,0,.56-.05.78-.15s.34-.27.34-.5-.12-.39-.35-.47-.5-.12-.79-.12c-.51,0-.92-.07-1.24-.22-.32-.15-.48-.44-.48-.89,0-.42.16-.72.47-.92.31-.2.7-.3,1.16-.3s.84.09,1.2.26c.35.17.56.45.6.84v.07s-.63,0-.63,0v-.04c-.05-.18-.18-.32-.41-.41-.22-.09-.46-.13-.71-.13-.27,0-.51.05-.71.14-.21.1-.31.25-.31.46s.11.36.32.43c.22.07.46.11.72.11.53,0,.96.07,1.31.23.34.15.52.45.52.92,0,.44-.17.76-.5.96Z"/>
        </g>
        <g>
          <path class="cls-2" d="M2.9.3c.29.18.52.42.68.73.16.3.24.64.24,1s-.08.69-.24.99c-.16.3-.39.55-.68.73-.29.18-.64.27-1.02.27H0V.03h1.88c.39,0,.73.09,1.02.27ZM1.88,3.43c.26,0,.48-.07.67-.2.19-.13.34-.3.44-.52.1-.21.15-.44.15-.69s-.05-.48-.15-.7c-.1-.22-.25-.39-.44-.52s-.42-.2-.67-.2H.64v2.81h1.24Z"/>
          <path class="cls-2" d="M5.4,2.32v1.7h-.64V.03h2.73c.23,0,.43.05.59.16s.29.24.37.42c.08.17.13.37.13.57,0,.3-.08.56-.24.78-.16.21-.4.33-.72.36h-.08l.98,1.71h-.71l-.98-1.7h-1.43ZM7.49,1.72c.15,0,.26-.05.34-.15s.11-.23.11-.39-.04-.29-.11-.4c-.07-.11-.19-.17-.33-.17h-2.09v1.1h2.09Z"/>
          <path class="cls-2" d="M12.67,4.02l-.46-1.03h-1.89l-.44,1.03h-.68l1.74-4.02h.63l1.8,4.02h-.7ZM12.01,2.4l-.74-1.66-.71,1.66h1.45Z"/>
          <path class="cls-2" d="M14.19,3.31c.07-.09.18-.13.32-.13s.25.04.32.13c.08.09.11.2.11.32s-.04.24-.11.33c-.08.09-.18.13-.32.13s-.25-.05-.32-.13c-.07-.09-.11-.2-.11-.33s.04-.24.11-.32Z"/>
        </g>
      </g>
    </g>
  </g>
</svg>